<?xml version="1.0" encoding="UTF-8"?>
<svg xmlns="http://www.w3.org/2000/svg">
   <g transform="translate(100, 75)">
      <line x1="-10" y1="-0" x2="0" y2="-0" stroke="black"/>
      <line x1="49.800000000000004"
            y1="-10"
            x2="49.800000000000004"
            y2="10"
            stroke="black"/>
      <line x1="0" y1="-0" x2="498" y2="-0" stroke="lightgrey"/>
      <text x="-15" y="-0" text-anchor="end" alignment-baseline="central">0</text>
      <text x="52.800000000000004"
            y="3"
            text-anchor="start"
            alignment-baseline="hanging">10%</text>
      <line x1="-10" y1="-0" x2="0" y2="-0" stroke="black"/>
      <line x1="99.60000000000001"
            y1="-10"
            x2="99.60000000000001"
            y2="10"
            stroke="black"/>
      <line x1="0" y1="-0" x2="498" y2="-0" stroke="lightgrey"/>
      <text x="-15" y="-0" text-anchor="end" alignment-baseline="central">0</text>
      <text x="102.60000000000001"
            y="3"
            text-anchor="start"
            alignment-baseline="hanging">20%</text>
      <line x1="-10" y1="-0" x2="0" y2="-0" stroke="black"/>
      <line x1="149.39999999999998"
            y1="-10"
            x2="149.39999999999998"
            y2="10"
            stroke="black"/>
      <line x1="0" y1="-0" x2="498" y2="-0" stroke="lightgrey"/>
      <text x="-15" y="-0" text-anchor="end" alignment-baseline="central">0</text>
      <text x="152.39999999999998"
            y="3"
            text-anchor="start"
            alignment-baseline="hanging">30%</text>
      <line x1="-10" y1="-0" x2="0" y2="-0" stroke="black"/>
      <line x1="199.20000000000002"
            y1="-10"
            x2="199.20000000000002"
            y2="10"
            stroke="black"/>
      <line x1="0" y1="-0" x2="498" y2="-0" stroke="lightgrey"/>
      <text x="-15" y="-0" text-anchor="end" alignment-baseline="central">0</text>
      <text x="202.20000000000002"
            y="3"
            text-anchor="start"
            alignment-baseline="hanging">40%</text>
      <line x1="-10" y1="-0" x2="0" y2="-0" stroke="black"/>
      <line x1="249" y1="-10" x2="249" y2="10" stroke="black"/>
      <line x1="0" y1="-0" x2="498" y2="-0" stroke="lightgrey"/>
      <text x="-15" y="-0" text-anchor="end" alignment-baseline="central">0</text>
      <text x="252" y="3" text-anchor="start" alignment-baseline="hanging">50%</text>
      <line x1="-10" y1="-0" x2="0" y2="-0" stroke="black"/>
      <line x1="298.79999999999995"
            y1="-10"
            x2="298.79999999999995"
            y2="10"
            stroke="black"/>
      <line x1="0" y1="-0" x2="498" y2="-0" stroke="lightgrey"/>
      <text x="-15" y="-0" text-anchor="end" alignment-baseline="central">0</text>
      <text x="301.79999999999995"
            y="3"
            text-anchor="start"
            alignment-baseline="hanging">60%</text>
      <line x1="-10" y1="-0" x2="0" y2="-0" stroke="black"/>
      <line x1="348.6" y1="-10" x2="348.6" y2="10" stroke="black"/>
      <line x1="0" y1="-0" x2="498" y2="-0" stroke="lightgrey"/>
      <text x="-15" y="-0" text-anchor="end" alignment-baseline="central">0</text>
      <text x="351.6"
            y="3"
            text-anchor="start"
            alignment-baseline="hanging">70%</text>
      <line x1="-10" y1="-0" x2="0" y2="-0" stroke="black"/>
      <line x1="398.40000000000003"
            y1="-10"
            x2="398.40000000000003"
            y2="10"
            stroke="black"/>
      <line x1="0" y1="-0" x2="498" y2="-0" stroke="lightgrey"/>
      <text x="-15" y="-0" text-anchor="end" alignment-baseline="central">0</text>
      <text x="401.40000000000003"
            y="3"
            text-anchor="start"
            alignment-baseline="hanging">80%</text>
      <line x1="-10" y1="-0" x2="0" y2="-0" stroke="black"/>
      <line x1="448.20000000000005"
            y1="-10"
            x2="448.20000000000005"
            y2="10"
            stroke="black"/>
      <line x1="0" y1="-0" x2="498" y2="-0" stroke="lightgrey"/>
      <text x="-15" y="-0" text-anchor="end" alignment-baseline="central">0</text>
      <text x="451.20000000000005"
            y="3"
            text-anchor="start"
            alignment-baseline="hanging">90%</text>
      <line x1="-10" y1="-0" x2="0" y2="-0" stroke="black"/>
      <line x1="498" y1="-10" x2="498" y2="10" stroke="black"/>
      <line x1="0" y1="-0" x2="498" y2="-0" stroke="lightgrey"/>
      <text x="-15" y="-0" text-anchor="end" alignment-baseline="central">0</text>
      <text x="501" y="3" text-anchor="start" alignment-baseline="hanging">100%</text>
      <line x1="-10" y1="0" x2="0" y2="0" stroke="black"/>
      <text x="-15" y="0" text-anchor="end" alignment-baseline="central">0</text>
      <circle r="3" cx="3" cy="-0" fill="#00FDFF"/>
      <circle r="3" cx="3" cy="-0" fill="#FFC300"/>
      <circle r="3" cx="6" cy="-0" fill="#00FDFF"/>
      <circle r="3" cx="6" cy="-0" fill="#FFC300"/>
      <circle r="3" cx="9" cy="-0" fill="#00FDFF"/>
      <circle r="3" cx="9" cy="-0" fill="#FFC300"/>
      <circle r="3" cx="12" cy="-0" fill="#00FDFF"/>
      <circle r="3" cx="12" cy="-0" fill="#FFC300"/>
      <circle r="3" cx="15" cy="-0" fill="#00FDFF"/>
      <circle r="3" cx="15" cy="-0" fill="#FFC300"/>
      <circle r="3" cx="18" cy="-0" fill="#00FDFF"/>
      <circle r="3" cx="18" cy="-0" fill="#FFC300"/>
      <circle r="3" cx="21" cy="-0" fill="#00FDFF"/>
      <circle r="3" cx="21" cy="-0" fill="#FFC300"/>
      <circle r="3" cx="24" cy="-0" fill="#00FDFF"/>
      <circle r="3" cx="24" cy="-0" fill="#FFC300"/>
      <circle r="3" cx="27" cy="-0" fill="#00FDFF"/>
      <circle r="3" cx="27" cy="-0" fill="#FFC300"/>
      <circle r="3" cx="30" cy="-0" fill="#00FDFF"/>
      <circle r="3" cx="30" cy="-0" fill="#FFC300"/>
      <circle r="3" cx="33" cy="-0" fill="#00FDFF"/>
      <circle r="3" cx="33" cy="-0" fill="#FFC300"/>
      <circle r="3" cx="36" cy="-0" fill="#00FDFF"/>
      <circle r="3" cx="36" cy="-0" fill="#FFC300"/>
      <circle r="3" cx="39" cy="-0" fill="#00FDFF"/>
      <circle r="3" cx="39" cy="-0" fill="#FFC300"/>
      <circle r="3" cx="42" cy="-0" fill="#00FDFF"/>
      <circle r="3" cx="42" cy="-0" fill="#FFC300"/>
      <circle r="3" cx="45" cy="-0" fill="#00FDFF"/>
      <circle r="3" cx="45" cy="-0" fill="#FFC300"/>
      <circle r="3" cx="48" cy="-0" fill="#00FDFF"/>
      <circle r="3" cx="48" cy="-0" fill="#FFC300"/>
      <circle r="3" cx="51" cy="-0" fill="#00FDFF"/>
      <circle r="3" cx="51" cy="-0" fill="#FFC300"/>
      <circle r="3" cx="54" cy="-0" fill="#00FDFF"/>
      <circle r="3" cx="54" cy="-0" fill="#FFC300"/>
      <circle r="3" cx="57" cy="-0" fill="#00FDFF"/>
      <circle r="3" cx="57" cy="-0" fill="#FFC300"/>
      <circle r="3" cx="60" cy="-0" fill="#00FDFF"/>
      <circle r="3" cx="60" cy="-0" fill="#FFC300"/>
      <circle r="3" cx="63" cy="-0" fill="#00FDFF"/>
      <circle r="3" cx="63" cy="-0" fill="#FFC300"/>
      <circle r="3" cx="66" cy="-0" fill="#00FDFF"/>
      <circle r="3" cx="66" cy="-0" fill="#FFC300"/>
      <circle r="3" cx="69" cy="-0" fill="#00FDFF"/>
      <circle r="3" cx="69" cy="-0" fill="#FFC300"/>
      <circle r="3" cx="72" cy="-0" fill="#00FDFF"/>
      <circle r="3" cx="72" cy="-0" fill="#FFC300"/>
      <circle r="3" cx="75" cy="-0" fill="#00FDFF"/>
      <circle r="3" cx="75" cy="-0" fill="#FFC300"/>
      <circle r="3" cx="78" cy="-0" fill="#00FDFF"/>
      <circle r="3" cx="78" cy="-0" fill="#FFC300"/>
      <circle r="3" cx="81" cy="-0" fill="#00FDFF"/>
      <circle r="3" cx="81" cy="-0" fill="#FFC300"/>
      <circle r="3" cx="84" cy="-0" fill="#00FDFF"/>
      <circle r="3" cx="84" cy="-0" fill="#FFC300"/>
      <circle r="3" cx="87" cy="-0" fill="#00FDFF"/>
      <circle r="3" cx="87" cy="-0" fill="#FFC300"/>
      <circle r="3" cx="90" cy="-0" fill="#00FDFF"/>
      <circle r="3" cx="90" cy="-0" fill="#FFC300"/>
      <circle r="3" cx="93" cy="-0" fill="#00FDFF"/>
      <circle r="3" cx="93" cy="-0" fill="#FFC300"/>
      <circle r="3" cx="96" cy="-0" fill="#00FDFF"/>
      <circle r="3" cx="96" cy="-0" fill="#FFC300"/>
      <circle r="3" cx="99" cy="-0" fill="#00FDFF"/>
      <circle r="3" cx="99" cy="-0" fill="#FFC300"/>
      <circle r="3" cx="102" cy="-0" fill="#00FDFF"/>
      <circle r="3" cx="102" cy="-0" fill="#FFC300"/>
      <circle r="3" cx="105" cy="-0" fill="#00FDFF"/>
      <circle r="3" cx="105" cy="-0" fill="#FFC300"/>
      <circle r="3" cx="108" cy="-0" fill="#00FDFF"/>
      <circle r="3" cx="108" cy="-0" fill="#FFC300"/>
      <circle r="3" cx="111" cy="-0" fill="#00FDFF"/>
      <circle r="3" cx="111" cy="-0" fill="#FFC300"/>
      <circle r="3" cx="114" cy="-0" fill="#00FDFF"/>
      <circle r="3" cx="114" cy="-0" fill="#FFC300"/>
      <circle r="3" cx="117" cy="-0" fill="#00FDFF"/>
      <circle r="3" cx="117" cy="-0" fill="#FFC300"/>
      <circle r="3" cx="120" cy="-0" fill="#00FDFF"/>
      <circle r="3" cx="120" cy="-0" fill="#FFC300"/>
      <circle r="3" cx="123" cy="-0" fill="#00FDFF"/>
      <circle r="3" cx="123" cy="-0" fill="#FFC300"/>
      <circle r="3" cx="126" cy="-0" fill="#00FDFF"/>
      <circle r="3" cx="126" cy="-0" fill="#FFC300"/>
      <circle r="3" cx="129" cy="-0" fill="#00FDFF"/>
      <circle r="3" cx="129" cy="-0" fill="#FFC300"/>
      <circle r="3" cx="132" cy="-0" fill="#00FDFF"/>
      <circle r="3" cx="132" cy="-0" fill="#FFC300"/>
      <circle r="3" cx="135" cy="-0" fill="#00FDFF"/>
      <circle r="3" cx="135" cy="-0" fill="#FFC300"/>
      <circle r="3" cx="138" cy="-0" fill="#00FDFF"/>
      <circle r="3" cx="138" cy="-0" fill="#FFC300"/>
      <circle r="3" cx="141" cy="-0" fill="#00FDFF"/>
      <circle r="3" cx="141" cy="-0" fill="#FFC300"/>
      <circle r="3" cx="144" cy="-0" fill="#00FDFF"/>
      <circle r="3" cx="144" cy="-0" fill="#FFC300"/>
      <circle r="3" cx="147" cy="-0" fill="#00FDFF"/>
      <circle r="3" cx="147" cy="-0" fill="#FFC300"/>
      <circle r="3" cx="150" cy="-0" fill="#00FDFF"/>
      <circle r="3" cx="150" cy="-0" fill="#FFC300"/>
      <circle r="3" cx="153" cy="-0" fill="#00FDFF"/>
      <circle r="3" cx="153" cy="-0" fill="#FFC300"/>
      <circle r="3" cx="156" cy="-0" fill="#00FDFF"/>
      <circle r="3" cx="156" cy="-0" fill="#FFC300"/>
      <circle r="3" cx="159" cy="-0" fill="#00FDFF"/>
      <circle r="3" cx="159" cy="-0" fill="#FFC300"/>
      <circle r="3" cx="162" cy="-0" fill="#00FDFF"/>
      <circle r="3" cx="162" cy="-0" fill="#FFC300"/>
      <circle r="3" cx="165" cy="-0" fill="#00FDFF"/>
      <circle r="3" cx="165" cy="-0" fill="#FFC300"/>
      <circle r="3" cx="168" cy="-0" fill="#00FDFF"/>
      <circle r="3" cx="168" cy="-0" fill="#FFC300"/>
      <circle r="3" cx="171" cy="-0" fill="#00FDFF"/>
      <circle r="3" cx="171" cy="-0" fill="#FFC300"/>
      <circle r="3" cx="174" cy="-0" fill="#00FDFF"/>
      <circle r="3" cx="174" cy="-0" fill="#FFC300"/>
      <circle r="3" cx="177" cy="-0" fill="#00FDFF"/>
      <circle r="3" cx="177" cy="-0" fill="#FFC300"/>
      <circle r="3" cx="180" cy="-0" fill="#00FDFF"/>
      <circle r="3" cx="180" cy="-0" fill="#FFC300"/>
      <circle r="3" cx="183" cy="-0" fill="#00FDFF"/>
      <circle r="3" cx="183" cy="-0" fill="#FFC300"/>
      <circle r="3" cx="186" cy="-0" fill="#00FDFF"/>
      <circle r="3" cx="186" cy="-0" fill="#FFC300"/>
      <circle r="3" cx="189" cy="-0" fill="#00FDFF"/>
      <circle r="3" cx="189" cy="-0" fill="#FFC300"/>
      <circle r="3" cx="192" cy="-0" fill="#00FDFF"/>
      <circle r="3" cx="192" cy="-0" fill="#FFC300"/>
      <circle r="3" cx="195" cy="-0" fill="#00FDFF"/>
      <circle r="3" cx="195" cy="-0" fill="#FFC300"/>
      <circle r="3" cx="198" cy="-0" fill="#00FDFF"/>
      <circle r="3" cx="198" cy="-0" fill="#FFC300"/>
      <circle r="3" cx="201" cy="-0" fill="#00FDFF"/>
      <circle r="3" cx="201" cy="-0" fill="#FFC300"/>
      <circle r="3" cx="204" cy="-0" fill="#00FDFF"/>
      <circle r="3" cx="204" cy="-0" fill="#FFC300"/>
      <circle r="3" cx="207" cy="-0" fill="#00FDFF"/>
      <circle r="3" cx="207" cy="-0" fill="#FFC300"/>
      <circle r="3" cx="210" cy="-0" fill="#00FDFF"/>
      <circle r="3" cx="210" cy="-0" fill="#FFC300"/>
      <circle r="3" cx="213" cy="-0" fill="#00FDFF"/>
      <circle r="3" cx="213" cy="-0" fill="#FFC300"/>
      <circle r="3" cx="216" cy="-0" fill="#00FDFF"/>
      <circle r="3" cx="216" cy="-0" fill="#FFC300"/>
      <circle r="3" cx="219" cy="-0" fill="#00FDFF"/>
      <circle r="3" cx="219" cy="-0" fill="#FFC300"/>
      <circle r="3" cx="222" cy="-0" fill="#00FDFF"/>
      <circle r="3" cx="222" cy="-0" fill="#FFC300"/>
      <circle r="3" cx="225" cy="-0" fill="#00FDFF"/>
      <circle r="3" cx="225" cy="-0" fill="#FFC300"/>
      <circle r="3" cx="228" cy="-0" fill="#00FDFF"/>
      <circle r="3" cx="228" cy="-0" fill="#FFC300"/>
      <circle r="3" cx="231" cy="-0" fill="#00FDFF"/>
      <circle r="3" cx="231" cy="-0" fill="#FFC300"/>
      <circle r="3" cx="234" cy="-0" fill="#00FDFF"/>
      <circle r="3" cx="234" cy="-0" fill="#FFC300"/>
      <circle r="3" cx="237" cy="-0" fill="#00FDFF"/>
      <circle r="3" cx="237" cy="-0" fill="#FFC300"/>
      <circle r="3" cx="240" cy="-0" fill="#00FDFF"/>
      <circle r="3" cx="240" cy="-0" fill="#FFC300"/>
      <circle r="3" cx="243" cy="-0" fill="#00FDFF"/>
      <circle r="3" cx="243" cy="-0" fill="#FFC300"/>
      <circle r="3" cx="246" cy="-0" fill="#00FDFF"/>
      <circle r="3" cx="246" cy="-0" fill="#FFC300"/>
      <circle r="3" cx="249" cy="-0" fill="#00FDFF"/>
      <circle r="3" cx="249" cy="-0" fill="#FFC300"/>
      <circle r="3" cx="252" cy="-0" fill="#00FDFF"/>
      <circle r="3" cx="252" cy="-0" fill="#FFC300"/>
      <circle r="3" cx="255" cy="-0" fill="#00FDFF"/>
      <circle r="3" cx="255" cy="-0" fill="#FFC300"/>
      <circle r="3" cx="258" cy="-0" fill="#00FDFF"/>
      <circle r="3" cx="258" cy="-0" fill="#FFC300"/>
      <circle r="3" cx="261" cy="-0" fill="#00FDFF"/>
      <circle r="3" cx="261" cy="-0" fill="#FFC300"/>
      <circle r="3" cx="264" cy="-0" fill="#00FDFF"/>
      <circle r="3" cx="264" cy="-0" fill="#FFC300"/>
      <circle r="3" cx="267" cy="-0" fill="#00FDFF"/>
      <circle r="3" cx="267" cy="-0" fill="#FFC300"/>
      <circle r="3" cx="270" cy="-0" fill="#00FDFF"/>
      <circle r="3" cx="270" cy="-0" fill="#FFC300"/>
      <circle r="3" cx="273" cy="-0" fill="#00FDFF"/>
      <circle r="3" cx="273" cy="-0" fill="#FFC300"/>
      <circle r="3" cx="276" cy="-0" fill="#00FDFF"/>
      <circle r="3" cx="276" cy="-0" fill="#FFC300"/>
      <circle r="3" cx="279" cy="-0" fill="#00FDFF"/>
      <circle r="3" cx="279" cy="-0" fill="#FFC300"/>
      <circle r="3" cx="282" cy="-0" fill="#00FDFF"/>
      <circle r="3" cx="282" cy="-0" fill="#FFC300"/>
      <circle r="3" cx="285" cy="-0" fill="#00FDFF"/>
      <circle r="3" cx="285" cy="-0" fill="#FFC300"/>
      <circle r="3" cx="288" cy="-0" fill="#00FDFF"/>
      <circle r="3" cx="288" cy="-0" fill="#FFC300"/>
      <circle r="3" cx="291" cy="-0" fill="#00FDFF"/>
      <circle r="3" cx="291" cy="-0" fill="#FFC300"/>
      <circle r="3" cx="294" cy="-0" fill="#00FDFF"/>
      <circle r="3" cx="294" cy="-0" fill="#FFC300"/>
      <circle r="3" cx="297" cy="-0" fill="#00FDFF"/>
      <circle r="3" cx="297" cy="-0" fill="#FFC300"/>
      <circle r="3" cx="300" cy="-0" fill="#00FDFF"/>
      <circle r="3" cx="300" cy="-0" fill="#FFC300"/>
      <circle r="3" cx="303" cy="-0" fill="#00FDFF"/>
      <circle r="3" cx="303" cy="-0" fill="#FFC300"/>
      <circle r="3" cx="306" cy="-0" fill="#00FDFF"/>
      <circle r="3" cx="306" cy="-0" fill="#FFC300"/>
      <circle r="3" cx="309" cy="-0" fill="#00FDFF"/>
      <circle r="3" cx="309" cy="-0" fill="#FFC300"/>
      <circle r="3" cx="312" cy="-0" fill="#00FDFF"/>
      <circle r="3" cx="312" cy="-0" fill="#FFC300"/>
      <circle r="3" cx="315" cy="-0" fill="#00FDFF"/>
      <circle r="3" cx="315" cy="-0" fill="#FFC300"/>
      <circle r="3" cx="318" cy="-0" fill="#00FDFF"/>
      <circle r="3" cx="318" cy="-0" fill="#FFC300"/>
      <circle r="3" cx="321" cy="-0" fill="#00FDFF"/>
      <circle r="3" cx="321" cy="-0" fill="#FFC300"/>
      <circle r="3" cx="324" cy="-0" fill="#00FDFF"/>
      <circle r="3" cx="324" cy="-0" fill="#FFC300"/>
      <circle r="3" cx="327" cy="-0" fill="#00FDFF"/>
      <circle r="3" cx="327" cy="-0" fill="#FFC300"/>
      <circle r="3" cx="330" cy="-0" fill="#00FDFF"/>
      <circle r="3" cx="330" cy="-0" fill="#FFC300"/>
      <circle r="3" cx="333" cy="-0" fill="#00FDFF"/>
      <circle r="3" cx="333" cy="-0" fill="#FFC300"/>
      <circle r="3" cx="336" cy="-0" fill="#00FDFF"/>
      <circle r="3" cx="336" cy="-0" fill="#FFC300"/>
      <circle r="3" cx="339" cy="-0" fill="#00FDFF"/>
      <circle r="3" cx="339" cy="-0" fill="#FFC300"/>
      <circle r="3" cx="342" cy="-0" fill="#00FDFF"/>
      <circle r="3" cx="342" cy="-0" fill="#FFC300"/>
      <circle r="3" cx="345" cy="-0" fill="#00FDFF"/>
      <circle r="3" cx="345" cy="-0" fill="#FFC300"/>
      <circle r="3" cx="348" cy="-0" fill="#00FDFF"/>
      <circle r="3" cx="348" cy="-0" fill="#FFC300"/>
      <circle r="3" cx="351" cy="-0" fill="#00FDFF"/>
      <circle r="3" cx="351" cy="-0" fill="#FFC300"/>
      <circle r="3" cx="354" cy="-0" fill="#00FDFF"/>
      <circle r="3" cx="354" cy="-0" fill="#FFC300"/>
      <circle r="3" cx="357" cy="-0" fill="#00FDFF"/>
      <circle r="3" cx="357" cy="-0" fill="#FFC300"/>
      <circle r="3" cx="360" cy="-0" fill="#00FDFF"/>
      <circle r="3" cx="360" cy="-0" fill="#FFC300"/>
      <circle r="3" cx="363" cy="-0" fill="#00FDFF"/>
      <circle r="3" cx="363" cy="-0" fill="#FFC300"/>
      <circle r="3" cx="366" cy="-0" fill="#00FDFF"/>
      <circle r="3" cx="366" cy="-0" fill="#FFC300"/>
      <circle r="3" cx="369" cy="-0" fill="#00FDFF"/>
      <circle r="3" cx="369" cy="-0" fill="#FFC300"/>
      <circle r="3" cx="372" cy="-0" fill="#00FDFF"/>
      <circle r="3" cx="372" cy="-0" fill="#FFC300"/>
      <circle r="3" cx="375" cy="-0" fill="#00FDFF"/>
      <circle r="3" cx="375" cy="-0" fill="#FFC300"/>
      <circle r="3" cx="378" cy="-0" fill="#00FDFF"/>
      <circle r="3" cx="378" cy="-0" fill="#FFC300"/>
      <circle r="3" cx="381" cy="-0" fill="#00FDFF"/>
      <circle r="3" cx="381" cy="-0" fill="#FFC300"/>
      <circle r="3" cx="384" cy="-0" fill="#00FDFF"/>
      <circle r="3" cx="384" cy="-0" fill="#FFC300"/>
      <circle r="3" cx="387" cy="-0" fill="#00FDFF"/>
      <circle r="3" cx="387" cy="-0" fill="#FFC300"/>
      <circle r="3" cx="390" cy="-0" fill="#00FDFF"/>
      <circle r="3" cx="390" cy="-0" fill="#FFC300"/>
      <circle r="3" cx="393" cy="-0" fill="#00FDFF"/>
      <circle r="3" cx="393" cy="-0" fill="#FFC300"/>
      <circle r="3" cx="396" cy="-0" fill="#00FDFF"/>
      <circle r="3" cx="396" cy="-0" fill="#FFC300"/>
      <circle r="3" cx="399" cy="-0" fill="#00FDFF"/>
      <circle r="3" cx="399" cy="-0" fill="#FFC300"/>
      <circle r="3" cx="402" cy="-0" fill="#00FDFF"/>
      <circle r="3" cx="402" cy="-0" fill="#FFC300"/>
      <circle r="3" cx="405" cy="-0" fill="#00FDFF"/>
      <circle r="3" cx="405" cy="-0" fill="#FFC300"/>
      <circle r="3" cx="408" cy="-0" fill="#00FDFF"/>
      <circle r="3" cx="408" cy="-0" fill="#FFC300"/>
      <circle r="3" cx="411" cy="-0" fill="#00FDFF"/>
      <circle r="3" cx="411" cy="-0" fill="#FFC300"/>
      <circle r="3" cx="414" cy="-0" fill="#00FDFF"/>
      <circle r="3" cx="414" cy="-0" fill="#FFC300"/>
      <circle r="3" cx="417" cy="-0" fill="#00FDFF"/>
      <circle r="3" cx="417" cy="-0" fill="#FFC300"/>
      <circle r="3" cx="420" cy="-0" fill="#00FDFF"/>
      <circle r="3" cx="420" cy="-0" fill="#FFC300"/>
      <circle r="3" cx="423" cy="-0" fill="#00FDFF"/>
      <circle r="3" cx="423" cy="-0" fill="#FFC300"/>
      <circle r="3" cx="426" cy="-0" fill="#00FDFF"/>
      <circle r="3" cx="426" cy="-0" fill="#FFC300"/>
      <circle r="3" cx="429" cy="-0" fill="#00FDFF"/>
      <circle r="3" cx="429" cy="-0" fill="#FFC300"/>
      <circle r="3" cx="432" cy="-0" fill="#00FDFF"/>
      <circle r="3" cx="432" cy="-0" fill="#FFC300"/>
      <circle r="3" cx="435" cy="-0" fill="#00FDFF"/>
      <circle r="3" cx="435" cy="-0" fill="#FFC300"/>
      <circle r="3" cx="438" cy="-0" fill="#00FDFF"/>
      <circle r="3" cx="438" cy="-0" fill="#FFC300"/>
      <circle r="3" cx="441" cy="-0" fill="#00FDFF"/>
      <circle r="3" cx="441" cy="-0" fill="#FFC300"/>
      <circle r="3" cx="444" cy="-0" fill="#00FDFF"/>
      <circle r="3" cx="444" cy="-0" fill="#FFC300"/>
      <circle r="3" cx="447" cy="-0" fill="#00FDFF"/>
      <circle r="3" cx="447" cy="-0" fill="#FFC300"/>
      <circle r="3" cx="450" cy="-0" fill="#00FDFF"/>
      <circle r="3" cx="450" cy="-0" fill="#FFC300"/>
      <circle r="3" cx="453" cy="-0" fill="#00FDFF"/>
      <circle r="3" cx="453" cy="-0" fill="#FFC300"/>
      <circle r="3" cx="456" cy="-0" fill="#00FDFF"/>
      <circle r="3" cx="456" cy="-0" fill="#FFC300"/>
      <circle r="3" cx="459" cy="-0" fill="#00FDFF"/>
      <circle r="3" cx="459" cy="-0" fill="#FFC300"/>
      <circle r="3" cx="462" cy="-0" fill="#00FDFF"/>
      <circle r="3" cx="462" cy="-0" fill="#FFC300"/>
      <circle r="3" cx="465" cy="-0" fill="#00FDFF"/>
      <circle r="3" cx="465" cy="-0" fill="#FFC300"/>
      <circle r="3" cx="468" cy="-0" fill="#00FDFF"/>
      <circle r="3" cx="468" cy="-0" fill="#FFC300"/>
      <circle r="3" cx="471" cy="-0" fill="#00FDFF"/>
      <circle r="3" cx="471" cy="-0" fill="#FFC300"/>
      <circle r="3" cx="474" cy="-0" fill="#00FDFF"/>
      <circle r="3" cx="474" cy="-0" fill="#FFC300"/>
      <circle r="3" cx="477" cy="-0" fill="#00FDFF"/>
      <circle r="3" cx="477" cy="-0" fill="#FFC300"/>
      <circle r="3" cx="480" cy="-0" fill="#00FDFF"/>
      <circle r="3" cx="480" cy="-0" fill="#FFC300"/>
      <circle r="3" cx="483" cy="-0" fill="#00FDFF"/>
      <circle r="3" cx="483" cy="-0" fill="#FFC300"/>
      <circle r="3" cx="486" cy="-0" fill="#00FDFF"/>
      <circle r="3" cx="486" cy="-0" fill="#FFC300"/>
      <circle r="3" cx="489" cy="-0" fill="#00FDFF"/>
      <circle r="3" cx="489" cy="-0" fill="#FFC300"/>
      <circle r="3" cx="492" cy="-0" fill="#00FDFF"/>
      <circle r="3" cx="492" cy="-0" fill="#FFC300"/>
      <circle r="3" cx="495" cy="-0" fill="#00FDFF"/>
      <circle r="3" cx="495" cy="-0" fill="#FFC300"/>
      <circle r="3" cx="498" cy="-0" fill="#00FDFF"/>
      <circle r="3" cx="498" cy="-0" fill="#FFC300"/>
      <text x="504"
            y="-0"
            text-anchor="start"
            alignment-baseline="central"
            fill="#00FDFF">divine</text>
      <text x="504"
            y="-0"
            text-anchor="start"
            alignment-baseline="central"
            fill="#FFC300">earthly</text>
      <line x1="0" y1="0" x2="498" y2="0" stroke="black"/>
      <line x1="0" y1="0" x2="0" y2="-25" stroke="black"/>
      <text x="-50"
            y="-0"
            text-anchor="middle"
            font-size="larger"
            transform="rotate(-90 -50 -0)">Occurrences</text>
      <text x="501"
            y="-3"
            text-anchor="start"
            font-size="larger"
            alignment-baseline="baseline">Percentage
                    of Scene</text>
      <text x="249"
            y="-50"
            text-anchor="middle"
            font-size="larger"
            text-decoration="underline">OCCURRENCE OF DIVINE AND
                    EARTHLY TRAITS THROUGHOUT SCENE X.
                        THE NEIGHBOR'S HOUSE</text>
   </g>
</svg>
