<?xml version="1.0" encoding="UTF-8"?>
<svg xmlns="http://www.w3.org/2000/svg" viewBox="0 -70 610 203">
   <g transform="translate(100, 78)">
      <line x1="-10" y1="-12" x2="0" y2="-12" stroke="black"/>
      <line x1="44" y1="-10" x2="44" y2="10" stroke="black"/>
      <line x1="0" y1="-12" x2="440" y2="-12" stroke="lightgrey"/>
      <text x="-15" y="-12" text-anchor="end" alignment-baseline="central">2</text>
      <text x="43" y="3" text-anchor="end" alignment-baseline="hanging">10%</text>
      <line x1="-10" y1="-24" x2="0" y2="-24" stroke="black"/>
      <line x1="88" y1="-10" x2="88" y2="10" stroke="black"/>
      <line x1="0" y1="-24" x2="440" y2="-24" stroke="lightgrey"/>
      <text x="-15" y="-24" text-anchor="end" alignment-baseline="central">4</text>
      <text x="87" y="3" text-anchor="end" alignment-baseline="hanging">20%</text>
      <line x1="-10" y1="-36" x2="0" y2="-36" stroke="black"/>
      <line x1="132" y1="-10" x2="132" y2="10" stroke="black"/>
      <line x1="0" y1="-36" x2="440" y2="-36" stroke="lightgrey"/>
      <text x="-15" y="-36" text-anchor="end" alignment-baseline="central">6</text>
      <text x="131" y="3" text-anchor="end" alignment-baseline="hanging">30%</text>
      <line x1="-10" y1="-48" x2="0" y2="-48" stroke="black"/>
      <line x1="176" y1="-10" x2="176" y2="10" stroke="black"/>
      <line x1="0" y1="-48" x2="440" y2="-48" stroke="lightgrey"/>
      <text x="-15" y="-48" text-anchor="end" alignment-baseline="central">8</text>
      <text x="175" y="3" text-anchor="end" alignment-baseline="hanging">40%</text>
      <line x1="-10" y1="-60" x2="0" y2="-60" stroke="black"/>
      <line x1="220" y1="-10" x2="220" y2="10" stroke="black"/>
      <line x1="0" y1="-60" x2="440" y2="-60" stroke="lightgrey"/>
      <text x="-15" y="-60" text-anchor="end" alignment-baseline="central">10</text>
      <text x="219" y="3" text-anchor="end" alignment-baseline="hanging">50%</text>
      <line x1="-10" y1="-72" x2="0" y2="-72" stroke="black"/>
      <line x1="264" y1="-10" x2="264" y2="10" stroke="black"/>
      <line x1="0" y1="-72" x2="440" y2="-72" stroke="lightgrey"/>
      <text x="-15" y="-72" text-anchor="end" alignment-baseline="central">12</text>
      <text x="263" y="3" text-anchor="end" alignment-baseline="hanging">60%</text>
      <line x1="-10" y1="-84" x2="0" y2="-84" stroke="black"/>
      <line x1="308" y1="-10" x2="308" y2="10" stroke="black"/>
      <line x1="0" y1="-84" x2="440" y2="-84" stroke="lightgrey"/>
      <text x="-15" y="-84" text-anchor="end" alignment-baseline="central">14</text>
      <text x="307" y="3" text-anchor="end" alignment-baseline="hanging">70%</text>
      <line x1="-10" y1="-96" x2="0" y2="-96" stroke="black"/>
      <line x1="352" y1="-10" x2="352" y2="10" stroke="black"/>
      <line x1="0" y1="-96" x2="440" y2="-96" stroke="lightgrey"/>
      <text x="-15" y="-96" text-anchor="end" alignment-baseline="central">16</text>
      <text x="351" y="3" text-anchor="end" alignment-baseline="hanging">80%</text>
      <line x1="-10" y1="-108" x2="0" y2="-108" stroke="black"/>
      <line x1="396" y1="-10" x2="396" y2="10" stroke="black"/>
      <line x1="0" y1="-108" x2="440" y2="-108" stroke="lightgrey"/>
      <text x="-15" y="-108" text-anchor="end" alignment-baseline="central">18</text>
      <text x="395" y="3" text-anchor="end" alignment-baseline="hanging">90%</text>
      <line x1="-10" y1="-120" x2="0" y2="-120" stroke="black"/>
      <line x1="440" y1="-10" x2="440" y2="10" stroke="black"/>
      <line x1="0" y1="-120" x2="440" y2="-120" stroke="lightgrey"/>
      <text x="-15" y="-120" text-anchor="end" alignment-baseline="central">20</text>
      <text x="439" y="3" text-anchor="end" alignment-baseline="hanging">100%</text>
      <line x1="-10" y1="0" x2="0" y2="0" stroke="black"/>
      <text x="-15" y="0" text-anchor="end" alignment-baseline="central">0</text>
      <circle r="3" cx="8" cy="-0" fill="#00FDFF"/>
      <circle r="3" cx="8" cy="-0" fill="#FFC300"/>
      <circle r="3" cx="8" cy="-0" fill="magenta"/>
      <circle r="3" cx="16" cy="-0" fill="#00FDFF"/>
      <circle r="3" cx="16" cy="-6" fill="#FFC300"/>
      <circle r="3" cx="24" cy="-0" fill="#00FDFF"/>
      <circle r="3" cx="24" cy="-6" fill="#FFC300"/>
      <circle r="3" cx="32" cy="-0" fill="#00FDFF"/>
      <circle r="3" cx="32" cy="-6" fill="#FFC300"/>
      <circle r="3" cx="40" cy="-0" fill="#00FDFF"/>
      <circle r="3" cx="40" cy="-6" fill="#FFC300"/>
      <circle r="3" cx="48" cy="-0" fill="#00FDFF"/>
      <circle r="3" cx="48" cy="-6" fill="#FFC300"/>
      <circle r="3" cx="56" cy="-0" fill="#00FDFF"/>
      <circle r="3" cx="56" cy="-6" fill="#FFC300"/>
      <circle r="3" cx="64" cy="-0" fill="#00FDFF"/>
      <circle r="3" cx="64" cy="-12" fill="#FFC300"/>
      <circle r="3" cx="72" cy="-0" fill="#00FDFF"/>
      <circle r="3" cx="72" cy="-12" fill="#FFC300"/>
      <circle r="3" cx="80" cy="-0" fill="#00FDFF"/>
      <circle r="3" cx="80" cy="-18" fill="#FFC300"/>
      <circle r="3" cx="88" cy="-0" fill="#00FDFF"/>
      <circle r="3" cx="88" cy="-18" fill="#FFC300"/>
      <circle r="3" cx="96" cy="-0" fill="#00FDFF"/>
      <circle r="3" cx="96" cy="-18" fill="#FFC300"/>
      <circle r="3" cx="104" cy="-0" fill="#00FDFF"/>
      <circle r="3" cx="104" cy="-18" fill="#FFC300"/>
      <circle r="3" cx="112" cy="-0" fill="#00FDFF"/>
      <circle r="3" cx="112" cy="-24" fill="#FFC300"/>
      <circle r="3" cx="120" cy="-0" fill="#00FDFF"/>
      <circle r="3" cx="120" cy="-30" fill="#FFC300"/>
      <circle r="3" cx="128" cy="-0" fill="#00FDFF"/>
      <circle r="3" cx="128" cy="-30" fill="#FFC300"/>
      <circle r="3" cx="136" cy="-0" fill="#00FDFF"/>
      <circle r="3" cx="136" cy="-30" fill="#FFC300"/>
      <circle r="3" cx="144" cy="-6" fill="#00FDFF"/>
      <circle r="3" cx="144" cy="-30" fill="#FFC300"/>
      <circle r="3" cx="152" cy="-6" fill="#00FDFF"/>
      <circle r="3" cx="152" cy="-30" fill="#FFC300"/>
      <circle r="3" cx="160" cy="-6" fill="#00FDFF"/>
      <circle r="3" cx="160" cy="-30" fill="#FFC300"/>
      <circle r="3" cx="168" cy="-6" fill="#00FDFF"/>
      <circle r="3" cx="168" cy="-30" fill="#FFC300"/>
      <circle r="3" cx="176" cy="-6" fill="#00FDFF"/>
      <circle r="3" cx="176" cy="-30" fill="#FFC300"/>
      <circle r="3" cx="184" cy="-6" fill="#00FDFF"/>
      <circle r="3" cx="184" cy="-30" fill="#FFC300"/>
      <circle r="3" cx="192" cy="-6" fill="#00FDFF"/>
      <circle r="3" cx="192" cy="-30" fill="#FFC300"/>
      <circle r="3" cx="200" cy="-6" fill="#00FDFF"/>
      <circle r="3" cx="200" cy="-30" fill="#FFC300"/>
      <circle r="3" cx="208" cy="-6" fill="#00FDFF"/>
      <circle r="3" cx="208" cy="-30" fill="#FFC300"/>
      <circle r="3" cx="216" cy="-6" fill="#00FDFF"/>
      <circle r="3" cx="216" cy="-30" fill="#FFC300"/>
      <circle r="3" cx="224" cy="-6" fill="#00FDFF"/>
      <circle r="3" cx="224" cy="-30" fill="#FFC300"/>
      <circle r="3" cx="232" cy="-12" fill="#00FDFF"/>
      <circle r="3" cx="232" cy="-30" fill="#FFC300"/>
      <circle r="3" cx="240" cy="-12" fill="#00FDFF"/>
      <circle r="3" cx="240" cy="-30" fill="#FFC300"/>
      <circle r="3" cx="248" cy="-12" fill="#00FDFF"/>
      <circle r="3" cx="248" cy="-30" fill="#FFC300"/>
      <circle r="3" cx="256" cy="-12" fill="#00FDFF"/>
      <circle r="3" cx="256" cy="-30" fill="#FFC300"/>
      <circle r="3" cx="264" cy="-12" fill="#00FDFF"/>
      <circle r="3" cx="264" cy="-30" fill="#FFC300"/>
      <circle r="3" cx="272" cy="-18" fill="#00FDFF"/>
      <circle r="3" cx="272" cy="-30" fill="#FFC300"/>
      <circle r="3" cx="280" cy="-18" fill="#00FDFF"/>
      <circle r="3" cx="280" cy="-30" fill="#FFC300"/>
      <circle r="3" cx="288" cy="-18" fill="#00FDFF"/>
      <circle r="3" cx="288" cy="-30" fill="#FFC300"/>
      <circle r="3" cx="296" cy="-18" fill="#00FDFF"/>
      <circle r="3" cx="296" cy="-30" fill="#FFC300"/>
      <circle r="3" cx="304" cy="-18" fill="#00FDFF"/>
      <circle r="3" cx="304" cy="-30" fill="#FFC300"/>
      <circle r="3" cx="312" cy="-18" fill="#00FDFF"/>
      <circle r="3" cx="312" cy="-36" fill="#FFC300"/>
      <circle r="3" cx="320" cy="-18" fill="#00FDFF"/>
      <circle r="3" cx="320" cy="-42" fill="#FFC300"/>
      <circle r="3" cx="328" cy="-18" fill="#00FDFF"/>
      <circle r="3" cx="328" cy="-48" fill="#FFC300"/>
      <circle r="3" cx="336" cy="-24" fill="#00FDFF"/>
      <circle r="3" cx="336" cy="-48" fill="#FFC300"/>
      <circle r="3" cx="344" cy="-30" fill="#00FDFF"/>
      <circle r="3" cx="344" cy="-48" fill="#FFC300"/>
      <circle r="3" cx="352" cy="-36" fill="#00FDFF"/>
      <circle r="3" cx="352" cy="-48" fill="#FFC300"/>
      <circle r="3" cx="360" cy="-42" fill="#00FDFF"/>
      <circle r="3" cx="360" cy="-48" fill="#FFC300"/>
      <circle r="3" cx="368" cy="-48" fill="#00FDFF"/>
      <circle r="3" cx="368" cy="-48" fill="#FFC300"/>
      <circle r="3" cx="368" cy="-48" fill="magenta"/>
      <circle r="3" cx="376" cy="-48" fill="#00FDFF"/>
      <circle r="3" cx="376" cy="-48" fill="#FFC300"/>
      <circle r="3" cx="376" cy="-48" fill="magenta"/>
      <circle r="3" cx="384" cy="-54" fill="#00FDFF"/>
      <circle r="3" cx="384" cy="-48" fill="#FFC300"/>
      <circle r="3" cx="392" cy="-60" fill="#00FDFF"/>
      <circle r="3" cx="392" cy="-48" fill="#FFC300"/>
      <circle r="3" cx="400" cy="-66" fill="#00FDFF"/>
      <circle r="3" cx="400" cy="-48" fill="#FFC300"/>
      <circle r="3" cx="408" cy="-72" fill="#00FDFF"/>
      <circle r="3" cx="408" cy="-48" fill="#FFC300"/>
      <circle r="3" cx="416" cy="-78" fill="#00FDFF"/>
      <circle r="3" cx="416" cy="-48" fill="#FFC300"/>
      <circle r="3" cx="424" cy="-78" fill="#00FDFF"/>
      <circle r="3" cx="424" cy="-54" fill="#FFC300"/>
      <circle r="3" cx="432" cy="-78" fill="#00FDFF"/>
      <circle r="3" cx="432" cy="-60" fill="#FFC300"/>
      <circle r="3" cx="440" cy="-78" fill="#00FDFF"/>
      <circle r="3" cx="440" cy="-66" fill="#FFC300"/>
      <text x="456"
            y="-78"
            text-anchor="start"
            alignment-baseline="central"
            fill="#00FDFF">divine</text>
      <text x="456"
            y="-66"
            text-anchor="start"
            alignment-baseline="central"
            fill="#FFC300">earthly</text>
      <line x1="0" y1="0" x2="440" y2="0" stroke="black"/>
      <line x1="0" y1="0" x2="0" y2="-128" stroke="black"/>
      <text x="-50"
            y="-39"
            text-anchor="middle"
            font-size="larger"
            transform="rotate(-90 -50 -39)">Occurrences</text>
      <text x="220"
            y="50"
            text-anchor="middle"
            font-size="larger"
            alignment-baseline="baseline">Percentage of Scene</text>
      <text x="220"
            y="-133"
            text-anchor="middle"
            font-size="larger"
            text-decoration="underline">DIVINE AND EARTHLY TRAITS THROUGHOUT SCENE XI</text>
   </g>
</svg>
