<?xml version="1.0" encoding="UTF-8"?>
<svg xmlns="http://www.w3.org/2000/svg">
   <g transform="translate(100, 371)">
      <line x1="-10" y1="-30" x2="0" y2="-30" stroke="black"/>
      <line x1="105.89999999999999"
            y1="-10"
            x2="105.89999999999999"
            y2="10"
            stroke="black"/>
      <line x1="0" y1="-30" x2="1059" y2="-30" stroke="lightgrey"/>
      <text x="-15" y="-30" text-anchor="end" alignment-baseline="central">15</text>
      <text x="108.89999999999999"
            y="3"
            text-anchor="start"
            alignment-baseline="hanging">10%</text>
      <line x1="-10" y1="-60" x2="0" y2="-60" stroke="black"/>
      <line x1="211.79999999999998"
            y1="-10"
            x2="211.79999999999998"
            y2="10"
            stroke="black"/>
      <line x1="0" y1="-60" x2="1059" y2="-60" stroke="lightgrey"/>
      <text x="-15" y="-60" text-anchor="end" alignment-baseline="central">30</text>
      <text x="214.79999999999998"
            y="3"
            text-anchor="start"
            alignment-baseline="hanging">20%</text>
      <line x1="-10" y1="-90" x2="0" y2="-90" stroke="black"/>
      <line x1="317.70000000000005"
            y1="-10"
            x2="317.70000000000005"
            y2="10"
            stroke="black"/>
      <line x1="0" y1="-90" x2="1059" y2="-90" stroke="lightgrey"/>
      <text x="-15" y="-90" text-anchor="end" alignment-baseline="central">45</text>
      <text x="320.70000000000005"
            y="3"
            text-anchor="start"
            alignment-baseline="hanging">30%</text>
      <line x1="-10" y1="-120" x2="0" y2="-120" stroke="black"/>
      <line x1="423.59999999999997"
            y1="-10"
            x2="423.59999999999997"
            y2="10"
            stroke="black"/>
      <line x1="0" y1="-120" x2="1059" y2="-120" stroke="lightgrey"/>
      <text x="-15" y="-120" text-anchor="end" alignment-baseline="central">60</text>
      <text x="426.59999999999997"
            y="3"
            text-anchor="start"
            alignment-baseline="hanging">40%</text>
      <line x1="-10" y1="-150" x2="0" y2="-150" stroke="black"/>
      <line x1="529.5" y1="-10" x2="529.5" y2="10" stroke="black"/>
      <line x1="0" y1="-150" x2="1059" y2="-150" stroke="lightgrey"/>
      <text x="-15" y="-150" text-anchor="end" alignment-baseline="central">75</text>
      <text x="532.5"
            y="3"
            text-anchor="start"
            alignment-baseline="hanging">50%</text>
      <line x1="-10" y1="-180" x2="0" y2="-180" stroke="black"/>
      <line x1="635.4000000000001"
            y1="-10"
            x2="635.4000000000001"
            y2="10"
            stroke="black"/>
      <line x1="0" y1="-180" x2="1059" y2="-180" stroke="lightgrey"/>
      <text x="-15" y="-180" text-anchor="end" alignment-baseline="central">90</text>
      <text x="638.4000000000001"
            y="3"
            text-anchor="start"
            alignment-baseline="hanging">60%</text>
      <line x1="-10" y1="-210" x2="0" y2="-210" stroke="black"/>
      <line x1="741.3" y1="-10" x2="741.3" y2="10" stroke="black"/>
      <line x1="0" y1="-210" x2="1059" y2="-210" stroke="lightgrey"/>
      <text x="-15" y="-210" text-anchor="end" alignment-baseline="central">105</text>
      <text x="744.3"
            y="3"
            text-anchor="start"
            alignment-baseline="hanging">70%</text>
      <line x1="-10" y1="-240" x2="0" y2="-240" stroke="black"/>
      <line x1="847.1999999999999"
            y1="-10"
            x2="847.1999999999999"
            y2="10"
            stroke="black"/>
      <line x1="0" y1="-240" x2="1059" y2="-240" stroke="lightgrey"/>
      <text x="-15" y="-240" text-anchor="end" alignment-baseline="central">120</text>
      <text x="850.1999999999999"
            y="3"
            text-anchor="start"
            alignment-baseline="hanging">80%</text>
      <line x1="-10" y1="-270" x2="0" y2="-270" stroke="black"/>
      <line x1="953.0999999999999"
            y1="-10"
            x2="953.0999999999999"
            y2="10"
            stroke="black"/>
      <line x1="0" y1="-270" x2="1059" y2="-270" stroke="lightgrey"/>
      <text x="-15" y="-270" text-anchor="end" alignment-baseline="central">135</text>
      <text x="956.0999999999999"
            y="3"
            text-anchor="start"
            alignment-baseline="hanging">90%</text>
      <line x1="-10" y1="-300" x2="0" y2="-300" stroke="black"/>
      <line x1="1059" y1="-10" x2="1059" y2="10" stroke="black"/>
      <line x1="0" y1="-300" x2="1059" y2="-300" stroke="lightgrey"/>
      <text x="-15" y="-300" text-anchor="end" alignment-baseline="central">150</text>
      <text x="1062" y="3" text-anchor="start" alignment-baseline="hanging">100%</text>
      <line x1="-10" y1="0" x2="0" y2="0" stroke="black"/>
      <text x="-15" y="0" text-anchor="end" alignment-baseline="central">0</text>
      <circle r="3" cx="3" cy="-0" fill="#00FDFF"/>
      <circle r="3" cx="3" cy="-0" fill="#FFC300"/>
      <circle r="3" cx="6" cy="-2" fill="#00FDFF"/>
      <circle r="3" cx="6" cy="-0" fill="#FFC300"/>
      <circle r="3" cx="9" cy="-4" fill="#00FDFF"/>
      <circle r="3" cx="9" cy="-0" fill="#FFC300"/>
      <circle r="3" cx="12" cy="-6" fill="#00FDFF"/>
      <circle r="3" cx="12" cy="-0" fill="#FFC300"/>
      <circle r="3" cx="15" cy="-8" fill="#00FDFF"/>
      <circle r="3" cx="15" cy="-0" fill="#FFC300"/>
      <circle r="3" cx="18" cy="-10" fill="#00FDFF"/>
      <circle r="3" cx="18" cy="-0" fill="#FFC300"/>
      <circle r="3" cx="21" cy="-12" fill="#00FDFF"/>
      <circle r="3" cx="21" cy="-0" fill="#FFC300"/>
      <circle r="3" cx="24" cy="-14" fill="#00FDFF"/>
      <circle r="3" cx="24" cy="-0" fill="#FFC300"/>
      <circle r="3" cx="27" cy="-16" fill="#00FDFF"/>
      <circle r="3" cx="27" cy="-0" fill="#FFC300"/>
      <circle r="3" cx="30" cy="-18" fill="#00FDFF"/>
      <circle r="3" cx="30" cy="-0" fill="#FFC300"/>
      <circle r="3" cx="33" cy="-18" fill="#00FDFF"/>
      <circle r="3" cx="33" cy="-2" fill="#FFC300"/>
      <circle r="3" cx="36" cy="-18" fill="#00FDFF"/>
      <circle r="3" cx="36" cy="-4" fill="#FFC300"/>
      <circle r="3" cx="39" cy="-20" fill="#00FDFF"/>
      <circle r="3" cx="39" cy="-4" fill="#FFC300"/>
      <circle r="3" cx="42" cy="-22" fill="#00FDFF"/>
      <circle r="3" cx="42" cy="-4" fill="#FFC300"/>
      <circle r="3" cx="45" cy="-24" fill="#00FDFF"/>
      <circle r="3" cx="45" cy="-4" fill="#FFC300"/>
      <circle r="3" cx="48" cy="-26" fill="#00FDFF"/>
      <circle r="3" cx="48" cy="-4" fill="#FFC300"/>
      <circle r="3" cx="51" cy="-28" fill="#00FDFF"/>
      <circle r="3" cx="51" cy="-4" fill="#FFC300"/>
      <circle r="3" cx="54" cy="-30" fill="#00FDFF"/>
      <circle r="3" cx="54" cy="-4" fill="#FFC300"/>
      <circle r="3" cx="57" cy="-32" fill="#00FDFF"/>
      <circle r="3" cx="57" cy="-4" fill="#FFC300"/>
      <circle r="3" cx="60" cy="-34" fill="#00FDFF"/>
      <circle r="3" cx="60" cy="-4" fill="#FFC300"/>
      <circle r="3" cx="63" cy="-36" fill="#00FDFF"/>
      <circle r="3" cx="63" cy="-4" fill="#FFC300"/>
      <circle r="3" cx="66" cy="-38" fill="#00FDFF"/>
      <circle r="3" cx="66" cy="-4" fill="#FFC300"/>
      <circle r="3" cx="69" cy="-40" fill="#00FDFF"/>
      <circle r="3" cx="69" cy="-4" fill="#FFC300"/>
      <circle r="3" cx="72" cy="-42" fill="#00FDFF"/>
      <circle r="3" cx="72" cy="-4" fill="#FFC300"/>
      <circle r="3" cx="75" cy="-44" fill="#00FDFF"/>
      <circle r="3" cx="75" cy="-4" fill="#FFC300"/>
      <circle r="3" cx="78" cy="-46" fill="#00FDFF"/>
      <circle r="3" cx="78" cy="-4" fill="#FFC300"/>
      <circle r="3" cx="81" cy="-48" fill="#00FDFF"/>
      <circle r="3" cx="81" cy="-4" fill="#FFC300"/>
      <circle r="3" cx="84" cy="-50" fill="#00FDFF"/>
      <circle r="3" cx="84" cy="-4" fill="#FFC300"/>
      <circle r="3" cx="87" cy="-52" fill="#00FDFF"/>
      <circle r="3" cx="87" cy="-4" fill="#FFC300"/>
      <circle r="3" cx="90" cy="-54" fill="#00FDFF"/>
      <circle r="3" cx="90" cy="-4" fill="#FFC300"/>
      <circle r="3" cx="93" cy="-56" fill="#00FDFF"/>
      <circle r="3" cx="93" cy="-4" fill="#FFC300"/>
      <circle r="3" cx="96" cy="-58" fill="#00FDFF"/>
      <circle r="3" cx="96" cy="-4" fill="#FFC300"/>
      <circle r="3" cx="99" cy="-60" fill="#00FDFF"/>
      <circle r="3" cx="99" cy="-4" fill="#FFC300"/>
      <circle r="3" cx="102" cy="-62" fill="#00FDFF"/>
      <circle r="3" cx="102" cy="-4" fill="#FFC300"/>
      <circle r="3" cx="105" cy="-64" fill="#00FDFF"/>
      <circle r="3" cx="105" cy="-4" fill="#FFC300"/>
      <circle r="3" cx="108" cy="-64" fill="#00FDFF"/>
      <circle r="3" cx="108" cy="-6" fill="#FFC300"/>
      <circle r="3" cx="111" cy="-64" fill="#00FDFF"/>
      <circle r="3" cx="111" cy="-8" fill="#FFC300"/>
      <circle r="3" cx="114" cy="-64" fill="#00FDFF"/>
      <circle r="3" cx="114" cy="-10" fill="#FFC300"/>
      <circle r="3" cx="117" cy="-66" fill="#00FDFF"/>
      <circle r="3" cx="117" cy="-10" fill="#FFC300"/>
      <circle r="3" cx="120" cy="-68" fill="#00FDFF"/>
      <circle r="3" cx="120" cy="-10" fill="#FFC300"/>
      <circle r="3" cx="123" cy="-70" fill="#00FDFF"/>
      <circle r="3" cx="123" cy="-10" fill="#FFC300"/>
      <circle r="3" cx="126" cy="-72" fill="#00FDFF"/>
      <circle r="3" cx="126" cy="-10" fill="#FFC300"/>
      <circle r="3" cx="129" cy="-74" fill="#00FDFF"/>
      <circle r="3" cx="129" cy="-10" fill="#FFC300"/>
      <circle r="3" cx="132" cy="-76" fill="#00FDFF"/>
      <circle r="3" cx="132" cy="-10" fill="#FFC300"/>
      <circle r="3" cx="135" cy="-78" fill="#00FDFF"/>
      <circle r="3" cx="135" cy="-10" fill="#FFC300"/>
      <circle r="3" cx="138" cy="-80" fill="#00FDFF"/>
      <circle r="3" cx="138" cy="-10" fill="#FFC300"/>
      <circle r="3" cx="141" cy="-82" fill="#00FDFF"/>
      <circle r="3" cx="141" cy="-10" fill="#FFC300"/>
      <circle r="3" cx="144" cy="-82" fill="#00FDFF"/>
      <circle r="3" cx="144" cy="-12" fill="#FFC300"/>
      <circle r="3" cx="147" cy="-82" fill="#00FDFF"/>
      <circle r="3" cx="147" cy="-14" fill="#FFC300"/>
      <circle r="3" cx="150" cy="-84" fill="#00FDFF"/>
      <circle r="3" cx="150" cy="-14" fill="#FFC300"/>
      <circle r="3" cx="153" cy="-86" fill="#00FDFF"/>
      <circle r="3" cx="153" cy="-14" fill="#FFC300"/>
      <circle r="3" cx="156" cy="-88" fill="#00FDFF"/>
      <circle r="3" cx="156" cy="-14" fill="#FFC300"/>
      <circle r="3" cx="159" cy="-90" fill="#00FDFF"/>
      <circle r="3" cx="159" cy="-14" fill="#FFC300"/>
      <circle r="3" cx="162" cy="-92" fill="#00FDFF"/>
      <circle r="3" cx="162" cy="-14" fill="#FFC300"/>
      <circle r="3" cx="165" cy="-94" fill="#00FDFF"/>
      <circle r="3" cx="165" cy="-14" fill="#FFC300"/>
      <circle r="3" cx="168" cy="-96" fill="#00FDFF"/>
      <circle r="3" cx="168" cy="-14" fill="#FFC300"/>
      <circle r="3" cx="171" cy="-96" fill="#00FDFF"/>
      <circle r="3" cx="171" cy="-16" fill="#FFC300"/>
      <circle r="3" cx="174" cy="-98" fill="#00FDFF"/>
      <circle r="3" cx="174" cy="-16" fill="#FFC300"/>
      <circle r="3" cx="177" cy="-100" fill="#00FDFF"/>
      <circle r="3" cx="177" cy="-16" fill="#FFC300"/>
      <circle r="3" cx="180" cy="-102" fill="#00FDFF"/>
      <circle r="3" cx="180" cy="-16" fill="#FFC300"/>
      <circle r="3" cx="183" cy="-104" fill="#00FDFF"/>
      <circle r="3" cx="183" cy="-16" fill="#FFC300"/>
      <circle r="3" cx="186" cy="-106" fill="#00FDFF"/>
      <circle r="3" cx="186" cy="-16" fill="#FFC300"/>
      <circle r="3" cx="189" cy="-108" fill="#00FDFF"/>
      <circle r="3" cx="189" cy="-16" fill="#FFC300"/>
      <circle r="3" cx="192" cy="-108" fill="#00FDFF"/>
      <circle r="3" cx="192" cy="-18" fill="#FFC300"/>
      <circle r="3" cx="195" cy="-108" fill="#00FDFF"/>
      <circle r="3" cx="195" cy="-20" fill="#FFC300"/>
      <circle r="3" cx="198" cy="-108" fill="#00FDFF"/>
      <circle r="3" cx="198" cy="-22" fill="#FFC300"/>
      <circle r="3" cx="201" cy="-108" fill="#00FDFF"/>
      <circle r="3" cx="201" cy="-24" fill="#FFC300"/>
      <circle r="3" cx="204" cy="-108" fill="#00FDFF"/>
      <circle r="3" cx="204" cy="-26" fill="#FFC300"/>
      <circle r="3" cx="207" cy="-108" fill="#00FDFF"/>
      <circle r="3" cx="207" cy="-28" fill="#FFC300"/>
      <circle r="3" cx="210" cy="-108" fill="#00FDFF"/>
      <circle r="3" cx="210" cy="-30" fill="#FFC300"/>
      <circle r="3" cx="213" cy="-110" fill="#00FDFF"/>
      <circle r="3" cx="213" cy="-30" fill="#FFC300"/>
      <circle r="3" cx="216" cy="-112" fill="#00FDFF"/>
      <circle r="3" cx="216" cy="-30" fill="#FFC300"/>
      <circle r="3" cx="219" cy="-114" fill="#00FDFF"/>
      <circle r="3" cx="219" cy="-30" fill="#FFC300"/>
      <circle r="3" cx="222" cy="-116" fill="#00FDFF"/>
      <circle r="3" cx="222" cy="-30" fill="#FFC300"/>
      <circle r="3" cx="225" cy="-118" fill="#00FDFF"/>
      <circle r="3" cx="225" cy="-30" fill="#FFC300"/>
      <circle r="3" cx="228" cy="-120" fill="#00FDFF"/>
      <circle r="3" cx="228" cy="-30" fill="#FFC300"/>
      <circle r="3" cx="231" cy="-122" fill="#00FDFF"/>
      <circle r="3" cx="231" cy="-30" fill="#FFC300"/>
      <circle r="3" cx="234" cy="-124" fill="#00FDFF"/>
      <circle r="3" cx="234" cy="-30" fill="#FFC300"/>
      <circle r="3" cx="237" cy="-126" fill="#00FDFF"/>
      <circle r="3" cx="237" cy="-30" fill="#FFC300"/>
      <circle r="3" cx="240" cy="-128" fill="#00FDFF"/>
      <circle r="3" cx="240" cy="-30" fill="#FFC300"/>
      <circle r="3" cx="243" cy="-130" fill="#00FDFF"/>
      <circle r="3" cx="243" cy="-30" fill="#FFC300"/>
      <circle r="3" cx="246" cy="-132" fill="#00FDFF"/>
      <circle r="3" cx="246" cy="-30" fill="#FFC300"/>
      <circle r="3" cx="249" cy="-132" fill="#00FDFF"/>
      <circle r="3" cx="249" cy="-30" fill="#FFC300"/>
      <circle r="3" cx="252" cy="-132" fill="#00FDFF"/>
      <circle r="3" cx="252" cy="-30" fill="#FFC300"/>
      <circle r="3" cx="255" cy="-132" fill="#00FDFF"/>
      <circle r="3" cx="255" cy="-30" fill="#FFC300"/>
      <circle r="3" cx="258" cy="-132" fill="#00FDFF"/>
      <circle r="3" cx="258" cy="-30" fill="#FFC300"/>
      <circle r="3" cx="261" cy="-132" fill="#00FDFF"/>
      <circle r="3" cx="261" cy="-30" fill="#FFC300"/>
      <circle r="3" cx="264" cy="-132" fill="#00FDFF"/>
      <circle r="3" cx="264" cy="-30" fill="#FFC300"/>
      <circle r="3" cx="267" cy="-132" fill="#00FDFF"/>
      <circle r="3" cx="267" cy="-30" fill="#FFC300"/>
      <circle r="3" cx="270" cy="-132" fill="#00FDFF"/>
      <circle r="3" cx="270" cy="-30" fill="#FFC300"/>
      <circle r="3" cx="273" cy="-132" fill="#00FDFF"/>
      <circle r="3" cx="273" cy="-30" fill="#FFC300"/>
      <circle r="3" cx="276" cy="-132" fill="#00FDFF"/>
      <circle r="3" cx="276" cy="-30" fill="#FFC300"/>
      <circle r="3" cx="279" cy="-132" fill="#00FDFF"/>
      <circle r="3" cx="279" cy="-30" fill="#FFC300"/>
      <circle r="3" cx="282" cy="-132" fill="#00FDFF"/>
      <circle r="3" cx="282" cy="-30" fill="#FFC300"/>
      <circle r="3" cx="285" cy="-134" fill="#00FDFF"/>
      <circle r="3" cx="285" cy="-30" fill="#FFC300"/>
      <circle r="3" cx="288" cy="-136" fill="#00FDFF"/>
      <circle r="3" cx="288" cy="-30" fill="#FFC300"/>
      <circle r="3" cx="291" cy="-138" fill="#00FDFF"/>
      <circle r="3" cx="291" cy="-30" fill="#FFC300"/>
      <circle r="3" cx="294" cy="-140" fill="#00FDFF"/>
      <circle r="3" cx="294" cy="-30" fill="#FFC300"/>
      <circle r="3" cx="297" cy="-142" fill="#00FDFF"/>
      <circle r="3" cx="297" cy="-30" fill="#FFC300"/>
      <circle r="3" cx="300" cy="-144" fill="#00FDFF"/>
      <circle r="3" cx="300" cy="-30" fill="#FFC300"/>
      <circle r="3" cx="303" cy="-144" fill="#00FDFF"/>
      <circle r="3" cx="303" cy="-32" fill="#FFC300"/>
      <circle r="3" cx="306" cy="-144" fill="#00FDFF"/>
      <circle r="3" cx="306" cy="-34" fill="#FFC300"/>
      <circle r="3" cx="309" cy="-144" fill="#00FDFF"/>
      <circle r="3" cx="309" cy="-36" fill="#FFC300"/>
      <circle r="3" cx="312" cy="-144" fill="#00FDFF"/>
      <circle r="3" cx="312" cy="-38" fill="#FFC300"/>
      <circle r="3" cx="315" cy="-144" fill="#00FDFF"/>
      <circle r="3" cx="315" cy="-40" fill="#FFC300"/>
      <circle r="3" cx="318" cy="-146" fill="#00FDFF"/>
      <circle r="3" cx="318" cy="-40" fill="#FFC300"/>
      <circle r="3" cx="321" cy="-148" fill="#00FDFF"/>
      <circle r="3" cx="321" cy="-40" fill="#FFC300"/>
      <circle r="3" cx="324" cy="-150" fill="#00FDFF"/>
      <circle r="3" cx="324" cy="-40" fill="#FFC300"/>
      <circle r="3" cx="327" cy="-152" fill="#00FDFF"/>
      <circle r="3" cx="327" cy="-40" fill="#FFC300"/>
      <circle r="3" cx="330" cy="-154" fill="#00FDFF"/>
      <circle r="3" cx="330" cy="-40" fill="#FFC300"/>
      <circle r="3" cx="333" cy="-156" fill="#00FDFF"/>
      <circle r="3" cx="333" cy="-40" fill="#FFC300"/>
      <circle r="3" cx="336" cy="-158" fill="#00FDFF"/>
      <circle r="3" cx="336" cy="-40" fill="#FFC300"/>
      <circle r="3" cx="339" cy="-160" fill="#00FDFF"/>
      <circle r="3" cx="339" cy="-40" fill="#FFC300"/>
      <circle r="3" cx="342" cy="-162" fill="#00FDFF"/>
      <circle r="3" cx="342" cy="-40" fill="#FFC300"/>
      <circle r="3" cx="345" cy="-164" fill="#00FDFF"/>
      <circle r="3" cx="345" cy="-40" fill="#FFC300"/>
      <circle r="3" cx="348" cy="-166" fill="#00FDFF"/>
      <circle r="3" cx="348" cy="-40" fill="#FFC300"/>
      <circle r="3" cx="351" cy="-168" fill="#00FDFF"/>
      <circle r="3" cx="351" cy="-40" fill="#FFC300"/>
      <circle r="3" cx="354" cy="-170" fill="#00FDFF"/>
      <circle r="3" cx="354" cy="-40" fill="#FFC300"/>
      <circle r="3" cx="357" cy="-172" fill="#00FDFF"/>
      <circle r="3" cx="357" cy="-40" fill="#FFC300"/>
      <circle r="3" cx="360" cy="-174" fill="#00FDFF"/>
      <circle r="3" cx="360" cy="-40" fill="#FFC300"/>
      <circle r="3" cx="363" cy="-176" fill="#00FDFF"/>
      <circle r="3" cx="363" cy="-40" fill="#FFC300"/>
      <circle r="3" cx="366" cy="-178" fill="#00FDFF"/>
      <circle r="3" cx="366" cy="-40" fill="#FFC300"/>
      <circle r="3" cx="369" cy="-180" fill="#00FDFF"/>
      <circle r="3" cx="369" cy="-40" fill="#FFC300"/>
      <circle r="3" cx="372" cy="-182" fill="#00FDFF"/>
      <circle r="3" cx="372" cy="-40" fill="#FFC300"/>
      <circle r="3" cx="375" cy="-184" fill="#00FDFF"/>
      <circle r="3" cx="375" cy="-40" fill="#FFC300"/>
      <circle r="3" cx="378" cy="-186" fill="#00FDFF"/>
      <circle r="3" cx="378" cy="-40" fill="#FFC300"/>
      <circle r="3" cx="381" cy="-188" fill="#00FDFF"/>
      <circle r="3" cx="381" cy="-40" fill="#FFC300"/>
      <circle r="3" cx="384" cy="-190" fill="#00FDFF"/>
      <circle r="3" cx="384" cy="-40" fill="#FFC300"/>
      <circle r="3" cx="387" cy="-192" fill="#00FDFF"/>
      <circle r="3" cx="387" cy="-40" fill="#FFC300"/>
      <circle r="3" cx="390" cy="-194" fill="#00FDFF"/>
      <circle r="3" cx="390" cy="-40" fill="#FFC300"/>
      <circle r="3" cx="393" cy="-196" fill="#00FDFF"/>
      <circle r="3" cx="393" cy="-40" fill="#FFC300"/>
      <circle r="3" cx="396" cy="-198" fill="#00FDFF"/>
      <circle r="3" cx="396" cy="-40" fill="#FFC300"/>
      <circle r="3" cx="399" cy="-200" fill="#00FDFF"/>
      <circle r="3" cx="399" cy="-40" fill="#FFC300"/>
      <circle r="3" cx="402" cy="-202" fill="#00FDFF"/>
      <circle r="3" cx="402" cy="-40" fill="#FFC300"/>
      <circle r="3" cx="405" cy="-204" fill="#00FDFF"/>
      <circle r="3" cx="405" cy="-40" fill="#FFC300"/>
      <circle r="3" cx="408" cy="-206" fill="#00FDFF"/>
      <circle r="3" cx="408" cy="-40" fill="#FFC300"/>
      <circle r="3" cx="411" cy="-208" fill="#00FDFF"/>
      <circle r="3" cx="411" cy="-40" fill="#FFC300"/>
      <circle r="3" cx="414" cy="-210" fill="#00FDFF"/>
      <circle r="3" cx="414" cy="-40" fill="#FFC300"/>
      <circle r="3" cx="417" cy="-212" fill="#00FDFF"/>
      <circle r="3" cx="417" cy="-40" fill="#FFC300"/>
      <circle r="3" cx="420" cy="-214" fill="#00FDFF"/>
      <circle r="3" cx="420" cy="-40" fill="#FFC300"/>
      <circle r="3" cx="423" cy="-216" fill="#00FDFF"/>
      <circle r="3" cx="423" cy="-40" fill="#FFC300"/>
      <circle r="3" cx="426" cy="-218" fill="#00FDFF"/>
      <circle r="3" cx="426" cy="-40" fill="#FFC300"/>
      <circle r="3" cx="429" cy="-220" fill="#00FDFF"/>
      <circle r="3" cx="429" cy="-40" fill="#FFC300"/>
      <circle r="3" cx="432" cy="-220" fill="#00FDFF"/>
      <circle r="3" cx="432" cy="-40" fill="#FFC300"/>
      <circle r="3" cx="435" cy="-222" fill="#00FDFF"/>
      <circle r="3" cx="435" cy="-40" fill="#FFC300"/>
      <circle r="3" cx="438" cy="-224" fill="#00FDFF"/>
      <circle r="3" cx="438" cy="-40" fill="#FFC300"/>
      <circle r="3" cx="441" cy="-224" fill="#00FDFF"/>
      <circle r="3" cx="441" cy="-40" fill="#FFC300"/>
      <circle r="3" cx="444" cy="-224" fill="#00FDFF"/>
      <circle r="3" cx="444" cy="-40" fill="#FFC300"/>
      <circle r="3" cx="447" cy="-226" fill="#00FDFF"/>
      <circle r="3" cx="447" cy="-40" fill="#FFC300"/>
      <circle r="3" cx="450" cy="-226" fill="#00FDFF"/>
      <circle r="3" cx="450" cy="-40" fill="#FFC300"/>
      <circle r="3" cx="453" cy="-226" fill="#00FDFF"/>
      <circle r="3" cx="453" cy="-40" fill="#FFC300"/>
      <circle r="3" cx="456" cy="-226" fill="#00FDFF"/>
      <circle r="3" cx="456" cy="-40" fill="#FFC300"/>
      <circle r="3" cx="459" cy="-226" fill="#00FDFF"/>
      <circle r="3" cx="459" cy="-40" fill="#FFC300"/>
      <circle r="3" cx="462" cy="-228" fill="#00FDFF"/>
      <circle r="3" cx="462" cy="-40" fill="#FFC300"/>
      <circle r="3" cx="465" cy="-230" fill="#00FDFF"/>
      <circle r="3" cx="465" cy="-40" fill="#FFC300"/>
      <circle r="3" cx="468" cy="-232" fill="#00FDFF"/>
      <circle r="3" cx="468" cy="-40" fill="#FFC300"/>
      <circle r="3" cx="471" cy="-234" fill="#00FDFF"/>
      <circle r="3" cx="471" cy="-40" fill="#FFC300"/>
      <circle r="3" cx="474" cy="-236" fill="#00FDFF"/>
      <circle r="3" cx="474" cy="-40" fill="#FFC300"/>
      <circle r="3" cx="477" cy="-236" fill="#00FDFF"/>
      <circle r="3" cx="477" cy="-40" fill="#FFC300"/>
      <circle r="3" cx="480" cy="-236" fill="#00FDFF"/>
      <circle r="3" cx="480" cy="-40" fill="#FFC300"/>
      <circle r="3" cx="483" cy="-238" fill="#00FDFF"/>
      <circle r="3" cx="483" cy="-40" fill="#FFC300"/>
      <circle r="3" cx="486" cy="-238" fill="#00FDFF"/>
      <circle r="3" cx="486" cy="-40" fill="#FFC300"/>
      <circle r="3" cx="489" cy="-238" fill="#00FDFF"/>
      <circle r="3" cx="489" cy="-40" fill="#FFC300"/>
      <circle r="3" cx="492" cy="-238" fill="#00FDFF"/>
      <circle r="3" cx="492" cy="-40" fill="#FFC300"/>
      <circle r="3" cx="495" cy="-238" fill="#00FDFF"/>
      <circle r="3" cx="495" cy="-40" fill="#FFC300"/>
      <circle r="3" cx="498" cy="-238" fill="#00FDFF"/>
      <circle r="3" cx="498" cy="-40" fill="#FFC300"/>
      <circle r="3" cx="501" cy="-238" fill="#00FDFF"/>
      <circle r="3" cx="501" cy="-40" fill="#FFC300"/>
      <circle r="3" cx="504" cy="-238" fill="#00FDFF"/>
      <circle r="3" cx="504" cy="-40" fill="#FFC300"/>
      <circle r="3" cx="507" cy="-240" fill="#00FDFF"/>
      <circle r="3" cx="507" cy="-40" fill="#FFC300"/>
      <circle r="3" cx="510" cy="-240" fill="#00FDFF"/>
      <circle r="3" cx="510" cy="-40" fill="#FFC300"/>
      <circle r="3" cx="513" cy="-240" fill="#00FDFF"/>
      <circle r="3" cx="513" cy="-40" fill="#FFC300"/>
      <circle r="3" cx="516" cy="-240" fill="#00FDFF"/>
      <circle r="3" cx="516" cy="-40" fill="#FFC300"/>
      <circle r="3" cx="519" cy="-240" fill="#00FDFF"/>
      <circle r="3" cx="519" cy="-40" fill="#FFC300"/>
      <circle r="3" cx="522" cy="-240" fill="#00FDFF"/>
      <circle r="3" cx="522" cy="-40" fill="#FFC300"/>
      <circle r="3" cx="525" cy="-240" fill="#00FDFF"/>
      <circle r="3" cx="525" cy="-40" fill="#FFC300"/>
      <circle r="3" cx="528" cy="-240" fill="#00FDFF"/>
      <circle r="3" cx="528" cy="-40" fill="#FFC300"/>
      <circle r="3" cx="531" cy="-240" fill="#00FDFF"/>
      <circle r="3" cx="531" cy="-40" fill="#FFC300"/>
      <circle r="3" cx="534" cy="-240" fill="#00FDFF"/>
      <circle r="3" cx="534" cy="-40" fill="#FFC300"/>
      <circle r="3" cx="537" cy="-240" fill="#00FDFF"/>
      <circle r="3" cx="537" cy="-40" fill="#FFC300"/>
      <circle r="3" cx="540" cy="-240" fill="#00FDFF"/>
      <circle r="3" cx="540" cy="-40" fill="#FFC300"/>
      <circle r="3" cx="543" cy="-240" fill="#00FDFF"/>
      <circle r="3" cx="543" cy="-40" fill="#FFC300"/>
      <circle r="3" cx="546" cy="-240" fill="#00FDFF"/>
      <circle r="3" cx="546" cy="-40" fill="#FFC300"/>
      <circle r="3" cx="549" cy="-240" fill="#00FDFF"/>
      <circle r="3" cx="549" cy="-42" fill="#FFC300"/>
      <circle r="3" cx="552" cy="-240" fill="#00FDFF"/>
      <circle r="3" cx="552" cy="-44" fill="#FFC300"/>
      <circle r="3" cx="555" cy="-240" fill="#00FDFF"/>
      <circle r="3" cx="555" cy="-46" fill="#FFC300"/>
      <circle r="3" cx="558" cy="-240" fill="#00FDFF"/>
      <circle r="3" cx="558" cy="-46" fill="#FFC300"/>
      <circle r="3" cx="561" cy="-240" fill="#00FDFF"/>
      <circle r="3" cx="561" cy="-46" fill="#FFC300"/>
      <circle r="3" cx="564" cy="-240" fill="#00FDFF"/>
      <circle r="3" cx="564" cy="-46" fill="#FFC300"/>
      <circle r="3" cx="567" cy="-240" fill="#00FDFF"/>
      <circle r="3" cx="567" cy="-46" fill="#FFC300"/>
      <circle r="3" cx="570" cy="-240" fill="#00FDFF"/>
      <circle r="3" cx="570" cy="-46" fill="#FFC300"/>
      <circle r="3" cx="573" cy="-240" fill="#00FDFF"/>
      <circle r="3" cx="573" cy="-46" fill="#FFC300"/>
      <circle r="3" cx="576" cy="-240" fill="#00FDFF"/>
      <circle r="3" cx="576" cy="-46" fill="#FFC300"/>
      <circle r="3" cx="579" cy="-240" fill="#00FDFF"/>
      <circle r="3" cx="579" cy="-46" fill="#FFC300"/>
      <circle r="3" cx="582" cy="-240" fill="#00FDFF"/>
      <circle r="3" cx="582" cy="-46" fill="#FFC300"/>
      <circle r="3" cx="585" cy="-240" fill="#00FDFF"/>
      <circle r="3" cx="585" cy="-46" fill="#FFC300"/>
      <circle r="3" cx="588" cy="-240" fill="#00FDFF"/>
      <circle r="3" cx="588" cy="-46" fill="#FFC300"/>
      <circle r="3" cx="591" cy="-240" fill="#00FDFF"/>
      <circle r="3" cx="591" cy="-46" fill="#FFC300"/>
      <circle r="3" cx="594" cy="-240" fill="#00FDFF"/>
      <circle r="3" cx="594" cy="-46" fill="#FFC300"/>
      <circle r="3" cx="597" cy="-240" fill="#00FDFF"/>
      <circle r="3" cx="597" cy="-46" fill="#FFC300"/>
      <circle r="3" cx="600" cy="-240" fill="#00FDFF"/>
      <circle r="3" cx="600" cy="-46" fill="#FFC300"/>
      <circle r="3" cx="603" cy="-240" fill="#00FDFF"/>
      <circle r="3" cx="603" cy="-46" fill="#FFC300"/>
      <circle r="3" cx="606" cy="-240" fill="#00FDFF"/>
      <circle r="3" cx="606" cy="-46" fill="#FFC300"/>
      <circle r="3" cx="609" cy="-242" fill="#00FDFF"/>
      <circle r="3" cx="609" cy="-46" fill="#FFC300"/>
      <circle r="3" cx="612" cy="-244" fill="#00FDFF"/>
      <circle r="3" cx="612" cy="-46" fill="#FFC300"/>
      <circle r="3" cx="615" cy="-246" fill="#00FDFF"/>
      <circle r="3" cx="615" cy="-46" fill="#FFC300"/>
      <circle r="3" cx="618" cy="-248" fill="#00FDFF"/>
      <circle r="3" cx="618" cy="-46" fill="#FFC300"/>
      <circle r="3" cx="621" cy="-250" fill="#00FDFF"/>
      <circle r="3" cx="621" cy="-46" fill="#FFC300"/>
      <circle r="3" cx="624" cy="-252" fill="#00FDFF"/>
      <circle r="3" cx="624" cy="-46" fill="#FFC300"/>
      <circle r="3" cx="627" cy="-252" fill="#00FDFF"/>
      <circle r="3" cx="627" cy="-46" fill="#FFC300"/>
      <circle r="3" cx="630" cy="-252" fill="#00FDFF"/>
      <circle r="3" cx="630" cy="-46" fill="#FFC300"/>
      <circle r="3" cx="633" cy="-252" fill="#00FDFF"/>
      <circle r="3" cx="633" cy="-46" fill="#FFC300"/>
      <circle r="3" cx="636" cy="-254" fill="#00FDFF"/>
      <circle r="3" cx="636" cy="-46" fill="#FFC300"/>
      <circle r="3" cx="639" cy="-256" fill="#00FDFF"/>
      <circle r="3" cx="639" cy="-46" fill="#FFC300"/>
      <circle r="3" cx="642" cy="-258" fill="#00FDFF"/>
      <circle r="3" cx="642" cy="-46" fill="#FFC300"/>
      <circle r="3" cx="645" cy="-260" fill="#00FDFF"/>
      <circle r="3" cx="645" cy="-46" fill="#FFC300"/>
      <circle r="3" cx="648" cy="-262" fill="#00FDFF"/>
      <circle r="3" cx="648" cy="-46" fill="#FFC300"/>
      <circle r="3" cx="651" cy="-262" fill="#00FDFF"/>
      <circle r="3" cx="651" cy="-46" fill="#FFC300"/>
      <circle r="3" cx="654" cy="-262" fill="#00FDFF"/>
      <circle r="3" cx="654" cy="-46" fill="#FFC300"/>
      <circle r="3" cx="657" cy="-262" fill="#00FDFF"/>
      <circle r="3" cx="657" cy="-46" fill="#FFC300"/>
      <circle r="3" cx="660" cy="-264" fill="#00FDFF"/>
      <circle r="3" cx="660" cy="-46" fill="#FFC300"/>
      <circle r="3" cx="663" cy="-266" fill="#00FDFF"/>
      <circle r="3" cx="663" cy="-46" fill="#FFC300"/>
      <circle r="3" cx="666" cy="-268" fill="#00FDFF"/>
      <circle r="3" cx="666" cy="-46" fill="#FFC300"/>
      <circle r="3" cx="669" cy="-270" fill="#00FDFF"/>
      <circle r="3" cx="669" cy="-46" fill="#FFC300"/>
      <circle r="3" cx="672" cy="-270" fill="#00FDFF"/>
      <circle r="3" cx="672" cy="-46" fill="#FFC300"/>
      <circle r="3" cx="675" cy="-270" fill="#00FDFF"/>
      <circle r="3" cx="675" cy="-46" fill="#FFC300"/>
      <circle r="3" cx="678" cy="-270" fill="#00FDFF"/>
      <circle r="3" cx="678" cy="-46" fill="#FFC300"/>
      <circle r="3" cx="681" cy="-272" fill="#00FDFF"/>
      <circle r="3" cx="681" cy="-46" fill="#FFC300"/>
      <circle r="3" cx="684" cy="-274" fill="#00FDFF"/>
      <circle r="3" cx="684" cy="-46" fill="#FFC300"/>
      <circle r="3" cx="687" cy="-276" fill="#00FDFF"/>
      <circle r="3" cx="687" cy="-46" fill="#FFC300"/>
      <circle r="3" cx="690" cy="-276" fill="#00FDFF"/>
      <circle r="3" cx="690" cy="-46" fill="#FFC300"/>
      <circle r="3" cx="693" cy="-276" fill="#00FDFF"/>
      <circle r="3" cx="693" cy="-46" fill="#FFC300"/>
      <circle r="3" cx="696" cy="-276" fill="#00FDFF"/>
      <circle r="3" cx="696" cy="-46" fill="#FFC300"/>
      <circle r="3" cx="699" cy="-278" fill="#00FDFF"/>
      <circle r="3" cx="699" cy="-46" fill="#FFC300"/>
      <circle r="3" cx="702" cy="-278" fill="#00FDFF"/>
      <circle r="3" cx="702" cy="-46" fill="#FFC300"/>
      <circle r="3" cx="705" cy="-278" fill="#00FDFF"/>
      <circle r="3" cx="705" cy="-46" fill="#FFC300"/>
      <circle r="3" cx="708" cy="-278" fill="#00FDFF"/>
      <circle r="3" cx="708" cy="-46" fill="#FFC300"/>
      <circle r="3" cx="711" cy="-280" fill="#00FDFF"/>
      <circle r="3" cx="711" cy="-46" fill="#FFC300"/>
      <circle r="3" cx="714" cy="-282" fill="#00FDFF"/>
      <circle r="3" cx="714" cy="-46" fill="#FFC300"/>
      <circle r="3" cx="717" cy="-284" fill="#00FDFF"/>
      <circle r="3" cx="717" cy="-46" fill="#FFC300"/>
      <circle r="3" cx="720" cy="-284" fill="#00FDFF"/>
      <circle r="3" cx="720" cy="-46" fill="#FFC300"/>
      <circle r="3" cx="723" cy="-284" fill="#00FDFF"/>
      <circle r="3" cx="723" cy="-46" fill="#FFC300"/>
      <circle r="3" cx="726" cy="-284" fill="#00FDFF"/>
      <circle r="3" cx="726" cy="-46" fill="#FFC300"/>
      <circle r="3" cx="729" cy="-284" fill="#00FDFF"/>
      <circle r="3" cx="729" cy="-46" fill="#FFC300"/>
      <circle r="3" cx="732" cy="-284" fill="#00FDFF"/>
      <circle r="3" cx="732" cy="-46" fill="#FFC300"/>
      <circle r="3" cx="735" cy="-284" fill="#00FDFF"/>
      <circle r="3" cx="735" cy="-46" fill="#FFC300"/>
      <circle r="3" cx="738" cy="-286" fill="#00FDFF"/>
      <circle r="3" cx="738" cy="-46" fill="#FFC300"/>
      <circle r="3" cx="741" cy="-288" fill="#00FDFF"/>
      <circle r="3" cx="741" cy="-46" fill="#FFC300"/>
      <circle r="3" cx="744" cy="-288" fill="#00FDFF"/>
      <circle r="3" cx="744" cy="-46" fill="#FFC300"/>
      <circle r="3" cx="747" cy="-288" fill="#00FDFF"/>
      <circle r="3" cx="747" cy="-46" fill="#FFC300"/>
      <circle r="3" cx="750" cy="-290" fill="#00FDFF"/>
      <circle r="3" cx="750" cy="-46" fill="#FFC300"/>
      <circle r="3" cx="753" cy="-292" fill="#00FDFF"/>
      <circle r="3" cx="753" cy="-46" fill="#FFC300"/>
      <circle r="3" cx="756" cy="-294" fill="#00FDFF"/>
      <circle r="3" cx="756" cy="-46" fill="#FFC300"/>
      <circle r="3" cx="759" cy="-296" fill="#00FDFF"/>
      <circle r="3" cx="759" cy="-46" fill="#FFC300"/>
      <circle r="3" cx="762" cy="-296" fill="#00FDFF"/>
      <circle r="3" cx="762" cy="-46" fill="#FFC300"/>
      <circle r="3" cx="765" cy="-296" fill="#00FDFF"/>
      <circle r="3" cx="765" cy="-46" fill="#FFC300"/>
      <circle r="3" cx="768" cy="-296" fill="#00FDFF"/>
      <circle r="3" cx="768" cy="-46" fill="#FFC300"/>
      <circle r="3" cx="771" cy="-296" fill="#00FDFF"/>
      <circle r="3" cx="771" cy="-46" fill="#FFC300"/>
      <circle r="3" cx="774" cy="-296" fill="#00FDFF"/>
      <circle r="3" cx="774" cy="-48" fill="#FFC300"/>
      <circle r="3" cx="777" cy="-296" fill="#00FDFF"/>
      <circle r="3" cx="777" cy="-50" fill="#FFC300"/>
      <circle r="3" cx="780" cy="-296" fill="#00FDFF"/>
      <circle r="3" cx="780" cy="-50" fill="#FFC300"/>
      <circle r="3" cx="783" cy="-296" fill="#00FDFF"/>
      <circle r="3" cx="783" cy="-50" fill="#FFC300"/>
      <circle r="3" cx="786" cy="-296" fill="#00FDFF"/>
      <circle r="3" cx="786" cy="-50" fill="#FFC300"/>
      <circle r="3" cx="789" cy="-296" fill="#00FDFF"/>
      <circle r="3" cx="789" cy="-50" fill="#FFC300"/>
      <circle r="3" cx="792" cy="-296" fill="#00FDFF"/>
      <circle r="3" cx="792" cy="-50" fill="#FFC300"/>
      <circle r="3" cx="795" cy="-296" fill="#00FDFF"/>
      <circle r="3" cx="795" cy="-50" fill="#FFC300"/>
      <circle r="3" cx="798" cy="-296" fill="#00FDFF"/>
      <circle r="3" cx="798" cy="-50" fill="#FFC300"/>
      <circle r="3" cx="801" cy="-296" fill="#00FDFF"/>
      <circle r="3" cx="801" cy="-50" fill="#FFC300"/>
      <circle r="3" cx="804" cy="-296" fill="#00FDFF"/>
      <circle r="3" cx="804" cy="-50" fill="#FFC300"/>
      <circle r="3" cx="807" cy="-296" fill="#00FDFF"/>
      <circle r="3" cx="807" cy="-50" fill="#FFC300"/>
      <circle r="3" cx="810" cy="-296" fill="#00FDFF"/>
      <circle r="3" cx="810" cy="-50" fill="#FFC300"/>
      <circle r="3" cx="813" cy="-296" fill="#00FDFF"/>
      <circle r="3" cx="813" cy="-50" fill="#FFC300"/>
      <circle r="3" cx="816" cy="-296" fill="#00FDFF"/>
      <circle r="3" cx="816" cy="-50" fill="#FFC300"/>
      <circle r="3" cx="819" cy="-296" fill="#00FDFF"/>
      <circle r="3" cx="819" cy="-50" fill="#FFC300"/>
      <circle r="3" cx="822" cy="-296" fill="#00FDFF"/>
      <circle r="3" cx="822" cy="-50" fill="#FFC300"/>
      <circle r="3" cx="825" cy="-296" fill="#00FDFF"/>
      <circle r="3" cx="825" cy="-50" fill="#FFC300"/>
      <circle r="3" cx="828" cy="-296" fill="#00FDFF"/>
      <circle r="3" cx="828" cy="-50" fill="#FFC300"/>
      <circle r="3" cx="831" cy="-296" fill="#00FDFF"/>
      <circle r="3" cx="831" cy="-50" fill="#FFC300"/>
      <circle r="3" cx="834" cy="-296" fill="#00FDFF"/>
      <circle r="3" cx="834" cy="-50" fill="#FFC300"/>
      <circle r="3" cx="837" cy="-296" fill="#00FDFF"/>
      <circle r="3" cx="837" cy="-50" fill="#FFC300"/>
      <circle r="3" cx="840" cy="-296" fill="#00FDFF"/>
      <circle r="3" cx="840" cy="-50" fill="#FFC300"/>
      <circle r="3" cx="843" cy="-296" fill="#00FDFF"/>
      <circle r="3" cx="843" cy="-50" fill="#FFC300"/>
      <circle r="3" cx="846" cy="-296" fill="#00FDFF"/>
      <circle r="3" cx="846" cy="-50" fill="#FFC300"/>
      <circle r="3" cx="849" cy="-296" fill="#00FDFF"/>
      <circle r="3" cx="849" cy="-50" fill="#FFC300"/>
      <circle r="3" cx="852" cy="-296" fill="#00FDFF"/>
      <circle r="3" cx="852" cy="-50" fill="#FFC300"/>
      <circle r="3" cx="855" cy="-296" fill="#00FDFF"/>
      <circle r="3" cx="855" cy="-50" fill="#FFC300"/>
      <circle r="3" cx="858" cy="-296" fill="#00FDFF"/>
      <circle r="3" cx="858" cy="-50" fill="#FFC300"/>
      <circle r="3" cx="861" cy="-296" fill="#00FDFF"/>
      <circle r="3" cx="861" cy="-50" fill="#FFC300"/>
      <circle r="3" cx="864" cy="-296" fill="#00FDFF"/>
      <circle r="3" cx="864" cy="-50" fill="#FFC300"/>
      <circle r="3" cx="867" cy="-296" fill="#00FDFF"/>
      <circle r="3" cx="867" cy="-50" fill="#FFC300"/>
      <circle r="3" cx="870" cy="-296" fill="#00FDFF"/>
      <circle r="3" cx="870" cy="-50" fill="#FFC300"/>
      <circle r="3" cx="873" cy="-296" fill="#00FDFF"/>
      <circle r="3" cx="873" cy="-50" fill="#FFC300"/>
      <circle r="3" cx="876" cy="-296" fill="#00FDFF"/>
      <circle r="3" cx="876" cy="-50" fill="#FFC300"/>
      <circle r="3" cx="879" cy="-296" fill="#00FDFF"/>
      <circle r="3" cx="879" cy="-50" fill="#FFC300"/>
      <circle r="3" cx="882" cy="-296" fill="#00FDFF"/>
      <circle r="3" cx="882" cy="-50" fill="#FFC300"/>
      <circle r="3" cx="885" cy="-296" fill="#00FDFF"/>
      <circle r="3" cx="885" cy="-50" fill="#FFC300"/>
      <circle r="3" cx="888" cy="-296" fill="#00FDFF"/>
      <circle r="3" cx="888" cy="-50" fill="#FFC300"/>
      <circle r="3" cx="891" cy="-296" fill="#00FDFF"/>
      <circle r="3" cx="891" cy="-50" fill="#FFC300"/>
      <circle r="3" cx="894" cy="-296" fill="#00FDFF"/>
      <circle r="3" cx="894" cy="-50" fill="#FFC300"/>
      <circle r="3" cx="897" cy="-296" fill="#00FDFF"/>
      <circle r="3" cx="897" cy="-50" fill="#FFC300"/>
      <circle r="3" cx="900" cy="-296" fill="#00FDFF"/>
      <circle r="3" cx="900" cy="-50" fill="#FFC300"/>
      <circle r="3" cx="903" cy="-296" fill="#00FDFF"/>
      <circle r="3" cx="903" cy="-50" fill="#FFC300"/>
      <circle r="3" cx="906" cy="-296" fill="#00FDFF"/>
      <circle r="3" cx="906" cy="-50" fill="#FFC300"/>
      <circle r="3" cx="909" cy="-296" fill="#00FDFF"/>
      <circle r="3" cx="909" cy="-50" fill="#FFC300"/>
      <circle r="3" cx="912" cy="-296" fill="#00FDFF"/>
      <circle r="3" cx="912" cy="-50" fill="#FFC300"/>
      <circle r="3" cx="915" cy="-296" fill="#00FDFF"/>
      <circle r="3" cx="915" cy="-50" fill="#FFC300"/>
      <circle r="3" cx="918" cy="-296" fill="#00FDFF"/>
      <circle r="3" cx="918" cy="-50" fill="#FFC300"/>
      <circle r="3" cx="921" cy="-296" fill="#00FDFF"/>
      <circle r="3" cx="921" cy="-50" fill="#FFC300"/>
      <circle r="3" cx="924" cy="-296" fill="#00FDFF"/>
      <circle r="3" cx="924" cy="-50" fill="#FFC300"/>
      <circle r="3" cx="927" cy="-296" fill="#00FDFF"/>
      <circle r="3" cx="927" cy="-50" fill="#FFC300"/>
      <circle r="3" cx="930" cy="-296" fill="#00FDFF"/>
      <circle r="3" cx="930" cy="-50" fill="#FFC300"/>
      <circle r="3" cx="933" cy="-296" fill="#00FDFF"/>
      <circle r="3" cx="933" cy="-50" fill="#FFC300"/>
      <circle r="3" cx="936" cy="-296" fill="#00FDFF"/>
      <circle r="3" cx="936" cy="-50" fill="#FFC300"/>
      <circle r="3" cx="939" cy="-296" fill="#00FDFF"/>
      <circle r="3" cx="939" cy="-50" fill="#FFC300"/>
      <circle r="3" cx="942" cy="-296" fill="#00FDFF"/>
      <circle r="3" cx="942" cy="-50" fill="#FFC300"/>
      <circle r="3" cx="945" cy="-296" fill="#00FDFF"/>
      <circle r="3" cx="945" cy="-50" fill="#FFC300"/>
      <circle r="3" cx="948" cy="-296" fill="#00FDFF"/>
      <circle r="3" cx="948" cy="-50" fill="#FFC300"/>
      <circle r="3" cx="951" cy="-296" fill="#00FDFF"/>
      <circle r="3" cx="951" cy="-50" fill="#FFC300"/>
      <circle r="3" cx="954" cy="-296" fill="#00FDFF"/>
      <circle r="3" cx="954" cy="-50" fill="#FFC300"/>
      <circle r="3" cx="957" cy="-296" fill="#00FDFF"/>
      <circle r="3" cx="957" cy="-50" fill="#FFC300"/>
      <circle r="3" cx="960" cy="-296" fill="#00FDFF"/>
      <circle r="3" cx="960" cy="-50" fill="#FFC300"/>
      <circle r="3" cx="963" cy="-296" fill="#00FDFF"/>
      <circle r="3" cx="963" cy="-50" fill="#FFC300"/>
      <circle r="3" cx="966" cy="-296" fill="#00FDFF"/>
      <circle r="3" cx="966" cy="-50" fill="#FFC300"/>
      <circle r="3" cx="969" cy="-296" fill="#00FDFF"/>
      <circle r="3" cx="969" cy="-50" fill="#FFC300"/>
      <circle r="3" cx="972" cy="-296" fill="#00FDFF"/>
      <circle r="3" cx="972" cy="-50" fill="#FFC300"/>
      <circle r="3" cx="975" cy="-296" fill="#00FDFF"/>
      <circle r="3" cx="975" cy="-50" fill="#FFC300"/>
      <circle r="3" cx="978" cy="-296" fill="#00FDFF"/>
      <circle r="3" cx="978" cy="-50" fill="#FFC300"/>
      <circle r="3" cx="981" cy="-296" fill="#00FDFF"/>
      <circle r="3" cx="981" cy="-50" fill="#FFC300"/>
      <circle r="3" cx="984" cy="-296" fill="#00FDFF"/>
      <circle r="3" cx="984" cy="-50" fill="#FFC300"/>
      <circle r="3" cx="987" cy="-296" fill="#00FDFF"/>
      <circle r="3" cx="987" cy="-50" fill="#FFC300"/>
      <circle r="3" cx="990" cy="-296" fill="#00FDFF"/>
      <circle r="3" cx="990" cy="-50" fill="#FFC300"/>
      <circle r="3" cx="993" cy="-296" fill="#00FDFF"/>
      <circle r="3" cx="993" cy="-50" fill="#FFC300"/>
      <circle r="3" cx="996" cy="-296" fill="#00FDFF"/>
      <circle r="3" cx="996" cy="-50" fill="#FFC300"/>
      <circle r="3" cx="999" cy="-296" fill="#00FDFF"/>
      <circle r="3" cx="999" cy="-50" fill="#FFC300"/>
      <circle r="3" cx="1002" cy="-296" fill="#00FDFF"/>
      <circle r="3" cx="1002" cy="-50" fill="#FFC300"/>
      <circle r="3" cx="1005" cy="-296" fill="#00FDFF"/>
      <circle r="3" cx="1005" cy="-50" fill="#FFC300"/>
      <circle r="3" cx="1008" cy="-296" fill="#00FDFF"/>
      <circle r="3" cx="1008" cy="-50" fill="#FFC300"/>
      <circle r="3" cx="1011" cy="-296" fill="#00FDFF"/>
      <circle r="3" cx="1011" cy="-50" fill="#FFC300"/>
      <circle r="3" cx="1014" cy="-296" fill="#00FDFF"/>
      <circle r="3" cx="1014" cy="-50" fill="#FFC300"/>
      <circle r="3" cx="1017" cy="-296" fill="#00FDFF"/>
      <circle r="3" cx="1017" cy="-50" fill="#FFC300"/>
      <circle r="3" cx="1020" cy="-296" fill="#00FDFF"/>
      <circle r="3" cx="1020" cy="-50" fill="#FFC300"/>
      <circle r="3" cx="1023" cy="-296" fill="#00FDFF"/>
      <circle r="3" cx="1023" cy="-50" fill="#FFC300"/>
      <circle r="3" cx="1026" cy="-296" fill="#00FDFF"/>
      <circle r="3" cx="1026" cy="-50" fill="#FFC300"/>
      <circle r="3" cx="1029" cy="-296" fill="#00FDFF"/>
      <circle r="3" cx="1029" cy="-50" fill="#FFC300"/>
      <circle r="3" cx="1032" cy="-296" fill="#00FDFF"/>
      <circle r="3" cx="1032" cy="-50" fill="#FFC300"/>
      <circle r="3" cx="1035" cy="-296" fill="#00FDFF"/>
      <circle r="3" cx="1035" cy="-50" fill="#FFC300"/>
      <circle r="3" cx="1038" cy="-296" fill="#00FDFF"/>
      <circle r="3" cx="1038" cy="-50" fill="#FFC300"/>
      <circle r="3" cx="1041" cy="-296" fill="#00FDFF"/>
      <circle r="3" cx="1041" cy="-50" fill="#FFC300"/>
      <circle r="3" cx="1044" cy="-296" fill="#00FDFF"/>
      <circle r="3" cx="1044" cy="-50" fill="#FFC300"/>
      <circle r="3" cx="1047" cy="-296" fill="#00FDFF"/>
      <circle r="3" cx="1047" cy="-50" fill="#FFC300"/>
      <circle r="3" cx="1050" cy="-296" fill="#00FDFF"/>
      <circle r="3" cx="1050" cy="-50" fill="#FFC300"/>
      <circle r="3" cx="1053" cy="-296" fill="#00FDFF"/>
      <circle r="3" cx="1053" cy="-52" fill="#FFC300"/>
      <circle r="3" cx="1056" cy="-296" fill="#00FDFF"/>
      <circle r="3" cx="1056" cy="-54" fill="#FFC300"/>
      <circle r="3" cx="1059" cy="-296" fill="#00FDFF"/>
      <circle r="3" cx="1059" cy="-56" fill="#FFC300"/>
      <text x="1065"
            y="-296"
            text-anchor="start"
            alignment-baseline="central"
            fill="#00FDFF">divine</text>
      <text x="1065"
            y="-56"
            text-anchor="start"
            alignment-baseline="central"
            fill="#FFC300">earthly</text>
      <line x1="0" y1="0" x2="1059" y2="0" stroke="black"/>
      <line x1="0" y1="0" x2="0" y2="-321" stroke="black"/>
      <text x="-50"
            y="-148"
            text-anchor="middle"
            font-size="larger"
            transform="rotate(-90 -50 -148)">Occurrences</text>
      <text x="1062"
            y="-3"
            text-anchor="start"
            font-size="larger"
            alignment-baseline="baseline">Percentage
                    of Scene</text>
      <text x="529.5"
            y="-346"
            text-anchor="middle"
            font-size="larger"
            text-decoration="underline">OCCURRENCE OF DIVINE AND
                    EARTHLY TRAITS THROUGHOUT SCENE III.
                        THE STUDY (The Exorcism)</text>
   </g>
</svg>
