<?xml version="1.0" encoding="UTF-8"?>
<svg xmlns="http://www.w3.org/2000/svg">
   <g transform="translate(100, 81)">
      <line x1="-10" y1="-2" x2="0" y2="-2" stroke="black"/>
      <line x1="1.7999999999999998"
            y1="-10"
            x2="1.7999999999999998"
            y2="10"
            stroke="black"/>
      <line x1="0" y1="-2" x2="18" y2="-2" stroke="lightgrey"/>
      <text x="-15" y="-2" text-anchor="end" alignment-baseline="central">1</text>
      <text x="4.8" y="3" text-anchor="start" alignment-baseline="hanging">10%</text>
      <line x1="-10" y1="-4" x2="0" y2="-4" stroke="black"/>
      <line x1="3.5999999999999996"
            y1="-10"
            x2="3.5999999999999996"
            y2="10"
            stroke="black"/>
      <line x1="0" y1="-4" x2="18" y2="-4" stroke="lightgrey"/>
      <text x="-15" y="-4" text-anchor="end" alignment-baseline="central">2</text>
      <text x="6.6" y="3" text-anchor="start" alignment-baseline="hanging">20%</text>
      <line x1="-10" y1="-6" x2="0" y2="-6" stroke="black"/>
      <line x1="5.4" y1="-10" x2="5.4" y2="10" stroke="black"/>
      <line x1="0" y1="-6" x2="18" y2="-6" stroke="lightgrey"/>
      <text x="-15" y="-6" text-anchor="end" alignment-baseline="central">3</text>
      <text x="8.4" y="3" text-anchor="start" alignment-baseline="hanging">30%</text>
      <line x1="-10" y1="-8" x2="0" y2="-8" stroke="black"/>
      <line x1="7.199999999999999"
            y1="-10"
            x2="7.199999999999999"
            y2="10"
            stroke="black"/>
      <line x1="0" y1="-8" x2="18" y2="-8" stroke="lightgrey"/>
      <text x="-15" y="-8" text-anchor="end" alignment-baseline="central">4</text>
      <text x="10.2" y="3" text-anchor="start" alignment-baseline="hanging">40%</text>
      <line x1="-10" y1="-10" x2="0" y2="-10" stroke="black"/>
      <line x1="9" y1="-10" x2="9" y2="10" stroke="black"/>
      <line x1="0" y1="-10" x2="18" y2="-10" stroke="lightgrey"/>
      <text x="-15" y="-10" text-anchor="end" alignment-baseline="central">5</text>
      <text x="12" y="3" text-anchor="start" alignment-baseline="hanging">50%</text>
      <line x1="-10" y1="-12" x2="0" y2="-12" stroke="black"/>
      <line x1="10.8" y1="-10" x2="10.8" y2="10" stroke="black"/>
      <line x1="0" y1="-12" x2="18" y2="-12" stroke="lightgrey"/>
      <text x="-15" y="-12" text-anchor="end" alignment-baseline="central">6</text>
      <text x="13.8" y="3" text-anchor="start" alignment-baseline="hanging">60%</text>
      <line x1="-10" y1="-14" x2="0" y2="-14" stroke="black"/>
      <line x1="12.600000000000001"
            y1="-10"
            x2="12.600000000000001"
            y2="10"
            stroke="black"/>
      <line x1="0" y1="-14" x2="18" y2="-14" stroke="lightgrey"/>
      <text x="-15" y="-14" text-anchor="end" alignment-baseline="central">7</text>
      <text x="15.600000000000001"
            y="3"
            text-anchor="start"
            alignment-baseline="hanging">70%</text>
      <line x1="-10" y1="-16" x2="0" y2="-16" stroke="black"/>
      <line x1="14.399999999999999"
            y1="-10"
            x2="14.399999999999999"
            y2="10"
            stroke="black"/>
      <line x1="0" y1="-16" x2="18" y2="-16" stroke="lightgrey"/>
      <text x="-15" y="-16" text-anchor="end" alignment-baseline="central">8</text>
      <text x="17.4" y="3" text-anchor="start" alignment-baseline="hanging">80%</text>
      <line x1="-10" y1="-18" x2="0" y2="-18" stroke="black"/>
      <line x1="16.200000000000003"
            y1="-10"
            x2="16.200000000000003"
            y2="10"
            stroke="black"/>
      <line x1="0" y1="-18" x2="18" y2="-18" stroke="lightgrey"/>
      <text x="-15" y="-18" text-anchor="end" alignment-baseline="central">9</text>
      <text x="19.200000000000003"
            y="3"
            text-anchor="start"
            alignment-baseline="hanging">90%</text>
      <line x1="-10" y1="-20" x2="0" y2="-20" stroke="black"/>
      <line x1="18" y1="-10" x2="18" y2="10" stroke="black"/>
      <line x1="0" y1="-20" x2="18" y2="-20" stroke="lightgrey"/>
      <text x="-15" y="-20" text-anchor="end" alignment-baseline="central">10</text>
      <text x="21" y="3" text-anchor="start" alignment-baseline="hanging">100%</text>
      <line x1="-10" y1="0" x2="0" y2="0" stroke="black"/>
      <text x="-15" y="0" text-anchor="end" alignment-baseline="central">0</text>
      <circle r="3" cx="3" cy="-0" fill="#00FDFF"/>
      <circle r="3" cx="3" cy="-0" fill="#FFC300"/>
      <circle r="3" cx="6" cy="-2" fill="#00FDFF"/>
      <circle r="3" cx="6" cy="-0" fill="#FFC300"/>
      <circle r="3" cx="9" cy="-2" fill="#00FDFF"/>
      <circle r="3" cx="9" cy="-0" fill="#FFC300"/>
      <circle r="3" cx="12" cy="-4" fill="#00FDFF"/>
      <circle r="3" cx="12" cy="-0" fill="#FFC300"/>
      <circle r="3" cx="15" cy="-4" fill="#00FDFF"/>
      <circle r="3" cx="15" cy="-0" fill="#FFC300"/>
      <circle r="3" cx="18" cy="-6" fill="#00FDFF"/>
      <circle r="3" cx="18" cy="-0" fill="#FFC300"/>
      <text x="24"
            y="-6"
            text-anchor="start"
            alignment-baseline="central"
            fill="#00FDFF">divine</text>
      <text x="24"
            y="-0"
            text-anchor="start"
            alignment-baseline="central"
            fill="#FFC300">earthly</text>
      <line x1="0" y1="0" x2="18" y2="0" stroke="black"/>
      <line x1="0" y1="0" x2="0" y2="-31" stroke="black"/>
      <text x="-50"
            y="-3"
            text-anchor="middle"
            font-size="larger"
            transform="rotate(-90 -50 -3)">Occurrences</text>
      <text x="21"
            y="-3"
            text-anchor="start"
            font-size="larger"
            alignment-baseline="baseline">Percentage
                    of Scene</text>
      <text x="9"
            y="-56"
            text-anchor="middle"
            font-size="larger"
            text-decoration="underline">OCCURRENCE OF DIVINE AND
                    EARTHLY TRAITS THROUGHOUT SCENE XXIV.
                        NIGHT</text>
   </g>
</svg>
