<?xml version="1.0" encoding="UTF-8"?>
<svg xmlns="http://www.w3.org/2000/svg" viewBox="0 -70 550 237">
   <g transform="translate(100, 112)">
      <line x1="-10" y1="-12" x2="0" y2="-12" stroke="black"/>
      <line x1="38" y1="-10" x2="38" y2="10" stroke="black"/>
      <line x1="0" y1="-12" x2="380" y2="-12" stroke="lightgrey"/>
      <text x="-15" y="-12" text-anchor="end" alignment-baseline="central">3</text>
      <text x="37" y="3" text-anchor="end" alignment-baseline="hanging">10%</text>
      <line x1="-10" y1="-24" x2="0" y2="-24" stroke="black"/>
      <line x1="76" y1="-10" x2="76" y2="10" stroke="black"/>
      <line x1="0" y1="-24" x2="380" y2="-24" stroke="lightgrey"/>
      <text x="-15" y="-24" text-anchor="end" alignment-baseline="central">6</text>
      <text x="75" y="3" text-anchor="end" alignment-baseline="hanging">20%</text>
      <line x1="-10" y1="-36" x2="0" y2="-36" stroke="black"/>
      <line x1="114" y1="-10" x2="114" y2="10" stroke="black"/>
      <line x1="0" y1="-36" x2="380" y2="-36" stroke="lightgrey"/>
      <text x="-15" y="-36" text-anchor="end" alignment-baseline="central">9</text>
      <text x="113" y="3" text-anchor="end" alignment-baseline="hanging">30%</text>
      <line x1="-10" y1="-48" x2="0" y2="-48" stroke="black"/>
      <line x1="152" y1="-10" x2="152" y2="10" stroke="black"/>
      <line x1="0" y1="-48" x2="380" y2="-48" stroke="lightgrey"/>
      <text x="-15" y="-48" text-anchor="end" alignment-baseline="central">12</text>
      <text x="151" y="3" text-anchor="end" alignment-baseline="hanging">40%</text>
      <line x1="-10" y1="-60" x2="0" y2="-60" stroke="black"/>
      <line x1="190" y1="-10" x2="190" y2="10" stroke="black"/>
      <line x1="0" y1="-60" x2="380" y2="-60" stroke="lightgrey"/>
      <text x="-15" y="-60" text-anchor="end" alignment-baseline="central">15</text>
      <text x="189" y="3" text-anchor="end" alignment-baseline="hanging">50%</text>
      <line x1="-10" y1="-72" x2="0" y2="-72" stroke="black"/>
      <line x1="228" y1="-10" x2="228" y2="10" stroke="black"/>
      <line x1="0" y1="-72" x2="380" y2="-72" stroke="lightgrey"/>
      <text x="-15" y="-72" text-anchor="end" alignment-baseline="central">18</text>
      <text x="227" y="3" text-anchor="end" alignment-baseline="hanging">60%</text>
      <line x1="-10" y1="-84" x2="0" y2="-84" stroke="black"/>
      <line x1="266" y1="-10" x2="266" y2="10" stroke="black"/>
      <line x1="0" y1="-84" x2="380" y2="-84" stroke="lightgrey"/>
      <text x="-15" y="-84" text-anchor="end" alignment-baseline="central">21</text>
      <text x="265" y="3" text-anchor="end" alignment-baseline="hanging">70%</text>
      <line x1="-10" y1="-96" x2="0" y2="-96" stroke="black"/>
      <line x1="304" y1="-10" x2="304" y2="10" stroke="black"/>
      <line x1="0" y1="-96" x2="380" y2="-96" stroke="lightgrey"/>
      <text x="-15" y="-96" text-anchor="end" alignment-baseline="central">24</text>
      <text x="303" y="3" text-anchor="end" alignment-baseline="hanging">80%</text>
      <line x1="-10" y1="-108" x2="0" y2="-108" stroke="black"/>
      <line x1="342" y1="-10" x2="342" y2="10" stroke="black"/>
      <line x1="0" y1="-108" x2="380" y2="-108" stroke="lightgrey"/>
      <text x="-15" y="-108" text-anchor="end" alignment-baseline="central">27</text>
      <text x="341" y="3" text-anchor="end" alignment-baseline="hanging">90%</text>
      <line x1="-10" y1="-120" x2="0" y2="-120" stroke="black"/>
      <line x1="380" y1="-10" x2="380" y2="10" stroke="black"/>
      <line x1="0" y1="-120" x2="380" y2="-120" stroke="lightgrey"/>
      <text x="-15" y="-120" text-anchor="end" alignment-baseline="central">30</text>
      <text x="379" y="3" text-anchor="end" alignment-baseline="hanging">100%</text>
      <line x1="-10" y1="0" x2="0" y2="0" stroke="black"/>
      <text x="-15" y="0" text-anchor="end" alignment-baseline="central">0</text>
      <circle r="3" cx="5" cy="-0" fill="#00FDFF"/>
      <circle r="3" cx="5" cy="-0" fill="#FFC300"/>
      <circle r="3" cx="5" cy="-0" fill="magenta"/>
      <circle r="3" cx="10" cy="-0" fill="#00FDFF"/>
      <circle r="3" cx="10" cy="-4" fill="#FFC300"/>
      <circle r="3" cx="15" cy="-0" fill="#00FDFF"/>
      <circle r="3" cx="15" cy="-8" fill="#FFC300"/>
      <circle r="3" cx="20" cy="-0" fill="#00FDFF"/>
      <circle r="3" cx="20" cy="-8" fill="#FFC300"/>
      <circle r="3" cx="25" cy="-0" fill="#00FDFF"/>
      <circle r="3" cx="25" cy="-8" fill="#FFC300"/>
      <circle r="3" cx="30" cy="-4" fill="#00FDFF"/>
      <circle r="3" cx="30" cy="-8" fill="#FFC300"/>
      <circle r="3" cx="35" cy="-8" fill="#00FDFF"/>
      <circle r="3" cx="35" cy="-8" fill="#FFC300"/>
      <circle r="3" cx="35" cy="-8" fill="magenta"/>
      <circle r="3" cx="40" cy="-12" fill="#00FDFF"/>
      <circle r="3" cx="40" cy="-8" fill="#FFC300"/>
      <circle r="3" cx="45" cy="-16" fill="#00FDFF"/>
      <circle r="3" cx="45" cy="-8" fill="#FFC300"/>
      <circle r="3" cx="50" cy="-16" fill="#00FDFF"/>
      <circle r="3" cx="50" cy="-12" fill="#FFC300"/>
      <circle r="3" cx="55" cy="-16" fill="#00FDFF"/>
      <circle r="3" cx="55" cy="-16" fill="#FFC300"/>
      <circle r="3" cx="55" cy="-16" fill="magenta"/>
      <circle r="3" cx="60" cy="-16" fill="#00FDFF"/>
      <circle r="3" cx="60" cy="-20" fill="#FFC300"/>
      <circle r="3" cx="65" cy="-16" fill="#00FDFF"/>
      <circle r="3" cx="65" cy="-24" fill="#FFC300"/>
      <circle r="3" cx="70" cy="-16" fill="#00FDFF"/>
      <circle r="3" cx="70" cy="-28" fill="#FFC300"/>
      <circle r="3" cx="75" cy="-16" fill="#00FDFF"/>
      <circle r="3" cx="75" cy="-32" fill="#FFC300"/>
      <circle r="3" cx="80" cy="-16" fill="#00FDFF"/>
      <circle r="3" cx="80" cy="-36" fill="#FFC300"/>
      <circle r="3" cx="85" cy="-16" fill="#00FDFF"/>
      <circle r="3" cx="85" cy="-36" fill="#FFC300"/>
      <circle r="3" cx="90" cy="-16" fill="#00FDFF"/>
      <circle r="3" cx="90" cy="-40" fill="#FFC300"/>
      <circle r="3" cx="95" cy="-16" fill="#00FDFF"/>
      <circle r="3" cx="95" cy="-40" fill="#FFC300"/>
      <circle r="3" cx="100" cy="-16" fill="#00FDFF"/>
      <circle r="3" cx="100" cy="-40" fill="#FFC300"/>
      <circle r="3" cx="105" cy="-16" fill="#00FDFF"/>
      <circle r="3" cx="105" cy="-40" fill="#FFC300"/>
      <circle r="3" cx="110" cy="-16" fill="#00FDFF"/>
      <circle r="3" cx="110" cy="-40" fill="#FFC300"/>
      <circle r="3" cx="115" cy="-16" fill="#00FDFF"/>
      <circle r="3" cx="115" cy="-40" fill="#FFC300"/>
      <circle r="3" cx="120" cy="-16" fill="#00FDFF"/>
      <circle r="3" cx="120" cy="-40" fill="#FFC300"/>
      <circle r="3" cx="125" cy="-16" fill="#00FDFF"/>
      <circle r="3" cx="125" cy="-44" fill="#FFC300"/>
      <circle r="3" cx="130" cy="-16" fill="#00FDFF"/>
      <circle r="3" cx="130" cy="-44" fill="#FFC300"/>
      <circle r="3" cx="135" cy="-16" fill="#00FDFF"/>
      <circle r="3" cx="135" cy="-44" fill="#FFC300"/>
      <circle r="3" cx="140" cy="-16" fill="#00FDFF"/>
      <circle r="3" cx="140" cy="-44" fill="#FFC300"/>
      <circle r="3" cx="145" cy="-16" fill="#00FDFF"/>
      <circle r="3" cx="145" cy="-44" fill="#FFC300"/>
      <circle r="3" cx="150" cy="-16" fill="#00FDFF"/>
      <circle r="3" cx="150" cy="-44" fill="#FFC300"/>
      <circle r="3" cx="155" cy="-16" fill="#00FDFF"/>
      <circle r="3" cx="155" cy="-48" fill="#FFC300"/>
      <circle r="3" cx="160" cy="-16" fill="#00FDFF"/>
      <circle r="3" cx="160" cy="-52" fill="#FFC300"/>
      <circle r="3" cx="165" cy="-16" fill="#00FDFF"/>
      <circle r="3" cx="165" cy="-56" fill="#FFC300"/>
      <circle r="3" cx="170" cy="-16" fill="#00FDFF"/>
      <circle r="3" cx="170" cy="-60" fill="#FFC300"/>
      <circle r="3" cx="175" cy="-16" fill="#00FDFF"/>
      <circle r="3" cx="175" cy="-64" fill="#FFC300"/>
      <circle r="3" cx="180" cy="-16" fill="#00FDFF"/>
      <circle r="3" cx="180" cy="-68" fill="#FFC300"/>
      <circle r="3" cx="185" cy="-16" fill="#00FDFF"/>
      <circle r="3" cx="185" cy="-68" fill="#FFC300"/>
      <circle r="3" cx="190" cy="-16" fill="#00FDFF"/>
      <circle r="3" cx="190" cy="-68" fill="#FFC300"/>
      <circle r="3" cx="195" cy="-16" fill="#00FDFF"/>
      <circle r="3" cx="195" cy="-68" fill="#FFC300"/>
      <circle r="3" cx="200" cy="-16" fill="#00FDFF"/>
      <circle r="3" cx="200" cy="-72" fill="#FFC300"/>
      <circle r="3" cx="205" cy="-16" fill="#00FDFF"/>
      <circle r="3" cx="205" cy="-76" fill="#FFC300"/>
      <circle r="3" cx="210" cy="-16" fill="#00FDFF"/>
      <circle r="3" cx="210" cy="-80" fill="#FFC300"/>
      <circle r="3" cx="215" cy="-16" fill="#00FDFF"/>
      <circle r="3" cx="215" cy="-80" fill="#FFC300"/>
      <circle r="3" cx="220" cy="-16" fill="#00FDFF"/>
      <circle r="3" cx="220" cy="-80" fill="#FFC300"/>
      <circle r="3" cx="225" cy="-16" fill="#00FDFF"/>
      <circle r="3" cx="225" cy="-80" fill="#FFC300"/>
      <circle r="3" cx="230" cy="-16" fill="#00FDFF"/>
      <circle r="3" cx="230" cy="-80" fill="#FFC300"/>
      <circle r="3" cx="235" cy="-16" fill="#00FDFF"/>
      <circle r="3" cx="235" cy="-80" fill="#FFC300"/>
      <circle r="3" cx="240" cy="-16" fill="#00FDFF"/>
      <circle r="3" cx="240" cy="-80" fill="#FFC300"/>
      <circle r="3" cx="245" cy="-16" fill="#00FDFF"/>
      <circle r="3" cx="245" cy="-80" fill="#FFC300"/>
      <circle r="3" cx="250" cy="-16" fill="#00FDFF"/>
      <circle r="3" cx="250" cy="-80" fill="#FFC300"/>
      <circle r="3" cx="255" cy="-16" fill="#00FDFF"/>
      <circle r="3" cx="255" cy="-84" fill="#FFC300"/>
      <circle r="3" cx="260" cy="-16" fill="#00FDFF"/>
      <circle r="3" cx="260" cy="-84" fill="#FFC300"/>
      <circle r="3" cx="265" cy="-16" fill="#00FDFF"/>
      <circle r="3" cx="265" cy="-84" fill="#FFC300"/>
      <circle r="3" cx="270" cy="-16" fill="#00FDFF"/>
      <circle r="3" cx="270" cy="-84" fill="#FFC300"/>
      <circle r="3" cx="275" cy="-16" fill="#00FDFF"/>
      <circle r="3" cx="275" cy="-84" fill="#FFC300"/>
      <circle r="3" cx="280" cy="-16" fill="#00FDFF"/>
      <circle r="3" cx="280" cy="-84" fill="#FFC300"/>
      <circle r="3" cx="285" cy="-16" fill="#00FDFF"/>
      <circle r="3" cx="285" cy="-88" fill="#FFC300"/>
      <circle r="3" cx="290" cy="-16" fill="#00FDFF"/>
      <circle r="3" cx="290" cy="-92" fill="#FFC300"/>
      <circle r="3" cx="295" cy="-16" fill="#00FDFF"/>
      <circle r="3" cx="295" cy="-96" fill="#FFC300"/>
      <circle r="3" cx="300" cy="-16" fill="#00FDFF"/>
      <circle r="3" cx="300" cy="-100" fill="#FFC300"/>
      <circle r="3" cx="305" cy="-16" fill="#00FDFF"/>
      <circle r="3" cx="305" cy="-100" fill="#FFC300"/>
      <circle r="3" cx="310" cy="-16" fill="#00FDFF"/>
      <circle r="3" cx="310" cy="-100" fill="#FFC300"/>
      <circle r="3" cx="315" cy="-16" fill="#00FDFF"/>
      <circle r="3" cx="315" cy="-100" fill="#FFC300"/>
      <circle r="3" cx="320" cy="-16" fill="#00FDFF"/>
      <circle r="3" cx="320" cy="-100" fill="#FFC300"/>
      <circle r="3" cx="325" cy="-16" fill="#00FDFF"/>
      <circle r="3" cx="325" cy="-104" fill="#FFC300"/>
      <circle r="3" cx="330" cy="-16" fill="#00FDFF"/>
      <circle r="3" cx="330" cy="-104" fill="#FFC300"/>
      <circle r="3" cx="335" cy="-16" fill="#00FDFF"/>
      <circle r="3" cx="335" cy="-104" fill="#FFC300"/>
      <circle r="3" cx="340" cy="-16" fill="#00FDFF"/>
      <circle r="3" cx="340" cy="-104" fill="#FFC300"/>
      <circle r="3" cx="345" cy="-16" fill="#00FDFF"/>
      <circle r="3" cx="345" cy="-104" fill="#FFC300"/>
      <circle r="3" cx="350" cy="-16" fill="#00FDFF"/>
      <circle r="3" cx="350" cy="-104" fill="#FFC300"/>
      <circle r="3" cx="355" cy="-16" fill="#00FDFF"/>
      <circle r="3" cx="355" cy="-108" fill="#FFC300"/>
      <circle r="3" cx="360" cy="-16" fill="#00FDFF"/>
      <circle r="3" cx="360" cy="-108" fill="#FFC300"/>
      <circle r="3" cx="365" cy="-16" fill="#00FDFF"/>
      <circle r="3" cx="365" cy="-112" fill="#FFC300"/>
      <circle r="3" cx="370" cy="-16" fill="#00FDFF"/>
      <circle r="3" cx="370" cy="-112" fill="#FFC300"/>
      <circle r="3" cx="375" cy="-16" fill="#00FDFF"/>
      <circle r="3" cx="375" cy="-112" fill="#FFC300"/>
      <circle r="3" cx="380" cy="-16" fill="#00FDFF"/>
      <circle r="3" cx="380" cy="-112" fill="#FFC300"/>
      <text x="390"
            y="-16"
            text-anchor="start"
            alignment-baseline="central"
            fill="#00FDFF">divine</text>
      <text x="390"
            y="-112"
            text-anchor="start"
            alignment-baseline="central"
            fill="#FFC300">earthly</text>
      <line x1="0" y1="0" x2="380" y2="0" stroke="black"/>
      <line x1="0" y1="0" x2="0" y2="-137" stroke="black"/>
      <text x="-50"
            y="-56"
            text-anchor="middle"
            font-size="larger"
            transform="rotate(-90 -50 -56)">Occurrences</text>
      <text x="190"
            y="50"
            text-anchor="middle"
            font-size="larger"
            alignment-baseline="baseline">Percentage of Scene</text>
      <text x="190"
            y="-162"
            text-anchor="middle"
            font-size="larger"
            text-decoration="underline">OCCURRENCE
                    OF DIVINE AND EARTHLY TRAITS THROUGHOUT SCENE VII. A STREET</text>
   </g>
</svg>
