<?xml version="1.0" encoding="UTF-8"?>
<svg xmlns="http://www.w3.org/2000/svg">
   <g transform="translate(100, 137)">
      <line x1="-10" y1="-8" x2="0" y2="-8" stroke="black"/>
      <line x1="64.80000000000001"
            y1="-10"
            x2="64.80000000000001"
            y2="10"
            stroke="black"/>
      <line x1="0" y1="-8" x2="648" y2="-8" stroke="lightgrey"/>
      <text x="-15" y="-8" text-anchor="end" alignment-baseline="central">4</text>
      <text x="67.80000000000001"
            y="3"
            text-anchor="start"
            alignment-baseline="hanging">10%</text>
      <line x1="-10" y1="-16" x2="0" y2="-16" stroke="black"/>
      <line x1="129.60000000000002"
            y1="-10"
            x2="129.60000000000002"
            y2="10"
            stroke="black"/>
      <line x1="0" y1="-16" x2="648" y2="-16" stroke="lightgrey"/>
      <text x="-15" y="-16" text-anchor="end" alignment-baseline="central">8</text>
      <text x="132.60000000000002"
            y="3"
            text-anchor="start"
            alignment-baseline="hanging">20%</text>
      <line x1="-10" y1="-24" x2="0" y2="-24" stroke="black"/>
      <line x1="194.39999999999998"
            y1="-10"
            x2="194.39999999999998"
            y2="10"
            stroke="black"/>
      <line x1="0" y1="-24" x2="648" y2="-24" stroke="lightgrey"/>
      <text x="-15" y="-24" text-anchor="end" alignment-baseline="central">12</text>
      <text x="197.39999999999998"
            y="3"
            text-anchor="start"
            alignment-baseline="hanging">30%</text>
      <line x1="-10" y1="-32" x2="0" y2="-32" stroke="black"/>
      <line x1="259.20000000000005"
            y1="-10"
            x2="259.20000000000005"
            y2="10"
            stroke="black"/>
      <line x1="0" y1="-32" x2="648" y2="-32" stroke="lightgrey"/>
      <text x="-15" y="-32" text-anchor="end" alignment-baseline="central">16</text>
      <text x="262.20000000000005"
            y="3"
            text-anchor="start"
            alignment-baseline="hanging">40%</text>
      <line x1="-10" y1="-40" x2="0" y2="-40" stroke="black"/>
      <line x1="324" y1="-10" x2="324" y2="10" stroke="black"/>
      <line x1="0" y1="-40" x2="648" y2="-40" stroke="lightgrey"/>
      <text x="-15" y="-40" text-anchor="end" alignment-baseline="central">20</text>
      <text x="327" y="3" text-anchor="start" alignment-baseline="hanging">50%</text>
      <line x1="-10" y1="-48" x2="0" y2="-48" stroke="black"/>
      <line x1="388.79999999999995"
            y1="-10"
            x2="388.79999999999995"
            y2="10"
            stroke="black"/>
      <line x1="0" y1="-48" x2="648" y2="-48" stroke="lightgrey"/>
      <text x="-15" y="-48" text-anchor="end" alignment-baseline="central">24</text>
      <text x="391.79999999999995"
            y="3"
            text-anchor="start"
            alignment-baseline="hanging">60%</text>
      <line x1="-10" y1="-56" x2="0" y2="-56" stroke="black"/>
      <line x1="453.59999999999997"
            y1="-10"
            x2="453.59999999999997"
            y2="10"
            stroke="black"/>
      <line x1="0" y1="-56" x2="648" y2="-56" stroke="lightgrey"/>
      <text x="-15" y="-56" text-anchor="end" alignment-baseline="central">28</text>
      <text x="456.59999999999997"
            y="3"
            text-anchor="start"
            alignment-baseline="hanging">70%</text>
      <line x1="-10" y1="-64" x2="0" y2="-64" stroke="black"/>
      <line x1="518.4000000000001"
            y1="-10"
            x2="518.4000000000001"
            y2="10"
            stroke="black"/>
      <line x1="0" y1="-64" x2="648" y2="-64" stroke="lightgrey"/>
      <text x="-15" y="-64" text-anchor="end" alignment-baseline="central">32</text>
      <text x="521.4000000000001"
            y="3"
            text-anchor="start"
            alignment-baseline="hanging">80%</text>
      <line x1="-10" y1="-72" x2="0" y2="-72" stroke="black"/>
      <line x1="583.2" y1="-10" x2="583.2" y2="10" stroke="black"/>
      <line x1="0" y1="-72" x2="648" y2="-72" stroke="lightgrey"/>
      <text x="-15" y="-72" text-anchor="end" alignment-baseline="central">36</text>
      <text x="586.2"
            y="3"
            text-anchor="start"
            alignment-baseline="hanging">90%</text>
      <line x1="-10" y1="-80" x2="0" y2="-80" stroke="black"/>
      <line x1="648" y1="-10" x2="648" y2="10" stroke="black"/>
      <line x1="0" y1="-80" x2="648" y2="-80" stroke="lightgrey"/>
      <text x="-15" y="-80" text-anchor="end" alignment-baseline="central">40</text>
      <text x="651" y="3" text-anchor="start" alignment-baseline="hanging">100%</text>
      <line x1="-10" y1="0" x2="0" y2="0" stroke="black"/>
      <text x="-15" y="0" text-anchor="end" alignment-baseline="central">0</text>
      <circle r="3" cx="3" cy="-0" fill="#00FDFF"/>
      <circle r="3" cx="3" cy="-0" fill="#FFC300"/>
      <circle r="3" cx="6" cy="-2" fill="#00FDFF"/>
      <circle r="3" cx="6" cy="-0" fill="#FFC300"/>
      <circle r="3" cx="9" cy="-2" fill="#00FDFF"/>
      <circle r="3" cx="9" cy="-2" fill="#FFC300"/>
      <circle r="3" cx="12" cy="-4" fill="#00FDFF"/>
      <circle r="3" cx="12" cy="-2" fill="#FFC300"/>
      <circle r="3" cx="15" cy="-6" fill="#00FDFF"/>
      <circle r="3" cx="15" cy="-2" fill="#FFC300"/>
      <circle r="3" cx="18" cy="-6" fill="#00FDFF"/>
      <circle r="3" cx="18" cy="-4" fill="#FFC300"/>
      <circle r="3" cx="21" cy="-6" fill="#00FDFF"/>
      <circle r="3" cx="21" cy="-6" fill="#FFC300"/>
      <circle r="3" cx="24" cy="-6" fill="#00FDFF"/>
      <circle r="3" cx="24" cy="-8" fill="#FFC300"/>
      <circle r="3" cx="27" cy="-8" fill="#00FDFF"/>
      <circle r="3" cx="27" cy="-8" fill="#FFC300"/>
      <circle r="3" cx="30" cy="-10" fill="#00FDFF"/>
      <circle r="3" cx="30" cy="-8" fill="#FFC300"/>
      <circle r="3" cx="33" cy="-12" fill="#00FDFF"/>
      <circle r="3" cx="33" cy="-8" fill="#FFC300"/>
      <circle r="3" cx="36" cy="-14" fill="#00FDFF"/>
      <circle r="3" cx="36" cy="-8" fill="#FFC300"/>
      <circle r="3" cx="39" cy="-16" fill="#00FDFF"/>
      <circle r="3" cx="39" cy="-8" fill="#FFC300"/>
      <circle r="3" cx="42" cy="-18" fill="#00FDFF"/>
      <circle r="3" cx="42" cy="-8" fill="#FFC300"/>
      <circle r="3" cx="45" cy="-20" fill="#00FDFF"/>
      <circle r="3" cx="45" cy="-8" fill="#FFC300"/>
      <circle r="3" cx="48" cy="-22" fill="#00FDFF"/>
      <circle r="3" cx="48" cy="-8" fill="#FFC300"/>
      <circle r="3" cx="51" cy="-24" fill="#00FDFF"/>
      <circle r="3" cx="51" cy="-8" fill="#FFC300"/>
      <circle r="3" cx="54" cy="-24" fill="#00FDFF"/>
      <circle r="3" cx="54" cy="-10" fill="#FFC300"/>
      <circle r="3" cx="57" cy="-24" fill="#00FDFF"/>
      <circle r="3" cx="57" cy="-12" fill="#FFC300"/>
      <circle r="3" cx="60" cy="-24" fill="#00FDFF"/>
      <circle r="3" cx="60" cy="-12" fill="#FFC300"/>
      <circle r="3" cx="63" cy="-26" fill="#00FDFF"/>
      <circle r="3" cx="63" cy="-12" fill="#FFC300"/>
      <circle r="3" cx="66" cy="-26" fill="#00FDFF"/>
      <circle r="3" cx="66" cy="-12" fill="#FFC300"/>
      <circle r="3" cx="69" cy="-28" fill="#00FDFF"/>
      <circle r="3" cx="69" cy="-12" fill="#FFC300"/>
      <circle r="3" cx="72" cy="-28" fill="#00FDFF"/>
      <circle r="3" cx="72" cy="-12" fill="#FFC300"/>
      <circle r="3" cx="75" cy="-28" fill="#00FDFF"/>
      <circle r="3" cx="75" cy="-12" fill="#FFC300"/>
      <circle r="3" cx="78" cy="-28" fill="#00FDFF"/>
      <circle r="3" cx="78" cy="-12" fill="#FFC300"/>
      <circle r="3" cx="81" cy="-28" fill="#00FDFF"/>
      <circle r="3" cx="81" cy="-12" fill="#FFC300"/>
      <circle r="3" cx="84" cy="-28" fill="#00FDFF"/>
      <circle r="3" cx="84" cy="-12" fill="#FFC300"/>
      <circle r="3" cx="87" cy="-28" fill="#00FDFF"/>
      <circle r="3" cx="87" cy="-12" fill="#FFC300"/>
      <circle r="3" cx="90" cy="-28" fill="#00FDFF"/>
      <circle r="3" cx="90" cy="-12" fill="#FFC300"/>
      <circle r="3" cx="93" cy="-28" fill="#00FDFF"/>
      <circle r="3" cx="93" cy="-12" fill="#FFC300"/>
      <circle r="3" cx="96" cy="-28" fill="#00FDFF"/>
      <circle r="3" cx="96" cy="-12" fill="#FFC300"/>
      <circle r="3" cx="99" cy="-28" fill="#00FDFF"/>
      <circle r="3" cx="99" cy="-12" fill="#FFC300"/>
      <circle r="3" cx="102" cy="-28" fill="#00FDFF"/>
      <circle r="3" cx="102" cy="-12" fill="#FFC300"/>
      <circle r="3" cx="105" cy="-28" fill="#00FDFF"/>
      <circle r="3" cx="105" cy="-12" fill="#FFC300"/>
      <circle r="3" cx="108" cy="-28" fill="#00FDFF"/>
      <circle r="3" cx="108" cy="-12" fill="#FFC300"/>
      <circle r="3" cx="111" cy="-28" fill="#00FDFF"/>
      <circle r="3" cx="111" cy="-12" fill="#FFC300"/>
      <circle r="3" cx="114" cy="-30" fill="#00FDFF"/>
      <circle r="3" cx="114" cy="-12" fill="#FFC300"/>
      <circle r="3" cx="117" cy="-30" fill="#00FDFF"/>
      <circle r="3" cx="117" cy="-12" fill="#FFC300"/>
      <circle r="3" cx="120" cy="-30" fill="#00FDFF"/>
      <circle r="3" cx="120" cy="-12" fill="#FFC300"/>
      <circle r="3" cx="123" cy="-30" fill="#00FDFF"/>
      <circle r="3" cx="123" cy="-12" fill="#FFC300"/>
      <circle r="3" cx="126" cy="-30" fill="#00FDFF"/>
      <circle r="3" cx="126" cy="-12" fill="#FFC300"/>
      <circle r="3" cx="129" cy="-30" fill="#00FDFF"/>
      <circle r="3" cx="129" cy="-12" fill="#FFC300"/>
      <circle r="3" cx="132" cy="-30" fill="#00FDFF"/>
      <circle r="3" cx="132" cy="-12" fill="#FFC300"/>
      <circle r="3" cx="135" cy="-30" fill="#00FDFF"/>
      <circle r="3" cx="135" cy="-12" fill="#FFC300"/>
      <circle r="3" cx="138" cy="-30" fill="#00FDFF"/>
      <circle r="3" cx="138" cy="-12" fill="#FFC300"/>
      <circle r="3" cx="141" cy="-30" fill="#00FDFF"/>
      <circle r="3" cx="141" cy="-12" fill="#FFC300"/>
      <circle r="3" cx="144" cy="-32" fill="#00FDFF"/>
      <circle r="3" cx="144" cy="-12" fill="#FFC300"/>
      <circle r="3" cx="147" cy="-34" fill="#00FDFF"/>
      <circle r="3" cx="147" cy="-12" fill="#FFC300"/>
      <circle r="3" cx="150" cy="-34" fill="#00FDFF"/>
      <circle r="3" cx="150" cy="-12" fill="#FFC300"/>
      <circle r="3" cx="153" cy="-34" fill="#00FDFF"/>
      <circle r="3" cx="153" cy="-12" fill="#FFC300"/>
      <circle r="3" cx="156" cy="-34" fill="#00FDFF"/>
      <circle r="3" cx="156" cy="-12" fill="#FFC300"/>
      <circle r="3" cx="159" cy="-34" fill="#00FDFF"/>
      <circle r="3" cx="159" cy="-12" fill="#FFC300"/>
      <circle r="3" cx="162" cy="-34" fill="#00FDFF"/>
      <circle r="3" cx="162" cy="-12" fill="#FFC300"/>
      <circle r="3" cx="165" cy="-34" fill="#00FDFF"/>
      <circle r="3" cx="165" cy="-12" fill="#FFC300"/>
      <circle r="3" cx="168" cy="-34" fill="#00FDFF"/>
      <circle r="3" cx="168" cy="-12" fill="#FFC300"/>
      <circle r="3" cx="171" cy="-34" fill="#00FDFF"/>
      <circle r="3" cx="171" cy="-12" fill="#FFC300"/>
      <circle r="3" cx="174" cy="-36" fill="#00FDFF"/>
      <circle r="3" cx="174" cy="-12" fill="#FFC300"/>
      <circle r="3" cx="177" cy="-36" fill="#00FDFF"/>
      <circle r="3" cx="177" cy="-12" fill="#FFC300"/>
      <circle r="3" cx="180" cy="-36" fill="#00FDFF"/>
      <circle r="3" cx="180" cy="-12" fill="#FFC300"/>
      <circle r="3" cx="183" cy="-36" fill="#00FDFF"/>
      <circle r="3" cx="183" cy="-12" fill="#FFC300"/>
      <circle r="3" cx="186" cy="-36" fill="#00FDFF"/>
      <circle r="3" cx="186" cy="-12" fill="#FFC300"/>
      <circle r="3" cx="189" cy="-36" fill="#00FDFF"/>
      <circle r="3" cx="189" cy="-12" fill="#FFC300"/>
      <circle r="3" cx="192" cy="-36" fill="#00FDFF"/>
      <circle r="3" cx="192" cy="-12" fill="#FFC300"/>
      <circle r="3" cx="195" cy="-36" fill="#00FDFF"/>
      <circle r="3" cx="195" cy="-12" fill="#FFC300"/>
      <circle r="3" cx="198" cy="-36" fill="#00FDFF"/>
      <circle r="3" cx="198" cy="-12" fill="#FFC300"/>
      <circle r="3" cx="201" cy="-36" fill="#00FDFF"/>
      <circle r="3" cx="201" cy="-12" fill="#FFC300"/>
      <circle r="3" cx="204" cy="-38" fill="#00FDFF"/>
      <circle r="3" cx="204" cy="-12" fill="#FFC300"/>
      <circle r="3" cx="207" cy="-38" fill="#00FDFF"/>
      <circle r="3" cx="207" cy="-12" fill="#FFC300"/>
      <circle r="3" cx="210" cy="-38" fill="#00FDFF"/>
      <circle r="3" cx="210" cy="-12" fill="#FFC300"/>
      <circle r="3" cx="213" cy="-38" fill="#00FDFF"/>
      <circle r="3" cx="213" cy="-12" fill="#FFC300"/>
      <circle r="3" cx="216" cy="-38" fill="#00FDFF"/>
      <circle r="3" cx="216" cy="-12" fill="#FFC300"/>
      <circle r="3" cx="219" cy="-38" fill="#00FDFF"/>
      <circle r="3" cx="219" cy="-12" fill="#FFC300"/>
      <circle r="3" cx="222" cy="-38" fill="#00FDFF"/>
      <circle r="3" cx="222" cy="-12" fill="#FFC300"/>
      <circle r="3" cx="225" cy="-38" fill="#00FDFF"/>
      <circle r="3" cx="225" cy="-12" fill="#FFC300"/>
      <circle r="3" cx="228" cy="-38" fill="#00FDFF"/>
      <circle r="3" cx="228" cy="-12" fill="#FFC300"/>
      <circle r="3" cx="231" cy="-38" fill="#00FDFF"/>
      <circle r="3" cx="231" cy="-12" fill="#FFC300"/>
      <circle r="3" cx="234" cy="-40" fill="#00FDFF"/>
      <circle r="3" cx="234" cy="-12" fill="#FFC300"/>
      <circle r="3" cx="237" cy="-40" fill="#00FDFF"/>
      <circle r="3" cx="237" cy="-12" fill="#FFC300"/>
      <circle r="3" cx="240" cy="-40" fill="#00FDFF"/>
      <circle r="3" cx="240" cy="-12" fill="#FFC300"/>
      <circle r="3" cx="243" cy="-42" fill="#00FDFF"/>
      <circle r="3" cx="243" cy="-12" fill="#FFC300"/>
      <circle r="3" cx="246" cy="-42" fill="#00FDFF"/>
      <circle r="3" cx="246" cy="-14" fill="#FFC300"/>
      <circle r="3" cx="249" cy="-42" fill="#00FDFF"/>
      <circle r="3" cx="249" cy="-16" fill="#FFC300"/>
      <circle r="3" cx="252" cy="-42" fill="#00FDFF"/>
      <circle r="3" cx="252" cy="-16" fill="#FFC300"/>
      <circle r="3" cx="255" cy="-42" fill="#00FDFF"/>
      <circle r="3" cx="255" cy="-16" fill="#FFC300"/>
      <circle r="3" cx="258" cy="-42" fill="#00FDFF"/>
      <circle r="3" cx="258" cy="-16" fill="#FFC300"/>
      <circle r="3" cx="261" cy="-42" fill="#00FDFF"/>
      <circle r="3" cx="261" cy="-16" fill="#FFC300"/>
      <circle r="3" cx="264" cy="-42" fill="#00FDFF"/>
      <circle r="3" cx="264" cy="-16" fill="#FFC300"/>
      <circle r="3" cx="267" cy="-42" fill="#00FDFF"/>
      <circle r="3" cx="267" cy="-16" fill="#FFC300"/>
      <circle r="3" cx="270" cy="-42" fill="#00FDFF"/>
      <circle r="3" cx="270" cy="-16" fill="#FFC300"/>
      <circle r="3" cx="273" cy="-42" fill="#00FDFF"/>
      <circle r="3" cx="273" cy="-16" fill="#FFC300"/>
      <circle r="3" cx="276" cy="-42" fill="#00FDFF"/>
      <circle r="3" cx="276" cy="-16" fill="#FFC300"/>
      <circle r="3" cx="279" cy="-42" fill="#00FDFF"/>
      <circle r="3" cx="279" cy="-16" fill="#FFC300"/>
      <circle r="3" cx="282" cy="-42" fill="#00FDFF"/>
      <circle r="3" cx="282" cy="-16" fill="#FFC300"/>
      <circle r="3" cx="285" cy="-42" fill="#00FDFF"/>
      <circle r="3" cx="285" cy="-16" fill="#FFC300"/>
      <circle r="3" cx="288" cy="-42" fill="#00FDFF"/>
      <circle r="3" cx="288" cy="-16" fill="#FFC300"/>
      <circle r="3" cx="291" cy="-42" fill="#00FDFF"/>
      <circle r="3" cx="291" cy="-16" fill="#FFC300"/>
      <circle r="3" cx="294" cy="-42" fill="#00FDFF"/>
      <circle r="3" cx="294" cy="-18" fill="#FFC300"/>
      <circle r="3" cx="297" cy="-42" fill="#00FDFF"/>
      <circle r="3" cx="297" cy="-20" fill="#FFC300"/>
      <circle r="3" cx="300" cy="-42" fill="#00FDFF"/>
      <circle r="3" cx="300" cy="-22" fill="#FFC300"/>
      <circle r="3" cx="303" cy="-42" fill="#00FDFF"/>
      <circle r="3" cx="303" cy="-22" fill="#FFC300"/>
      <circle r="3" cx="306" cy="-44" fill="#00FDFF"/>
      <circle r="3" cx="306" cy="-22" fill="#FFC300"/>
      <circle r="3" cx="309" cy="-44" fill="#00FDFF"/>
      <circle r="3" cx="309" cy="-22" fill="#FFC300"/>
      <circle r="3" cx="312" cy="-44" fill="#00FDFF"/>
      <circle r="3" cx="312" cy="-22" fill="#FFC300"/>
      <circle r="3" cx="315" cy="-44" fill="#00FDFF"/>
      <circle r="3" cx="315" cy="-22" fill="#FFC300"/>
      <circle r="3" cx="318" cy="-44" fill="#00FDFF"/>
      <circle r="3" cx="318" cy="-22" fill="#FFC300"/>
      <circle r="3" cx="321" cy="-46" fill="#00FDFF"/>
      <circle r="3" cx="321" cy="-22" fill="#FFC300"/>
      <circle r="3" cx="324" cy="-46" fill="#00FDFF"/>
      <circle r="3" cx="324" cy="-22" fill="#FFC300"/>
      <circle r="3" cx="327" cy="-46" fill="#00FDFF"/>
      <circle r="3" cx="327" cy="-22" fill="#FFC300"/>
      <circle r="3" cx="330" cy="-46" fill="#00FDFF"/>
      <circle r="3" cx="330" cy="-22" fill="#FFC300"/>
      <circle r="3" cx="333" cy="-46" fill="#00FDFF"/>
      <circle r="3" cx="333" cy="-22" fill="#FFC300"/>
      <circle r="3" cx="336" cy="-46" fill="#00FDFF"/>
      <circle r="3" cx="336" cy="-22" fill="#FFC300"/>
      <circle r="3" cx="339" cy="-46" fill="#00FDFF"/>
      <circle r="3" cx="339" cy="-22" fill="#FFC300"/>
      <circle r="3" cx="342" cy="-46" fill="#00FDFF"/>
      <circle r="3" cx="342" cy="-22" fill="#FFC300"/>
      <circle r="3" cx="345" cy="-46" fill="#00FDFF"/>
      <circle r="3" cx="345" cy="-22" fill="#FFC300"/>
      <circle r="3" cx="348" cy="-46" fill="#00FDFF"/>
      <circle r="3" cx="348" cy="-22" fill="#FFC300"/>
      <circle r="3" cx="351" cy="-46" fill="#00FDFF"/>
      <circle r="3" cx="351" cy="-22" fill="#FFC300"/>
      <circle r="3" cx="354" cy="-46" fill="#00FDFF"/>
      <circle r="3" cx="354" cy="-22" fill="#FFC300"/>
      <circle r="3" cx="357" cy="-46" fill="#00FDFF"/>
      <circle r="3" cx="357" cy="-24" fill="#FFC300"/>
      <circle r="3" cx="360" cy="-46" fill="#00FDFF"/>
      <circle r="3" cx="360" cy="-26" fill="#FFC300"/>
      <circle r="3" cx="363" cy="-46" fill="#00FDFF"/>
      <circle r="3" cx="363" cy="-26" fill="#FFC300"/>
      <circle r="3" cx="366" cy="-46" fill="#00FDFF"/>
      <circle r="3" cx="366" cy="-26" fill="#FFC300"/>
      <circle r="3" cx="369" cy="-46" fill="#00FDFF"/>
      <circle r="3" cx="369" cy="-26" fill="#FFC300"/>
      <circle r="3" cx="372" cy="-46" fill="#00FDFF"/>
      <circle r="3" cx="372" cy="-26" fill="#FFC300"/>
      <circle r="3" cx="375" cy="-46" fill="#00FDFF"/>
      <circle r="3" cx="375" cy="-26" fill="#FFC300"/>
      <circle r="3" cx="378" cy="-46" fill="#00FDFF"/>
      <circle r="3" cx="378" cy="-26" fill="#FFC300"/>
      <circle r="3" cx="381" cy="-46" fill="#00FDFF"/>
      <circle r="3" cx="381" cy="-26" fill="#FFC300"/>
      <circle r="3" cx="384" cy="-46" fill="#00FDFF"/>
      <circle r="3" cx="384" cy="-26" fill="#FFC300"/>
      <circle r="3" cx="387" cy="-46" fill="#00FDFF"/>
      <circle r="3" cx="387" cy="-26" fill="#FFC300"/>
      <circle r="3" cx="390" cy="-46" fill="#00FDFF"/>
      <circle r="3" cx="390" cy="-26" fill="#FFC300"/>
      <circle r="3" cx="393" cy="-46" fill="#00FDFF"/>
      <circle r="3" cx="393" cy="-26" fill="#FFC300"/>
      <circle r="3" cx="396" cy="-46" fill="#00FDFF"/>
      <circle r="3" cx="396" cy="-26" fill="#FFC300"/>
      <circle r="3" cx="399" cy="-46" fill="#00FDFF"/>
      <circle r="3" cx="399" cy="-26" fill="#FFC300"/>
      <circle r="3" cx="402" cy="-46" fill="#00FDFF"/>
      <circle r="3" cx="402" cy="-26" fill="#FFC300"/>
      <circle r="3" cx="405" cy="-46" fill="#00FDFF"/>
      <circle r="3" cx="405" cy="-26" fill="#FFC300"/>
      <circle r="3" cx="408" cy="-46" fill="#00FDFF"/>
      <circle r="3" cx="408" cy="-26" fill="#FFC300"/>
      <circle r="3" cx="411" cy="-48" fill="#00FDFF"/>
      <circle r="3" cx="411" cy="-26" fill="#FFC300"/>
      <circle r="3" cx="414" cy="-48" fill="#00FDFF"/>
      <circle r="3" cx="414" cy="-26" fill="#FFC300"/>
      <circle r="3" cx="417" cy="-50" fill="#00FDFF"/>
      <circle r="3" cx="417" cy="-26" fill="#FFC300"/>
      <circle r="3" cx="420" cy="-50" fill="#00FDFF"/>
      <circle r="3" cx="420" cy="-26" fill="#FFC300"/>
      <circle r="3" cx="423" cy="-50" fill="#00FDFF"/>
      <circle r="3" cx="423" cy="-26" fill="#FFC300"/>
      <circle r="3" cx="426" cy="-50" fill="#00FDFF"/>
      <circle r="3" cx="426" cy="-26" fill="#FFC300"/>
      <circle r="3" cx="429" cy="-50" fill="#00FDFF"/>
      <circle r="3" cx="429" cy="-26" fill="#FFC300"/>
      <circle r="3" cx="432" cy="-50" fill="#00FDFF"/>
      <circle r="3" cx="432" cy="-26" fill="#FFC300"/>
      <circle r="3" cx="435" cy="-52" fill="#00FDFF"/>
      <circle r="3" cx="435" cy="-26" fill="#FFC300"/>
      <circle r="3" cx="438" cy="-52" fill="#00FDFF"/>
      <circle r="3" cx="438" cy="-26" fill="#FFC300"/>
      <circle r="3" cx="441" cy="-52" fill="#00FDFF"/>
      <circle r="3" cx="441" cy="-26" fill="#FFC300"/>
      <circle r="3" cx="444" cy="-52" fill="#00FDFF"/>
      <circle r="3" cx="444" cy="-26" fill="#FFC300"/>
      <circle r="3" cx="447" cy="-52" fill="#00FDFF"/>
      <circle r="3" cx="447" cy="-26" fill="#FFC300"/>
      <circle r="3" cx="450" cy="-52" fill="#00FDFF"/>
      <circle r="3" cx="450" cy="-26" fill="#FFC300"/>
      <circle r="3" cx="453" cy="-52" fill="#00FDFF"/>
      <circle r="3" cx="453" cy="-26" fill="#FFC300"/>
      <circle r="3" cx="456" cy="-54" fill="#00FDFF"/>
      <circle r="3" cx="456" cy="-26" fill="#FFC300"/>
      <circle r="3" cx="459" cy="-54" fill="#00FDFF"/>
      <circle r="3" cx="459" cy="-26" fill="#FFC300"/>
      <circle r="3" cx="462" cy="-54" fill="#00FDFF"/>
      <circle r="3" cx="462" cy="-26" fill="#FFC300"/>
      <circle r="3" cx="465" cy="-54" fill="#00FDFF"/>
      <circle r="3" cx="465" cy="-26" fill="#FFC300"/>
      <circle r="3" cx="468" cy="-54" fill="#00FDFF"/>
      <circle r="3" cx="468" cy="-26" fill="#FFC300"/>
      <circle r="3" cx="471" cy="-54" fill="#00FDFF"/>
      <circle r="3" cx="471" cy="-26" fill="#FFC300"/>
      <circle r="3" cx="474" cy="-54" fill="#00FDFF"/>
      <circle r="3" cx="474" cy="-26" fill="#FFC300"/>
      <circle r="3" cx="477" cy="-54" fill="#00FDFF"/>
      <circle r="3" cx="477" cy="-26" fill="#FFC300"/>
      <circle r="3" cx="480" cy="-54" fill="#00FDFF"/>
      <circle r="3" cx="480" cy="-26" fill="#FFC300"/>
      <circle r="3" cx="483" cy="-54" fill="#00FDFF"/>
      <circle r="3" cx="483" cy="-26" fill="#FFC300"/>
      <circle r="3" cx="486" cy="-54" fill="#00FDFF"/>
      <circle r="3" cx="486" cy="-26" fill="#FFC300"/>
      <circle r="3" cx="489" cy="-54" fill="#00FDFF"/>
      <circle r="3" cx="489" cy="-26" fill="#FFC300"/>
      <circle r="3" cx="492" cy="-54" fill="#00FDFF"/>
      <circle r="3" cx="492" cy="-26" fill="#FFC300"/>
      <circle r="3" cx="495" cy="-56" fill="#00FDFF"/>
      <circle r="3" cx="495" cy="-26" fill="#FFC300"/>
      <circle r="3" cx="498" cy="-58" fill="#00FDFF"/>
      <circle r="3" cx="498" cy="-26" fill="#FFC300"/>
      <circle r="3" cx="501" cy="-58" fill="#00FDFF"/>
      <circle r="3" cx="501" cy="-26" fill="#FFC300"/>
      <circle r="3" cx="504" cy="-58" fill="#00FDFF"/>
      <circle r="3" cx="504" cy="-26" fill="#FFC300"/>
      <circle r="3" cx="507" cy="-58" fill="#00FDFF"/>
      <circle r="3" cx="507" cy="-26" fill="#FFC300"/>
      <circle r="3" cx="510" cy="-58" fill="#00FDFF"/>
      <circle r="3" cx="510" cy="-26" fill="#FFC300"/>
      <circle r="3" cx="513" cy="-58" fill="#00FDFF"/>
      <circle r="3" cx="513" cy="-26" fill="#FFC300"/>
      <circle r="3" cx="516" cy="-58" fill="#00FDFF"/>
      <circle r="3" cx="516" cy="-26" fill="#FFC300"/>
      <circle r="3" cx="519" cy="-58" fill="#00FDFF"/>
      <circle r="3" cx="519" cy="-26" fill="#FFC300"/>
      <circle r="3" cx="522" cy="-58" fill="#00FDFF"/>
      <circle r="3" cx="522" cy="-26" fill="#FFC300"/>
      <circle r="3" cx="525" cy="-58" fill="#00FDFF"/>
      <circle r="3" cx="525" cy="-26" fill="#FFC300"/>
      <circle r="3" cx="528" cy="-58" fill="#00FDFF"/>
      <circle r="3" cx="528" cy="-28" fill="#FFC300"/>
      <circle r="3" cx="531" cy="-58" fill="#00FDFF"/>
      <circle r="3" cx="531" cy="-30" fill="#FFC300"/>
      <circle r="3" cx="534" cy="-58" fill="#00FDFF"/>
      <circle r="3" cx="534" cy="-30" fill="#FFC300"/>
      <circle r="3" cx="537" cy="-58" fill="#00FDFF"/>
      <circle r="3" cx="537" cy="-30" fill="#FFC300"/>
      <circle r="3" cx="540" cy="-58" fill="#00FDFF"/>
      <circle r="3" cx="540" cy="-30" fill="#FFC300"/>
      <circle r="3" cx="543" cy="-60" fill="#00FDFF"/>
      <circle r="3" cx="543" cy="-30" fill="#FFC300"/>
      <circle r="3" cx="546" cy="-60" fill="#00FDFF"/>
      <circle r="3" cx="546" cy="-30" fill="#FFC300"/>
      <circle r="3" cx="549" cy="-60" fill="#00FDFF"/>
      <circle r="3" cx="549" cy="-30" fill="#FFC300"/>
      <circle r="3" cx="552" cy="-60" fill="#00FDFF"/>
      <circle r="3" cx="552" cy="-30" fill="#FFC300"/>
      <circle r="3" cx="555" cy="-60" fill="#00FDFF"/>
      <circle r="3" cx="555" cy="-30" fill="#FFC300"/>
      <circle r="3" cx="558" cy="-60" fill="#00FDFF"/>
      <circle r="3" cx="558" cy="-30" fill="#FFC300"/>
      <circle r="3" cx="561" cy="-60" fill="#00FDFF"/>
      <circle r="3" cx="561" cy="-30" fill="#FFC300"/>
      <circle r="3" cx="564" cy="-60" fill="#00FDFF"/>
      <circle r="3" cx="564" cy="-30" fill="#FFC300"/>
      <circle r="3" cx="567" cy="-60" fill="#00FDFF"/>
      <circle r="3" cx="567" cy="-30" fill="#FFC300"/>
      <circle r="3" cx="570" cy="-60" fill="#00FDFF"/>
      <circle r="3" cx="570" cy="-30" fill="#FFC300"/>
      <circle r="3" cx="573" cy="-60" fill="#00FDFF"/>
      <circle r="3" cx="573" cy="-30" fill="#FFC300"/>
      <circle r="3" cx="576" cy="-60" fill="#00FDFF"/>
      <circle r="3" cx="576" cy="-30" fill="#FFC300"/>
      <circle r="3" cx="579" cy="-60" fill="#00FDFF"/>
      <circle r="3" cx="579" cy="-30" fill="#FFC300"/>
      <circle r="3" cx="582" cy="-60" fill="#00FDFF"/>
      <circle r="3" cx="582" cy="-30" fill="#FFC300"/>
      <circle r="3" cx="585" cy="-60" fill="#00FDFF"/>
      <circle r="3" cx="585" cy="-30" fill="#FFC300"/>
      <circle r="3" cx="588" cy="-60" fill="#00FDFF"/>
      <circle r="3" cx="588" cy="-30" fill="#FFC300"/>
      <circle r="3" cx="591" cy="-60" fill="#00FDFF"/>
      <circle r="3" cx="591" cy="-30" fill="#FFC300"/>
      <circle r="3" cx="594" cy="-60" fill="#00FDFF"/>
      <circle r="3" cx="594" cy="-32" fill="#FFC300"/>
      <circle r="3" cx="597" cy="-60" fill="#00FDFF"/>
      <circle r="3" cx="597" cy="-32" fill="#FFC300"/>
      <circle r="3" cx="600" cy="-60" fill="#00FDFF"/>
      <circle r="3" cx="600" cy="-32" fill="#FFC300"/>
      <circle r="3" cx="603" cy="-60" fill="#00FDFF"/>
      <circle r="3" cx="603" cy="-32" fill="#FFC300"/>
      <circle r="3" cx="606" cy="-60" fill="#00FDFF"/>
      <circle r="3" cx="606" cy="-32" fill="#FFC300"/>
      <circle r="3" cx="609" cy="-60" fill="#00FDFF"/>
      <circle r="3" cx="609" cy="-32" fill="#FFC300"/>
      <circle r="3" cx="612" cy="-60" fill="#00FDFF"/>
      <circle r="3" cx="612" cy="-32" fill="#FFC300"/>
      <circle r="3" cx="615" cy="-60" fill="#00FDFF"/>
      <circle r="3" cx="615" cy="-32" fill="#FFC300"/>
      <circle r="3" cx="618" cy="-60" fill="#00FDFF"/>
      <circle r="3" cx="618" cy="-32" fill="#FFC300"/>
      <circle r="3" cx="621" cy="-62" fill="#00FDFF"/>
      <circle r="3" cx="621" cy="-32" fill="#FFC300"/>
      <circle r="3" cx="624" cy="-62" fill="#00FDFF"/>
      <circle r="3" cx="624" cy="-32" fill="#FFC300"/>
      <circle r="3" cx="627" cy="-62" fill="#00FDFF"/>
      <circle r="3" cx="627" cy="-32" fill="#FFC300"/>
      <circle r="3" cx="630" cy="-62" fill="#00FDFF"/>
      <circle r="3" cx="630" cy="-32" fill="#FFC300"/>
      <circle r="3" cx="633" cy="-62" fill="#00FDFF"/>
      <circle r="3" cx="633" cy="-32" fill="#FFC300"/>
      <circle r="3" cx="636" cy="-62" fill="#00FDFF"/>
      <circle r="3" cx="636" cy="-32" fill="#FFC300"/>
      <circle r="3" cx="639" cy="-62" fill="#00FDFF"/>
      <circle r="3" cx="639" cy="-32" fill="#FFC300"/>
      <circle r="3" cx="642" cy="-62" fill="#00FDFF"/>
      <circle r="3" cx="642" cy="-32" fill="#FFC300"/>
      <circle r="3" cx="645" cy="-62" fill="#00FDFF"/>
      <circle r="3" cx="645" cy="-32" fill="#FFC300"/>
      <circle r="3" cx="648" cy="-62" fill="#00FDFF"/>
      <circle r="3" cx="648" cy="-32" fill="#FFC300"/>
      <text x="654"
            y="-62"
            text-anchor="start"
            alignment-baseline="central"
            fill="#00FDFF">divine</text>
      <text x="654"
            y="-32"
            text-anchor="start"
            alignment-baseline="central"
            fill="#FFC300">earthly</text>
      <line x1="0" y1="0" x2="648" y2="0" stroke="black"/>
      <line x1="0" y1="0" x2="0" y2="-87" stroke="black"/>
      <text x="-50"
            y="-31"
            text-anchor="middle"
            font-size="larger"
            transform="rotate(-90 -50 -31)">Occurrences</text>
      <text x="651"
            y="-3"
            text-anchor="start"
            font-size="larger"
            alignment-baseline="baseline">Percentage
                    of Scene</text>
      <text x="324"
            y="-112"
            text-anchor="middle"
            font-size="larger"
            text-decoration="underline">OCCURRENCE OF DIVINE AND
                    EARTHLY TRAITS THROUGHOUT SCENE XXV.
                        DUNGEON</text>
   </g>
</svg>
