<?xml version="1.0" encoding="UTF-8"?>
<svg xmlns="http://www.w3.org/2000/svg" viewBox="0 -70 1332 125">
   <g transform="translate(100, 0)">
      <line x1="-10" y1="-0" x2="0" y2="-0" stroke="black"/>
      <line x1="116.20000000000002"
            y1="-10"
            x2="116.20000000000002"
            y2="10"
            stroke="black"/>
      <line x1="0" y1="-0" x2="1162" y2="-0" stroke="lightgrey"/>
      <text x="-15" y="-0" text-anchor="end" alignment-baseline="central">0</text>
      <text x="115.20000000000002"
            y="3"
            text-anchor="end"
            alignment-baseline="hanging">10%</text>
      <line x1="-10" y1="-0" x2="0" y2="-0" stroke="black"/>
      <line x1="232.40000000000003"
            y1="-10"
            x2="232.40000000000003"
            y2="10"
            stroke="black"/>
      <line x1="0" y1="-0" x2="1162" y2="-0" stroke="lightgrey"/>
      <text x="-15" y="-0" text-anchor="end" alignment-baseline="central">0</text>
      <text x="231.40000000000003"
            y="3"
            text-anchor="end"
            alignment-baseline="hanging">20%</text>
      <line x1="-10" y1="-0" x2="0" y2="-0" stroke="black"/>
      <line x1="348.59999999999997"
            y1="-10"
            x2="348.59999999999997"
            y2="10"
            stroke="black"/>
      <line x1="0" y1="-0" x2="1162" y2="-0" stroke="lightgrey"/>
      <text x="-15" y="-0" text-anchor="end" alignment-baseline="central">0</text>
      <text x="347.59999999999997"
            y="3"
            text-anchor="end"
            alignment-baseline="hanging">30%</text>
      <line x1="-10" y1="-0" x2="0" y2="-0" stroke="black"/>
      <line x1="464.80000000000007"
            y1="-10"
            x2="464.80000000000007"
            y2="10"
            stroke="black"/>
      <line x1="0" y1="-0" x2="1162" y2="-0" stroke="lightgrey"/>
      <text x="-15" y="-0" text-anchor="end" alignment-baseline="central">0</text>
      <text x="463.80000000000007"
            y="3"
            text-anchor="end"
            alignment-baseline="hanging">40%</text>
      <line x1="-10" y1="-0" x2="0" y2="-0" stroke="black"/>
      <line x1="581" y1="-10" x2="581" y2="10" stroke="black"/>
      <line x1="0" y1="-0" x2="1162" y2="-0" stroke="lightgrey"/>
      <text x="-15" y="-0" text-anchor="end" alignment-baseline="central">0</text>
      <text x="580" y="3" text-anchor="end" alignment-baseline="hanging">50%</text>
      <line x1="-10" y1="-0" x2="0" y2="-0" stroke="black"/>
      <line x1="697.1999999999999"
            y1="-10"
            x2="697.1999999999999"
            y2="10"
            stroke="black"/>
      <line x1="0" y1="-0" x2="1162" y2="-0" stroke="lightgrey"/>
      <text x="-15" y="-0" text-anchor="end" alignment-baseline="central">0</text>
      <text x="696.1999999999999"
            y="3"
            text-anchor="end"
            alignment-baseline="hanging">60%</text>
      <line x1="-10" y1="-0" x2="0" y2="-0" stroke="black"/>
      <line x1="813.4" y1="-10" x2="813.4" y2="10" stroke="black"/>
      <line x1="0" y1="-0" x2="1162" y2="-0" stroke="lightgrey"/>
      <text x="-15" y="-0" text-anchor="end" alignment-baseline="central">0</text>
      <text x="812.4" y="3" text-anchor="end" alignment-baseline="hanging">70%</text>
      <line x1="-10" y1="-0" x2="0" y2="-0" stroke="black"/>
      <line x1="929.6000000000001"
            y1="-10"
            x2="929.6000000000001"
            y2="10"
            stroke="black"/>
      <line x1="0" y1="-0" x2="1162" y2="-0" stroke="lightgrey"/>
      <text x="-15" y="-0" text-anchor="end" alignment-baseline="central">0</text>
      <text x="928.6000000000001"
            y="3"
            text-anchor="end"
            alignment-baseline="hanging">80%</text>
      <line x1="-10" y1="-0" x2="0" y2="-0" stroke="black"/>
      <line x1="1045.8" y1="-10" x2="1045.8" y2="10" stroke="black"/>
      <line x1="0" y1="-0" x2="1162" y2="-0" stroke="lightgrey"/>
      <text x="-15" y="-0" text-anchor="end" alignment-baseline="central">0</text>
      <text x="1044.8" y="3" text-anchor="end" alignment-baseline="hanging">90%</text>
      <line x1="-10" y1="-0" x2="0" y2="-0" stroke="black"/>
      <line x1="1162" y1="-10" x2="1162" y2="10" stroke="black"/>
      <line x1="0" y1="-0" x2="1162" y2="-0" stroke="lightgrey"/>
      <text x="-15" y="-0" text-anchor="end" alignment-baseline="central">0</text>
      <text x="1161" y="3" text-anchor="end" alignment-baseline="hanging">100%</text>
      <line x1="-10" y1="0" x2="0" y2="0" stroke="black"/>
      <text x="-15" y="0" text-anchor="end" alignment-baseline="central">0</text>
      <circle r="3" cx="7" cy="-0" fill="#00FDFF"/>
      <circle r="3" cx="7" cy="-0" fill="#FFC300"/>
      <circle r="3" cx="7" cy="-0" fill="magenta"/>
      <circle r="3" cx="14" cy="-0" fill="#00FDFF"/>
      <circle r="3" cx="14" cy="-0" fill="#FFC300"/>
      <circle r="3" cx="14" cy="-0" fill="magenta"/>
      <circle r="3" cx="21" cy="-0" fill="#00FDFF"/>
      <circle r="3" cx="21" cy="-0" fill="#FFC300"/>
      <circle r="3" cx="21" cy="-0" fill="magenta"/>
      <circle r="3" cx="28" cy="-0" fill="#00FDFF"/>
      <circle r="3" cx="28" cy="-0" fill="#FFC300"/>
      <circle r="3" cx="28" cy="-0" fill="magenta"/>
      <circle r="3" cx="35" cy="-0" fill="#00FDFF"/>
      <circle r="3" cx="35" cy="-0" fill="#FFC300"/>
      <circle r="3" cx="35" cy="-0" fill="magenta"/>
      <circle r="3" cx="42" cy="-0" fill="#00FDFF"/>
      <circle r="3" cx="42" cy="-0" fill="#FFC300"/>
      <circle r="3" cx="42" cy="-0" fill="magenta"/>
      <circle r="3" cx="49" cy="-0" fill="#00FDFF"/>
      <circle r="3" cx="49" cy="-0" fill="#FFC300"/>
      <circle r="3" cx="49" cy="-0" fill="magenta"/>
      <circle r="3" cx="56" cy="-0" fill="#00FDFF"/>
      <circle r="3" cx="56" cy="-0" fill="#FFC300"/>
      <circle r="3" cx="56" cy="-0" fill="magenta"/>
      <circle r="3" cx="63" cy="-0" fill="#00FDFF"/>
      <circle r="3" cx="63" cy="-0" fill="#FFC300"/>
      <circle r="3" cx="63" cy="-0" fill="magenta"/>
      <circle r="3" cx="70" cy="-0" fill="#00FDFF"/>
      <circle r="3" cx="70" cy="-0" fill="#FFC300"/>
      <circle r="3" cx="70" cy="-0" fill="magenta"/>
      <circle r="3" cx="77" cy="-0" fill="#00FDFF"/>
      <circle r="3" cx="77" cy="-0" fill="#FFC300"/>
      <circle r="3" cx="77" cy="-0" fill="magenta"/>
      <circle r="3" cx="84" cy="-0" fill="#00FDFF"/>
      <circle r="3" cx="84" cy="-0" fill="#FFC300"/>
      <circle r="3" cx="84" cy="-0" fill="magenta"/>
      <circle r="3" cx="91" cy="-0" fill="#00FDFF"/>
      <circle r="3" cx="91" cy="-0" fill="#FFC300"/>
      <circle r="3" cx="91" cy="-0" fill="magenta"/>
      <circle r="3" cx="98" cy="-0" fill="#00FDFF"/>
      <circle r="3" cx="98" cy="-0" fill="#FFC300"/>
      <circle r="3" cx="98" cy="-0" fill="magenta"/>
      <circle r="3" cx="105" cy="-0" fill="#00FDFF"/>
      <circle r="3" cx="105" cy="-0" fill="#FFC300"/>
      <circle r="3" cx="105" cy="-0" fill="magenta"/>
      <circle r="3" cx="112" cy="-0" fill="#00FDFF"/>
      <circle r="3" cx="112" cy="-0" fill="#FFC300"/>
      <circle r="3" cx="112" cy="-0" fill="magenta"/>
      <circle r="3" cx="119" cy="-0" fill="#00FDFF"/>
      <circle r="3" cx="119" cy="-0" fill="#FFC300"/>
      <circle r="3" cx="119" cy="-0" fill="magenta"/>
      <circle r="3" cx="126" cy="-0" fill="#00FDFF"/>
      <circle r="3" cx="126" cy="-0" fill="#FFC300"/>
      <circle r="3" cx="126" cy="-0" fill="magenta"/>
      <circle r="3" cx="133" cy="-0" fill="#00FDFF"/>
      <circle r="3" cx="133" cy="-0" fill="#FFC300"/>
      <circle r="3" cx="133" cy="-0" fill="magenta"/>
      <circle r="3" cx="140" cy="-0" fill="#00FDFF"/>
      <circle r="3" cx="140" cy="-0" fill="#FFC300"/>
      <circle r="3" cx="140" cy="-0" fill="magenta"/>
      <circle r="3" cx="147" cy="-0" fill="#00FDFF"/>
      <circle r="3" cx="147" cy="-0" fill="#FFC300"/>
      <circle r="3" cx="147" cy="-0" fill="magenta"/>
      <circle r="3" cx="154" cy="-0" fill="#00FDFF"/>
      <circle r="3" cx="154" cy="-0" fill="#FFC300"/>
      <circle r="3" cx="154" cy="-0" fill="magenta"/>
      <circle r="3" cx="161" cy="-0" fill="#00FDFF"/>
      <circle r="3" cx="161" cy="-0" fill="#FFC300"/>
      <circle r="3" cx="161" cy="-0" fill="magenta"/>
      <circle r="3" cx="168" cy="-0" fill="#00FDFF"/>
      <circle r="3" cx="168" cy="-0" fill="#FFC300"/>
      <circle r="3" cx="168" cy="-0" fill="magenta"/>
      <circle r="3" cx="175" cy="-0" fill="#00FDFF"/>
      <circle r="3" cx="175" cy="-0" fill="#FFC300"/>
      <circle r="3" cx="175" cy="-0" fill="magenta"/>
      <circle r="3" cx="182" cy="-0" fill="#00FDFF"/>
      <circle r="3" cx="182" cy="-0" fill="#FFC300"/>
      <circle r="3" cx="182" cy="-0" fill="magenta"/>
      <circle r="3" cx="189" cy="-0" fill="#00FDFF"/>
      <circle r="3" cx="189" cy="-0" fill="#FFC300"/>
      <circle r="3" cx="189" cy="-0" fill="magenta"/>
      <circle r="3" cx="196" cy="-0" fill="#00FDFF"/>
      <circle r="3" cx="196" cy="-0" fill="#FFC300"/>
      <circle r="3" cx="196" cy="-0" fill="magenta"/>
      <circle r="3" cx="203" cy="-0" fill="#00FDFF"/>
      <circle r="3" cx="203" cy="-0" fill="#FFC300"/>
      <circle r="3" cx="203" cy="-0" fill="magenta"/>
      <circle r="3" cx="210" cy="-0" fill="#00FDFF"/>
      <circle r="3" cx="210" cy="-0" fill="#FFC300"/>
      <circle r="3" cx="210" cy="-0" fill="magenta"/>
      <circle r="3" cx="217" cy="-0" fill="#00FDFF"/>
      <circle r="3" cx="217" cy="-0" fill="#FFC300"/>
      <circle r="3" cx="217" cy="-0" fill="magenta"/>
      <circle r="3" cx="224" cy="-0" fill="#00FDFF"/>
      <circle r="3" cx="224" cy="-0" fill="#FFC300"/>
      <circle r="3" cx="224" cy="-0" fill="magenta"/>
      <circle r="3" cx="231" cy="-0" fill="#00FDFF"/>
      <circle r="3" cx="231" cy="-0" fill="#FFC300"/>
      <circle r="3" cx="231" cy="-0" fill="magenta"/>
      <circle r="3" cx="238" cy="-0" fill="#00FDFF"/>
      <circle r="3" cx="238" cy="-0" fill="#FFC300"/>
      <circle r="3" cx="238" cy="-0" fill="magenta"/>
      <circle r="3" cx="245" cy="-0" fill="#00FDFF"/>
      <circle r="3" cx="245" cy="-0" fill="#FFC300"/>
      <circle r="3" cx="245" cy="-0" fill="magenta"/>
      <circle r="3" cx="252" cy="-0" fill="#00FDFF"/>
      <circle r="3" cx="252" cy="-0" fill="#FFC300"/>
      <circle r="3" cx="252" cy="-0" fill="magenta"/>
      <circle r="3" cx="259" cy="-0" fill="#00FDFF"/>
      <circle r="3" cx="259" cy="-0" fill="#FFC300"/>
      <circle r="3" cx="259" cy="-0" fill="magenta"/>
      <circle r="3" cx="266" cy="-0" fill="#00FDFF"/>
      <circle r="3" cx="266" cy="-0" fill="#FFC300"/>
      <circle r="3" cx="266" cy="-0" fill="magenta"/>
      <circle r="3" cx="273" cy="-0" fill="#00FDFF"/>
      <circle r="3" cx="273" cy="-0" fill="#FFC300"/>
      <circle r="3" cx="273" cy="-0" fill="magenta"/>
      <circle r="3" cx="280" cy="-0" fill="#00FDFF"/>
      <circle r="3" cx="280" cy="-0" fill="#FFC300"/>
      <circle r="3" cx="280" cy="-0" fill="magenta"/>
      <circle r="3" cx="287" cy="-0" fill="#00FDFF"/>
      <circle r="3" cx="287" cy="-0" fill="#FFC300"/>
      <circle r="3" cx="287" cy="-0" fill="magenta"/>
      <circle r="3" cx="294" cy="-0" fill="#00FDFF"/>
      <circle r="3" cx="294" cy="-0" fill="#FFC300"/>
      <circle r="3" cx="294" cy="-0" fill="magenta"/>
      <circle r="3" cx="301" cy="-0" fill="#00FDFF"/>
      <circle r="3" cx="301" cy="-0" fill="#FFC300"/>
      <circle r="3" cx="301" cy="-0" fill="magenta"/>
      <circle r="3" cx="308" cy="-0" fill="#00FDFF"/>
      <circle r="3" cx="308" cy="-0" fill="#FFC300"/>
      <circle r="3" cx="308" cy="-0" fill="magenta"/>
      <circle r="3" cx="315" cy="-0" fill="#00FDFF"/>
      <circle r="3" cx="315" cy="-0" fill="#FFC300"/>
      <circle r="3" cx="315" cy="-0" fill="magenta"/>
      <circle r="3" cx="322" cy="-0" fill="#00FDFF"/>
      <circle r="3" cx="322" cy="-0" fill="#FFC300"/>
      <circle r="3" cx="322" cy="-0" fill="magenta"/>
      <circle r="3" cx="329" cy="-0" fill="#00FDFF"/>
      <circle r="3" cx="329" cy="-0" fill="#FFC300"/>
      <circle r="3" cx="329" cy="-0" fill="magenta"/>
      <circle r="3" cx="336" cy="-0" fill="#00FDFF"/>
      <circle r="3" cx="336" cy="-0" fill="#FFC300"/>
      <circle r="3" cx="336" cy="-0" fill="magenta"/>
      <circle r="3" cx="343" cy="-0" fill="#00FDFF"/>
      <circle r="3" cx="343" cy="-0" fill="#FFC300"/>
      <circle r="3" cx="343" cy="-0" fill="magenta"/>
      <circle r="3" cx="350" cy="-0" fill="#00FDFF"/>
      <circle r="3" cx="350" cy="-0" fill="#FFC300"/>
      <circle r="3" cx="350" cy="-0" fill="magenta"/>
      <circle r="3" cx="357" cy="-0" fill="#00FDFF"/>
      <circle r="3" cx="357" cy="-0" fill="#FFC300"/>
      <circle r="3" cx="357" cy="-0" fill="magenta"/>
      <circle r="3" cx="364" cy="-0" fill="#00FDFF"/>
      <circle r="3" cx="364" cy="-0" fill="#FFC300"/>
      <circle r="3" cx="364" cy="-0" fill="magenta"/>
      <circle r="3" cx="371" cy="-0" fill="#00FDFF"/>
      <circle r="3" cx="371" cy="-0" fill="#FFC300"/>
      <circle r="3" cx="371" cy="-0" fill="magenta"/>
      <circle r="3" cx="378" cy="-0" fill="#00FDFF"/>
      <circle r="3" cx="378" cy="-0" fill="#FFC300"/>
      <circle r="3" cx="378" cy="-0" fill="magenta"/>
      <circle r="3" cx="385" cy="-0" fill="#00FDFF"/>
      <circle r="3" cx="385" cy="-0" fill="#FFC300"/>
      <circle r="3" cx="385" cy="-0" fill="magenta"/>
      <circle r="3" cx="392" cy="-0" fill="#00FDFF"/>
      <circle r="3" cx="392" cy="-0" fill="#FFC300"/>
      <circle r="3" cx="392" cy="-0" fill="magenta"/>
      <circle r="3" cx="399" cy="-0" fill="#00FDFF"/>
      <circle r="3" cx="399" cy="-0" fill="#FFC300"/>
      <circle r="3" cx="399" cy="-0" fill="magenta"/>
      <circle r="3" cx="406" cy="-0" fill="#00FDFF"/>
      <circle r="3" cx="406" cy="-0" fill="#FFC300"/>
      <circle r="3" cx="406" cy="-0" fill="magenta"/>
      <circle r="3" cx="413" cy="-0" fill="#00FDFF"/>
      <circle r="3" cx="413" cy="-0" fill="#FFC300"/>
      <circle r="3" cx="413" cy="-0" fill="magenta"/>
      <circle r="3" cx="420" cy="-0" fill="#00FDFF"/>
      <circle r="3" cx="420" cy="-0" fill="#FFC300"/>
      <circle r="3" cx="420" cy="-0" fill="magenta"/>
      <circle r="3" cx="427" cy="-0" fill="#00FDFF"/>
      <circle r="3" cx="427" cy="-0" fill="#FFC300"/>
      <circle r="3" cx="427" cy="-0" fill="magenta"/>
      <circle r="3" cx="434" cy="-0" fill="#00FDFF"/>
      <circle r="3" cx="434" cy="-0" fill="#FFC300"/>
      <circle r="3" cx="434" cy="-0" fill="magenta"/>
      <circle r="3" cx="441" cy="-0" fill="#00FDFF"/>
      <circle r="3" cx="441" cy="-0" fill="#FFC300"/>
      <circle r="3" cx="441" cy="-0" fill="magenta"/>
      <circle r="3" cx="448" cy="-0" fill="#00FDFF"/>
      <circle r="3" cx="448" cy="-0" fill="#FFC300"/>
      <circle r="3" cx="448" cy="-0" fill="magenta"/>
      <circle r="3" cx="455" cy="-0" fill="#00FDFF"/>
      <circle r="3" cx="455" cy="-0" fill="#FFC300"/>
      <circle r="3" cx="455" cy="-0" fill="magenta"/>
      <circle r="3" cx="462" cy="-0" fill="#00FDFF"/>
      <circle r="3" cx="462" cy="-0" fill="#FFC300"/>
      <circle r="3" cx="462" cy="-0" fill="magenta"/>
      <circle r="3" cx="469" cy="-0" fill="#00FDFF"/>
      <circle r="3" cx="469" cy="-0" fill="#FFC300"/>
      <circle r="3" cx="469" cy="-0" fill="magenta"/>
      <circle r="3" cx="476" cy="-0" fill="#00FDFF"/>
      <circle r="3" cx="476" cy="-0" fill="#FFC300"/>
      <circle r="3" cx="476" cy="-0" fill="magenta"/>
      <circle r="3" cx="483" cy="-0" fill="#00FDFF"/>
      <circle r="3" cx="483" cy="-0" fill="#FFC300"/>
      <circle r="3" cx="483" cy="-0" fill="magenta"/>
      <circle r="3" cx="490" cy="-0" fill="#00FDFF"/>
      <circle r="3" cx="490" cy="-0" fill="#FFC300"/>
      <circle r="3" cx="490" cy="-0" fill="magenta"/>
      <circle r="3" cx="497" cy="-0" fill="#00FDFF"/>
      <circle r="3" cx="497" cy="-0" fill="#FFC300"/>
      <circle r="3" cx="497" cy="-0" fill="magenta"/>
      <circle r="3" cx="504" cy="-0" fill="#00FDFF"/>
      <circle r="3" cx="504" cy="-0" fill="#FFC300"/>
      <circle r="3" cx="504" cy="-0" fill="magenta"/>
      <circle r="3" cx="511" cy="-0" fill="#00FDFF"/>
      <circle r="3" cx="511" cy="-0" fill="#FFC300"/>
      <circle r="3" cx="511" cy="-0" fill="magenta"/>
      <circle r="3" cx="518" cy="-0" fill="#00FDFF"/>
      <circle r="3" cx="518" cy="-0" fill="#FFC300"/>
      <circle r="3" cx="518" cy="-0" fill="magenta"/>
      <circle r="3" cx="525" cy="-0" fill="#00FDFF"/>
      <circle r="3" cx="525" cy="-0" fill="#FFC300"/>
      <circle r="3" cx="525" cy="-0" fill="magenta"/>
      <circle r="3" cx="532" cy="-0" fill="#00FDFF"/>
      <circle r="3" cx="532" cy="-0" fill="#FFC300"/>
      <circle r="3" cx="532" cy="-0" fill="magenta"/>
      <circle r="3" cx="539" cy="-0" fill="#00FDFF"/>
      <circle r="3" cx="539" cy="-0" fill="#FFC300"/>
      <circle r="3" cx="539" cy="-0" fill="magenta"/>
      <circle r="3" cx="546" cy="-0" fill="#00FDFF"/>
      <circle r="3" cx="546" cy="-0" fill="#FFC300"/>
      <circle r="3" cx="546" cy="-0" fill="magenta"/>
      <circle r="3" cx="553" cy="-0" fill="#00FDFF"/>
      <circle r="3" cx="553" cy="-0" fill="#FFC300"/>
      <circle r="3" cx="553" cy="-0" fill="magenta"/>
      <circle r="3" cx="560" cy="-0" fill="#00FDFF"/>
      <circle r="3" cx="560" cy="-0" fill="#FFC300"/>
      <circle r="3" cx="560" cy="-0" fill="magenta"/>
      <circle r="3" cx="567" cy="-0" fill="#00FDFF"/>
      <circle r="3" cx="567" cy="-0" fill="#FFC300"/>
      <circle r="3" cx="567" cy="-0" fill="magenta"/>
      <circle r="3" cx="574" cy="-0" fill="#00FDFF"/>
      <circle r="3" cx="574" cy="-0" fill="#FFC300"/>
      <circle r="3" cx="574" cy="-0" fill="magenta"/>
      <circle r="3" cx="581" cy="-0" fill="#00FDFF"/>
      <circle r="3" cx="581" cy="-0" fill="#FFC300"/>
      <circle r="3" cx="581" cy="-0" fill="magenta"/>
      <circle r="3" cx="588" cy="-0" fill="#00FDFF"/>
      <circle r="3" cx="588" cy="-0" fill="#FFC300"/>
      <circle r="3" cx="588" cy="-0" fill="magenta"/>
      <circle r="3" cx="595" cy="-0" fill="#00FDFF"/>
      <circle r="3" cx="595" cy="-0" fill="#FFC300"/>
      <circle r="3" cx="595" cy="-0" fill="magenta"/>
      <circle r="3" cx="602" cy="-0" fill="#00FDFF"/>
      <circle r="3" cx="602" cy="-0" fill="#FFC300"/>
      <circle r="3" cx="602" cy="-0" fill="magenta"/>
      <circle r="3" cx="609" cy="-0" fill="#00FDFF"/>
      <circle r="3" cx="609" cy="-0" fill="#FFC300"/>
      <circle r="3" cx="609" cy="-0" fill="magenta"/>
      <circle r="3" cx="616" cy="-0" fill="#00FDFF"/>
      <circle r="3" cx="616" cy="-0" fill="#FFC300"/>
      <circle r="3" cx="616" cy="-0" fill="magenta"/>
      <circle r="3" cx="623" cy="-0" fill="#00FDFF"/>
      <circle r="3" cx="623" cy="-0" fill="#FFC300"/>
      <circle r="3" cx="623" cy="-0" fill="magenta"/>
      <circle r="3" cx="630" cy="-0" fill="#00FDFF"/>
      <circle r="3" cx="630" cy="-0" fill="#FFC300"/>
      <circle r="3" cx="630" cy="-0" fill="magenta"/>
      <circle r="3" cx="637" cy="-0" fill="#00FDFF"/>
      <circle r="3" cx="637" cy="-0" fill="#FFC300"/>
      <circle r="3" cx="637" cy="-0" fill="magenta"/>
      <circle r="3" cx="644" cy="-0" fill="#00FDFF"/>
      <circle r="3" cx="644" cy="-0" fill="#FFC300"/>
      <circle r="3" cx="644" cy="-0" fill="magenta"/>
      <circle r="3" cx="651" cy="-0" fill="#00FDFF"/>
      <circle r="3" cx="651" cy="-0" fill="#FFC300"/>
      <circle r="3" cx="651" cy="-0" fill="magenta"/>
      <circle r="3" cx="658" cy="-0" fill="#00FDFF"/>
      <circle r="3" cx="658" cy="-0" fill="#FFC300"/>
      <circle r="3" cx="658" cy="-0" fill="magenta"/>
      <circle r="3" cx="665" cy="-0" fill="#00FDFF"/>
      <circle r="3" cx="665" cy="-0" fill="#FFC300"/>
      <circle r="3" cx="665" cy="-0" fill="magenta"/>
      <circle r="3" cx="672" cy="-0" fill="#00FDFF"/>
      <circle r="3" cx="672" cy="-0" fill="#FFC300"/>
      <circle r="3" cx="672" cy="-0" fill="magenta"/>
      <circle r="3" cx="679" cy="-0" fill="#00FDFF"/>
      <circle r="3" cx="679" cy="-0" fill="#FFC300"/>
      <circle r="3" cx="679" cy="-0" fill="magenta"/>
      <circle r="3" cx="686" cy="-0" fill="#00FDFF"/>
      <circle r="3" cx="686" cy="-0" fill="#FFC300"/>
      <circle r="3" cx="686" cy="-0" fill="magenta"/>
      <circle r="3" cx="693" cy="-0" fill="#00FDFF"/>
      <circle r="3" cx="693" cy="-0" fill="#FFC300"/>
      <circle r="3" cx="693" cy="-0" fill="magenta"/>
      <circle r="3" cx="700" cy="-0" fill="#00FDFF"/>
      <circle r="3" cx="700" cy="-0" fill="#FFC300"/>
      <circle r="3" cx="700" cy="-0" fill="magenta"/>
      <circle r="3" cx="707" cy="-0" fill="#00FDFF"/>
      <circle r="3" cx="707" cy="-0" fill="#FFC300"/>
      <circle r="3" cx="707" cy="-0" fill="magenta"/>
      <circle r="3" cx="714" cy="-0" fill="#00FDFF"/>
      <circle r="3" cx="714" cy="-0" fill="#FFC300"/>
      <circle r="3" cx="714" cy="-0" fill="magenta"/>
      <circle r="3" cx="721" cy="-0" fill="#00FDFF"/>
      <circle r="3" cx="721" cy="-0" fill="#FFC300"/>
      <circle r="3" cx="721" cy="-0" fill="magenta"/>
      <circle r="3" cx="728" cy="-0" fill="#00FDFF"/>
      <circle r="3" cx="728" cy="-0" fill="#FFC300"/>
      <circle r="3" cx="728" cy="-0" fill="magenta"/>
      <circle r="3" cx="735" cy="-0" fill="#00FDFF"/>
      <circle r="3" cx="735" cy="-0" fill="#FFC300"/>
      <circle r="3" cx="735" cy="-0" fill="magenta"/>
      <circle r="3" cx="742" cy="-0" fill="#00FDFF"/>
      <circle r="3" cx="742" cy="-0" fill="#FFC300"/>
      <circle r="3" cx="742" cy="-0" fill="magenta"/>
      <circle r="3" cx="749" cy="-0" fill="#00FDFF"/>
      <circle r="3" cx="749" cy="-0" fill="#FFC300"/>
      <circle r="3" cx="749" cy="-0" fill="magenta"/>
      <circle r="3" cx="756" cy="-0" fill="#00FDFF"/>
      <circle r="3" cx="756" cy="-0" fill="#FFC300"/>
      <circle r="3" cx="756" cy="-0" fill="magenta"/>
      <circle r="3" cx="763" cy="-0" fill="#00FDFF"/>
      <circle r="3" cx="763" cy="-0" fill="#FFC300"/>
      <circle r="3" cx="763" cy="-0" fill="magenta"/>
      <circle r="3" cx="770" cy="-0" fill="#00FDFF"/>
      <circle r="3" cx="770" cy="-0" fill="#FFC300"/>
      <circle r="3" cx="770" cy="-0" fill="magenta"/>
      <circle r="3" cx="777" cy="-0" fill="#00FDFF"/>
      <circle r="3" cx="777" cy="-0" fill="#FFC300"/>
      <circle r="3" cx="777" cy="-0" fill="magenta"/>
      <circle r="3" cx="784" cy="-0" fill="#00FDFF"/>
      <circle r="3" cx="784" cy="-0" fill="#FFC300"/>
      <circle r="3" cx="784" cy="-0" fill="magenta"/>
      <circle r="3" cx="791" cy="-0" fill="#00FDFF"/>
      <circle r="3" cx="791" cy="-0" fill="#FFC300"/>
      <circle r="3" cx="791" cy="-0" fill="magenta"/>
      <circle r="3" cx="798" cy="-0" fill="#00FDFF"/>
      <circle r="3" cx="798" cy="-0" fill="#FFC300"/>
      <circle r="3" cx="798" cy="-0" fill="magenta"/>
      <circle r="3" cx="805" cy="-0" fill="#00FDFF"/>
      <circle r="3" cx="805" cy="-0" fill="#FFC300"/>
      <circle r="3" cx="805" cy="-0" fill="magenta"/>
      <circle r="3" cx="812" cy="-0" fill="#00FDFF"/>
      <circle r="3" cx="812" cy="-0" fill="#FFC300"/>
      <circle r="3" cx="812" cy="-0" fill="magenta"/>
      <circle r="3" cx="819" cy="-0" fill="#00FDFF"/>
      <circle r="3" cx="819" cy="-0" fill="#FFC300"/>
      <circle r="3" cx="819" cy="-0" fill="magenta"/>
      <circle r="3" cx="826" cy="-0" fill="#00FDFF"/>
      <circle r="3" cx="826" cy="-0" fill="#FFC300"/>
      <circle r="3" cx="826" cy="-0" fill="magenta"/>
      <circle r="3" cx="833" cy="-0" fill="#00FDFF"/>
      <circle r="3" cx="833" cy="-0" fill="#FFC300"/>
      <circle r="3" cx="833" cy="-0" fill="magenta"/>
      <circle r="3" cx="840" cy="-0" fill="#00FDFF"/>
      <circle r="3" cx="840" cy="-0" fill="#FFC300"/>
      <circle r="3" cx="840" cy="-0" fill="magenta"/>
      <circle r="3" cx="847" cy="-0" fill="#00FDFF"/>
      <circle r="3" cx="847" cy="-0" fill="#FFC300"/>
      <circle r="3" cx="847" cy="-0" fill="magenta"/>
      <circle r="3" cx="854" cy="-0" fill="#00FDFF"/>
      <circle r="3" cx="854" cy="-0" fill="#FFC300"/>
      <circle r="3" cx="854" cy="-0" fill="magenta"/>
      <circle r="3" cx="861" cy="-0" fill="#00FDFF"/>
      <circle r="3" cx="861" cy="-0" fill="#FFC300"/>
      <circle r="3" cx="861" cy="-0" fill="magenta"/>
      <circle r="3" cx="868" cy="-0" fill="#00FDFF"/>
      <circle r="3" cx="868" cy="-0" fill="#FFC300"/>
      <circle r="3" cx="868" cy="-0" fill="magenta"/>
      <circle r="3" cx="875" cy="-0" fill="#00FDFF"/>
      <circle r="3" cx="875" cy="-0" fill="#FFC300"/>
      <circle r="3" cx="875" cy="-0" fill="magenta"/>
      <circle r="3" cx="882" cy="-0" fill="#00FDFF"/>
      <circle r="3" cx="882" cy="-0" fill="#FFC300"/>
      <circle r="3" cx="882" cy="-0" fill="magenta"/>
      <circle r="3" cx="889" cy="-0" fill="#00FDFF"/>
      <circle r="3" cx="889" cy="-0" fill="#FFC300"/>
      <circle r="3" cx="889" cy="-0" fill="magenta"/>
      <circle r="3" cx="896" cy="-0" fill="#00FDFF"/>
      <circle r="3" cx="896" cy="-0" fill="#FFC300"/>
      <circle r="3" cx="896" cy="-0" fill="magenta"/>
      <circle r="3" cx="903" cy="-0" fill="#00FDFF"/>
      <circle r="3" cx="903" cy="-0" fill="#FFC300"/>
      <circle r="3" cx="903" cy="-0" fill="magenta"/>
      <circle r="3" cx="910" cy="-0" fill="#00FDFF"/>
      <circle r="3" cx="910" cy="-0" fill="#FFC300"/>
      <circle r="3" cx="910" cy="-0" fill="magenta"/>
      <circle r="3" cx="917" cy="-0" fill="#00FDFF"/>
      <circle r="3" cx="917" cy="-0" fill="#FFC300"/>
      <circle r="3" cx="917" cy="-0" fill="magenta"/>
      <circle r="3" cx="924" cy="-0" fill="#00FDFF"/>
      <circle r="3" cx="924" cy="-0" fill="#FFC300"/>
      <circle r="3" cx="924" cy="-0" fill="magenta"/>
      <circle r="3" cx="931" cy="-0" fill="#00FDFF"/>
      <circle r="3" cx="931" cy="-0" fill="#FFC300"/>
      <circle r="3" cx="931" cy="-0" fill="magenta"/>
      <circle r="3" cx="938" cy="-0" fill="#00FDFF"/>
      <circle r="3" cx="938" cy="-0" fill="#FFC300"/>
      <circle r="3" cx="938" cy="-0" fill="magenta"/>
      <circle r="3" cx="945" cy="-0" fill="#00FDFF"/>
      <circle r="3" cx="945" cy="-0" fill="#FFC300"/>
      <circle r="3" cx="945" cy="-0" fill="magenta"/>
      <circle r="3" cx="952" cy="-0" fill="#00FDFF"/>
      <circle r="3" cx="952" cy="-0" fill="#FFC300"/>
      <circle r="3" cx="952" cy="-0" fill="magenta"/>
      <circle r="3" cx="959" cy="-0" fill="#00FDFF"/>
      <circle r="3" cx="959" cy="-0" fill="#FFC300"/>
      <circle r="3" cx="959" cy="-0" fill="magenta"/>
      <circle r="3" cx="966" cy="-0" fill="#00FDFF"/>
      <circle r="3" cx="966" cy="-0" fill="#FFC300"/>
      <circle r="3" cx="966" cy="-0" fill="magenta"/>
      <circle r="3" cx="973" cy="-0" fill="#00FDFF"/>
      <circle r="3" cx="973" cy="-0" fill="#FFC300"/>
      <circle r="3" cx="973" cy="-0" fill="magenta"/>
      <circle r="3" cx="980" cy="-0" fill="#00FDFF"/>
      <circle r="3" cx="980" cy="-0" fill="#FFC300"/>
      <circle r="3" cx="980" cy="-0" fill="magenta"/>
      <circle r="3" cx="987" cy="-0" fill="#00FDFF"/>
      <circle r="3" cx="987" cy="-0" fill="#FFC300"/>
      <circle r="3" cx="987" cy="-0" fill="magenta"/>
      <circle r="3" cx="994" cy="-0" fill="#00FDFF"/>
      <circle r="3" cx="994" cy="-0" fill="#FFC300"/>
      <circle r="3" cx="994" cy="-0" fill="magenta"/>
      <circle r="3" cx="1001" cy="-0" fill="#00FDFF"/>
      <circle r="3" cx="1001" cy="-0" fill="#FFC300"/>
      <circle r="3" cx="1001" cy="-0" fill="magenta"/>
      <circle r="3" cx="1008" cy="-0" fill="#00FDFF"/>
      <circle r="3" cx="1008" cy="-0" fill="#FFC300"/>
      <circle r="3" cx="1008" cy="-0" fill="magenta"/>
      <circle r="3" cx="1015" cy="-0" fill="#00FDFF"/>
      <circle r="3" cx="1015" cy="-0" fill="#FFC300"/>
      <circle r="3" cx="1015" cy="-0" fill="magenta"/>
      <circle r="3" cx="1022" cy="-0" fill="#00FDFF"/>
      <circle r="3" cx="1022" cy="-0" fill="#FFC300"/>
      <circle r="3" cx="1022" cy="-0" fill="magenta"/>
      <circle r="3" cx="1029" cy="-0" fill="#00FDFF"/>
      <circle r="3" cx="1029" cy="-0" fill="#FFC300"/>
      <circle r="3" cx="1029" cy="-0" fill="magenta"/>
      <circle r="3" cx="1036" cy="-0" fill="#00FDFF"/>
      <circle r="3" cx="1036" cy="-0" fill="#FFC300"/>
      <circle r="3" cx="1036" cy="-0" fill="magenta"/>
      <circle r="3" cx="1043" cy="-0" fill="#00FDFF"/>
      <circle r="3" cx="1043" cy="-0" fill="#FFC300"/>
      <circle r="3" cx="1043" cy="-0" fill="magenta"/>
      <circle r="3" cx="1050" cy="-0" fill="#00FDFF"/>
      <circle r="3" cx="1050" cy="-0" fill="#FFC300"/>
      <circle r="3" cx="1050" cy="-0" fill="magenta"/>
      <circle r="3" cx="1057" cy="-0" fill="#00FDFF"/>
      <circle r="3" cx="1057" cy="-0" fill="#FFC300"/>
      <circle r="3" cx="1057" cy="-0" fill="magenta"/>
      <circle r="3" cx="1064" cy="-0" fill="#00FDFF"/>
      <circle r="3" cx="1064" cy="-0" fill="#FFC300"/>
      <circle r="3" cx="1064" cy="-0" fill="magenta"/>
      <circle r="3" cx="1071" cy="-0" fill="#00FDFF"/>
      <circle r="3" cx="1071" cy="-0" fill="#FFC300"/>
      <circle r="3" cx="1071" cy="-0" fill="magenta"/>
      <circle r="3" cx="1078" cy="-0" fill="#00FDFF"/>
      <circle r="3" cx="1078" cy="-0" fill="#FFC300"/>
      <circle r="3" cx="1078" cy="-0" fill="magenta"/>
      <circle r="3" cx="1085" cy="-0" fill="#00FDFF"/>
      <circle r="3" cx="1085" cy="-0" fill="#FFC300"/>
      <circle r="3" cx="1085" cy="-0" fill="magenta"/>
      <circle r="3" cx="1092" cy="-0" fill="#00FDFF"/>
      <circle r="3" cx="1092" cy="-0" fill="#FFC300"/>
      <circle r="3" cx="1092" cy="-0" fill="magenta"/>
      <circle r="3" cx="1099" cy="-0" fill="#00FDFF"/>
      <circle r="3" cx="1099" cy="-0" fill="#FFC300"/>
      <circle r="3" cx="1099" cy="-0" fill="magenta"/>
      <circle r="3" cx="1106" cy="-0" fill="#00FDFF"/>
      <circle r="3" cx="1106" cy="-0" fill="#FFC300"/>
      <circle r="3" cx="1106" cy="-0" fill="magenta"/>
      <circle r="3" cx="1113" cy="-0" fill="#00FDFF"/>
      <circle r="3" cx="1113" cy="-0" fill="#FFC300"/>
      <circle r="3" cx="1113" cy="-0" fill="magenta"/>
      <circle r="3" cx="1120" cy="-0" fill="#00FDFF"/>
      <circle r="3" cx="1120" cy="-0" fill="#FFC300"/>
      <circle r="3" cx="1120" cy="-0" fill="magenta"/>
      <circle r="3" cx="1127" cy="-0" fill="#00FDFF"/>
      <circle r="3" cx="1127" cy="-0" fill="#FFC300"/>
      <circle r="3" cx="1127" cy="-0" fill="magenta"/>
      <circle r="3" cx="1134" cy="-0" fill="#00FDFF"/>
      <circle r="3" cx="1134" cy="-0" fill="#FFC300"/>
      <circle r="3" cx="1134" cy="-0" fill="magenta"/>
      <circle r="3" cx="1141" cy="-0" fill="#00FDFF"/>
      <circle r="3" cx="1141" cy="-0" fill="#FFC300"/>
      <circle r="3" cx="1141" cy="-0" fill="magenta"/>
      <circle r="3" cx="1148" cy="-0" fill="#00FDFF"/>
      <circle r="3" cx="1148" cy="-0" fill="#FFC300"/>
      <circle r="3" cx="1148" cy="-0" fill="magenta"/>
      <circle r="3" cx="1155" cy="-0" fill="#00FDFF"/>
      <circle r="3" cx="1155" cy="-0" fill="#FFC300"/>
      <circle r="3" cx="1155" cy="-0" fill="magenta"/>
      <circle r="3" cx="1162" cy="-0" fill="#00FDFF"/>
      <circle r="3" cx="1162" cy="-0" fill="#FFC300"/>
      <circle r="3" cx="1162" cy="-0" fill="magenta"/>
      <text x="1176"
            y="-7"
            text-anchor="start"
            alignment-baseline="central"
            fill="#00FDFF">divine</text>
      <text x="1176"
            y="--7"
            text-anchor="start"
            alignment-baseline="central"
            fill="#FFC300">earthly</text>
      <line x1="0" y1="0" x2="1162" y2="0" stroke="black"/>
      <line x1="0" y1="0" x2="0" y2="-25" stroke="black"/>
      <text x="-50"
            y="-0"
            text-anchor="middle"
            font-size="larger"
            transform="rotate(-90 -50 -0)">Occurrences</text>
      <text x="581"
            y="50"
            text-anchor="middle"
            font-size="larger"
            alignment-baseline="baseline">Percentage of Scene</text>
      <text x="581"
            y="-50"
            text-anchor="middle"
            font-size="larger"
            text-decoration="underline">OCCURRENCE
                    OF DIVINE AND EARTHLY TRAITS THROUGHOUT SCENE X. THE NEIGHBOR'S HOUSE</text>
   </g>
</svg>
