<?xml version="1.0" encoding="UTF-8"?>
<svg xmlns="http://www.w3.org/2000/svg" viewBox="0 -70 1314 378">
   <g transform="translate(100, 253)">
      <line x1="-10" y1="-33" x2="0" y2="-33" stroke="black"/>
      <line x1="114.4" y1="-10" x2="114.4" y2="10" stroke="black"/>
      <line x1="0" y1="-33" x2="1144" y2="-33" stroke="lightgrey"/>
      <text x="-15" y="-33" text-anchor="end" alignment-baseline="central">3</text>
      <text x="113.4" y="3" text-anchor="end" alignment-baseline="hanging">10%</text>
      <line x1="-10" y1="-66" x2="0" y2="-66" stroke="black"/>
      <line x1="228.8" y1="-10" x2="228.8" y2="10" stroke="black"/>
      <line x1="0" y1="-66" x2="1144" y2="-66" stroke="lightgrey"/>
      <text x="-15" y="-66" text-anchor="end" alignment-baseline="central">6</text>
      <text x="227.8" y="3" text-anchor="end" alignment-baseline="hanging">20%</text>
      <line x1="-10" y1="-99" x2="0" y2="-99" stroke="black"/>
      <line x1="343.2" y1="-10" x2="343.2" y2="10" stroke="black"/>
      <line x1="0" y1="-99" x2="1144" y2="-99" stroke="lightgrey"/>
      <text x="-15" y="-99" text-anchor="end" alignment-baseline="central">9</text>
      <text x="342.2" y="3" text-anchor="end" alignment-baseline="hanging">30%</text>
      <line x1="-10" y1="-132" x2="0" y2="-132" stroke="black"/>
      <line x1="457.6" y1="-10" x2="457.6" y2="10" stroke="black"/>
      <line x1="0" y1="-132" x2="1144" y2="-132" stroke="lightgrey"/>
      <text x="-15" y="-132" text-anchor="end" alignment-baseline="central">12</text>
      <text x="456.6" y="3" text-anchor="end" alignment-baseline="hanging">40%</text>
      <line x1="-10" y1="-165" x2="0" y2="-165" stroke="black"/>
      <line x1="572" y1="-10" x2="572" y2="10" stroke="black"/>
      <line x1="0" y1="-165" x2="1144" y2="-165" stroke="lightgrey"/>
      <text x="-15" y="-165" text-anchor="end" alignment-baseline="central">15</text>
      <text x="571" y="3" text-anchor="end" alignment-baseline="hanging">50%</text>
      <line x1="-10" y1="-198" x2="0" y2="-198" stroke="black"/>
      <line x1="686.4" y1="-10" x2="686.4" y2="10" stroke="black"/>
      <line x1="0" y1="-198" x2="1144" y2="-198" stroke="lightgrey"/>
      <text x="-15" y="-198" text-anchor="end" alignment-baseline="central">18</text>
      <text x="685.4" y="3" text-anchor="end" alignment-baseline="hanging">60%</text>
      <line x1="-10" y1="-231" x2="0" y2="-231" stroke="black"/>
      <line x1="800.8" y1="-10" x2="800.8" y2="10" stroke="black"/>
      <line x1="0" y1="-231" x2="1144" y2="-231" stroke="lightgrey"/>
      <text x="-15" y="-231" text-anchor="end" alignment-baseline="central">21</text>
      <text x="799.8" y="3" text-anchor="end" alignment-baseline="hanging">70%</text>
      <line x1="-10" y1="-264" x2="0" y2="-264" stroke="black"/>
      <line x1="915.2" y1="-10" x2="915.2" y2="10" stroke="black"/>
      <line x1="0" y1="-264" x2="1144" y2="-264" stroke="lightgrey"/>
      <text x="-15" y="-264" text-anchor="end" alignment-baseline="central">24</text>
      <text x="914.2" y="3" text-anchor="end" alignment-baseline="hanging">80%</text>
      <line x1="-10" y1="-297" x2="0" y2="-297" stroke="black"/>
      <line x1="1029.6" y1="-10" x2="1029.6" y2="10" stroke="black"/>
      <line x1="0" y1="-297" x2="1144" y2="-297" stroke="lightgrey"/>
      <text x="-15" y="-297" text-anchor="end" alignment-baseline="central">27</text>
      <text x="1028.6" y="3" text-anchor="end" alignment-baseline="hanging">90%</text>
      <line x1="-10" y1="-330" x2="0" y2="-330" stroke="black"/>
      <line x1="1144" y1="-10" x2="1144" y2="10" stroke="black"/>
      <line x1="0" y1="-330" x2="1144" y2="-330" stroke="lightgrey"/>
      <text x="-15" y="-330" text-anchor="end" alignment-baseline="central">30</text>
      <text x="1143" y="3" text-anchor="end" alignment-baseline="hanging">100%</text>
      <line x1="-10" y1="0" x2="0" y2="0" stroke="black"/>
      <text x="-15" y="0" text-anchor="end" alignment-baseline="central">0</text>
      <circle r="3" cx="8" cy="-0" fill="#00FDFF"/>
      <circle r="3" cx="8" cy="-0" fill="#FFC300"/>
      <circle r="3" cx="8" cy="-0" fill="magenta"/>
      <circle r="3" cx="16" cy="-0" fill="#00FDFF"/>
      <circle r="3" cx="16" cy="-0" fill="#FFC300"/>
      <circle r="3" cx="16" cy="-0" fill="magenta"/>
      <circle r="3" cx="24" cy="-0" fill="#00FDFF"/>
      <circle r="3" cx="24" cy="-0" fill="#FFC300"/>
      <circle r="3" cx="24" cy="-0" fill="magenta"/>
      <circle r="3" cx="32" cy="-0" fill="#00FDFF"/>
      <circle r="3" cx="32" cy="-0" fill="#FFC300"/>
      <circle r="3" cx="32" cy="-0" fill="magenta"/>
      <circle r="3" cx="40" cy="-0" fill="#00FDFF"/>
      <circle r="3" cx="40" cy="-0" fill="#FFC300"/>
      <circle r="3" cx="40" cy="-0" fill="magenta"/>
      <circle r="3" cx="48" cy="-0" fill="#00FDFF"/>
      <circle r="3" cx="48" cy="-0" fill="#FFC300"/>
      <circle r="3" cx="48" cy="-0" fill="magenta"/>
      <circle r="3" cx="56" cy="-0" fill="#00FDFF"/>
      <circle r="3" cx="56" cy="-0" fill="#FFC300"/>
      <circle r="3" cx="56" cy="-0" fill="magenta"/>
      <circle r="3" cx="64" cy="-11" fill="#00FDFF"/>
      <circle r="3" cx="64" cy="-0" fill="#FFC300"/>
      <circle r="3" cx="72" cy="-22" fill="#00FDFF"/>
      <circle r="3" cx="72" cy="-0" fill="#FFC300"/>
      <circle r="3" cx="80" cy="-22" fill="#00FDFF"/>
      <circle r="3" cx="80" cy="-0" fill="#FFC300"/>
      <circle r="3" cx="88" cy="-22" fill="#00FDFF"/>
      <circle r="3" cx="88" cy="-0" fill="#FFC300"/>
      <circle r="3" cx="96" cy="-22" fill="#00FDFF"/>
      <circle r="3" cx="96" cy="-0" fill="#FFC300"/>
      <circle r="3" cx="104" cy="-22" fill="#00FDFF"/>
      <circle r="3" cx="104" cy="-0" fill="#FFC300"/>
      <circle r="3" cx="112" cy="-22" fill="#00FDFF"/>
      <circle r="3" cx="112" cy="-0" fill="#FFC300"/>
      <circle r="3" cx="120" cy="-22" fill="#00FDFF"/>
      <circle r="3" cx="120" cy="-0" fill="#FFC300"/>
      <circle r="3" cx="128" cy="-22" fill="#00FDFF"/>
      <circle r="3" cx="128" cy="-0" fill="#FFC300"/>
      <circle r="3" cx="136" cy="-22" fill="#00FDFF"/>
      <circle r="3" cx="136" cy="-0" fill="#FFC300"/>
      <circle r="3" cx="144" cy="-22" fill="#00FDFF"/>
      <circle r="3" cx="144" cy="-0" fill="#FFC300"/>
      <circle r="3" cx="152" cy="-22" fill="#00FDFF"/>
      <circle r="3" cx="152" cy="-0" fill="#FFC300"/>
      <circle r="3" cx="160" cy="-22" fill="#00FDFF"/>
      <circle r="3" cx="160" cy="-0" fill="#FFC300"/>
      <circle r="3" cx="168" cy="-22" fill="#00FDFF"/>
      <circle r="3" cx="168" cy="-0" fill="#FFC300"/>
      <circle r="3" cx="176" cy="-22" fill="#00FDFF"/>
      <circle r="3" cx="176" cy="-0" fill="#FFC300"/>
      <circle r="3" cx="184" cy="-22" fill="#00FDFF"/>
      <circle r="3" cx="184" cy="-0" fill="#FFC300"/>
      <circle r="3" cx="192" cy="-22" fill="#00FDFF"/>
      <circle r="3" cx="192" cy="-0" fill="#FFC300"/>
      <circle r="3" cx="200" cy="-22" fill="#00FDFF"/>
      <circle r="3" cx="200" cy="-0" fill="#FFC300"/>
      <circle r="3" cx="208" cy="-22" fill="#00FDFF"/>
      <circle r="3" cx="208" cy="-0" fill="#FFC300"/>
      <circle r="3" cx="216" cy="-22" fill="#00FDFF"/>
      <circle r="3" cx="216" cy="-0" fill="#FFC300"/>
      <circle r="3" cx="224" cy="-22" fill="#00FDFF"/>
      <circle r="3" cx="224" cy="-0" fill="#FFC300"/>
      <circle r="3" cx="232" cy="-33" fill="#00FDFF"/>
      <circle r="3" cx="232" cy="-0" fill="#FFC300"/>
      <circle r="3" cx="240" cy="-44" fill="#00FDFF"/>
      <circle r="3" cx="240" cy="-0" fill="#FFC300"/>
      <circle r="3" cx="248" cy="-44" fill="#00FDFF"/>
      <circle r="3" cx="248" cy="-0" fill="#FFC300"/>
      <circle r="3" cx="256" cy="-55" fill="#00FDFF"/>
      <circle r="3" cx="256" cy="-0" fill="#FFC300"/>
      <circle r="3" cx="264" cy="-66" fill="#00FDFF"/>
      <circle r="3" cx="264" cy="-0" fill="#FFC300"/>
      <circle r="3" cx="272" cy="-77" fill="#00FDFF"/>
      <circle r="3" cx="272" cy="-0" fill="#FFC300"/>
      <circle r="3" cx="280" cy="-88" fill="#00FDFF"/>
      <circle r="3" cx="280" cy="-0" fill="#FFC300"/>
      <circle r="3" cx="288" cy="-88" fill="#00FDFF"/>
      <circle r="3" cx="288" cy="-0" fill="#FFC300"/>
      <circle r="3" cx="296" cy="-88" fill="#00FDFF"/>
      <circle r="3" cx="296" cy="-0" fill="#FFC300"/>
      <circle r="3" cx="304" cy="-88" fill="#00FDFF"/>
      <circle r="3" cx="304" cy="-11" fill="#FFC300"/>
      <circle r="3" cx="312" cy="-88" fill="#00FDFF"/>
      <circle r="3" cx="312" cy="-11" fill="#FFC300"/>
      <circle r="3" cx="320" cy="-88" fill="#00FDFF"/>
      <circle r="3" cx="320" cy="-11" fill="#FFC300"/>
      <circle r="3" cx="328" cy="-88" fill="#00FDFF"/>
      <circle r="3" cx="328" cy="-11" fill="#FFC300"/>
      <circle r="3" cx="336" cy="-88" fill="#00FDFF"/>
      <circle r="3" cx="336" cy="-11" fill="#FFC300"/>
      <circle r="3" cx="344" cy="-88" fill="#00FDFF"/>
      <circle r="3" cx="344" cy="-11" fill="#FFC300"/>
      <circle r="3" cx="352" cy="-88" fill="#00FDFF"/>
      <circle r="3" cx="352" cy="-11" fill="#FFC300"/>
      <circle r="3" cx="360" cy="-88" fill="#00FDFF"/>
      <circle r="3" cx="360" cy="-11" fill="#FFC300"/>
      <circle r="3" cx="368" cy="-88" fill="#00FDFF"/>
      <circle r="3" cx="368" cy="-11" fill="#FFC300"/>
      <circle r="3" cx="376" cy="-88" fill="#00FDFF"/>
      <circle r="3" cx="376" cy="-11" fill="#FFC300"/>
      <circle r="3" cx="384" cy="-88" fill="#00FDFF"/>
      <circle r="3" cx="384" cy="-11" fill="#FFC300"/>
      <circle r="3" cx="392" cy="-88" fill="#00FDFF"/>
      <circle r="3" cx="392" cy="-11" fill="#FFC300"/>
      <circle r="3" cx="400" cy="-88" fill="#00FDFF"/>
      <circle r="3" cx="400" cy="-11" fill="#FFC300"/>
      <circle r="3" cx="408" cy="-88" fill="#00FDFF"/>
      <circle r="3" cx="408" cy="-11" fill="#FFC300"/>
      <circle r="3" cx="416" cy="-88" fill="#00FDFF"/>
      <circle r="3" cx="416" cy="-11" fill="#FFC300"/>
      <circle r="3" cx="424" cy="-88" fill="#00FDFF"/>
      <circle r="3" cx="424" cy="-11" fill="#FFC300"/>
      <circle r="3" cx="432" cy="-88" fill="#00FDFF"/>
      <circle r="3" cx="432" cy="-11" fill="#FFC300"/>
      <circle r="3" cx="440" cy="-99" fill="#00FDFF"/>
      <circle r="3" cx="440" cy="-11" fill="#FFC300"/>
      <circle r="3" cx="448" cy="-99" fill="#00FDFF"/>
      <circle r="3" cx="448" cy="-11" fill="#FFC300"/>
      <circle r="3" cx="456" cy="-99" fill="#00FDFF"/>
      <circle r="3" cx="456" cy="-11" fill="#FFC300"/>
      <circle r="3" cx="464" cy="-99" fill="#00FDFF"/>
      <circle r="3" cx="464" cy="-11" fill="#FFC300"/>
      <circle r="3" cx="472" cy="-99" fill="#00FDFF"/>
      <circle r="3" cx="472" cy="-11" fill="#FFC300"/>
      <circle r="3" cx="480" cy="-99" fill="#00FDFF"/>
      <circle r="3" cx="480" cy="-11" fill="#FFC300"/>
      <circle r="3" cx="488" cy="-99" fill="#00FDFF"/>
      <circle r="3" cx="488" cy="-11" fill="#FFC300"/>
      <circle r="3" cx="496" cy="-99" fill="#00FDFF"/>
      <circle r="3" cx="496" cy="-11" fill="#FFC300"/>
      <circle r="3" cx="504" cy="-99" fill="#00FDFF"/>
      <circle r="3" cx="504" cy="-11" fill="#FFC300"/>
      <circle r="3" cx="512" cy="-99" fill="#00FDFF"/>
      <circle r="3" cx="512" cy="-11" fill="#FFC300"/>
      <circle r="3" cx="520" cy="-99" fill="#00FDFF"/>
      <circle r="3" cx="520" cy="-11" fill="#FFC300"/>
      <circle r="3" cx="528" cy="-99" fill="#00FDFF"/>
      <circle r="3" cx="528" cy="-11" fill="#FFC300"/>
      <circle r="3" cx="536" cy="-110" fill="#00FDFF"/>
      <circle r="3" cx="536" cy="-11" fill="#FFC300"/>
      <circle r="3" cx="544" cy="-110" fill="#00FDFF"/>
      <circle r="3" cx="544" cy="-11" fill="#FFC300"/>
      <circle r="3" cx="552" cy="-110" fill="#00FDFF"/>
      <circle r="3" cx="552" cy="-11" fill="#FFC300"/>
      <circle r="3" cx="560" cy="-110" fill="#00FDFF"/>
      <circle r="3" cx="560" cy="-11" fill="#FFC300"/>
      <circle r="3" cx="568" cy="-110" fill="#00FDFF"/>
      <circle r="3" cx="568" cy="-11" fill="#FFC300"/>
      <circle r="3" cx="576" cy="-110" fill="#00FDFF"/>
      <circle r="3" cx="576" cy="-11" fill="#FFC300"/>
      <circle r="3" cx="584" cy="-110" fill="#00FDFF"/>
      <circle r="3" cx="584" cy="-11" fill="#FFC300"/>
      <circle r="3" cx="592" cy="-110" fill="#00FDFF"/>
      <circle r="3" cx="592" cy="-11" fill="#FFC300"/>
      <circle r="3" cx="600" cy="-110" fill="#00FDFF"/>
      <circle r="3" cx="600" cy="-11" fill="#FFC300"/>
      <circle r="3" cx="608" cy="-110" fill="#00FDFF"/>
      <circle r="3" cx="608" cy="-11" fill="#FFC300"/>
      <circle r="3" cx="616" cy="-110" fill="#00FDFF"/>
      <circle r="3" cx="616" cy="-11" fill="#FFC300"/>
      <circle r="3" cx="624" cy="-110" fill="#00FDFF"/>
      <circle r="3" cx="624" cy="-11" fill="#FFC300"/>
      <circle r="3" cx="632" cy="-110" fill="#00FDFF"/>
      <circle r="3" cx="632" cy="-11" fill="#FFC300"/>
      <circle r="3" cx="640" cy="-110" fill="#00FDFF"/>
      <circle r="3" cx="640" cy="-11" fill="#FFC300"/>
      <circle r="3" cx="648" cy="-110" fill="#00FDFF"/>
      <circle r="3" cx="648" cy="-11" fill="#FFC300"/>
      <circle r="3" cx="656" cy="-110" fill="#00FDFF"/>
      <circle r="3" cx="656" cy="-11" fill="#FFC300"/>
      <circle r="3" cx="664" cy="-110" fill="#00FDFF"/>
      <circle r="3" cx="664" cy="-11" fill="#FFC300"/>
      <circle r="3" cx="672" cy="-110" fill="#00FDFF"/>
      <circle r="3" cx="672" cy="-11" fill="#FFC300"/>
      <circle r="3" cx="680" cy="-110" fill="#00FDFF"/>
      <circle r="3" cx="680" cy="-11" fill="#FFC300"/>
      <circle r="3" cx="688" cy="-110" fill="#00FDFF"/>
      <circle r="3" cx="688" cy="-11" fill="#FFC300"/>
      <circle r="3" cx="696" cy="-110" fill="#00FDFF"/>
      <circle r="3" cx="696" cy="-11" fill="#FFC300"/>
      <circle r="3" cx="704" cy="-110" fill="#00FDFF"/>
      <circle r="3" cx="704" cy="-11" fill="#FFC300"/>
      <circle r="3" cx="712" cy="-110" fill="#00FDFF"/>
      <circle r="3" cx="712" cy="-11" fill="#FFC300"/>
      <circle r="3" cx="720" cy="-110" fill="#00FDFF"/>
      <circle r="3" cx="720" cy="-11" fill="#FFC300"/>
      <circle r="3" cx="728" cy="-110" fill="#00FDFF"/>
      <circle r="3" cx="728" cy="-11" fill="#FFC300"/>
      <circle r="3" cx="736" cy="-110" fill="#00FDFF"/>
      <circle r="3" cx="736" cy="-11" fill="#FFC300"/>
      <circle r="3" cx="744" cy="-110" fill="#00FDFF"/>
      <circle r="3" cx="744" cy="-11" fill="#FFC300"/>
      <circle r="3" cx="752" cy="-110" fill="#00FDFF"/>
      <circle r="3" cx="752" cy="-22" fill="#FFC300"/>
      <circle r="3" cx="760" cy="-110" fill="#00FDFF"/>
      <circle r="3" cx="760" cy="-33" fill="#FFC300"/>
      <circle r="3" cx="768" cy="-110" fill="#00FDFF"/>
      <circle r="3" cx="768" cy="-33" fill="#FFC300"/>
      <circle r="3" cx="776" cy="-110" fill="#00FDFF"/>
      <circle r="3" cx="776" cy="-44" fill="#FFC300"/>
      <circle r="3" cx="784" cy="-110" fill="#00FDFF"/>
      <circle r="3" cx="784" cy="-55" fill="#FFC300"/>
      <circle r="3" cx="792" cy="-110" fill="#00FDFF"/>
      <circle r="3" cx="792" cy="-66" fill="#FFC300"/>
      <circle r="3" cx="800" cy="-110" fill="#00FDFF"/>
      <circle r="3" cx="800" cy="-66" fill="#FFC300"/>
      <circle r="3" cx="808" cy="-110" fill="#00FDFF"/>
      <circle r="3" cx="808" cy="-66" fill="#FFC300"/>
      <circle r="3" cx="816" cy="-110" fill="#00FDFF"/>
      <circle r="3" cx="816" cy="-66" fill="#FFC300"/>
      <circle r="3" cx="824" cy="-110" fill="#00FDFF"/>
      <circle r="3" cx="824" cy="-66" fill="#FFC300"/>
      <circle r="3" cx="832" cy="-110" fill="#00FDFF"/>
      <circle r="3" cx="832" cy="-66" fill="#FFC300"/>
      <circle r="3" cx="840" cy="-110" fill="#00FDFF"/>
      <circle r="3" cx="840" cy="-66" fill="#FFC300"/>
      <circle r="3" cx="848" cy="-110" fill="#00FDFF"/>
      <circle r="3" cx="848" cy="-66" fill="#FFC300"/>
      <circle r="3" cx="856" cy="-110" fill="#00FDFF"/>
      <circle r="3" cx="856" cy="-66" fill="#FFC300"/>
      <circle r="3" cx="864" cy="-110" fill="#00FDFF"/>
      <circle r="3" cx="864" cy="-66" fill="#FFC300"/>
      <circle r="3" cx="872" cy="-110" fill="#00FDFF"/>
      <circle r="3" cx="872" cy="-66" fill="#FFC300"/>
      <circle r="3" cx="880" cy="-110" fill="#00FDFF"/>
      <circle r="3" cx="880" cy="-77" fill="#FFC300"/>
      <circle r="3" cx="888" cy="-110" fill="#00FDFF"/>
      <circle r="3" cx="888" cy="-77" fill="#FFC300"/>
      <circle r="3" cx="896" cy="-121" fill="#00FDFF"/>
      <circle r="3" cx="896" cy="-77" fill="#FFC300"/>
      <circle r="3" cx="904" cy="-121" fill="#00FDFF"/>
      <circle r="3" cx="904" cy="-77" fill="#FFC300"/>
      <circle r="3" cx="912" cy="-121" fill="#00FDFF"/>
      <circle r="3" cx="912" cy="-88" fill="#FFC300"/>
      <circle r="3" cx="920" cy="-121" fill="#00FDFF"/>
      <circle r="3" cx="920" cy="-88" fill="#FFC300"/>
      <circle r="3" cx="928" cy="-132" fill="#00FDFF"/>
      <circle r="3" cx="928" cy="-88" fill="#FFC300"/>
      <circle r="3" cx="936" cy="-132" fill="#00FDFF"/>
      <circle r="3" cx="936" cy="-88" fill="#FFC300"/>
      <circle r="3" cx="944" cy="-143" fill="#00FDFF"/>
      <circle r="3" cx="944" cy="-88" fill="#FFC300"/>
      <circle r="3" cx="952" cy="-143" fill="#00FDFF"/>
      <circle r="3" cx="952" cy="-88" fill="#FFC300"/>
      <circle r="3" cx="960" cy="-143" fill="#00FDFF"/>
      <circle r="3" cx="960" cy="-88" fill="#FFC300"/>
      <circle r="3" cx="968" cy="-154" fill="#00FDFF"/>
      <circle r="3" cx="968" cy="-88" fill="#FFC300"/>
      <circle r="3" cx="976" cy="-165" fill="#00FDFF"/>
      <circle r="3" cx="976" cy="-88" fill="#FFC300"/>
      <circle r="3" cx="984" cy="-176" fill="#00FDFF"/>
      <circle r="3" cx="984" cy="-88" fill="#FFC300"/>
      <circle r="3" cx="992" cy="-176" fill="#00FDFF"/>
      <circle r="3" cx="992" cy="-88" fill="#FFC300"/>
      <circle r="3" cx="1000" cy="-187" fill="#00FDFF"/>
      <circle r="3" cx="1000" cy="-88" fill="#FFC300"/>
      <circle r="3" cx="1008" cy="-198" fill="#00FDFF"/>
      <circle r="3" cx="1008" cy="-88" fill="#FFC300"/>
      <circle r="3" cx="1016" cy="-209" fill="#00FDFF"/>
      <circle r="3" cx="1016" cy="-88" fill="#FFC300"/>
      <circle r="3" cx="1024" cy="-220" fill="#00FDFF"/>
      <circle r="3" cx="1024" cy="-88" fill="#FFC300"/>
      <circle r="3" cx="1032" cy="-231" fill="#00FDFF"/>
      <circle r="3" cx="1032" cy="-88" fill="#FFC300"/>
      <circle r="3" cx="1040" cy="-242" fill="#00FDFF"/>
      <circle r="3" cx="1040" cy="-88" fill="#FFC300"/>
      <circle r="3" cx="1048" cy="-253" fill="#00FDFF"/>
      <circle r="3" cx="1048" cy="-88" fill="#FFC300"/>
      <circle r="3" cx="1056" cy="-253" fill="#00FDFF"/>
      <circle r="3" cx="1056" cy="-88" fill="#FFC300"/>
      <circle r="3" cx="1064" cy="-253" fill="#00FDFF"/>
      <circle r="3" cx="1064" cy="-88" fill="#FFC300"/>
      <circle r="3" cx="1072" cy="-253" fill="#00FDFF"/>
      <circle r="3" cx="1072" cy="-88" fill="#FFC300"/>
      <circle r="3" cx="1080" cy="-253" fill="#00FDFF"/>
      <circle r="3" cx="1080" cy="-88" fill="#FFC300"/>
      <circle r="3" cx="1088" cy="-253" fill="#00FDFF"/>
      <circle r="3" cx="1088" cy="-88" fill="#FFC300"/>
      <circle r="3" cx="1096" cy="-253" fill="#00FDFF"/>
      <circle r="3" cx="1096" cy="-88" fill="#FFC300"/>
      <circle r="3" cx="1104" cy="-253" fill="#00FDFF"/>
      <circle r="3" cx="1104" cy="-88" fill="#FFC300"/>
      <circle r="3" cx="1112" cy="-253" fill="#00FDFF"/>
      <circle r="3" cx="1112" cy="-88" fill="#FFC300"/>
      <circle r="3" cx="1120" cy="-253" fill="#00FDFF"/>
      <circle r="3" cx="1120" cy="-88" fill="#FFC300"/>
      <circle r="3" cx="1128" cy="-253" fill="#00FDFF"/>
      <circle r="3" cx="1128" cy="-88" fill="#FFC300"/>
      <circle r="3" cx="1136" cy="-253" fill="#00FDFF"/>
      <circle r="3" cx="1136" cy="-88" fill="#FFC300"/>
      <circle r="3" cx="1144" cy="-253" fill="#00FDFF"/>
      <circle r="3" cx="1144" cy="-88" fill="#FFC300"/>
      <text x="1160"
            y="-253"
            text-anchor="start"
            alignment-baseline="central"
            fill="#00FDFF">divine</text>
      <text x="1160"
            y="-88"
            text-anchor="start"
            alignment-baseline="central"
            fill="#FFC300">earthly</text>
      <line x1="0" y1="0" x2="1144" y2="0" stroke="black"/>
      <line x1="0" y1="0" x2="0" y2="-303" stroke="black"/>
      <text x="-50"
            y="-126.5"
            text-anchor="middle"
            font-size="larger"
            transform="rotate(-90 -50 -126.5)">Occurrences</text>
      <text x="572"
            y="50"
            text-anchor="middle"
            font-size="larger"
            alignment-baseline="baseline">Percentage of Scene</text>
      <text x="572"
            y="-303"
            text-anchor="middle"
            font-size="larger"
            text-decoration="underline">DIVINE AND EARTHLY TRAITS THROUGHOUT SCENE XII</text>
   </g>
</svg>
