<?xml version="1.0" encoding="UTF-8"?>
<svg xmlns="http://www.w3.org/2000/svg" viewBox="0 -70 815 249">
   <g transform="translate(100, 124)">
      <line x1="-10" y1="-16" x2="0" y2="-16" stroke="black"/>
      <line x1="64.5" y1="-10" x2="64.5" y2="10" stroke="black"/>
      <line x1="0" y1="-16" x2="645" y2="-16" stroke="lightgrey"/>
      <text x="-15" y="-16" text-anchor="end" alignment-baseline="central">4</text>
      <text x="63.5" y="3" text-anchor="end" alignment-baseline="hanging">10%</text>
      <line x1="-10" y1="-32" x2="0" y2="-32" stroke="black"/>
      <line x1="129" y1="-10" x2="129" y2="10" stroke="black"/>
      <line x1="0" y1="-32" x2="645" y2="-32" stroke="lightgrey"/>
      <text x="-15" y="-32" text-anchor="end" alignment-baseline="central">8</text>
      <text x="128" y="3" text-anchor="end" alignment-baseline="hanging">20%</text>
      <line x1="-10" y1="-48" x2="0" y2="-48" stroke="black"/>
      <line x1="193.5" y1="-10" x2="193.5" y2="10" stroke="black"/>
      <line x1="0" y1="-48" x2="645" y2="-48" stroke="lightgrey"/>
      <text x="-15" y="-48" text-anchor="end" alignment-baseline="central">12</text>
      <text x="192.5" y="3" text-anchor="end" alignment-baseline="hanging">30%</text>
      <line x1="-10" y1="-64" x2="0" y2="-64" stroke="black"/>
      <line x1="258" y1="-10" x2="258" y2="10" stroke="black"/>
      <line x1="0" y1="-64" x2="645" y2="-64" stroke="lightgrey"/>
      <text x="-15" y="-64" text-anchor="end" alignment-baseline="central">16</text>
      <text x="257" y="3" text-anchor="end" alignment-baseline="hanging">40%</text>
      <line x1="-10" y1="-80" x2="0" y2="-80" stroke="black"/>
      <line x1="322.5" y1="-10" x2="322.5" y2="10" stroke="black"/>
      <line x1="0" y1="-80" x2="645" y2="-80" stroke="lightgrey"/>
      <text x="-15" y="-80" text-anchor="end" alignment-baseline="central">20</text>
      <text x="321.5" y="3" text-anchor="end" alignment-baseline="hanging">50%</text>
      <line x1="-10" y1="-96" x2="0" y2="-96" stroke="black"/>
      <line x1="387" y1="-10" x2="387" y2="10" stroke="black"/>
      <line x1="0" y1="-96" x2="645" y2="-96" stroke="lightgrey"/>
      <text x="-15" y="-96" text-anchor="end" alignment-baseline="central">24</text>
      <text x="386" y="3" text-anchor="end" alignment-baseline="hanging">60%</text>
      <line x1="-10" y1="-112" x2="0" y2="-112" stroke="black"/>
      <line x1="451.5" y1="-10" x2="451.5" y2="10" stroke="black"/>
      <line x1="0" y1="-112" x2="645" y2="-112" stroke="lightgrey"/>
      <text x="-15" y="-112" text-anchor="end" alignment-baseline="central">28</text>
      <text x="450.5" y="3" text-anchor="end" alignment-baseline="hanging">70%</text>
      <line x1="-10" y1="-128" x2="0" y2="-128" stroke="black"/>
      <line x1="516" y1="-10" x2="516" y2="10" stroke="black"/>
      <line x1="0" y1="-128" x2="645" y2="-128" stroke="lightgrey"/>
      <text x="-15" y="-128" text-anchor="end" alignment-baseline="central">32</text>
      <text x="515" y="3" text-anchor="end" alignment-baseline="hanging">80%</text>
      <line x1="-10" y1="-144" x2="0" y2="-144" stroke="black"/>
      <line x1="580.5" y1="-10" x2="580.5" y2="10" stroke="black"/>
      <line x1="0" y1="-144" x2="645" y2="-144" stroke="lightgrey"/>
      <text x="-15" y="-144" text-anchor="end" alignment-baseline="central">36</text>
      <text x="579.5" y="3" text-anchor="end" alignment-baseline="hanging">90%</text>
      <line x1="-10" y1="-160" x2="0" y2="-160" stroke="black"/>
      <line x1="645" y1="-10" x2="645" y2="10" stroke="black"/>
      <line x1="0" y1="-160" x2="645" y2="-160" stroke="lightgrey"/>
      <text x="-15" y="-160" text-anchor="end" alignment-baseline="central">40</text>
      <text x="644" y="3" text-anchor="end" alignment-baseline="hanging">100%</text>
      <line x1="-10" y1="0" x2="0" y2="0" stroke="black"/>
      <text x="-15" y="0" text-anchor="end" alignment-baseline="central">0</text>
      <circle r="5" cx="5" cy="-0" fill="#00FDFF"/>
      <circle r="5" cx="5" cy="-0" fill="#FFC300"/>
      <circle r="5" cx="5" cy="-0" fill="magenta"/>
      <circle r="5" cx="10" cy="-0" fill="#00FDFF"/>
      <circle r="5" cx="10" cy="-0" fill="#FFC300"/>
      <circle r="5" cx="10" cy="-0" fill="magenta"/>
      <circle r="5" cx="15" cy="-0" fill="#00FDFF"/>
      <circle r="5" cx="15" cy="-0" fill="#FFC300"/>
      <circle r="5" cx="15" cy="-0" fill="magenta"/>
      <circle r="5" cx="20" cy="-0" fill="#00FDFF"/>
      <circle r="5" cx="20" cy="-0" fill="#FFC300"/>
      <circle r="5" cx="20" cy="-0" fill="magenta"/>
      <circle r="5" cx="25" cy="-0" fill="#00FDFF"/>
      <circle r="5" cx="25" cy="-0" fill="#FFC300"/>
      <circle r="5" cx="25" cy="-0" fill="magenta"/>
      <circle r="5" cx="30" cy="-0" fill="#00FDFF"/>
      <circle r="5" cx="30" cy="-0" fill="#FFC300"/>
      <circle r="5" cx="30" cy="-0" fill="magenta"/>
      <circle r="5" cx="35" cy="-0" fill="#00FDFF"/>
      <circle r="5" cx="35" cy="-0" fill="#FFC300"/>
      <circle r="5" cx="35" cy="-0" fill="magenta"/>
      <circle r="5" cx="40" cy="-0" fill="#00FDFF"/>
      <circle r="5" cx="40" cy="-0" fill="#FFC300"/>
      <circle r="5" cx="40" cy="-0" fill="magenta"/>
      <circle r="5" cx="45" cy="-0" fill="#00FDFF"/>
      <circle r="5" cx="45" cy="-4" fill="#FFC300"/>
      <circle r="5" cx="50" cy="-0" fill="#00FDFF"/>
      <circle r="5" cx="50" cy="-4" fill="#FFC300"/>
      <circle r="5" cx="55" cy="-0" fill="#00FDFF"/>
      <circle r="5" cx="55" cy="-8" fill="#FFC300"/>
      <circle r="5" cx="60" cy="-0" fill="#00FDFF"/>
      <circle r="5" cx="60" cy="-12" fill="#FFC300"/>
      <circle r="5" cx="65" cy="-0" fill="#00FDFF"/>
      <circle r="5" cx="65" cy="-16" fill="#FFC300"/>
      <circle r="5" cx="70" cy="-0" fill="#00FDFF"/>
      <circle r="5" cx="70" cy="-20" fill="#FFC300"/>
      <circle r="5" cx="75" cy="-4" fill="#00FDFF"/>
      <circle r="5" cx="75" cy="-20" fill="#FFC300"/>
      <circle r="5" cx="80" cy="-8" fill="#00FDFF"/>
      <circle r="5" cx="80" cy="-20" fill="#FFC300"/>
      <circle r="5" cx="85" cy="-8" fill="#00FDFF"/>
      <circle r="5" cx="85" cy="-24" fill="#FFC300"/>
      <circle r="5" cx="90" cy="-8" fill="#00FDFF"/>
      <circle r="5" cx="90" cy="-28" fill="#FFC300"/>
      <circle r="5" cx="95" cy="-8" fill="#00FDFF"/>
      <circle r="5" cx="95" cy="-32" fill="#FFC300"/>
      <circle r="5" cx="100" cy="-8" fill="#00FDFF"/>
      <circle r="5" cx="100" cy="-36" fill="#FFC300"/>
      <circle r="5" cx="105" cy="-12" fill="#00FDFF"/>
      <circle r="5" cx="105" cy="-36" fill="#FFC300"/>
      <circle r="5" cx="110" cy="-16" fill="#00FDFF"/>
      <circle r="5" cx="110" cy="-36" fill="#FFC300"/>
      <circle r="5" cx="115" cy="-20" fill="#00FDFF"/>
      <circle r="5" cx="115" cy="-36" fill="#FFC300"/>
      <circle r="5" cx="120" cy="-24" fill="#00FDFF"/>
      <circle r="5" cx="120" cy="-36" fill="#FFC300"/>
      <circle r="5" cx="125" cy="-28" fill="#00FDFF"/>
      <circle r="5" cx="125" cy="-36" fill="#FFC300"/>
      <circle r="5" cx="130" cy="-28" fill="#00FDFF"/>
      <circle r="5" cx="130" cy="-40" fill="#FFC300"/>
      <circle r="5" cx="135" cy="-28" fill="#00FDFF"/>
      <circle r="5" cx="135" cy="-44" fill="#FFC300"/>
      <circle r="5" cx="140" cy="-28" fill="#00FDFF"/>
      <circle r="5" cx="140" cy="-48" fill="#FFC300"/>
      <circle r="5" cx="145" cy="-28" fill="#00FDFF"/>
      <circle r="5" cx="145" cy="-52" fill="#FFC300"/>
      <circle r="5" cx="150" cy="-28" fill="#00FDFF"/>
      <circle r="5" cx="150" cy="-56" fill="#FFC300"/>
      <circle r="5" cx="155" cy="-28" fill="#00FDFF"/>
      <circle r="5" cx="155" cy="-60" fill="#FFC300"/>
      <circle r="5" cx="160" cy="-28" fill="#00FDFF"/>
      <circle r="5" cx="160" cy="-64" fill="#FFC300"/>
      <circle r="5" cx="165" cy="-28" fill="#00FDFF"/>
      <circle r="5" cx="165" cy="-68" fill="#FFC300"/>
      <circle r="5" cx="170" cy="-28" fill="#00FDFF"/>
      <circle r="5" cx="170" cy="-72" fill="#FFC300"/>
      <circle r="5" cx="175" cy="-28" fill="#00FDFF"/>
      <circle r="5" cx="175" cy="-76" fill="#FFC300"/>
      <circle r="5" cx="180" cy="-28" fill="#00FDFF"/>
      <circle r="5" cx="180" cy="-80" fill="#FFC300"/>
      <circle r="5" cx="185" cy="-28" fill="#00FDFF"/>
      <circle r="5" cx="185" cy="-84" fill="#FFC300"/>
      <circle r="5" cx="190" cy="-32" fill="#00FDFF"/>
      <circle r="5" cx="190" cy="-84" fill="#FFC300"/>
      <circle r="5" cx="195" cy="-36" fill="#00FDFF"/>
      <circle r="5" cx="195" cy="-84" fill="#FFC300"/>
      <circle r="5" cx="200" cy="-40" fill="#00FDFF"/>
      <circle r="5" cx="200" cy="-84" fill="#FFC300"/>
      <circle r="5" cx="205" cy="-44" fill="#00FDFF"/>
      <circle r="5" cx="205" cy="-84" fill="#FFC300"/>
      <circle r="5" cx="210" cy="-48" fill="#00FDFF"/>
      <circle r="5" cx="210" cy="-84" fill="#FFC300"/>
      <circle r="5" cx="215" cy="-52" fill="#00FDFF"/>
      <circle r="5" cx="215" cy="-84" fill="#FFC300"/>
      <circle r="5" cx="220" cy="-56" fill="#00FDFF"/>
      <circle r="5" cx="220" cy="-84" fill="#FFC300"/>
      <circle r="5" cx="225" cy="-60" fill="#00FDFF"/>
      <circle r="5" cx="225" cy="-84" fill="#FFC300"/>
      <circle r="5" cx="230" cy="-60" fill="#00FDFF"/>
      <circle r="5" cx="230" cy="-88" fill="#FFC300"/>
      <circle r="5" cx="235" cy="-60" fill="#00FDFF"/>
      <circle r="5" cx="235" cy="-92" fill="#FFC300"/>
      <circle r="5" cx="240" cy="-60" fill="#00FDFF"/>
      <circle r="5" cx="240" cy="-96" fill="#FFC300"/>
      <circle r="5" cx="245" cy="-60" fill="#00FDFF"/>
      <circle r="5" cx="245" cy="-100" fill="#FFC300"/>
      <circle r="5" cx="250" cy="-60" fill="#00FDFF"/>
      <circle r="5" cx="250" cy="-104" fill="#FFC300"/>
      <circle r="5" cx="255" cy="-60" fill="#00FDFF"/>
      <circle r="5" cx="255" cy="-108" fill="#FFC300"/>
      <circle r="5" cx="260" cy="-60" fill="#00FDFF"/>
      <circle r="5" cx="260" cy="-112" fill="#FFC300"/>
      <circle r="5" cx="265" cy="-60" fill="#00FDFF"/>
      <circle r="5" cx="265" cy="-116" fill="#FFC300"/>
      <circle r="5" cx="270" cy="-60" fill="#00FDFF"/>
      <circle r="5" cx="270" cy="-116" fill="#FFC300"/>
      <circle r="5" cx="275" cy="-60" fill="#00FDFF"/>
      <circle r="5" cx="275" cy="-120" fill="#FFC300"/>
      <circle r="5" cx="280" cy="-60" fill="#00FDFF"/>
      <circle r="5" cx="280" cy="-120" fill="#FFC300"/>
      <circle r="5" cx="285" cy="-60" fill="#00FDFF"/>
      <circle r="5" cx="285" cy="-120" fill="#FFC300"/>
      <circle r="5" cx="290" cy="-60" fill="#00FDFF"/>
      <circle r="5" cx="290" cy="-120" fill="#FFC300"/>
      <circle r="5" cx="295" cy="-60" fill="#00FDFF"/>
      <circle r="5" cx="295" cy="-120" fill="#FFC300"/>
      <circle r="5" cx="300" cy="-60" fill="#00FDFF"/>
      <circle r="5" cx="300" cy="-120" fill="#FFC300"/>
      <circle r="5" cx="305" cy="-60" fill="#00FDFF"/>
      <circle r="5" cx="305" cy="-120" fill="#FFC300"/>
      <circle r="5" cx="310" cy="-60" fill="#00FDFF"/>
      <circle r="5" cx="310" cy="-120" fill="#FFC300"/>
      <circle r="5" cx="315" cy="-60" fill="#00FDFF"/>
      <circle r="5" cx="315" cy="-124" fill="#FFC300"/>
      <circle r="5" cx="320" cy="-60" fill="#00FDFF"/>
      <circle r="5" cx="320" cy="-124" fill="#FFC300"/>
      <circle r="5" cx="325" cy="-60" fill="#00FDFF"/>
      <circle r="5" cx="325" cy="-124" fill="#FFC300"/>
      <circle r="5" cx="330" cy="-60" fill="#00FDFF"/>
      <circle r="5" cx="330" cy="-124" fill="#FFC300"/>
      <circle r="5" cx="335" cy="-60" fill="#00FDFF"/>
      <circle r="5" cx="335" cy="-124" fill="#FFC300"/>
      <circle r="5" cx="340" cy="-60" fill="#00FDFF"/>
      <circle r="5" cx="340" cy="-124" fill="#FFC300"/>
      <circle r="5" cx="345" cy="-60" fill="#00FDFF"/>
      <circle r="5" cx="345" cy="-124" fill="#FFC300"/>
      <circle r="5" cx="350" cy="-60" fill="#00FDFF"/>
      <circle r="5" cx="350" cy="-124" fill="#FFC300"/>
      <circle r="5" cx="355" cy="-60" fill="#00FDFF"/>
      <circle r="5" cx="355" cy="-124" fill="#FFC300"/>
      <circle r="5" cx="360" cy="-60" fill="#00FDFF"/>
      <circle r="5" cx="360" cy="-124" fill="#FFC300"/>
      <circle r="5" cx="365" cy="-60" fill="#00FDFF"/>
      <circle r="5" cx="365" cy="-124" fill="#FFC300"/>
      <circle r="5" cx="370" cy="-60" fill="#00FDFF"/>
      <circle r="5" cx="370" cy="-124" fill="#FFC300"/>
      <circle r="5" cx="375" cy="-60" fill="#00FDFF"/>
      <circle r="5" cx="375" cy="-124" fill="#FFC300"/>
      <circle r="5" cx="380" cy="-60" fill="#00FDFF"/>
      <circle r="5" cx="380" cy="-124" fill="#FFC300"/>
      <circle r="5" cx="385" cy="-60" fill="#00FDFF"/>
      <circle r="5" cx="385" cy="-124" fill="#FFC300"/>
      <circle r="5" cx="390" cy="-60" fill="#00FDFF"/>
      <circle r="5" cx="390" cy="-124" fill="#FFC300"/>
      <circle r="5" cx="395" cy="-60" fill="#00FDFF"/>
      <circle r="5" cx="395" cy="-124" fill="#FFC300"/>
      <circle r="5" cx="400" cy="-60" fill="#00FDFF"/>
      <circle r="5" cx="400" cy="-124" fill="#FFC300"/>
      <circle r="5" cx="405" cy="-60" fill="#00FDFF"/>
      <circle r="5" cx="405" cy="-124" fill="#FFC300"/>
      <circle r="5" cx="410" cy="-60" fill="#00FDFF"/>
      <circle r="5" cx="410" cy="-124" fill="#FFC300"/>
      <circle r="5" cx="415" cy="-60" fill="#00FDFF"/>
      <circle r="5" cx="415" cy="-124" fill="#FFC300"/>
      <circle r="5" cx="420" cy="-60" fill="#00FDFF"/>
      <circle r="5" cx="420" cy="-124" fill="#FFC300"/>
      <circle r="5" cx="425" cy="-60" fill="#00FDFF"/>
      <circle r="5" cx="425" cy="-124" fill="#FFC300"/>
      <circle r="5" cx="430" cy="-60" fill="#00FDFF"/>
      <circle r="5" cx="430" cy="-124" fill="#FFC300"/>
      <circle r="5" cx="435" cy="-60" fill="#00FDFF"/>
      <circle r="5" cx="435" cy="-124" fill="#FFC300"/>
      <circle r="5" cx="440" cy="-60" fill="#00FDFF"/>
      <circle r="5" cx="440" cy="-124" fill="#FFC300"/>
      <circle r="5" cx="445" cy="-60" fill="#00FDFF"/>
      <circle r="5" cx="445" cy="-124" fill="#FFC300"/>
      <circle r="5" cx="450" cy="-60" fill="#00FDFF"/>
      <circle r="5" cx="450" cy="-124" fill="#FFC300"/>
      <circle r="5" cx="455" cy="-60" fill="#00FDFF"/>
      <circle r="5" cx="455" cy="-124" fill="#FFC300"/>
      <circle r="5" cx="460" cy="-60" fill="#00FDFF"/>
      <circle r="5" cx="460" cy="-124" fill="#FFC300"/>
      <circle r="5" cx="465" cy="-60" fill="#00FDFF"/>
      <circle r="5" cx="465" cy="-124" fill="#FFC300"/>
      <circle r="5" cx="470" cy="-60" fill="#00FDFF"/>
      <circle r="5" cx="470" cy="-124" fill="#FFC300"/>
      <circle r="5" cx="475" cy="-60" fill="#00FDFF"/>
      <circle r="5" cx="475" cy="-124" fill="#FFC300"/>
      <circle r="5" cx="480" cy="-60" fill="#00FDFF"/>
      <circle r="5" cx="480" cy="-124" fill="#FFC300"/>
      <circle r="5" cx="485" cy="-60" fill="#00FDFF"/>
      <circle r="5" cx="485" cy="-124" fill="#FFC300"/>
      <circle r="5" cx="490" cy="-60" fill="#00FDFF"/>
      <circle r="5" cx="490" cy="-124" fill="#FFC300"/>
      <circle r="5" cx="495" cy="-60" fill="#00FDFF"/>
      <circle r="5" cx="495" cy="-124" fill="#FFC300"/>
      <circle r="5" cx="500" cy="-60" fill="#00FDFF"/>
      <circle r="5" cx="500" cy="-124" fill="#FFC300"/>
      <circle r="5" cx="505" cy="-60" fill="#00FDFF"/>
      <circle r="5" cx="505" cy="-124" fill="#FFC300"/>
      <circle r="5" cx="510" cy="-60" fill="#00FDFF"/>
      <circle r="5" cx="510" cy="-124" fill="#FFC300"/>
      <circle r="5" cx="515" cy="-60" fill="#00FDFF"/>
      <circle r="5" cx="515" cy="-124" fill="#FFC300"/>
      <circle r="5" cx="520" cy="-60" fill="#00FDFF"/>
      <circle r="5" cx="520" cy="-124" fill="#FFC300"/>
      <circle r="5" cx="525" cy="-60" fill="#00FDFF"/>
      <circle r="5" cx="525" cy="-124" fill="#FFC300"/>
      <circle r="5" cx="530" cy="-60" fill="#00FDFF"/>
      <circle r="5" cx="530" cy="-124" fill="#FFC300"/>
      <circle r="5" cx="535" cy="-60" fill="#00FDFF"/>
      <circle r="5" cx="535" cy="-124" fill="#FFC300"/>
      <circle r="5" cx="540" cy="-60" fill="#00FDFF"/>
      <circle r="5" cx="540" cy="-124" fill="#FFC300"/>
      <circle r="5" cx="545" cy="-60" fill="#00FDFF"/>
      <circle r="5" cx="545" cy="-124" fill="#FFC300"/>
      <circle r="5" cx="550" cy="-60" fill="#00FDFF"/>
      <circle r="5" cx="550" cy="-124" fill="#FFC300"/>
      <circle r="5" cx="555" cy="-60" fill="#00FDFF"/>
      <circle r="5" cx="555" cy="-124" fill="#FFC300"/>
      <circle r="5" cx="560" cy="-60" fill="#00FDFF"/>
      <circle r="5" cx="560" cy="-124" fill="#FFC300"/>
      <circle r="5" cx="565" cy="-60" fill="#00FDFF"/>
      <circle r="5" cx="565" cy="-124" fill="#FFC300"/>
      <circle r="5" cx="570" cy="-60" fill="#00FDFF"/>
      <circle r="5" cx="570" cy="-124" fill="#FFC300"/>
      <circle r="5" cx="575" cy="-60" fill="#00FDFF"/>
      <circle r="5" cx="575" cy="-124" fill="#FFC300"/>
      <circle r="5" cx="580" cy="-60" fill="#00FDFF"/>
      <circle r="5" cx="580" cy="-124" fill="#FFC300"/>
      <circle r="5" cx="585" cy="-60" fill="#00FDFF"/>
      <circle r="5" cx="585" cy="-124" fill="#FFC300"/>
      <circle r="5" cx="590" cy="-60" fill="#00FDFF"/>
      <circle r="5" cx="590" cy="-124" fill="#FFC300"/>
      <circle r="5" cx="595" cy="-60" fill="#00FDFF"/>
      <circle r="5" cx="595" cy="-124" fill="#FFC300"/>
      <circle r="5" cx="600" cy="-60" fill="#00FDFF"/>
      <circle r="5" cx="600" cy="-124" fill="#FFC300"/>
      <circle r="5" cx="605" cy="-60" fill="#00FDFF"/>
      <circle r="5" cx="605" cy="-124" fill="#FFC300"/>
      <circle r="5" cx="610" cy="-60" fill="#00FDFF"/>
      <circle r="5" cx="610" cy="-124" fill="#FFC300"/>
      <circle r="5" cx="615" cy="-60" fill="#00FDFF"/>
      <circle r="5" cx="615" cy="-124" fill="#FFC300"/>
      <circle r="5" cx="620" cy="-60" fill="#00FDFF"/>
      <circle r="5" cx="620" cy="-124" fill="#FFC300"/>
      <circle r="5" cx="625" cy="-60" fill="#00FDFF"/>
      <circle r="5" cx="625" cy="-124" fill="#FFC300"/>
      <circle r="5" cx="630" cy="-60" fill="#00FDFF"/>
      <circle r="5" cx="630" cy="-124" fill="#FFC300"/>
      <circle r="5" cx="635" cy="-60" fill="#00FDFF"/>
      <circle r="5" cx="635" cy="-124" fill="#FFC300"/>
      <circle r="5" cx="640" cy="-60" fill="#00FDFF"/>
      <circle r="5" cx="640" cy="-124" fill="#FFC300"/>
      <circle r="5" cx="645" cy="-60" fill="#00FDFF"/>
      <circle r="5" cx="645" cy="-124" fill="#FFC300"/>
      <text x="655"
            y="-60"
            text-anchor="start"
            alignment-baseline="central"
            fill="#00FDFF">divine</text>
      <text x="655"
            y="-124"
            text-anchor="start"
            alignment-baseline="central"
            fill="#FFC300">earthly</text>
      <line x1="0" y1="0" x2="645" y2="0" stroke="black"/>
      <line x1="0" y1="0" x2="0" y2="-149" stroke="black"/>
      <text x="-50"
            y="-62"
            text-anchor="middle"
            font-size="larger"
            transform="rotate(-90 -50 -62)">Occurrences</text>
      <text x="322.5"
            y="50"
            text-anchor="middle"
            font-size="larger"
            alignment-baseline="baseline">Percentage of Scene</text>
      <text x="322.5"
            y="-174"
            text-anchor="middle"
            font-size="larger"
            text-decoration="underline">OCCURRENCE
                    OF DIVINE AND EARTHLY TRAITS THROUGHOUT SCENE VIII. EVENING</text>
   </g>
</svg>
