<?xml version="1.0" encoding="UTF-8"?>
<svg xmlns="http://www.w3.org/2000/svg">
   <g transform="translate(100, 199)">
      <line x1="-10" y1="-14" x2="0" y2="-14" stroke="black"/>
      <line x1="119.69999999999999"
            y1="-10"
            x2="119.69999999999999"
            y2="10"
            stroke="black"/>
      <line x1="0" y1="-14" x2="1197" y2="-14" stroke="lightgrey"/>
      <text x="-15" y="-14" text-anchor="end" alignment-baseline="central">7</text>
      <text x="122.69999999999999"
            y="3"
            text-anchor="start"
            alignment-baseline="hanging">10%</text>
      <line x1="-10" y1="-28" x2="0" y2="-28" stroke="black"/>
      <line x1="239.39999999999998"
            y1="-10"
            x2="239.39999999999998"
            y2="10"
            stroke="black"/>
      <line x1="0" y1="-28" x2="1197" y2="-28" stroke="lightgrey"/>
      <text x="-15" y="-28" text-anchor="end" alignment-baseline="central">14</text>
      <text x="242.39999999999998"
            y="3"
            text-anchor="start"
            alignment-baseline="hanging">20%</text>
      <line x1="-10" y1="-42" x2="0" y2="-42" stroke="black"/>
      <line x1="359.1" y1="-10" x2="359.1" y2="10" stroke="black"/>
      <line x1="0" y1="-42" x2="1197" y2="-42" stroke="lightgrey"/>
      <text x="-15" y="-42" text-anchor="end" alignment-baseline="central">21</text>
      <text x="362.1"
            y="3"
            text-anchor="start"
            alignment-baseline="hanging">30%</text>
      <line x1="-10" y1="-56" x2="0" y2="-56" stroke="black"/>
      <line x1="478.79999999999995"
            y1="-10"
            x2="478.79999999999995"
            y2="10"
            stroke="black"/>
      <line x1="0" y1="-56" x2="1197" y2="-56" stroke="lightgrey"/>
      <text x="-15" y="-56" text-anchor="end" alignment-baseline="central">28</text>
      <text x="481.79999999999995"
            y="3"
            text-anchor="start"
            alignment-baseline="hanging">40%</text>
      <line x1="-10" y1="-70" x2="0" y2="-70" stroke="black"/>
      <line x1="598.5" y1="-10" x2="598.5" y2="10" stroke="black"/>
      <line x1="0" y1="-70" x2="1197" y2="-70" stroke="lightgrey"/>
      <text x="-15" y="-70" text-anchor="end" alignment-baseline="central">35</text>
      <text x="601.5"
            y="3"
            text-anchor="start"
            alignment-baseline="hanging">50%</text>
      <line x1="-10" y1="-84" x2="0" y2="-84" stroke="black"/>
      <line x1="718.2" y1="-10" x2="718.2" y2="10" stroke="black"/>
      <line x1="0" y1="-84" x2="1197" y2="-84" stroke="lightgrey"/>
      <text x="-15" y="-84" text-anchor="end" alignment-baseline="central">42</text>
      <text x="721.2"
            y="3"
            text-anchor="start"
            alignment-baseline="hanging">60%</text>
      <line x1="-10" y1="-98" x2="0" y2="-98" stroke="black"/>
      <line x1="837.9000000000001"
            y1="-10"
            x2="837.9000000000001"
            y2="10"
            stroke="black"/>
      <line x1="0" y1="-98" x2="1197" y2="-98" stroke="lightgrey"/>
      <text x="-15" y="-98" text-anchor="end" alignment-baseline="central">49</text>
      <text x="840.9000000000001"
            y="3"
            text-anchor="start"
            alignment-baseline="hanging">70%</text>
      <line x1="-10" y1="-112" x2="0" y2="-112" stroke="black"/>
      <line x1="957.5999999999999"
            y1="-10"
            x2="957.5999999999999"
            y2="10"
            stroke="black"/>
      <line x1="0" y1="-112" x2="1197" y2="-112" stroke="lightgrey"/>
      <text x="-15" y="-112" text-anchor="end" alignment-baseline="central">56</text>
      <text x="960.5999999999999"
            y="3"
            text-anchor="start"
            alignment-baseline="hanging">80%</text>
      <line x1="-10" y1="-126" x2="0" y2="-126" stroke="black"/>
      <line x1="1077.3000000000002"
            y1="-10"
            x2="1077.3000000000002"
            y2="10"
            stroke="black"/>
      <line x1="0" y1="-126" x2="1197" y2="-126" stroke="lightgrey"/>
      <text x="-15" y="-126" text-anchor="end" alignment-baseline="central">63</text>
      <text x="1080.3000000000002"
            y="3"
            text-anchor="start"
            alignment-baseline="hanging">90%</text>
      <line x1="-10" y1="-140" x2="0" y2="-140" stroke="black"/>
      <line x1="1197" y1="-10" x2="1197" y2="10" stroke="black"/>
      <line x1="0" y1="-140" x2="1197" y2="-140" stroke="lightgrey"/>
      <text x="-15" y="-140" text-anchor="end" alignment-baseline="central">70</text>
      <text x="1200" y="3" text-anchor="start" alignment-baseline="hanging">100%</text>
      <line x1="-10" y1="0" x2="0" y2="0" stroke="black"/>
      <text x="-15" y="0" text-anchor="end" alignment-baseline="central">0</text>
      <circle r="3" cx="3" cy="-0" fill="#00FDFF"/>
      <circle r="3" cx="3" cy="-0" fill="#FFC300"/>
      <circle r="3" cx="6" cy="-0" fill="#00FDFF"/>
      <circle r="3" cx="6" cy="-0" fill="#FFC300"/>
      <circle r="3" cx="9" cy="-0" fill="#00FDFF"/>
      <circle r="3" cx="9" cy="-0" fill="#FFC300"/>
      <circle r="3" cx="12" cy="-0" fill="#00FDFF"/>
      <circle r="3" cx="12" cy="-0" fill="#FFC300"/>
      <circle r="3" cx="15" cy="-2" fill="#00FDFF"/>
      <circle r="3" cx="15" cy="-0" fill="#FFC300"/>
      <circle r="3" cx="18" cy="-4" fill="#00FDFF"/>
      <circle r="3" cx="18" cy="-0" fill="#FFC300"/>
      <circle r="3" cx="21" cy="-6" fill="#00FDFF"/>
      <circle r="3" cx="21" cy="-0" fill="#FFC300"/>
      <circle r="3" cx="24" cy="-8" fill="#00FDFF"/>
      <circle r="3" cx="24" cy="-0" fill="#FFC300"/>
      <circle r="3" cx="27" cy="-10" fill="#00FDFF"/>
      <circle r="3" cx="27" cy="-0" fill="#FFC300"/>
      <circle r="3" cx="30" cy="-12" fill="#00FDFF"/>
      <circle r="3" cx="30" cy="-0" fill="#FFC300"/>
      <circle r="3" cx="33" cy="-14" fill="#00FDFF"/>
      <circle r="3" cx="33" cy="-0" fill="#FFC300"/>
      <circle r="3" cx="36" cy="-16" fill="#00FDFF"/>
      <circle r="3" cx="36" cy="-0" fill="#FFC300"/>
      <circle r="3" cx="39" cy="-18" fill="#00FDFF"/>
      <circle r="3" cx="39" cy="-0" fill="#FFC300"/>
      <circle r="3" cx="42" cy="-20" fill="#00FDFF"/>
      <circle r="3" cx="42" cy="-0" fill="#FFC300"/>
      <circle r="3" cx="45" cy="-20" fill="#00FDFF"/>
      <circle r="3" cx="45" cy="-0" fill="#FFC300"/>
      <circle r="3" cx="48" cy="-20" fill="#00FDFF"/>
      <circle r="3" cx="48" cy="-0" fill="#FFC300"/>
      <circle r="3" cx="51" cy="-20" fill="#00FDFF"/>
      <circle r="3" cx="51" cy="-0" fill="#FFC300"/>
      <circle r="3" cx="54" cy="-20" fill="#00FDFF"/>
      <circle r="3" cx="54" cy="-0" fill="#FFC300"/>
      <circle r="3" cx="57" cy="-20" fill="#00FDFF"/>
      <circle r="3" cx="57" cy="-0" fill="#FFC300"/>
      <circle r="3" cx="60" cy="-20" fill="#00FDFF"/>
      <circle r="3" cx="60" cy="-0" fill="#FFC300"/>
      <circle r="3" cx="63" cy="-20" fill="#00FDFF"/>
      <circle r="3" cx="63" cy="-0" fill="#FFC300"/>
      <circle r="3" cx="66" cy="-20" fill="#00FDFF"/>
      <circle r="3" cx="66" cy="-0" fill="#FFC300"/>
      <circle r="3" cx="69" cy="-20" fill="#00FDFF"/>
      <circle r="3" cx="69" cy="-0" fill="#FFC300"/>
      <circle r="3" cx="72" cy="-20" fill="#00FDFF"/>
      <circle r="3" cx="72" cy="-0" fill="#FFC300"/>
      <circle r="3" cx="75" cy="-20" fill="#00FDFF"/>
      <circle r="3" cx="75" cy="-0" fill="#FFC300"/>
      <circle r="3" cx="78" cy="-20" fill="#00FDFF"/>
      <circle r="3" cx="78" cy="-0" fill="#FFC300"/>
      <circle r="3" cx="81" cy="-20" fill="#00FDFF"/>
      <circle r="3" cx="81" cy="-0" fill="#FFC300"/>
      <circle r="3" cx="84" cy="-20" fill="#00FDFF"/>
      <circle r="3" cx="84" cy="-0" fill="#FFC300"/>
      <circle r="3" cx="87" cy="-20" fill="#00FDFF"/>
      <circle r="3" cx="87" cy="-0" fill="#FFC300"/>
      <circle r="3" cx="90" cy="-20" fill="#00FDFF"/>
      <circle r="3" cx="90" cy="-0" fill="#FFC300"/>
      <circle r="3" cx="93" cy="-20" fill="#00FDFF"/>
      <circle r="3" cx="93" cy="-0" fill="#FFC300"/>
      <circle r="3" cx="96" cy="-20" fill="#00FDFF"/>
      <circle r="3" cx="96" cy="-0" fill="#FFC300"/>
      <circle r="3" cx="99" cy="-20" fill="#00FDFF"/>
      <circle r="3" cx="99" cy="-0" fill="#FFC300"/>
      <circle r="3" cx="102" cy="-20" fill="#00FDFF"/>
      <circle r="3" cx="102" cy="-0" fill="#FFC300"/>
      <circle r="3" cx="105" cy="-20" fill="#00FDFF"/>
      <circle r="3" cx="105" cy="-0" fill="#FFC300"/>
      <circle r="3" cx="108" cy="-20" fill="#00FDFF"/>
      <circle r="3" cx="108" cy="-0" fill="#FFC300"/>
      <circle r="3" cx="111" cy="-20" fill="#00FDFF"/>
      <circle r="3" cx="111" cy="-0" fill="#FFC300"/>
      <circle r="3" cx="114" cy="-22" fill="#00FDFF"/>
      <circle r="3" cx="114" cy="-0" fill="#FFC300"/>
      <circle r="3" cx="117" cy="-24" fill="#00FDFF"/>
      <circle r="3" cx="117" cy="-0" fill="#FFC300"/>
      <circle r="3" cx="120" cy="-26" fill="#00FDFF"/>
      <circle r="3" cx="120" cy="-0" fill="#FFC300"/>
      <circle r="3" cx="123" cy="-28" fill="#00FDFF"/>
      <circle r="3" cx="123" cy="-0" fill="#FFC300"/>
      <circle r="3" cx="126" cy="-30" fill="#00FDFF"/>
      <circle r="3" cx="126" cy="-0" fill="#FFC300"/>
      <circle r="3" cx="129" cy="-32" fill="#00FDFF"/>
      <circle r="3" cx="129" cy="-0" fill="#FFC300"/>
      <circle r="3" cx="132" cy="-34" fill="#00FDFF"/>
      <circle r="3" cx="132" cy="-0" fill="#FFC300"/>
      <circle r="3" cx="135" cy="-36" fill="#00FDFF"/>
      <circle r="3" cx="135" cy="-0" fill="#FFC300"/>
      <circle r="3" cx="138" cy="-38" fill="#00FDFF"/>
      <circle r="3" cx="138" cy="-0" fill="#FFC300"/>
      <circle r="3" cx="141" cy="-40" fill="#00FDFF"/>
      <circle r="3" cx="141" cy="-0" fill="#FFC300"/>
      <circle r="3" cx="144" cy="-42" fill="#00FDFF"/>
      <circle r="3" cx="144" cy="-0" fill="#FFC300"/>
      <circle r="3" cx="147" cy="-44" fill="#00FDFF"/>
      <circle r="3" cx="147" cy="-0" fill="#FFC300"/>
      <circle r="3" cx="150" cy="-46" fill="#00FDFF"/>
      <circle r="3" cx="150" cy="-0" fill="#FFC300"/>
      <circle r="3" cx="153" cy="-48" fill="#00FDFF"/>
      <circle r="3" cx="153" cy="-0" fill="#FFC300"/>
      <circle r="3" cx="156" cy="-50" fill="#00FDFF"/>
      <circle r="3" cx="156" cy="-0" fill="#FFC300"/>
      <circle r="3" cx="159" cy="-52" fill="#00FDFF"/>
      <circle r="3" cx="159" cy="-0" fill="#FFC300"/>
      <circle r="3" cx="162" cy="-54" fill="#00FDFF"/>
      <circle r="3" cx="162" cy="-0" fill="#FFC300"/>
      <circle r="3" cx="165" cy="-56" fill="#00FDFF"/>
      <circle r="3" cx="165" cy="-0" fill="#FFC300"/>
      <circle r="3" cx="168" cy="-58" fill="#00FDFF"/>
      <circle r="3" cx="168" cy="-0" fill="#FFC300"/>
      <circle r="3" cx="171" cy="-60" fill="#00FDFF"/>
      <circle r="3" cx="171" cy="-0" fill="#FFC300"/>
      <circle r="3" cx="174" cy="-62" fill="#00FDFF"/>
      <circle r="3" cx="174" cy="-0" fill="#FFC300"/>
      <circle r="3" cx="177" cy="-64" fill="#00FDFF"/>
      <circle r="3" cx="177" cy="-0" fill="#FFC300"/>
      <circle r="3" cx="180" cy="-66" fill="#00FDFF"/>
      <circle r="3" cx="180" cy="-0" fill="#FFC300"/>
      <circle r="3" cx="183" cy="-66" fill="#00FDFF"/>
      <circle r="3" cx="183" cy="-2" fill="#FFC300"/>
      <circle r="3" cx="186" cy="-66" fill="#00FDFF"/>
      <circle r="3" cx="186" cy="-4" fill="#FFC300"/>
      <circle r="3" cx="189" cy="-66" fill="#00FDFF"/>
      <circle r="3" cx="189" cy="-6" fill="#FFC300"/>
      <circle r="3" cx="192" cy="-66" fill="#00FDFF"/>
      <circle r="3" cx="192" cy="-8" fill="#FFC300"/>
      <circle r="3" cx="195" cy="-66" fill="#00FDFF"/>
      <circle r="3" cx="195" cy="-10" fill="#FFC300"/>
      <circle r="3" cx="198" cy="-66" fill="#00FDFF"/>
      <circle r="3" cx="198" cy="-12" fill="#FFC300"/>
      <circle r="3" cx="201" cy="-66" fill="#00FDFF"/>
      <circle r="3" cx="201" cy="-14" fill="#FFC300"/>
      <circle r="3" cx="204" cy="-66" fill="#00FDFF"/>
      <circle r="3" cx="204" cy="-16" fill="#FFC300"/>
      <circle r="3" cx="207" cy="-66" fill="#00FDFF"/>
      <circle r="3" cx="207" cy="-18" fill="#FFC300"/>
      <circle r="3" cx="210" cy="-66" fill="#00FDFF"/>
      <circle r="3" cx="210" cy="-20" fill="#FFC300"/>
      <circle r="3" cx="213" cy="-66" fill="#00FDFF"/>
      <circle r="3" cx="213" cy="-22" fill="#FFC300"/>
      <circle r="3" cx="216" cy="-66" fill="#00FDFF"/>
      <circle r="3" cx="216" cy="-24" fill="#FFC300"/>
      <circle r="3" cx="219" cy="-68" fill="#00FDFF"/>
      <circle r="3" cx="219" cy="-24" fill="#FFC300"/>
      <circle r="3" cx="222" cy="-70" fill="#00FDFF"/>
      <circle r="3" cx="222" cy="-24" fill="#FFC300"/>
      <circle r="3" cx="225" cy="-72" fill="#00FDFF"/>
      <circle r="3" cx="225" cy="-24" fill="#FFC300"/>
      <circle r="3" cx="228" cy="-74" fill="#00FDFF"/>
      <circle r="3" cx="228" cy="-24" fill="#FFC300"/>
      <circle r="3" cx="231" cy="-76" fill="#00FDFF"/>
      <circle r="3" cx="231" cy="-24" fill="#FFC300"/>
      <circle r="3" cx="234" cy="-78" fill="#00FDFF"/>
      <circle r="3" cx="234" cy="-24" fill="#FFC300"/>
      <circle r="3" cx="237" cy="-78" fill="#00FDFF"/>
      <circle r="3" cx="237" cy="-24" fill="#FFC300"/>
      <circle r="3" cx="240" cy="-78" fill="#00FDFF"/>
      <circle r="3" cx="240" cy="-24" fill="#FFC300"/>
      <circle r="3" cx="243" cy="-78" fill="#00FDFF"/>
      <circle r="3" cx="243" cy="-24" fill="#FFC300"/>
      <circle r="3" cx="246" cy="-78" fill="#00FDFF"/>
      <circle r="3" cx="246" cy="-24" fill="#FFC300"/>
      <circle r="3" cx="249" cy="-78" fill="#00FDFF"/>
      <circle r="3" cx="249" cy="-26" fill="#FFC300"/>
      <circle r="3" cx="252" cy="-78" fill="#00FDFF"/>
      <circle r="3" cx="252" cy="-28" fill="#FFC300"/>
      <circle r="3" cx="255" cy="-78" fill="#00FDFF"/>
      <circle r="3" cx="255" cy="-30" fill="#FFC300"/>
      <circle r="3" cx="258" cy="-78" fill="#00FDFF"/>
      <circle r="3" cx="258" cy="-32" fill="#FFC300"/>
      <circle r="3" cx="261" cy="-78" fill="#00FDFF"/>
      <circle r="3" cx="261" cy="-34" fill="#FFC300"/>
      <circle r="3" cx="264" cy="-78" fill="#00FDFF"/>
      <circle r="3" cx="264" cy="-36" fill="#FFC300"/>
      <circle r="3" cx="267" cy="-78" fill="#00FDFF"/>
      <circle r="3" cx="267" cy="-38" fill="#FFC300"/>
      <circle r="3" cx="270" cy="-78" fill="#00FDFF"/>
      <circle r="3" cx="270" cy="-40" fill="#FFC300"/>
      <circle r="3" cx="273" cy="-78" fill="#00FDFF"/>
      <circle r="3" cx="273" cy="-42" fill="#FFC300"/>
      <circle r="3" cx="276" cy="-78" fill="#00FDFF"/>
      <circle r="3" cx="276" cy="-44" fill="#FFC300"/>
      <circle r="3" cx="279" cy="-78" fill="#00FDFF"/>
      <circle r="3" cx="279" cy="-46" fill="#FFC300"/>
      <circle r="3" cx="282" cy="-78" fill="#00FDFF"/>
      <circle r="3" cx="282" cy="-48" fill="#FFC300"/>
      <circle r="3" cx="285" cy="-78" fill="#00FDFF"/>
      <circle r="3" cx="285" cy="-50" fill="#FFC300"/>
      <circle r="3" cx="288" cy="-78" fill="#00FDFF"/>
      <circle r="3" cx="288" cy="-52" fill="#FFC300"/>
      <circle r="3" cx="291" cy="-78" fill="#00FDFF"/>
      <circle r="3" cx="291" cy="-54" fill="#FFC300"/>
      <circle r="3" cx="294" cy="-78" fill="#00FDFF"/>
      <circle r="3" cx="294" cy="-56" fill="#FFC300"/>
      <circle r="3" cx="297" cy="-78" fill="#00FDFF"/>
      <circle r="3" cx="297" cy="-56" fill="#FFC300"/>
      <circle r="3" cx="300" cy="-78" fill="#00FDFF"/>
      <circle r="3" cx="300" cy="-56" fill="#FFC300"/>
      <circle r="3" cx="303" cy="-78" fill="#00FDFF"/>
      <circle r="3" cx="303" cy="-56" fill="#FFC300"/>
      <circle r="3" cx="306" cy="-78" fill="#00FDFF"/>
      <circle r="3" cx="306" cy="-56" fill="#FFC300"/>
      <circle r="3" cx="309" cy="-78" fill="#00FDFF"/>
      <circle r="3" cx="309" cy="-58" fill="#FFC300"/>
      <circle r="3" cx="312" cy="-78" fill="#00FDFF"/>
      <circle r="3" cx="312" cy="-60" fill="#FFC300"/>
      <circle r="3" cx="315" cy="-78" fill="#00FDFF"/>
      <circle r="3" cx="315" cy="-60" fill="#FFC300"/>
      <circle r="3" cx="318" cy="-78" fill="#00FDFF"/>
      <circle r="3" cx="318" cy="-60" fill="#FFC300"/>
      <circle r="3" cx="321" cy="-78" fill="#00FDFF"/>
      <circle r="3" cx="321" cy="-60" fill="#FFC300"/>
      <circle r="3" cx="324" cy="-78" fill="#00FDFF"/>
      <circle r="3" cx="324" cy="-60" fill="#FFC300"/>
      <circle r="3" cx="327" cy="-78" fill="#00FDFF"/>
      <circle r="3" cx="327" cy="-60" fill="#FFC300"/>
      <circle r="3" cx="330" cy="-78" fill="#00FDFF"/>
      <circle r="3" cx="330" cy="-60" fill="#FFC300"/>
      <circle r="3" cx="333" cy="-78" fill="#00FDFF"/>
      <circle r="3" cx="333" cy="-60" fill="#FFC300"/>
      <circle r="3" cx="336" cy="-78" fill="#00FDFF"/>
      <circle r="3" cx="336" cy="-60" fill="#FFC300"/>
      <circle r="3" cx="339" cy="-78" fill="#00FDFF"/>
      <circle r="3" cx="339" cy="-60" fill="#FFC300"/>
      <circle r="3" cx="342" cy="-78" fill="#00FDFF"/>
      <circle r="3" cx="342" cy="-60" fill="#FFC300"/>
      <circle r="3" cx="345" cy="-78" fill="#00FDFF"/>
      <circle r="3" cx="345" cy="-60" fill="#FFC300"/>
      <circle r="3" cx="348" cy="-78" fill="#00FDFF"/>
      <circle r="3" cx="348" cy="-60" fill="#FFC300"/>
      <circle r="3" cx="351" cy="-78" fill="#00FDFF"/>
      <circle r="3" cx="351" cy="-60" fill="#FFC300"/>
      <circle r="3" cx="354" cy="-78" fill="#00FDFF"/>
      <circle r="3" cx="354" cy="-60" fill="#FFC300"/>
      <circle r="3" cx="357" cy="-78" fill="#00FDFF"/>
      <circle r="3" cx="357" cy="-60" fill="#FFC300"/>
      <circle r="3" cx="360" cy="-78" fill="#00FDFF"/>
      <circle r="3" cx="360" cy="-60" fill="#FFC300"/>
      <circle r="3" cx="363" cy="-78" fill="#00FDFF"/>
      <circle r="3" cx="363" cy="-60" fill="#FFC300"/>
      <circle r="3" cx="366" cy="-78" fill="#00FDFF"/>
      <circle r="3" cx="366" cy="-60" fill="#FFC300"/>
      <circle r="3" cx="369" cy="-78" fill="#00FDFF"/>
      <circle r="3" cx="369" cy="-60" fill="#FFC300"/>
      <circle r="3" cx="372" cy="-78" fill="#00FDFF"/>
      <circle r="3" cx="372" cy="-60" fill="#FFC300"/>
      <circle r="3" cx="375" cy="-78" fill="#00FDFF"/>
      <circle r="3" cx="375" cy="-60" fill="#FFC300"/>
      <circle r="3" cx="378" cy="-78" fill="#00FDFF"/>
      <circle r="3" cx="378" cy="-60" fill="#FFC300"/>
      <circle r="3" cx="381" cy="-78" fill="#00FDFF"/>
      <circle r="3" cx="381" cy="-60" fill="#FFC300"/>
      <circle r="3" cx="384" cy="-78" fill="#00FDFF"/>
      <circle r="3" cx="384" cy="-60" fill="#FFC300"/>
      <circle r="3" cx="387" cy="-78" fill="#00FDFF"/>
      <circle r="3" cx="387" cy="-60" fill="#FFC300"/>
      <circle r="3" cx="390" cy="-78" fill="#00FDFF"/>
      <circle r="3" cx="390" cy="-60" fill="#FFC300"/>
      <circle r="3" cx="393" cy="-78" fill="#00FDFF"/>
      <circle r="3" cx="393" cy="-60" fill="#FFC300"/>
      <circle r="3" cx="396" cy="-78" fill="#00FDFF"/>
      <circle r="3" cx="396" cy="-60" fill="#FFC300"/>
      <circle r="3" cx="399" cy="-78" fill="#00FDFF"/>
      <circle r="3" cx="399" cy="-60" fill="#FFC300"/>
      <circle r="3" cx="402" cy="-78" fill="#00FDFF"/>
      <circle r="3" cx="402" cy="-60" fill="#FFC300"/>
      <circle r="3" cx="405" cy="-78" fill="#00FDFF"/>
      <circle r="3" cx="405" cy="-60" fill="#FFC300"/>
      <circle r="3" cx="408" cy="-78" fill="#00FDFF"/>
      <circle r="3" cx="408" cy="-60" fill="#FFC300"/>
      <circle r="3" cx="411" cy="-78" fill="#00FDFF"/>
      <circle r="3" cx="411" cy="-60" fill="#FFC300"/>
      <circle r="3" cx="414" cy="-78" fill="#00FDFF"/>
      <circle r="3" cx="414" cy="-60" fill="#FFC300"/>
      <circle r="3" cx="417" cy="-78" fill="#00FDFF"/>
      <circle r="3" cx="417" cy="-60" fill="#FFC300"/>
      <circle r="3" cx="420" cy="-78" fill="#00FDFF"/>
      <circle r="3" cx="420" cy="-60" fill="#FFC300"/>
      <circle r="3" cx="423" cy="-78" fill="#00FDFF"/>
      <circle r="3" cx="423" cy="-60" fill="#FFC300"/>
      <circle r="3" cx="426" cy="-78" fill="#00FDFF"/>
      <circle r="3" cx="426" cy="-60" fill="#FFC300"/>
      <circle r="3" cx="429" cy="-78" fill="#00FDFF"/>
      <circle r="3" cx="429" cy="-60" fill="#FFC300"/>
      <circle r="3" cx="432" cy="-78" fill="#00FDFF"/>
      <circle r="3" cx="432" cy="-60" fill="#FFC300"/>
      <circle r="3" cx="435" cy="-78" fill="#00FDFF"/>
      <circle r="3" cx="435" cy="-60" fill="#FFC300"/>
      <circle r="3" cx="438" cy="-78" fill="#00FDFF"/>
      <circle r="3" cx="438" cy="-60" fill="#FFC300"/>
      <circle r="3" cx="441" cy="-78" fill="#00FDFF"/>
      <circle r="3" cx="441" cy="-60" fill="#FFC300"/>
      <circle r="3" cx="444" cy="-78" fill="#00FDFF"/>
      <circle r="3" cx="444" cy="-60" fill="#FFC300"/>
      <circle r="3" cx="447" cy="-78" fill="#00FDFF"/>
      <circle r="3" cx="447" cy="-60" fill="#FFC300"/>
      <circle r="3" cx="450" cy="-78" fill="#00FDFF"/>
      <circle r="3" cx="450" cy="-60" fill="#FFC300"/>
      <circle r="3" cx="453" cy="-78" fill="#00FDFF"/>
      <circle r="3" cx="453" cy="-60" fill="#FFC300"/>
      <circle r="3" cx="456" cy="-78" fill="#00FDFF"/>
      <circle r="3" cx="456" cy="-60" fill="#FFC300"/>
      <circle r="3" cx="459" cy="-78" fill="#00FDFF"/>
      <circle r="3" cx="459" cy="-60" fill="#FFC300"/>
      <circle r="3" cx="462" cy="-78" fill="#00FDFF"/>
      <circle r="3" cx="462" cy="-60" fill="#FFC300"/>
      <circle r="3" cx="465" cy="-78" fill="#00FDFF"/>
      <circle r="3" cx="465" cy="-60" fill="#FFC300"/>
      <circle r="3" cx="468" cy="-78" fill="#00FDFF"/>
      <circle r="3" cx="468" cy="-60" fill="#FFC300"/>
      <circle r="3" cx="471" cy="-78" fill="#00FDFF"/>
      <circle r="3" cx="471" cy="-60" fill="#FFC300"/>
      <circle r="3" cx="474" cy="-78" fill="#00FDFF"/>
      <circle r="3" cx="474" cy="-60" fill="#FFC300"/>
      <circle r="3" cx="477" cy="-78" fill="#00FDFF"/>
      <circle r="3" cx="477" cy="-60" fill="#FFC300"/>
      <circle r="3" cx="480" cy="-78" fill="#00FDFF"/>
      <circle r="3" cx="480" cy="-60" fill="#FFC300"/>
      <circle r="3" cx="483" cy="-78" fill="#00FDFF"/>
      <circle r="3" cx="483" cy="-60" fill="#FFC300"/>
      <circle r="3" cx="486" cy="-78" fill="#00FDFF"/>
      <circle r="3" cx="486" cy="-60" fill="#FFC300"/>
      <circle r="3" cx="489" cy="-78" fill="#00FDFF"/>
      <circle r="3" cx="489" cy="-60" fill="#FFC300"/>
      <circle r="3" cx="492" cy="-78" fill="#00FDFF"/>
      <circle r="3" cx="492" cy="-60" fill="#FFC300"/>
      <circle r="3" cx="495" cy="-78" fill="#00FDFF"/>
      <circle r="3" cx="495" cy="-60" fill="#FFC300"/>
      <circle r="3" cx="498" cy="-78" fill="#00FDFF"/>
      <circle r="3" cx="498" cy="-60" fill="#FFC300"/>
      <circle r="3" cx="501" cy="-78" fill="#00FDFF"/>
      <circle r="3" cx="501" cy="-60" fill="#FFC300"/>
      <circle r="3" cx="504" cy="-78" fill="#00FDFF"/>
      <circle r="3" cx="504" cy="-60" fill="#FFC300"/>
      <circle r="3" cx="507" cy="-78" fill="#00FDFF"/>
      <circle r="3" cx="507" cy="-60" fill="#FFC300"/>
      <circle r="3" cx="510" cy="-78" fill="#00FDFF"/>
      <circle r="3" cx="510" cy="-60" fill="#FFC300"/>
      <circle r="3" cx="513" cy="-78" fill="#00FDFF"/>
      <circle r="3" cx="513" cy="-60" fill="#FFC300"/>
      <circle r="3" cx="516" cy="-78" fill="#00FDFF"/>
      <circle r="3" cx="516" cy="-60" fill="#FFC300"/>
      <circle r="3" cx="519" cy="-78" fill="#00FDFF"/>
      <circle r="3" cx="519" cy="-60" fill="#FFC300"/>
      <circle r="3" cx="522" cy="-78" fill="#00FDFF"/>
      <circle r="3" cx="522" cy="-60" fill="#FFC300"/>
      <circle r="3" cx="525" cy="-78" fill="#00FDFF"/>
      <circle r="3" cx="525" cy="-60" fill="#FFC300"/>
      <circle r="3" cx="528" cy="-78" fill="#00FDFF"/>
      <circle r="3" cx="528" cy="-60" fill="#FFC300"/>
      <circle r="3" cx="531" cy="-78" fill="#00FDFF"/>
      <circle r="3" cx="531" cy="-60" fill="#FFC300"/>
      <circle r="3" cx="534" cy="-78" fill="#00FDFF"/>
      <circle r="3" cx="534" cy="-60" fill="#FFC300"/>
      <circle r="3" cx="537" cy="-78" fill="#00FDFF"/>
      <circle r="3" cx="537" cy="-60" fill="#FFC300"/>
      <circle r="3" cx="540" cy="-78" fill="#00FDFF"/>
      <circle r="3" cx="540" cy="-60" fill="#FFC300"/>
      <circle r="3" cx="543" cy="-78" fill="#00FDFF"/>
      <circle r="3" cx="543" cy="-60" fill="#FFC300"/>
      <circle r="3" cx="546" cy="-78" fill="#00FDFF"/>
      <circle r="3" cx="546" cy="-60" fill="#FFC300"/>
      <circle r="3" cx="549" cy="-78" fill="#00FDFF"/>
      <circle r="3" cx="549" cy="-60" fill="#FFC300"/>
      <circle r="3" cx="552" cy="-78" fill="#00FDFF"/>
      <circle r="3" cx="552" cy="-60" fill="#FFC300"/>
      <circle r="3" cx="555" cy="-78" fill="#00FDFF"/>
      <circle r="3" cx="555" cy="-60" fill="#FFC300"/>
      <circle r="3" cx="558" cy="-78" fill="#00FDFF"/>
      <circle r="3" cx="558" cy="-60" fill="#FFC300"/>
      <circle r="3" cx="561" cy="-78" fill="#00FDFF"/>
      <circle r="3" cx="561" cy="-60" fill="#FFC300"/>
      <circle r="3" cx="564" cy="-78" fill="#00FDFF"/>
      <circle r="3" cx="564" cy="-60" fill="#FFC300"/>
      <circle r="3" cx="567" cy="-78" fill="#00FDFF"/>
      <circle r="3" cx="567" cy="-60" fill="#FFC300"/>
      <circle r="3" cx="570" cy="-78" fill="#00FDFF"/>
      <circle r="3" cx="570" cy="-60" fill="#FFC300"/>
      <circle r="3" cx="573" cy="-80" fill="#00FDFF"/>
      <circle r="3" cx="573" cy="-60" fill="#FFC300"/>
      <circle r="3" cx="576" cy="-80" fill="#00FDFF"/>
      <circle r="3" cx="576" cy="-60" fill="#FFC300"/>
      <circle r="3" cx="579" cy="-80" fill="#00FDFF"/>
      <circle r="3" cx="579" cy="-60" fill="#FFC300"/>
      <circle r="3" cx="582" cy="-80" fill="#00FDFF"/>
      <circle r="3" cx="582" cy="-60" fill="#FFC300"/>
      <circle r="3" cx="585" cy="-80" fill="#00FDFF"/>
      <circle r="3" cx="585" cy="-60" fill="#FFC300"/>
      <circle r="3" cx="588" cy="-80" fill="#00FDFF"/>
      <circle r="3" cx="588" cy="-60" fill="#FFC300"/>
      <circle r="3" cx="591" cy="-80" fill="#00FDFF"/>
      <circle r="3" cx="591" cy="-60" fill="#FFC300"/>
      <circle r="3" cx="594" cy="-80" fill="#00FDFF"/>
      <circle r="3" cx="594" cy="-60" fill="#FFC300"/>
      <circle r="3" cx="597" cy="-80" fill="#00FDFF"/>
      <circle r="3" cx="597" cy="-60" fill="#FFC300"/>
      <circle r="3" cx="600" cy="-80" fill="#00FDFF"/>
      <circle r="3" cx="600" cy="-60" fill="#FFC300"/>
      <circle r="3" cx="603" cy="-80" fill="#00FDFF"/>
      <circle r="3" cx="603" cy="-60" fill="#FFC300"/>
      <circle r="3" cx="606" cy="-82" fill="#00FDFF"/>
      <circle r="3" cx="606" cy="-60" fill="#FFC300"/>
      <circle r="3" cx="609" cy="-82" fill="#00FDFF"/>
      <circle r="3" cx="609" cy="-62" fill="#FFC300"/>
      <circle r="3" cx="612" cy="-82" fill="#00FDFF"/>
      <circle r="3" cx="612" cy="-64" fill="#FFC300"/>
      <circle r="3" cx="615" cy="-82" fill="#00FDFF"/>
      <circle r="3" cx="615" cy="-66" fill="#FFC300"/>
      <circle r="3" cx="618" cy="-82" fill="#00FDFF"/>
      <circle r="3" cx="618" cy="-66" fill="#FFC300"/>
      <circle r="3" cx="621" cy="-82" fill="#00FDFF"/>
      <circle r="3" cx="621" cy="-66" fill="#FFC300"/>
      <circle r="3" cx="624" cy="-82" fill="#00FDFF"/>
      <circle r="3" cx="624" cy="-66" fill="#FFC300"/>
      <circle r="3" cx="627" cy="-84" fill="#00FDFF"/>
      <circle r="3" cx="627" cy="-66" fill="#FFC300"/>
      <circle r="3" cx="630" cy="-86" fill="#00FDFF"/>
      <circle r="3" cx="630" cy="-66" fill="#FFC300"/>
      <circle r="3" cx="633" cy="-88" fill="#00FDFF"/>
      <circle r="3" cx="633" cy="-66" fill="#FFC300"/>
      <circle r="3" cx="636" cy="-90" fill="#00FDFF"/>
      <circle r="3" cx="636" cy="-66" fill="#FFC300"/>
      <circle r="3" cx="639" cy="-90" fill="#00FDFF"/>
      <circle r="3" cx="639" cy="-66" fill="#FFC300"/>
      <circle r="3" cx="642" cy="-90" fill="#00FDFF"/>
      <circle r="3" cx="642" cy="-66" fill="#FFC300"/>
      <circle r="3" cx="645" cy="-90" fill="#00FDFF"/>
      <circle r="3" cx="645" cy="-66" fill="#FFC300"/>
      <circle r="3" cx="648" cy="-90" fill="#00FDFF"/>
      <circle r="3" cx="648" cy="-66" fill="#FFC300"/>
      <circle r="3" cx="651" cy="-90" fill="#00FDFF"/>
      <circle r="3" cx="651" cy="-66" fill="#FFC300"/>
      <circle r="3" cx="654" cy="-90" fill="#00FDFF"/>
      <circle r="3" cx="654" cy="-66" fill="#FFC300"/>
      <circle r="3" cx="657" cy="-90" fill="#00FDFF"/>
      <circle r="3" cx="657" cy="-66" fill="#FFC300"/>
      <circle r="3" cx="660" cy="-90" fill="#00FDFF"/>
      <circle r="3" cx="660" cy="-66" fill="#FFC300"/>
      <circle r="3" cx="663" cy="-90" fill="#00FDFF"/>
      <circle r="3" cx="663" cy="-66" fill="#FFC300"/>
      <circle r="3" cx="666" cy="-90" fill="#00FDFF"/>
      <circle r="3" cx="666" cy="-66" fill="#FFC300"/>
      <circle r="3" cx="669" cy="-90" fill="#00FDFF"/>
      <circle r="3" cx="669" cy="-66" fill="#FFC300"/>
      <circle r="3" cx="672" cy="-90" fill="#00FDFF"/>
      <circle r="3" cx="672" cy="-66" fill="#FFC300"/>
      <circle r="3" cx="675" cy="-90" fill="#00FDFF"/>
      <circle r="3" cx="675" cy="-66" fill="#FFC300"/>
      <circle r="3" cx="678" cy="-90" fill="#00FDFF"/>
      <circle r="3" cx="678" cy="-66" fill="#FFC300"/>
      <circle r="3" cx="681" cy="-90" fill="#00FDFF"/>
      <circle r="3" cx="681" cy="-66" fill="#FFC300"/>
      <circle r="3" cx="684" cy="-90" fill="#00FDFF"/>
      <circle r="3" cx="684" cy="-66" fill="#FFC300"/>
      <circle r="3" cx="687" cy="-90" fill="#00FDFF"/>
      <circle r="3" cx="687" cy="-66" fill="#FFC300"/>
      <circle r="3" cx="690" cy="-90" fill="#00FDFF"/>
      <circle r="3" cx="690" cy="-66" fill="#FFC300"/>
      <circle r="3" cx="693" cy="-90" fill="#00FDFF"/>
      <circle r="3" cx="693" cy="-66" fill="#FFC300"/>
      <circle r="3" cx="696" cy="-90" fill="#00FDFF"/>
      <circle r="3" cx="696" cy="-68" fill="#FFC300"/>
      <circle r="3" cx="699" cy="-90" fill="#00FDFF"/>
      <circle r="3" cx="699" cy="-70" fill="#FFC300"/>
      <circle r="3" cx="702" cy="-90" fill="#00FDFF"/>
      <circle r="3" cx="702" cy="-70" fill="#FFC300"/>
      <circle r="3" cx="705" cy="-90" fill="#00FDFF"/>
      <circle r="3" cx="705" cy="-70" fill="#FFC300"/>
      <circle r="3" cx="708" cy="-90" fill="#00FDFF"/>
      <circle r="3" cx="708" cy="-70" fill="#FFC300"/>
      <circle r="3" cx="711" cy="-90" fill="#00FDFF"/>
      <circle r="3" cx="711" cy="-70" fill="#FFC300"/>
      <circle r="3" cx="714" cy="-90" fill="#00FDFF"/>
      <circle r="3" cx="714" cy="-70" fill="#FFC300"/>
      <circle r="3" cx="717" cy="-90" fill="#00FDFF"/>
      <circle r="3" cx="717" cy="-70" fill="#FFC300"/>
      <circle r="3" cx="720" cy="-90" fill="#00FDFF"/>
      <circle r="3" cx="720" cy="-70" fill="#FFC300"/>
      <circle r="3" cx="723" cy="-90" fill="#00FDFF"/>
      <circle r="3" cx="723" cy="-70" fill="#FFC300"/>
      <circle r="3" cx="726" cy="-90" fill="#00FDFF"/>
      <circle r="3" cx="726" cy="-70" fill="#FFC300"/>
      <circle r="3" cx="729" cy="-90" fill="#00FDFF"/>
      <circle r="3" cx="729" cy="-70" fill="#FFC300"/>
      <circle r="3" cx="732" cy="-90" fill="#00FDFF"/>
      <circle r="3" cx="732" cy="-70" fill="#FFC300"/>
      <circle r="3" cx="735" cy="-90" fill="#00FDFF"/>
      <circle r="3" cx="735" cy="-70" fill="#FFC300"/>
      <circle r="3" cx="738" cy="-90" fill="#00FDFF"/>
      <circle r="3" cx="738" cy="-70" fill="#FFC300"/>
      <circle r="3" cx="741" cy="-90" fill="#00FDFF"/>
      <circle r="3" cx="741" cy="-70" fill="#FFC300"/>
      <circle r="3" cx="744" cy="-90" fill="#00FDFF"/>
      <circle r="3" cx="744" cy="-70" fill="#FFC300"/>
      <circle r="3" cx="747" cy="-90" fill="#00FDFF"/>
      <circle r="3" cx="747" cy="-70" fill="#FFC300"/>
      <circle r="3" cx="750" cy="-90" fill="#00FDFF"/>
      <circle r="3" cx="750" cy="-70" fill="#FFC300"/>
      <circle r="3" cx="753" cy="-90" fill="#00FDFF"/>
      <circle r="3" cx="753" cy="-70" fill="#FFC300"/>
      <circle r="3" cx="756" cy="-90" fill="#00FDFF"/>
      <circle r="3" cx="756" cy="-70" fill="#FFC300"/>
      <circle r="3" cx="759" cy="-90" fill="#00FDFF"/>
      <circle r="3" cx="759" cy="-70" fill="#FFC300"/>
      <circle r="3" cx="762" cy="-90" fill="#00FDFF"/>
      <circle r="3" cx="762" cy="-70" fill="#FFC300"/>
      <circle r="3" cx="765" cy="-90" fill="#00FDFF"/>
      <circle r="3" cx="765" cy="-70" fill="#FFC300"/>
      <circle r="3" cx="768" cy="-90" fill="#00FDFF"/>
      <circle r="3" cx="768" cy="-70" fill="#FFC300"/>
      <circle r="3" cx="771" cy="-90" fill="#00FDFF"/>
      <circle r="3" cx="771" cy="-70" fill="#FFC300"/>
      <circle r="3" cx="774" cy="-90" fill="#00FDFF"/>
      <circle r="3" cx="774" cy="-70" fill="#FFC300"/>
      <circle r="3" cx="777" cy="-90" fill="#00FDFF"/>
      <circle r="3" cx="777" cy="-70" fill="#FFC300"/>
      <circle r="3" cx="780" cy="-90" fill="#00FDFF"/>
      <circle r="3" cx="780" cy="-70" fill="#FFC300"/>
      <circle r="3" cx="783" cy="-90" fill="#00FDFF"/>
      <circle r="3" cx="783" cy="-70" fill="#FFC300"/>
      <circle r="3" cx="786" cy="-90" fill="#00FDFF"/>
      <circle r="3" cx="786" cy="-70" fill="#FFC300"/>
      <circle r="3" cx="789" cy="-90" fill="#00FDFF"/>
      <circle r="3" cx="789" cy="-70" fill="#FFC300"/>
      <circle r="3" cx="792" cy="-90" fill="#00FDFF"/>
      <circle r="3" cx="792" cy="-70" fill="#FFC300"/>
      <circle r="3" cx="795" cy="-90" fill="#00FDFF"/>
      <circle r="3" cx="795" cy="-70" fill="#FFC300"/>
      <circle r="3" cx="798" cy="-90" fill="#00FDFF"/>
      <circle r="3" cx="798" cy="-70" fill="#FFC300"/>
      <circle r="3" cx="801" cy="-90" fill="#00FDFF"/>
      <circle r="3" cx="801" cy="-70" fill="#FFC300"/>
      <circle r="3" cx="804" cy="-90" fill="#00FDFF"/>
      <circle r="3" cx="804" cy="-70" fill="#FFC300"/>
      <circle r="3" cx="807" cy="-90" fill="#00FDFF"/>
      <circle r="3" cx="807" cy="-70" fill="#FFC300"/>
      <circle r="3" cx="810" cy="-90" fill="#00FDFF"/>
      <circle r="3" cx="810" cy="-70" fill="#FFC300"/>
      <circle r="3" cx="813" cy="-90" fill="#00FDFF"/>
      <circle r="3" cx="813" cy="-70" fill="#FFC300"/>
      <circle r="3" cx="816" cy="-90" fill="#00FDFF"/>
      <circle r="3" cx="816" cy="-70" fill="#FFC300"/>
      <circle r="3" cx="819" cy="-90" fill="#00FDFF"/>
      <circle r="3" cx="819" cy="-70" fill="#FFC300"/>
      <circle r="3" cx="822" cy="-90" fill="#00FDFF"/>
      <circle r="3" cx="822" cy="-70" fill="#FFC300"/>
      <circle r="3" cx="825" cy="-90" fill="#00FDFF"/>
      <circle r="3" cx="825" cy="-70" fill="#FFC300"/>
      <circle r="3" cx="828" cy="-90" fill="#00FDFF"/>
      <circle r="3" cx="828" cy="-70" fill="#FFC300"/>
      <circle r="3" cx="831" cy="-90" fill="#00FDFF"/>
      <circle r="3" cx="831" cy="-70" fill="#FFC300"/>
      <circle r="3" cx="834" cy="-90" fill="#00FDFF"/>
      <circle r="3" cx="834" cy="-70" fill="#FFC300"/>
      <circle r="3" cx="837" cy="-90" fill="#00FDFF"/>
      <circle r="3" cx="837" cy="-70" fill="#FFC300"/>
      <circle r="3" cx="840" cy="-90" fill="#00FDFF"/>
      <circle r="3" cx="840" cy="-70" fill="#FFC300"/>
      <circle r="3" cx="843" cy="-90" fill="#00FDFF"/>
      <circle r="3" cx="843" cy="-70" fill="#FFC300"/>
      <circle r="3" cx="846" cy="-90" fill="#00FDFF"/>
      <circle r="3" cx="846" cy="-70" fill="#FFC300"/>
      <circle r="3" cx="849" cy="-90" fill="#00FDFF"/>
      <circle r="3" cx="849" cy="-70" fill="#FFC300"/>
      <circle r="3" cx="852" cy="-90" fill="#00FDFF"/>
      <circle r="3" cx="852" cy="-70" fill="#FFC300"/>
      <circle r="3" cx="855" cy="-90" fill="#00FDFF"/>
      <circle r="3" cx="855" cy="-70" fill="#FFC300"/>
      <circle r="3" cx="858" cy="-92" fill="#00FDFF"/>
      <circle r="3" cx="858" cy="-70" fill="#FFC300"/>
      <circle r="3" cx="861" cy="-94" fill="#00FDFF"/>
      <circle r="3" cx="861" cy="-70" fill="#FFC300"/>
      <circle r="3" cx="864" cy="-94" fill="#00FDFF"/>
      <circle r="3" cx="864" cy="-70" fill="#FFC300"/>
      <circle r="3" cx="867" cy="-94" fill="#00FDFF"/>
      <circle r="3" cx="867" cy="-70" fill="#FFC300"/>
      <circle r="3" cx="870" cy="-94" fill="#00FDFF"/>
      <circle r="3" cx="870" cy="-72" fill="#FFC300"/>
      <circle r="3" cx="873" cy="-94" fill="#00FDFF"/>
      <circle r="3" cx="873" cy="-72" fill="#FFC300"/>
      <circle r="3" cx="876" cy="-94" fill="#00FDFF"/>
      <circle r="3" cx="876" cy="-72" fill="#FFC300"/>
      <circle r="3" cx="879" cy="-94" fill="#00FDFF"/>
      <circle r="3" cx="879" cy="-74" fill="#FFC300"/>
      <circle r="3" cx="882" cy="-94" fill="#00FDFF"/>
      <circle r="3" cx="882" cy="-74" fill="#FFC300"/>
      <circle r="3" cx="885" cy="-94" fill="#00FDFF"/>
      <circle r="3" cx="885" cy="-74" fill="#FFC300"/>
      <circle r="3" cx="888" cy="-94" fill="#00FDFF"/>
      <circle r="3" cx="888" cy="-74" fill="#FFC300"/>
      <circle r="3" cx="891" cy="-94" fill="#00FDFF"/>
      <circle r="3" cx="891" cy="-74" fill="#FFC300"/>
      <circle r="3" cx="894" cy="-94" fill="#00FDFF"/>
      <circle r="3" cx="894" cy="-74" fill="#FFC300"/>
      <circle r="3" cx="897" cy="-96" fill="#00FDFF"/>
      <circle r="3" cx="897" cy="-74" fill="#FFC300"/>
      <circle r="3" cx="900" cy="-98" fill="#00FDFF"/>
      <circle r="3" cx="900" cy="-74" fill="#FFC300"/>
      <circle r="3" cx="903" cy="-98" fill="#00FDFF"/>
      <circle r="3" cx="903" cy="-74" fill="#FFC300"/>
      <circle r="3" cx="906" cy="-98" fill="#00FDFF"/>
      <circle r="3" cx="906" cy="-74" fill="#FFC300"/>
      <circle r="3" cx="909" cy="-98" fill="#00FDFF"/>
      <circle r="3" cx="909" cy="-76" fill="#FFC300"/>
      <circle r="3" cx="912" cy="-98" fill="#00FDFF"/>
      <circle r="3" cx="912" cy="-78" fill="#FFC300"/>
      <circle r="3" cx="915" cy="-98" fill="#00FDFF"/>
      <circle r="3" cx="915" cy="-80" fill="#FFC300"/>
      <circle r="3" cx="918" cy="-98" fill="#00FDFF"/>
      <circle r="3" cx="918" cy="-82" fill="#FFC300"/>
      <circle r="3" cx="921" cy="-98" fill="#00FDFF"/>
      <circle r="3" cx="921" cy="-82" fill="#FFC300"/>
      <circle r="3" cx="924" cy="-98" fill="#00FDFF"/>
      <circle r="3" cx="924" cy="-82" fill="#FFC300"/>
      <circle r="3" cx="927" cy="-98" fill="#00FDFF"/>
      <circle r="3" cx="927" cy="-82" fill="#FFC300"/>
      <circle r="3" cx="930" cy="-98" fill="#00FDFF"/>
      <circle r="3" cx="930" cy="-82" fill="#FFC300"/>
      <circle r="3" cx="933" cy="-98" fill="#00FDFF"/>
      <circle r="3" cx="933" cy="-82" fill="#FFC300"/>
      <circle r="3" cx="936" cy="-98" fill="#00FDFF"/>
      <circle r="3" cx="936" cy="-82" fill="#FFC300"/>
      <circle r="3" cx="939" cy="-98" fill="#00FDFF"/>
      <circle r="3" cx="939" cy="-82" fill="#FFC300"/>
      <circle r="3" cx="942" cy="-98" fill="#00FDFF"/>
      <circle r="3" cx="942" cy="-82" fill="#FFC300"/>
      <circle r="3" cx="945" cy="-98" fill="#00FDFF"/>
      <circle r="3" cx="945" cy="-82" fill="#FFC300"/>
      <circle r="3" cx="948" cy="-98" fill="#00FDFF"/>
      <circle r="3" cx="948" cy="-82" fill="#FFC300"/>
      <circle r="3" cx="951" cy="-98" fill="#00FDFF"/>
      <circle r="3" cx="951" cy="-82" fill="#FFC300"/>
      <circle r="3" cx="954" cy="-98" fill="#00FDFF"/>
      <circle r="3" cx="954" cy="-82" fill="#FFC300"/>
      <circle r="3" cx="957" cy="-98" fill="#00FDFF"/>
      <circle r="3" cx="957" cy="-82" fill="#FFC300"/>
      <circle r="3" cx="960" cy="-98" fill="#00FDFF"/>
      <circle r="3" cx="960" cy="-82" fill="#FFC300"/>
      <circle r="3" cx="963" cy="-98" fill="#00FDFF"/>
      <circle r="3" cx="963" cy="-82" fill="#FFC300"/>
      <circle r="3" cx="966" cy="-98" fill="#00FDFF"/>
      <circle r="3" cx="966" cy="-82" fill="#FFC300"/>
      <circle r="3" cx="969" cy="-98" fill="#00FDFF"/>
      <circle r="3" cx="969" cy="-82" fill="#FFC300"/>
      <circle r="3" cx="972" cy="-98" fill="#00FDFF"/>
      <circle r="3" cx="972" cy="-84" fill="#FFC300"/>
      <circle r="3" cx="975" cy="-98" fill="#00FDFF"/>
      <circle r="3" cx="975" cy="-86" fill="#FFC300"/>
      <circle r="3" cx="978" cy="-98" fill="#00FDFF"/>
      <circle r="3" cx="978" cy="-88" fill="#FFC300"/>
      <circle r="3" cx="981" cy="-98" fill="#00FDFF"/>
      <circle r="3" cx="981" cy="-90" fill="#FFC300"/>
      <circle r="3" cx="984" cy="-98" fill="#00FDFF"/>
      <circle r="3" cx="984" cy="-92" fill="#FFC300"/>
      <circle r="3" cx="987" cy="-98" fill="#00FDFF"/>
      <circle r="3" cx="987" cy="-94" fill="#FFC300"/>
      <circle r="3" cx="990" cy="-98" fill="#00FDFF"/>
      <circle r="3" cx="990" cy="-96" fill="#FFC300"/>
      <circle r="3" cx="993" cy="-98" fill="#00FDFF"/>
      <circle r="3" cx="993" cy="-98" fill="#FFC300"/>
      <circle r="3" cx="996" cy="-98" fill="#00FDFF"/>
      <circle r="3" cx="996" cy="-100" fill="#FFC300"/>
      <circle r="3" cx="999" cy="-98" fill="#00FDFF"/>
      <circle r="3" cx="999" cy="-100" fill="#FFC300"/>
      <circle r="3" cx="1002" cy="-98" fill="#00FDFF"/>
      <circle r="3" cx="1002" cy="-100" fill="#FFC300"/>
      <circle r="3" cx="1005" cy="-98" fill="#00FDFF"/>
      <circle r="3" cx="1005" cy="-100" fill="#FFC300"/>
      <circle r="3" cx="1008" cy="-98" fill="#00FDFF"/>
      <circle r="3" cx="1008" cy="-100" fill="#FFC300"/>
      <circle r="3" cx="1011" cy="-98" fill="#00FDFF"/>
      <circle r="3" cx="1011" cy="-100" fill="#FFC300"/>
      <circle r="3" cx="1014" cy="-98" fill="#00FDFF"/>
      <circle r="3" cx="1014" cy="-100" fill="#FFC300"/>
      <circle r="3" cx="1017" cy="-98" fill="#00FDFF"/>
      <circle r="3" cx="1017" cy="-100" fill="#FFC300"/>
      <circle r="3" cx="1020" cy="-98" fill="#00FDFF"/>
      <circle r="3" cx="1020" cy="-100" fill="#FFC300"/>
      <circle r="3" cx="1023" cy="-98" fill="#00FDFF"/>
      <circle r="3" cx="1023" cy="-100" fill="#FFC300"/>
      <circle r="3" cx="1026" cy="-98" fill="#00FDFF"/>
      <circle r="3" cx="1026" cy="-100" fill="#FFC300"/>
      <circle r="3" cx="1029" cy="-98" fill="#00FDFF"/>
      <circle r="3" cx="1029" cy="-100" fill="#FFC300"/>
      <circle r="3" cx="1032" cy="-98" fill="#00FDFF"/>
      <circle r="3" cx="1032" cy="-100" fill="#FFC300"/>
      <circle r="3" cx="1035" cy="-98" fill="#00FDFF"/>
      <circle r="3" cx="1035" cy="-100" fill="#FFC300"/>
      <circle r="3" cx="1038" cy="-98" fill="#00FDFF"/>
      <circle r="3" cx="1038" cy="-100" fill="#FFC300"/>
      <circle r="3" cx="1041" cy="-98" fill="#00FDFF"/>
      <circle r="3" cx="1041" cy="-100" fill="#FFC300"/>
      <circle r="3" cx="1044" cy="-98" fill="#00FDFF"/>
      <circle r="3" cx="1044" cy="-100" fill="#FFC300"/>
      <circle r="3" cx="1047" cy="-98" fill="#00FDFF"/>
      <circle r="3" cx="1047" cy="-100" fill="#FFC300"/>
      <circle r="3" cx="1050" cy="-98" fill="#00FDFF"/>
      <circle r="3" cx="1050" cy="-100" fill="#FFC300"/>
      <circle r="3" cx="1053" cy="-98" fill="#00FDFF"/>
      <circle r="3" cx="1053" cy="-100" fill="#FFC300"/>
      <circle r="3" cx="1056" cy="-98" fill="#00FDFF"/>
      <circle r="3" cx="1056" cy="-100" fill="#FFC300"/>
      <circle r="3" cx="1059" cy="-100" fill="#00FDFF"/>
      <circle r="3" cx="1059" cy="-100" fill="#FFC300"/>
      <circle r="3" cx="1062" cy="-102" fill="#00FDFF"/>
      <circle r="3" cx="1062" cy="-100" fill="#FFC300"/>
      <circle r="3" cx="1065" cy="-102" fill="#00FDFF"/>
      <circle r="3" cx="1065" cy="-100" fill="#FFC300"/>
      <circle r="3" cx="1068" cy="-102" fill="#00FDFF"/>
      <circle r="3" cx="1068" cy="-100" fill="#FFC300"/>
      <circle r="3" cx="1071" cy="-102" fill="#00FDFF"/>
      <circle r="3" cx="1071" cy="-100" fill="#FFC300"/>
      <circle r="3" cx="1074" cy="-102" fill="#00FDFF"/>
      <circle r="3" cx="1074" cy="-102" fill="#FFC300"/>
      <circle r="3" cx="1077" cy="-102" fill="#00FDFF"/>
      <circle r="3" cx="1077" cy="-102" fill="#FFC300"/>
      <circle r="3" cx="1080" cy="-102" fill="#00FDFF"/>
      <circle r="3" cx="1080" cy="-104" fill="#FFC300"/>
      <circle r="3" cx="1083" cy="-102" fill="#00FDFF"/>
      <circle r="3" cx="1083" cy="-106" fill="#FFC300"/>
      <circle r="3" cx="1086" cy="-104" fill="#00FDFF"/>
      <circle r="3" cx="1086" cy="-106" fill="#FFC300"/>
      <circle r="3" cx="1089" cy="-106" fill="#00FDFF"/>
      <circle r="3" cx="1089" cy="-106" fill="#FFC300"/>
      <circle r="3" cx="1092" cy="-108" fill="#00FDFF"/>
      <circle r="3" cx="1092" cy="-106" fill="#FFC300"/>
      <circle r="3" cx="1095" cy="-110" fill="#00FDFF"/>
      <circle r="3" cx="1095" cy="-106" fill="#FFC300"/>
      <circle r="3" cx="1098" cy="-110" fill="#00FDFF"/>
      <circle r="3" cx="1098" cy="-106" fill="#FFC300"/>
      <circle r="3" cx="1101" cy="-110" fill="#00FDFF"/>
      <circle r="3" cx="1101" cy="-106" fill="#FFC300"/>
      <circle r="3" cx="1104" cy="-110" fill="#00FDFF"/>
      <circle r="3" cx="1104" cy="-106" fill="#FFC300"/>
      <circle r="3" cx="1107" cy="-110" fill="#00FDFF"/>
      <circle r="3" cx="1107" cy="-106" fill="#FFC300"/>
      <circle r="3" cx="1110" cy="-110" fill="#00FDFF"/>
      <circle r="3" cx="1110" cy="-106" fill="#FFC300"/>
      <circle r="3" cx="1113" cy="-110" fill="#00FDFF"/>
      <circle r="3" cx="1113" cy="-106" fill="#FFC300"/>
      <circle r="3" cx="1116" cy="-110" fill="#00FDFF"/>
      <circle r="3" cx="1116" cy="-108" fill="#FFC300"/>
      <circle r="3" cx="1119" cy="-110" fill="#00FDFF"/>
      <circle r="3" cx="1119" cy="-110" fill="#FFC300"/>
      <circle r="3" cx="1122" cy="-110" fill="#00FDFF"/>
      <circle r="3" cx="1122" cy="-112" fill="#FFC300"/>
      <circle r="3" cx="1125" cy="-110" fill="#00FDFF"/>
      <circle r="3" cx="1125" cy="-114" fill="#FFC300"/>
      <circle r="3" cx="1128" cy="-110" fill="#00FDFF"/>
      <circle r="3" cx="1128" cy="-114" fill="#FFC300"/>
      <circle r="3" cx="1131" cy="-110" fill="#00FDFF"/>
      <circle r="3" cx="1131" cy="-114" fill="#FFC300"/>
      <circle r="3" cx="1134" cy="-110" fill="#00FDFF"/>
      <circle r="3" cx="1134" cy="-116" fill="#FFC300"/>
      <circle r="3" cx="1137" cy="-110" fill="#00FDFF"/>
      <circle r="3" cx="1137" cy="-118" fill="#FFC300"/>
      <circle r="3" cx="1140" cy="-110" fill="#00FDFF"/>
      <circle r="3" cx="1140" cy="-120" fill="#FFC300"/>
      <circle r="3" cx="1143" cy="-110" fill="#00FDFF"/>
      <circle r="3" cx="1143" cy="-122" fill="#FFC300"/>
      <circle r="3" cx="1146" cy="-110" fill="#00FDFF"/>
      <circle r="3" cx="1146" cy="-124" fill="#FFC300"/>
      <circle r="3" cx="1149" cy="-110" fill="#00FDFF"/>
      <circle r="3" cx="1149" cy="-124" fill="#FFC300"/>
      <circle r="3" cx="1152" cy="-110" fill="#00FDFF"/>
      <circle r="3" cx="1152" cy="-124" fill="#FFC300"/>
      <circle r="3" cx="1155" cy="-110" fill="#00FDFF"/>
      <circle r="3" cx="1155" cy="-124" fill="#FFC300"/>
      <circle r="3" cx="1158" cy="-110" fill="#00FDFF"/>
      <circle r="3" cx="1158" cy="-124" fill="#FFC300"/>
      <circle r="3" cx="1161" cy="-110" fill="#00FDFF"/>
      <circle r="3" cx="1161" cy="-124" fill="#FFC300"/>
      <circle r="3" cx="1164" cy="-110" fill="#00FDFF"/>
      <circle r="3" cx="1164" cy="-124" fill="#FFC300"/>
      <circle r="3" cx="1167" cy="-110" fill="#00FDFF"/>
      <circle r="3" cx="1167" cy="-124" fill="#FFC300"/>
      <circle r="3" cx="1170" cy="-110" fill="#00FDFF"/>
      <circle r="3" cx="1170" cy="-124" fill="#FFC300"/>
      <circle r="3" cx="1173" cy="-110" fill="#00FDFF"/>
      <circle r="3" cx="1173" cy="-124" fill="#FFC300"/>
      <circle r="3" cx="1176" cy="-110" fill="#00FDFF"/>
      <circle r="3" cx="1176" cy="-124" fill="#FFC300"/>
      <circle r="3" cx="1179" cy="-110" fill="#00FDFF"/>
      <circle r="3" cx="1179" cy="-124" fill="#FFC300"/>
      <circle r="3" cx="1182" cy="-110" fill="#00FDFF"/>
      <circle r="3" cx="1182" cy="-124" fill="#FFC300"/>
      <circle r="3" cx="1185" cy="-110" fill="#00FDFF"/>
      <circle r="3" cx="1185" cy="-124" fill="#FFC300"/>
      <circle r="3" cx="1188" cy="-110" fill="#00FDFF"/>
      <circle r="3" cx="1188" cy="-124" fill="#FFC300"/>
      <circle r="3" cx="1191" cy="-110" fill="#00FDFF"/>
      <circle r="3" cx="1191" cy="-124" fill="#FFC300"/>
      <circle r="3" cx="1194" cy="-110" fill="#00FDFF"/>
      <circle r="3" cx="1194" cy="-124" fill="#FFC300"/>
      <circle r="3" cx="1197" cy="-110" fill="#00FDFF"/>
      <circle r="3" cx="1197" cy="-124" fill="#FFC300"/>
      <text x="1203"
            y="-110"
            text-anchor="start"
            alignment-baseline="central"
            fill="#00FDFF">divine</text>
      <text x="1203"
            y="-124"
            text-anchor="start"
            alignment-baseline="central"
            fill="#FFC300">earthly</text>
      <line x1="0" y1="0" x2="1197" y2="0" stroke="black"/>
      <line x1="0" y1="0" x2="0" y2="-149" stroke="black"/>
      <text x="-50"
            y="-62"
            text-anchor="middle"
            font-size="larger"
            transform="rotate(-90 -50 -62)">Occurrences</text>
      <text x="1200"
            y="-3"
            text-anchor="start"
            font-size="larger"
            alignment-baseline="baseline">Percentage
                    of Scene</text>
      <text x="598.5"
            y="-174"
            text-anchor="middle"
            font-size="larger"
            text-decoration="underline">OCCURRENCE OF DIVINE AND
                    EARTHLY TRAITS THROUGHOUT SCENE XXI.
                        WALPURGIS-NIGHT</text>
   </g>
</svg>
