<?xml version="1.0" encoding="UTF-8"?>
<svg xmlns="http://www.w3.org/2000/svg">
   <g transform="translate(100, 77)">
      <line x1="-10" y1="-2" x2="0" y2="-2" stroke="black"/>
      <line x1="83.1" y1="-10" x2="83.1" y2="10" stroke="black"/>
      <line x1="0" y1="-2" x2="831" y2="-2" stroke="lightgrey"/>
      <text x="-15" y="-2" text-anchor="end" alignment-baseline="central">1</text>
      <text x="86.1" y="3" text-anchor="start" alignment-baseline="hanging">10%</text>
      <line x1="-10" y1="-4" x2="0" y2="-4" stroke="black"/>
      <line x1="166.2" y1="-10" x2="166.2" y2="10" stroke="black"/>
      <line x1="0" y1="-4" x2="831" y2="-4" stroke="lightgrey"/>
      <text x="-15" y="-4" text-anchor="end" alignment-baseline="central">2</text>
      <text x="169.2"
            y="3"
            text-anchor="start"
            alignment-baseline="hanging">20%</text>
      <line x1="-10" y1="-6" x2="0" y2="-6" stroke="black"/>
      <line x1="249.29999999999998"
            y1="-10"
            x2="249.29999999999998"
            y2="10"
            stroke="black"/>
      <line x1="0" y1="-6" x2="831" y2="-6" stroke="lightgrey"/>
      <text x="-15" y="-6" text-anchor="end" alignment-baseline="central">3</text>
      <text x="252.29999999999998"
            y="3"
            text-anchor="start"
            alignment-baseline="hanging">30%</text>
      <line x1="-10" y1="-8" x2="0" y2="-8" stroke="black"/>
      <line x1="332.4" y1="-10" x2="332.4" y2="10" stroke="black"/>
      <line x1="0" y1="-8" x2="831" y2="-8" stroke="lightgrey"/>
      <text x="-15" y="-8" text-anchor="end" alignment-baseline="central">4</text>
      <text x="335.4"
            y="3"
            text-anchor="start"
            alignment-baseline="hanging">40%</text>
      <line x1="-10" y1="-10" x2="0" y2="-10" stroke="black"/>
      <line x1="415.5" y1="-10" x2="415.5" y2="10" stroke="black"/>
      <line x1="0" y1="-10" x2="831" y2="-10" stroke="lightgrey"/>
      <text x="-15" y="-10" text-anchor="end" alignment-baseline="central">5</text>
      <text x="418.5"
            y="3"
            text-anchor="start"
            alignment-baseline="hanging">50%</text>
      <line x1="-10" y1="-12" x2="0" y2="-12" stroke="black"/>
      <line x1="498.59999999999997"
            y1="-10"
            x2="498.59999999999997"
            y2="10"
            stroke="black"/>
      <line x1="0" y1="-12" x2="831" y2="-12" stroke="lightgrey"/>
      <text x="-15" y="-12" text-anchor="end" alignment-baseline="central">6</text>
      <text x="501.59999999999997"
            y="3"
            text-anchor="start"
            alignment-baseline="hanging">60%</text>
      <line x1="-10" y1="-14" x2="0" y2="-14" stroke="black"/>
      <line x1="581.7" y1="-10" x2="581.7" y2="10" stroke="black"/>
      <line x1="0" y1="-14" x2="831" y2="-14" stroke="lightgrey"/>
      <text x="-15" y="-14" text-anchor="end" alignment-baseline="central">7</text>
      <text x="584.7"
            y="3"
            text-anchor="start"
            alignment-baseline="hanging">70%</text>
      <line x1="-10" y1="-16" x2="0" y2="-16" stroke="black"/>
      <line x1="664.8" y1="-10" x2="664.8" y2="10" stroke="black"/>
      <line x1="0" y1="-16" x2="831" y2="-16" stroke="lightgrey"/>
      <text x="-15" y="-16" text-anchor="end" alignment-baseline="central">8</text>
      <text x="667.8"
            y="3"
            text-anchor="start"
            alignment-baseline="hanging">80%</text>
      <line x1="-10" y1="-18" x2="0" y2="-18" stroke="black"/>
      <line x1="747.9000000000001"
            y1="-10"
            x2="747.9000000000001"
            y2="10"
            stroke="black"/>
      <line x1="0" y1="-18" x2="831" y2="-18" stroke="lightgrey"/>
      <text x="-15" y="-18" text-anchor="end" alignment-baseline="central">9</text>
      <text x="750.9000000000001"
            y="3"
            text-anchor="start"
            alignment-baseline="hanging">90%</text>
      <line x1="-10" y1="-20" x2="0" y2="-20" stroke="black"/>
      <line x1="831" y1="-10" x2="831" y2="10" stroke="black"/>
      <line x1="0" y1="-20" x2="831" y2="-20" stroke="lightgrey"/>
      <text x="-15" y="-20" text-anchor="end" alignment-baseline="central">10</text>
      <text x="834" y="3" text-anchor="start" alignment-baseline="hanging">100%</text>
      <line x1="-10" y1="0" x2="0" y2="0" stroke="black"/>
      <text x="-15" y="0" text-anchor="end" alignment-baseline="central">0</text>
      <circle r="3" cx="3" cy="-0" fill="#00FDFF"/>
      <circle r="3" cx="3" cy="-0" fill="#FFC300"/>
      <circle r="3" cx="6" cy="-0" fill="#00FDFF"/>
      <circle r="3" cx="6" cy="-0" fill="#FFC300"/>
      <circle r="3" cx="9" cy="-0" fill="#00FDFF"/>
      <circle r="3" cx="9" cy="-0" fill="#FFC300"/>
      <circle r="3" cx="12" cy="-0" fill="#00FDFF"/>
      <circle r="3" cx="12" cy="-0" fill="#FFC300"/>
      <circle r="3" cx="15" cy="-0" fill="#00FDFF"/>
      <circle r="3" cx="15" cy="-0" fill="#FFC300"/>
      <circle r="3" cx="18" cy="-0" fill="#00FDFF"/>
      <circle r="3" cx="18" cy="-0" fill="#FFC300"/>
      <circle r="3" cx="21" cy="-0" fill="#00FDFF"/>
      <circle r="3" cx="21" cy="-0" fill="#FFC300"/>
      <circle r="3" cx="24" cy="-0" fill="#00FDFF"/>
      <circle r="3" cx="24" cy="-0" fill="#FFC300"/>
      <circle r="3" cx="27" cy="-0" fill="#00FDFF"/>
      <circle r="3" cx="27" cy="-0" fill="#FFC300"/>
      <circle r="3" cx="30" cy="-0" fill="#00FDFF"/>
      <circle r="3" cx="30" cy="-0" fill="#FFC300"/>
      <circle r="3" cx="33" cy="-0" fill="#00FDFF"/>
      <circle r="3" cx="33" cy="-0" fill="#FFC300"/>
      <circle r="3" cx="36" cy="-0" fill="#00FDFF"/>
      <circle r="3" cx="36" cy="-0" fill="#FFC300"/>
      <circle r="3" cx="39" cy="-0" fill="#00FDFF"/>
      <circle r="3" cx="39" cy="-0" fill="#FFC300"/>
      <circle r="3" cx="42" cy="-0" fill="#00FDFF"/>
      <circle r="3" cx="42" cy="-0" fill="#FFC300"/>
      <circle r="3" cx="45" cy="-0" fill="#00FDFF"/>
      <circle r="3" cx="45" cy="-0" fill="#FFC300"/>
      <circle r="3" cx="48" cy="-0" fill="#00FDFF"/>
      <circle r="3" cx="48" cy="-0" fill="#FFC300"/>
      <circle r="3" cx="51" cy="-0" fill="#00FDFF"/>
      <circle r="3" cx="51" cy="-0" fill="#FFC300"/>
      <circle r="3" cx="54" cy="-0" fill="#00FDFF"/>
      <circle r="3" cx="54" cy="-0" fill="#FFC300"/>
      <circle r="3" cx="57" cy="-0" fill="#00FDFF"/>
      <circle r="3" cx="57" cy="-0" fill="#FFC300"/>
      <circle r="3" cx="60" cy="-0" fill="#00FDFF"/>
      <circle r="3" cx="60" cy="-0" fill="#FFC300"/>
      <circle r="3" cx="63" cy="-0" fill="#00FDFF"/>
      <circle r="3" cx="63" cy="-0" fill="#FFC300"/>
      <circle r="3" cx="66" cy="-0" fill="#00FDFF"/>
      <circle r="3" cx="66" cy="-0" fill="#FFC300"/>
      <circle r="3" cx="69" cy="-0" fill="#00FDFF"/>
      <circle r="3" cx="69" cy="-0" fill="#FFC300"/>
      <circle r="3" cx="72" cy="-0" fill="#00FDFF"/>
      <circle r="3" cx="72" cy="-0" fill="#FFC300"/>
      <circle r="3" cx="75" cy="-0" fill="#00FDFF"/>
      <circle r="3" cx="75" cy="-0" fill="#FFC300"/>
      <circle r="3" cx="78" cy="-0" fill="#00FDFF"/>
      <circle r="3" cx="78" cy="-0" fill="#FFC300"/>
      <circle r="3" cx="81" cy="-0" fill="#00FDFF"/>
      <circle r="3" cx="81" cy="-0" fill="#FFC300"/>
      <circle r="3" cx="84" cy="-0" fill="#00FDFF"/>
      <circle r="3" cx="84" cy="-0" fill="#FFC300"/>
      <circle r="3" cx="87" cy="-0" fill="#00FDFF"/>
      <circle r="3" cx="87" cy="-0" fill="#FFC300"/>
      <circle r="3" cx="90" cy="-0" fill="#00FDFF"/>
      <circle r="3" cx="90" cy="-0" fill="#FFC300"/>
      <circle r="3" cx="93" cy="-0" fill="#00FDFF"/>
      <circle r="3" cx="93" cy="-0" fill="#FFC300"/>
      <circle r="3" cx="96" cy="-0" fill="#00FDFF"/>
      <circle r="3" cx="96" cy="-0" fill="#FFC300"/>
      <circle r="3" cx="99" cy="-0" fill="#00FDFF"/>
      <circle r="3" cx="99" cy="-0" fill="#FFC300"/>
      <circle r="3" cx="102" cy="-0" fill="#00FDFF"/>
      <circle r="3" cx="102" cy="-0" fill="#FFC300"/>
      <circle r="3" cx="105" cy="-0" fill="#00FDFF"/>
      <circle r="3" cx="105" cy="-0" fill="#FFC300"/>
      <circle r="3" cx="108" cy="-0" fill="#00FDFF"/>
      <circle r="3" cx="108" cy="-0" fill="#FFC300"/>
      <circle r="3" cx="111" cy="-0" fill="#00FDFF"/>
      <circle r="3" cx="111" cy="-0" fill="#FFC300"/>
      <circle r="3" cx="114" cy="-0" fill="#00FDFF"/>
      <circle r="3" cx="114" cy="-0" fill="#FFC300"/>
      <circle r="3" cx="117" cy="-0" fill="#00FDFF"/>
      <circle r="3" cx="117" cy="-0" fill="#FFC300"/>
      <circle r="3" cx="120" cy="-0" fill="#00FDFF"/>
      <circle r="3" cx="120" cy="-0" fill="#FFC300"/>
      <circle r="3" cx="123" cy="-0" fill="#00FDFF"/>
      <circle r="3" cx="123" cy="-0" fill="#FFC300"/>
      <circle r="3" cx="126" cy="-0" fill="#00FDFF"/>
      <circle r="3" cx="126" cy="-0" fill="#FFC300"/>
      <circle r="3" cx="129" cy="-0" fill="#00FDFF"/>
      <circle r="3" cx="129" cy="-0" fill="#FFC300"/>
      <circle r="3" cx="132" cy="-0" fill="#00FDFF"/>
      <circle r="3" cx="132" cy="-0" fill="#FFC300"/>
      <circle r="3" cx="135" cy="-0" fill="#00FDFF"/>
      <circle r="3" cx="135" cy="-0" fill="#FFC300"/>
      <circle r="3" cx="138" cy="-0" fill="#00FDFF"/>
      <circle r="3" cx="138" cy="-0" fill="#FFC300"/>
      <circle r="3" cx="141" cy="-0" fill="#00FDFF"/>
      <circle r="3" cx="141" cy="-0" fill="#FFC300"/>
      <circle r="3" cx="144" cy="-0" fill="#00FDFF"/>
      <circle r="3" cx="144" cy="-0" fill="#FFC300"/>
      <circle r="3" cx="147" cy="-0" fill="#00FDFF"/>
      <circle r="3" cx="147" cy="-0" fill="#FFC300"/>
      <circle r="3" cx="150" cy="-0" fill="#00FDFF"/>
      <circle r="3" cx="150" cy="-0" fill="#FFC300"/>
      <circle r="3" cx="153" cy="-0" fill="#00FDFF"/>
      <circle r="3" cx="153" cy="-0" fill="#FFC300"/>
      <circle r="3" cx="156" cy="-0" fill="#00FDFF"/>
      <circle r="3" cx="156" cy="-0" fill="#FFC300"/>
      <circle r="3" cx="159" cy="-0" fill="#00FDFF"/>
      <circle r="3" cx="159" cy="-0" fill="#FFC300"/>
      <circle r="3" cx="162" cy="-0" fill="#00FDFF"/>
      <circle r="3" cx="162" cy="-0" fill="#FFC300"/>
      <circle r="3" cx="165" cy="-0" fill="#00FDFF"/>
      <circle r="3" cx="165" cy="-0" fill="#FFC300"/>
      <circle r="3" cx="168" cy="-0" fill="#00FDFF"/>
      <circle r="3" cx="168" cy="-0" fill="#FFC300"/>
      <circle r="3" cx="171" cy="-0" fill="#00FDFF"/>
      <circle r="3" cx="171" cy="-0" fill="#FFC300"/>
      <circle r="3" cx="174" cy="-0" fill="#00FDFF"/>
      <circle r="3" cx="174" cy="-0" fill="#FFC300"/>
      <circle r="3" cx="177" cy="-0" fill="#00FDFF"/>
      <circle r="3" cx="177" cy="-0" fill="#FFC300"/>
      <circle r="3" cx="180" cy="-0" fill="#00FDFF"/>
      <circle r="3" cx="180" cy="-0" fill="#FFC300"/>
      <circle r="3" cx="183" cy="-0" fill="#00FDFF"/>
      <circle r="3" cx="183" cy="-0" fill="#FFC300"/>
      <circle r="3" cx="186" cy="-0" fill="#00FDFF"/>
      <circle r="3" cx="186" cy="-0" fill="#FFC300"/>
      <circle r="3" cx="189" cy="-0" fill="#00FDFF"/>
      <circle r="3" cx="189" cy="-0" fill="#FFC300"/>
      <circle r="3" cx="192" cy="-0" fill="#00FDFF"/>
      <circle r="3" cx="192" cy="-0" fill="#FFC300"/>
      <circle r="3" cx="195" cy="-0" fill="#00FDFF"/>
      <circle r="3" cx="195" cy="-0" fill="#FFC300"/>
      <circle r="3" cx="198" cy="-0" fill="#00FDFF"/>
      <circle r="3" cx="198" cy="-0" fill="#FFC300"/>
      <circle r="3" cx="201" cy="-0" fill="#00FDFF"/>
      <circle r="3" cx="201" cy="-0" fill="#FFC300"/>
      <circle r="3" cx="204" cy="-0" fill="#00FDFF"/>
      <circle r="3" cx="204" cy="-0" fill="#FFC300"/>
      <circle r="3" cx="207" cy="-0" fill="#00FDFF"/>
      <circle r="3" cx="207" cy="-0" fill="#FFC300"/>
      <circle r="3" cx="210" cy="-0" fill="#00FDFF"/>
      <circle r="3" cx="210" cy="-0" fill="#FFC300"/>
      <circle r="3" cx="213" cy="-0" fill="#00FDFF"/>
      <circle r="3" cx="213" cy="-0" fill="#FFC300"/>
      <circle r="3" cx="216" cy="-0" fill="#00FDFF"/>
      <circle r="3" cx="216" cy="-0" fill="#FFC300"/>
      <circle r="3" cx="219" cy="-0" fill="#00FDFF"/>
      <circle r="3" cx="219" cy="-0" fill="#FFC300"/>
      <circle r="3" cx="222" cy="-0" fill="#00FDFF"/>
      <circle r="3" cx="222" cy="-0" fill="#FFC300"/>
      <circle r="3" cx="225" cy="-0" fill="#00FDFF"/>
      <circle r="3" cx="225" cy="-0" fill="#FFC300"/>
      <circle r="3" cx="228" cy="-0" fill="#00FDFF"/>
      <circle r="3" cx="228" cy="-0" fill="#FFC300"/>
      <circle r="3" cx="231" cy="-0" fill="#00FDFF"/>
      <circle r="3" cx="231" cy="-0" fill="#FFC300"/>
      <circle r="3" cx="234" cy="-0" fill="#00FDFF"/>
      <circle r="3" cx="234" cy="-0" fill="#FFC300"/>
      <circle r="3" cx="237" cy="-0" fill="#00FDFF"/>
      <circle r="3" cx="237" cy="-0" fill="#FFC300"/>
      <circle r="3" cx="240" cy="-0" fill="#00FDFF"/>
      <circle r="3" cx="240" cy="-0" fill="#FFC300"/>
      <circle r="3" cx="243" cy="-0" fill="#00FDFF"/>
      <circle r="3" cx="243" cy="-0" fill="#FFC300"/>
      <circle r="3" cx="246" cy="-0" fill="#00FDFF"/>
      <circle r="3" cx="246" cy="-0" fill="#FFC300"/>
      <circle r="3" cx="249" cy="-0" fill="#00FDFF"/>
      <circle r="3" cx="249" cy="-0" fill="#FFC300"/>
      <circle r="3" cx="252" cy="-0" fill="#00FDFF"/>
      <circle r="3" cx="252" cy="-0" fill="#FFC300"/>
      <circle r="3" cx="255" cy="-0" fill="#00FDFF"/>
      <circle r="3" cx="255" cy="-0" fill="#FFC300"/>
      <circle r="3" cx="258" cy="-0" fill="#00FDFF"/>
      <circle r="3" cx="258" cy="-0" fill="#FFC300"/>
      <circle r="3" cx="261" cy="-0" fill="#00FDFF"/>
      <circle r="3" cx="261" cy="-0" fill="#FFC300"/>
      <circle r="3" cx="264" cy="-0" fill="#00FDFF"/>
      <circle r="3" cx="264" cy="-0" fill="#FFC300"/>
      <circle r="3" cx="267" cy="-0" fill="#00FDFF"/>
      <circle r="3" cx="267" cy="-0" fill="#FFC300"/>
      <circle r="3" cx="270" cy="-0" fill="#00FDFF"/>
      <circle r="3" cx="270" cy="-0" fill="#FFC300"/>
      <circle r="3" cx="273" cy="-0" fill="#00FDFF"/>
      <circle r="3" cx="273" cy="-0" fill="#FFC300"/>
      <circle r="3" cx="276" cy="-0" fill="#00FDFF"/>
      <circle r="3" cx="276" cy="-0" fill="#FFC300"/>
      <circle r="3" cx="279" cy="-0" fill="#00FDFF"/>
      <circle r="3" cx="279" cy="-0" fill="#FFC300"/>
      <circle r="3" cx="282" cy="-0" fill="#00FDFF"/>
      <circle r="3" cx="282" cy="-0" fill="#FFC300"/>
      <circle r="3" cx="285" cy="-0" fill="#00FDFF"/>
      <circle r="3" cx="285" cy="-0" fill="#FFC300"/>
      <circle r="3" cx="288" cy="-0" fill="#00FDFF"/>
      <circle r="3" cx="288" cy="-0" fill="#FFC300"/>
      <circle r="3" cx="291" cy="-0" fill="#00FDFF"/>
      <circle r="3" cx="291" cy="-0" fill="#FFC300"/>
      <circle r="3" cx="294" cy="-0" fill="#00FDFF"/>
      <circle r="3" cx="294" cy="-0" fill="#FFC300"/>
      <circle r="3" cx="297" cy="-0" fill="#00FDFF"/>
      <circle r="3" cx="297" cy="-0" fill="#FFC300"/>
      <circle r="3" cx="300" cy="-0" fill="#00FDFF"/>
      <circle r="3" cx="300" cy="-0" fill="#FFC300"/>
      <circle r="3" cx="303" cy="-0" fill="#00FDFF"/>
      <circle r="3" cx="303" cy="-0" fill="#FFC300"/>
      <circle r="3" cx="306" cy="-0" fill="#00FDFF"/>
      <circle r="3" cx="306" cy="-0" fill="#FFC300"/>
      <circle r="3" cx="309" cy="-0" fill="#00FDFF"/>
      <circle r="3" cx="309" cy="-0" fill="#FFC300"/>
      <circle r="3" cx="312" cy="-0" fill="#00FDFF"/>
      <circle r="3" cx="312" cy="-0" fill="#FFC300"/>
      <circle r="3" cx="315" cy="-0" fill="#00FDFF"/>
      <circle r="3" cx="315" cy="-0" fill="#FFC300"/>
      <circle r="3" cx="318" cy="-0" fill="#00FDFF"/>
      <circle r="3" cx="318" cy="-0" fill="#FFC300"/>
      <circle r="3" cx="321" cy="-0" fill="#00FDFF"/>
      <circle r="3" cx="321" cy="-0" fill="#FFC300"/>
      <circle r="3" cx="324" cy="-0" fill="#00FDFF"/>
      <circle r="3" cx="324" cy="-0" fill="#FFC300"/>
      <circle r="3" cx="327" cy="-0" fill="#00FDFF"/>
      <circle r="3" cx="327" cy="-0" fill="#FFC300"/>
      <circle r="3" cx="330" cy="-0" fill="#00FDFF"/>
      <circle r="3" cx="330" cy="-0" fill="#FFC300"/>
      <circle r="3" cx="333" cy="-0" fill="#00FDFF"/>
      <circle r="3" cx="333" cy="-0" fill="#FFC300"/>
      <circle r="3" cx="336" cy="-0" fill="#00FDFF"/>
      <circle r="3" cx="336" cy="-0" fill="#FFC300"/>
      <circle r="3" cx="339" cy="-0" fill="#00FDFF"/>
      <circle r="3" cx="339" cy="-0" fill="#FFC300"/>
      <circle r="3" cx="342" cy="-0" fill="#00FDFF"/>
      <circle r="3" cx="342" cy="-0" fill="#FFC300"/>
      <circle r="3" cx="345" cy="-0" fill="#00FDFF"/>
      <circle r="3" cx="345" cy="-0" fill="#FFC300"/>
      <circle r="3" cx="348" cy="-0" fill="#00FDFF"/>
      <circle r="3" cx="348" cy="-2" fill="#FFC300"/>
      <circle r="3" cx="351" cy="-0" fill="#00FDFF"/>
      <circle r="3" cx="351" cy="-2" fill="#FFC300"/>
      <circle r="3" cx="354" cy="-0" fill="#00FDFF"/>
      <circle r="3" cx="354" cy="-2" fill="#FFC300"/>
      <circle r="3" cx="357" cy="-0" fill="#00FDFF"/>
      <circle r="3" cx="357" cy="-2" fill="#FFC300"/>
      <circle r="3" cx="360" cy="-0" fill="#00FDFF"/>
      <circle r="3" cx="360" cy="-2" fill="#FFC300"/>
      <circle r="3" cx="363" cy="-0" fill="#00FDFF"/>
      <circle r="3" cx="363" cy="-2" fill="#FFC300"/>
      <circle r="3" cx="366" cy="-0" fill="#00FDFF"/>
      <circle r="3" cx="366" cy="-2" fill="#FFC300"/>
      <circle r="3" cx="369" cy="-0" fill="#00FDFF"/>
      <circle r="3" cx="369" cy="-2" fill="#FFC300"/>
      <circle r="3" cx="372" cy="-0" fill="#00FDFF"/>
      <circle r="3" cx="372" cy="-2" fill="#FFC300"/>
      <circle r="3" cx="375" cy="-0" fill="#00FDFF"/>
      <circle r="3" cx="375" cy="-2" fill="#FFC300"/>
      <circle r="3" cx="378" cy="-0" fill="#00FDFF"/>
      <circle r="3" cx="378" cy="-2" fill="#FFC300"/>
      <circle r="3" cx="381" cy="-0" fill="#00FDFF"/>
      <circle r="3" cx="381" cy="-2" fill="#FFC300"/>
      <circle r="3" cx="384" cy="-0" fill="#00FDFF"/>
      <circle r="3" cx="384" cy="-2" fill="#FFC300"/>
      <circle r="3" cx="387" cy="-0" fill="#00FDFF"/>
      <circle r="3" cx="387" cy="-2" fill="#FFC300"/>
      <circle r="3" cx="390" cy="-0" fill="#00FDFF"/>
      <circle r="3" cx="390" cy="-2" fill="#FFC300"/>
      <circle r="3" cx="393" cy="-0" fill="#00FDFF"/>
      <circle r="3" cx="393" cy="-2" fill="#FFC300"/>
      <circle r="3" cx="396" cy="-0" fill="#00FDFF"/>
      <circle r="3" cx="396" cy="-2" fill="#FFC300"/>
      <circle r="3" cx="399" cy="-0" fill="#00FDFF"/>
      <circle r="3" cx="399" cy="-2" fill="#FFC300"/>
      <circle r="3" cx="402" cy="-0" fill="#00FDFF"/>
      <circle r="3" cx="402" cy="-2" fill="#FFC300"/>
      <circle r="3" cx="405" cy="-0" fill="#00FDFF"/>
      <circle r="3" cx="405" cy="-2" fill="#FFC300"/>
      <circle r="3" cx="408" cy="-0" fill="#00FDFF"/>
      <circle r="3" cx="408" cy="-2" fill="#FFC300"/>
      <circle r="3" cx="411" cy="-0" fill="#00FDFF"/>
      <circle r="3" cx="411" cy="-2" fill="#FFC300"/>
      <circle r="3" cx="414" cy="-0" fill="#00FDFF"/>
      <circle r="3" cx="414" cy="-2" fill="#FFC300"/>
      <circle r="3" cx="417" cy="-0" fill="#00FDFF"/>
      <circle r="3" cx="417" cy="-2" fill="#FFC300"/>
      <circle r="3" cx="420" cy="-0" fill="#00FDFF"/>
      <circle r="3" cx="420" cy="-2" fill="#FFC300"/>
      <circle r="3" cx="423" cy="-0" fill="#00FDFF"/>
      <circle r="3" cx="423" cy="-2" fill="#FFC300"/>
      <circle r="3" cx="426" cy="-0" fill="#00FDFF"/>
      <circle r="3" cx="426" cy="-2" fill="#FFC300"/>
      <circle r="3" cx="429" cy="-0" fill="#00FDFF"/>
      <circle r="3" cx="429" cy="-2" fill="#FFC300"/>
      <circle r="3" cx="432" cy="-0" fill="#00FDFF"/>
      <circle r="3" cx="432" cy="-2" fill="#FFC300"/>
      <circle r="3" cx="435" cy="-0" fill="#00FDFF"/>
      <circle r="3" cx="435" cy="-2" fill="#FFC300"/>
      <circle r="3" cx="438" cy="-0" fill="#00FDFF"/>
      <circle r="3" cx="438" cy="-2" fill="#FFC300"/>
      <circle r="3" cx="441" cy="-0" fill="#00FDFF"/>
      <circle r="3" cx="441" cy="-2" fill="#FFC300"/>
      <circle r="3" cx="444" cy="-0" fill="#00FDFF"/>
      <circle r="3" cx="444" cy="-2" fill="#FFC300"/>
      <circle r="3" cx="447" cy="-0" fill="#00FDFF"/>
      <circle r="3" cx="447" cy="-2" fill="#FFC300"/>
      <circle r="3" cx="450" cy="-0" fill="#00FDFF"/>
      <circle r="3" cx="450" cy="-2" fill="#FFC300"/>
      <circle r="3" cx="453" cy="-0" fill="#00FDFF"/>
      <circle r="3" cx="453" cy="-2" fill="#FFC300"/>
      <circle r="3" cx="456" cy="-0" fill="#00FDFF"/>
      <circle r="3" cx="456" cy="-2" fill="#FFC300"/>
      <circle r="3" cx="459" cy="-0" fill="#00FDFF"/>
      <circle r="3" cx="459" cy="-2" fill="#FFC300"/>
      <circle r="3" cx="462" cy="-0" fill="#00FDFF"/>
      <circle r="3" cx="462" cy="-2" fill="#FFC300"/>
      <circle r="3" cx="465" cy="-0" fill="#00FDFF"/>
      <circle r="3" cx="465" cy="-2" fill="#FFC300"/>
      <circle r="3" cx="468" cy="-0" fill="#00FDFF"/>
      <circle r="3" cx="468" cy="-2" fill="#FFC300"/>
      <circle r="3" cx="471" cy="-0" fill="#00FDFF"/>
      <circle r="3" cx="471" cy="-2" fill="#FFC300"/>
      <circle r="3" cx="474" cy="-0" fill="#00FDFF"/>
      <circle r="3" cx="474" cy="-2" fill="#FFC300"/>
      <circle r="3" cx="477" cy="-0" fill="#00FDFF"/>
      <circle r="3" cx="477" cy="-2" fill="#FFC300"/>
      <circle r="3" cx="480" cy="-0" fill="#00FDFF"/>
      <circle r="3" cx="480" cy="-2" fill="#FFC300"/>
      <circle r="3" cx="483" cy="-0" fill="#00FDFF"/>
      <circle r="3" cx="483" cy="-2" fill="#FFC300"/>
      <circle r="3" cx="486" cy="-0" fill="#00FDFF"/>
      <circle r="3" cx="486" cy="-2" fill="#FFC300"/>
      <circle r="3" cx="489" cy="-0" fill="#00FDFF"/>
      <circle r="3" cx="489" cy="-2" fill="#FFC300"/>
      <circle r="3" cx="492" cy="-0" fill="#00FDFF"/>
      <circle r="3" cx="492" cy="-2" fill="#FFC300"/>
      <circle r="3" cx="495" cy="-0" fill="#00FDFF"/>
      <circle r="3" cx="495" cy="-2" fill="#FFC300"/>
      <circle r="3" cx="498" cy="-0" fill="#00FDFF"/>
      <circle r="3" cx="498" cy="-2" fill="#FFC300"/>
      <circle r="3" cx="501" cy="-0" fill="#00FDFF"/>
      <circle r="3" cx="501" cy="-2" fill="#FFC300"/>
      <circle r="3" cx="504" cy="-0" fill="#00FDFF"/>
      <circle r="3" cx="504" cy="-2" fill="#FFC300"/>
      <circle r="3" cx="507" cy="-0" fill="#00FDFF"/>
      <circle r="3" cx="507" cy="-2" fill="#FFC300"/>
      <circle r="3" cx="510" cy="-0" fill="#00FDFF"/>
      <circle r="3" cx="510" cy="-2" fill="#FFC300"/>
      <circle r="3" cx="513" cy="-0" fill="#00FDFF"/>
      <circle r="3" cx="513" cy="-2" fill="#FFC300"/>
      <circle r="3" cx="516" cy="-0" fill="#00FDFF"/>
      <circle r="3" cx="516" cy="-2" fill="#FFC300"/>
      <circle r="3" cx="519" cy="-0" fill="#00FDFF"/>
      <circle r="3" cx="519" cy="-2" fill="#FFC300"/>
      <circle r="3" cx="522" cy="-0" fill="#00FDFF"/>
      <circle r="3" cx="522" cy="-2" fill="#FFC300"/>
      <circle r="3" cx="525" cy="-0" fill="#00FDFF"/>
      <circle r="3" cx="525" cy="-2" fill="#FFC300"/>
      <circle r="3" cx="528" cy="-0" fill="#00FDFF"/>
      <circle r="3" cx="528" cy="-2" fill="#FFC300"/>
      <circle r="3" cx="531" cy="-0" fill="#00FDFF"/>
      <circle r="3" cx="531" cy="-2" fill="#FFC300"/>
      <circle r="3" cx="534" cy="-0" fill="#00FDFF"/>
      <circle r="3" cx="534" cy="-2" fill="#FFC300"/>
      <circle r="3" cx="537" cy="-0" fill="#00FDFF"/>
      <circle r="3" cx="537" cy="-2" fill="#FFC300"/>
      <circle r="3" cx="540" cy="-0" fill="#00FDFF"/>
      <circle r="3" cx="540" cy="-2" fill="#FFC300"/>
      <circle r="3" cx="543" cy="-0" fill="#00FDFF"/>
      <circle r="3" cx="543" cy="-2" fill="#FFC300"/>
      <circle r="3" cx="546" cy="-0" fill="#00FDFF"/>
      <circle r="3" cx="546" cy="-2" fill="#FFC300"/>
      <circle r="3" cx="549" cy="-0" fill="#00FDFF"/>
      <circle r="3" cx="549" cy="-2" fill="#FFC300"/>
      <circle r="3" cx="552" cy="-0" fill="#00FDFF"/>
      <circle r="3" cx="552" cy="-2" fill="#FFC300"/>
      <circle r="3" cx="555" cy="-0" fill="#00FDFF"/>
      <circle r="3" cx="555" cy="-2" fill="#FFC300"/>
      <circle r="3" cx="558" cy="-0" fill="#00FDFF"/>
      <circle r="3" cx="558" cy="-2" fill="#FFC300"/>
      <circle r="3" cx="561" cy="-0" fill="#00FDFF"/>
      <circle r="3" cx="561" cy="-2" fill="#FFC300"/>
      <circle r="3" cx="564" cy="-0" fill="#00FDFF"/>
      <circle r="3" cx="564" cy="-2" fill="#FFC300"/>
      <circle r="3" cx="567" cy="-0" fill="#00FDFF"/>
      <circle r="3" cx="567" cy="-2" fill="#FFC300"/>
      <circle r="3" cx="570" cy="-0" fill="#00FDFF"/>
      <circle r="3" cx="570" cy="-2" fill="#FFC300"/>
      <circle r="3" cx="573" cy="-0" fill="#00FDFF"/>
      <circle r="3" cx="573" cy="-2" fill="#FFC300"/>
      <circle r="3" cx="576" cy="-0" fill="#00FDFF"/>
      <circle r="3" cx="576" cy="-2" fill="#FFC300"/>
      <circle r="3" cx="579" cy="-0" fill="#00FDFF"/>
      <circle r="3" cx="579" cy="-2" fill="#FFC300"/>
      <circle r="3" cx="582" cy="-0" fill="#00FDFF"/>
      <circle r="3" cx="582" cy="-2" fill="#FFC300"/>
      <circle r="3" cx="585" cy="-0" fill="#00FDFF"/>
      <circle r="3" cx="585" cy="-2" fill="#FFC300"/>
      <circle r="3" cx="588" cy="-0" fill="#00FDFF"/>
      <circle r="3" cx="588" cy="-2" fill="#FFC300"/>
      <circle r="3" cx="591" cy="-0" fill="#00FDFF"/>
      <circle r="3" cx="591" cy="-2" fill="#FFC300"/>
      <circle r="3" cx="594" cy="-0" fill="#00FDFF"/>
      <circle r="3" cx="594" cy="-2" fill="#FFC300"/>
      <circle r="3" cx="597" cy="-0" fill="#00FDFF"/>
      <circle r="3" cx="597" cy="-2" fill="#FFC300"/>
      <circle r="3" cx="600" cy="-0" fill="#00FDFF"/>
      <circle r="3" cx="600" cy="-2" fill="#FFC300"/>
      <circle r="3" cx="603" cy="-0" fill="#00FDFF"/>
      <circle r="3" cx="603" cy="-2" fill="#FFC300"/>
      <circle r="3" cx="606" cy="-0" fill="#00FDFF"/>
      <circle r="3" cx="606" cy="-2" fill="#FFC300"/>
      <circle r="3" cx="609" cy="-0" fill="#00FDFF"/>
      <circle r="3" cx="609" cy="-2" fill="#FFC300"/>
      <circle r="3" cx="612" cy="-0" fill="#00FDFF"/>
      <circle r="3" cx="612" cy="-2" fill="#FFC300"/>
      <circle r="3" cx="615" cy="-0" fill="#00FDFF"/>
      <circle r="3" cx="615" cy="-2" fill="#FFC300"/>
      <circle r="3" cx="618" cy="-0" fill="#00FDFF"/>
      <circle r="3" cx="618" cy="-2" fill="#FFC300"/>
      <circle r="3" cx="621" cy="-0" fill="#00FDFF"/>
      <circle r="3" cx="621" cy="-2" fill="#FFC300"/>
      <circle r="3" cx="624" cy="-0" fill="#00FDFF"/>
      <circle r="3" cx="624" cy="-2" fill="#FFC300"/>
      <circle r="3" cx="627" cy="-0" fill="#00FDFF"/>
      <circle r="3" cx="627" cy="-2" fill="#FFC300"/>
      <circle r="3" cx="630" cy="-0" fill="#00FDFF"/>
      <circle r="3" cx="630" cy="-2" fill="#FFC300"/>
      <circle r="3" cx="633" cy="-0" fill="#00FDFF"/>
      <circle r="3" cx="633" cy="-2" fill="#FFC300"/>
      <circle r="3" cx="636" cy="-0" fill="#00FDFF"/>
      <circle r="3" cx="636" cy="-2" fill="#FFC300"/>
      <circle r="3" cx="639" cy="-0" fill="#00FDFF"/>
      <circle r="3" cx="639" cy="-2" fill="#FFC300"/>
      <circle r="3" cx="642" cy="-0" fill="#00FDFF"/>
      <circle r="3" cx="642" cy="-2" fill="#FFC300"/>
      <circle r="3" cx="645" cy="-0" fill="#00FDFF"/>
      <circle r="3" cx="645" cy="-2" fill="#FFC300"/>
      <circle r="3" cx="648" cy="-0" fill="#00FDFF"/>
      <circle r="3" cx="648" cy="-2" fill="#FFC300"/>
      <circle r="3" cx="651" cy="-0" fill="#00FDFF"/>
      <circle r="3" cx="651" cy="-2" fill="#FFC300"/>
      <circle r="3" cx="654" cy="-0" fill="#00FDFF"/>
      <circle r="3" cx="654" cy="-2" fill="#FFC300"/>
      <circle r="3" cx="657" cy="-0" fill="#00FDFF"/>
      <circle r="3" cx="657" cy="-2" fill="#FFC300"/>
      <circle r="3" cx="660" cy="-0" fill="#00FDFF"/>
      <circle r="3" cx="660" cy="-2" fill="#FFC300"/>
      <circle r="3" cx="663" cy="-0" fill="#00FDFF"/>
      <circle r="3" cx="663" cy="-2" fill="#FFC300"/>
      <circle r="3" cx="666" cy="-0" fill="#00FDFF"/>
      <circle r="3" cx="666" cy="-2" fill="#FFC300"/>
      <circle r="3" cx="669" cy="-0" fill="#00FDFF"/>
      <circle r="3" cx="669" cy="-2" fill="#FFC300"/>
      <circle r="3" cx="672" cy="-0" fill="#00FDFF"/>
      <circle r="3" cx="672" cy="-2" fill="#FFC300"/>
      <circle r="3" cx="675" cy="-0" fill="#00FDFF"/>
      <circle r="3" cx="675" cy="-2" fill="#FFC300"/>
      <circle r="3" cx="678" cy="-0" fill="#00FDFF"/>
      <circle r="3" cx="678" cy="-2" fill="#FFC300"/>
      <circle r="3" cx="681" cy="-0" fill="#00FDFF"/>
      <circle r="3" cx="681" cy="-2" fill="#FFC300"/>
      <circle r="3" cx="684" cy="-0" fill="#00FDFF"/>
      <circle r="3" cx="684" cy="-2" fill="#FFC300"/>
      <circle r="3" cx="687" cy="-0" fill="#00FDFF"/>
      <circle r="3" cx="687" cy="-2" fill="#FFC300"/>
      <circle r="3" cx="690" cy="-0" fill="#00FDFF"/>
      <circle r="3" cx="690" cy="-2" fill="#FFC300"/>
      <circle r="3" cx="693" cy="-0" fill="#00FDFF"/>
      <circle r="3" cx="693" cy="-2" fill="#FFC300"/>
      <circle r="3" cx="696" cy="-0" fill="#00FDFF"/>
      <circle r="3" cx="696" cy="-2" fill="#FFC300"/>
      <circle r="3" cx="699" cy="-2" fill="#00FDFF"/>
      <circle r="3" cx="699" cy="-2" fill="#FFC300"/>
      <circle r="3" cx="702" cy="-2" fill="#00FDFF"/>
      <circle r="3" cx="702" cy="-2" fill="#FFC300"/>
      <circle r="3" cx="705" cy="-2" fill="#00FDFF"/>
      <circle r="3" cx="705" cy="-2" fill="#FFC300"/>
      <circle r="3" cx="708" cy="-2" fill="#00FDFF"/>
      <circle r="3" cx="708" cy="-2" fill="#FFC300"/>
      <circle r="3" cx="711" cy="-2" fill="#00FDFF"/>
      <circle r="3" cx="711" cy="-2" fill="#FFC300"/>
      <circle r="3" cx="714" cy="-2" fill="#00FDFF"/>
      <circle r="3" cx="714" cy="-2" fill="#FFC300"/>
      <circle r="3" cx="717" cy="-2" fill="#00FDFF"/>
      <circle r="3" cx="717" cy="-2" fill="#FFC300"/>
      <circle r="3" cx="720" cy="-2" fill="#00FDFF"/>
      <circle r="3" cx="720" cy="-2" fill="#FFC300"/>
      <circle r="3" cx="723" cy="-2" fill="#00FDFF"/>
      <circle r="3" cx="723" cy="-2" fill="#FFC300"/>
      <circle r="3" cx="726" cy="-2" fill="#00FDFF"/>
      <circle r="3" cx="726" cy="-2" fill="#FFC300"/>
      <circle r="3" cx="729" cy="-2" fill="#00FDFF"/>
      <circle r="3" cx="729" cy="-2" fill="#FFC300"/>
      <circle r="3" cx="732" cy="-2" fill="#00FDFF"/>
      <circle r="3" cx="732" cy="-2" fill="#FFC300"/>
      <circle r="3" cx="735" cy="-2" fill="#00FDFF"/>
      <circle r="3" cx="735" cy="-2" fill="#FFC300"/>
      <circle r="3" cx="738" cy="-2" fill="#00FDFF"/>
      <circle r="3" cx="738" cy="-2" fill="#FFC300"/>
      <circle r="3" cx="741" cy="-2" fill="#00FDFF"/>
      <circle r="3" cx="741" cy="-2" fill="#FFC300"/>
      <circle r="3" cx="744" cy="-2" fill="#00FDFF"/>
      <circle r="3" cx="744" cy="-2" fill="#FFC300"/>
      <circle r="3" cx="747" cy="-2" fill="#00FDFF"/>
      <circle r="3" cx="747" cy="-2" fill="#FFC300"/>
      <circle r="3" cx="750" cy="-2" fill="#00FDFF"/>
      <circle r="3" cx="750" cy="-2" fill="#FFC300"/>
      <circle r="3" cx="753" cy="-2" fill="#00FDFF"/>
      <circle r="3" cx="753" cy="-2" fill="#FFC300"/>
      <circle r="3" cx="756" cy="-2" fill="#00FDFF"/>
      <circle r="3" cx="756" cy="-2" fill="#FFC300"/>
      <circle r="3" cx="759" cy="-2" fill="#00FDFF"/>
      <circle r="3" cx="759" cy="-2" fill="#FFC300"/>
      <circle r="3" cx="762" cy="-2" fill="#00FDFF"/>
      <circle r="3" cx="762" cy="-2" fill="#FFC300"/>
      <circle r="3" cx="765" cy="-2" fill="#00FDFF"/>
      <circle r="3" cx="765" cy="-2" fill="#FFC300"/>
      <circle r="3" cx="768" cy="-2" fill="#00FDFF"/>
      <circle r="3" cx="768" cy="-2" fill="#FFC300"/>
      <circle r="3" cx="771" cy="-2" fill="#00FDFF"/>
      <circle r="3" cx="771" cy="-2" fill="#FFC300"/>
      <circle r="3" cx="774" cy="-2" fill="#00FDFF"/>
      <circle r="3" cx="774" cy="-2" fill="#FFC300"/>
      <circle r="3" cx="777" cy="-2" fill="#00FDFF"/>
      <circle r="3" cx="777" cy="-2" fill="#FFC300"/>
      <circle r="3" cx="780" cy="-2" fill="#00FDFF"/>
      <circle r="3" cx="780" cy="-2" fill="#FFC300"/>
      <circle r="3" cx="783" cy="-2" fill="#00FDFF"/>
      <circle r="3" cx="783" cy="-2" fill="#FFC300"/>
      <circle r="3" cx="786" cy="-2" fill="#00FDFF"/>
      <circle r="3" cx="786" cy="-2" fill="#FFC300"/>
      <circle r="3" cx="789" cy="-2" fill="#00FDFF"/>
      <circle r="3" cx="789" cy="-2" fill="#FFC300"/>
      <circle r="3" cx="792" cy="-2" fill="#00FDFF"/>
      <circle r="3" cx="792" cy="-2" fill="#FFC300"/>
      <circle r="3" cx="795" cy="-2" fill="#00FDFF"/>
      <circle r="3" cx="795" cy="-2" fill="#FFC300"/>
      <circle r="3" cx="798" cy="-2" fill="#00FDFF"/>
      <circle r="3" cx="798" cy="-2" fill="#FFC300"/>
      <circle r="3" cx="801" cy="-2" fill="#00FDFF"/>
      <circle r="3" cx="801" cy="-2" fill="#FFC300"/>
      <circle r="3" cx="804" cy="-2" fill="#00FDFF"/>
      <circle r="3" cx="804" cy="-2" fill="#FFC300"/>
      <circle r="3" cx="807" cy="-2" fill="#00FDFF"/>
      <circle r="3" cx="807" cy="-2" fill="#FFC300"/>
      <circle r="3" cx="810" cy="-2" fill="#00FDFF"/>
      <circle r="3" cx="810" cy="-2" fill="#FFC300"/>
      <circle r="3" cx="813" cy="-2" fill="#00FDFF"/>
      <circle r="3" cx="813" cy="-2" fill="#FFC300"/>
      <circle r="3" cx="816" cy="-2" fill="#00FDFF"/>
      <circle r="3" cx="816" cy="-2" fill="#FFC300"/>
      <circle r="3" cx="819" cy="-2" fill="#00FDFF"/>
      <circle r="3" cx="819" cy="-2" fill="#FFC300"/>
      <circle r="3" cx="822" cy="-2" fill="#00FDFF"/>
      <circle r="3" cx="822" cy="-2" fill="#FFC300"/>
      <circle r="3" cx="825" cy="-2" fill="#00FDFF"/>
      <circle r="3" cx="825" cy="-2" fill="#FFC300"/>
      <circle r="3" cx="828" cy="-2" fill="#00FDFF"/>
      <circle r="3" cx="828" cy="-2" fill="#FFC300"/>
      <circle r="3" cx="831" cy="-2" fill="#00FDFF"/>
      <circle r="3" cx="831" cy="-2" fill="#FFC300"/>
      <text x="837"
            y="-2"
            text-anchor="start"
            alignment-baseline="central"
            fill="#00FDFF">divine</text>
      <text x="837"
            y="-2"
            text-anchor="start"
            alignment-baseline="central"
            fill="#FFC300">earthly</text>
      <line x1="0" y1="0" x2="831" y2="0" stroke="black"/>
      <line x1="0" y1="0" x2="0" y2="-27" stroke="black"/>
      <text x="-50"
            y="-1"
            text-anchor="middle"
            font-size="larger"
            transform="rotate(-90 -50 -1)">Occurrences</text>
      <text x="834"
            y="-3"
            text-anchor="start"
            font-size="larger"
            alignment-baseline="baseline">Percentage
                    of Scene</text>
      <text x="415.5"
            y="-52"
            text-anchor="middle"
            font-size="larger"
            text-decoration="underline">OCCURRENCE OF DIVINE AND
                    EARTHLY TRAITS THROUGHOUT SCENE V.
                        AUERBACH'S CELLAR IN LEIPZIG</text>
   </g>
</svg>
