<?xml version="1.0" encoding="UTF-8"?>
<svg xmlns="http://www.w3.org/2000/svg">
   <g transform="translate(100, 159)">
      <line x1="-10" y1="-10" x2="0" y2="-10" stroke="black"/>
      <line x1="42" y1="-10" x2="42" y2="10" stroke="black"/>
      <line x1="0" y1="-10" x2="420" y2="-10" stroke="lightgrey"/>
      <text x="-15" y="-10" text-anchor="end" alignment-baseline="central">5</text>
      <text x="45" y="3" text-anchor="start" alignment-baseline="hanging">10%</text>
      <line x1="-10" y1="-20" x2="0" y2="-20" stroke="black"/>
      <line x1="84" y1="-10" x2="84" y2="10" stroke="black"/>
      <line x1="0" y1="-20" x2="420" y2="-20" stroke="lightgrey"/>
      <text x="-15" y="-20" text-anchor="end" alignment-baseline="central">10</text>
      <text x="87" y="3" text-anchor="start" alignment-baseline="hanging">20%</text>
      <line x1="-10" y1="-30" x2="0" y2="-30" stroke="black"/>
      <line x1="126" y1="-10" x2="126" y2="10" stroke="black"/>
      <line x1="0" y1="-30" x2="420" y2="-30" stroke="lightgrey"/>
      <text x="-15" y="-30" text-anchor="end" alignment-baseline="central">15</text>
      <text x="129" y="3" text-anchor="start" alignment-baseline="hanging">30%</text>
      <line x1="-10" y1="-40" x2="0" y2="-40" stroke="black"/>
      <line x1="168" y1="-10" x2="168" y2="10" stroke="black"/>
      <line x1="0" y1="-40" x2="420" y2="-40" stroke="lightgrey"/>
      <text x="-15" y="-40" text-anchor="end" alignment-baseline="central">20</text>
      <text x="171" y="3" text-anchor="start" alignment-baseline="hanging">40%</text>
      <line x1="-10" y1="-50" x2="0" y2="-50" stroke="black"/>
      <line x1="210" y1="-10" x2="210" y2="10" stroke="black"/>
      <line x1="0" y1="-50" x2="420" y2="-50" stroke="lightgrey"/>
      <text x="-15" y="-50" text-anchor="end" alignment-baseline="central">25</text>
      <text x="213" y="3" text-anchor="start" alignment-baseline="hanging">50%</text>
      <line x1="-10" y1="-60" x2="0" y2="-60" stroke="black"/>
      <line x1="252" y1="-10" x2="252" y2="10" stroke="black"/>
      <line x1="0" y1="-60" x2="420" y2="-60" stroke="lightgrey"/>
      <text x="-15" y="-60" text-anchor="end" alignment-baseline="central">30</text>
      <text x="255" y="3" text-anchor="start" alignment-baseline="hanging">60%</text>
      <line x1="-10" y1="-70" x2="0" y2="-70" stroke="black"/>
      <line x1="294" y1="-10" x2="294" y2="10" stroke="black"/>
      <line x1="0" y1="-70" x2="420" y2="-70" stroke="lightgrey"/>
      <text x="-15" y="-70" text-anchor="end" alignment-baseline="central">35</text>
      <text x="297" y="3" text-anchor="start" alignment-baseline="hanging">70%</text>
      <line x1="-10" y1="-80" x2="0" y2="-80" stroke="black"/>
      <line x1="336" y1="-10" x2="336" y2="10" stroke="black"/>
      <line x1="0" y1="-80" x2="420" y2="-80" stroke="lightgrey"/>
      <text x="-15" y="-80" text-anchor="end" alignment-baseline="central">40</text>
      <text x="339" y="3" text-anchor="start" alignment-baseline="hanging">80%</text>
      <line x1="-10" y1="-90" x2="0" y2="-90" stroke="black"/>
      <line x1="378" y1="-10" x2="378" y2="10" stroke="black"/>
      <line x1="0" y1="-90" x2="420" y2="-90" stroke="lightgrey"/>
      <text x="-15" y="-90" text-anchor="end" alignment-baseline="central">45</text>
      <text x="381" y="3" text-anchor="start" alignment-baseline="hanging">90%</text>
      <line x1="-10" y1="-100" x2="0" y2="-100" stroke="black"/>
      <line x1="420" y1="-10" x2="420" y2="10" stroke="black"/>
      <line x1="0" y1="-100" x2="420" y2="-100" stroke="lightgrey"/>
      <text x="-15" y="-100" text-anchor="end" alignment-baseline="central">50</text>
      <text x="423" y="3" text-anchor="start" alignment-baseline="hanging">100%</text>
      <line x1="-10" y1="0" x2="0" y2="0" stroke="black"/>
      <text x="-15" y="0" text-anchor="end" alignment-baseline="central">0</text>
      <circle r="3" cx="3" cy="-0" fill="#00FDFF"/>
      <circle r="3" cx="3" cy="-0" fill="#FFC300"/>
      <circle r="3" cx="6" cy="-0" fill="#00FDFF"/>
      <circle r="3" cx="6" cy="-0" fill="#FFC300"/>
      <circle r="3" cx="9" cy="-0" fill="#00FDFF"/>
      <circle r="3" cx="9" cy="-2" fill="#FFC300"/>
      <circle r="3" cx="12" cy="-0" fill="#00FDFF"/>
      <circle r="3" cx="12" cy="-2" fill="#FFC300"/>
      <circle r="3" cx="15" cy="-0" fill="#00FDFF"/>
      <circle r="3" cx="15" cy="-2" fill="#FFC300"/>
      <circle r="3" cx="18" cy="-0" fill="#00FDFF"/>
      <circle r="3" cx="18" cy="-2" fill="#FFC300"/>
      <circle r="3" cx="21" cy="-0" fill="#00FDFF"/>
      <circle r="3" cx="21" cy="-4" fill="#FFC300"/>
      <circle r="3" cx="24" cy="-0" fill="#00FDFF"/>
      <circle r="3" cx="24" cy="-6" fill="#FFC300"/>
      <circle r="3" cx="27" cy="-0" fill="#00FDFF"/>
      <circle r="3" cx="27" cy="-8" fill="#FFC300"/>
      <circle r="3" cx="30" cy="-0" fill="#00FDFF"/>
      <circle r="3" cx="30" cy="-8" fill="#FFC300"/>
      <circle r="3" cx="33" cy="-0" fill="#00FDFF"/>
      <circle r="3" cx="33" cy="-10" fill="#FFC300"/>
      <circle r="3" cx="36" cy="-0" fill="#00FDFF"/>
      <circle r="3" cx="36" cy="-10" fill="#FFC300"/>
      <circle r="3" cx="39" cy="-0" fill="#00FDFF"/>
      <circle r="3" cx="39" cy="-10" fill="#FFC300"/>
      <circle r="3" cx="42" cy="-2" fill="#00FDFF"/>
      <circle r="3" cx="42" cy="-10" fill="#FFC300"/>
      <circle r="3" cx="45" cy="-2" fill="#00FDFF"/>
      <circle r="3" cx="45" cy="-10" fill="#FFC300"/>
      <circle r="3" cx="48" cy="-2" fill="#00FDFF"/>
      <circle r="3" cx="48" cy="-10" fill="#FFC300"/>
      <circle r="3" cx="51" cy="-2" fill="#00FDFF"/>
      <circle r="3" cx="51" cy="-10" fill="#FFC300"/>
      <circle r="3" cx="54" cy="-2" fill="#00FDFF"/>
      <circle r="3" cx="54" cy="-12" fill="#FFC300"/>
      <circle r="3" cx="57" cy="-2" fill="#00FDFF"/>
      <circle r="3" cx="57" cy="-14" fill="#FFC300"/>
      <circle r="3" cx="60" cy="-2" fill="#00FDFF"/>
      <circle r="3" cx="60" cy="-16" fill="#FFC300"/>
      <circle r="3" cx="63" cy="-2" fill="#00FDFF"/>
      <circle r="3" cx="63" cy="-18" fill="#FFC300"/>
      <circle r="3" cx="66" cy="-2" fill="#00FDFF"/>
      <circle r="3" cx="66" cy="-20" fill="#FFC300"/>
      <circle r="3" cx="69" cy="-2" fill="#00FDFF"/>
      <circle r="3" cx="69" cy="-20" fill="#FFC300"/>
      <circle r="3" cx="72" cy="-2" fill="#00FDFF"/>
      <circle r="3" cx="72" cy="-22" fill="#FFC300"/>
      <circle r="3" cx="75" cy="-2" fill="#00FDFF"/>
      <circle r="3" cx="75" cy="-24" fill="#FFC300"/>
      <circle r="3" cx="78" cy="-2" fill="#00FDFF"/>
      <circle r="3" cx="78" cy="-26" fill="#FFC300"/>
      <circle r="3" cx="81" cy="-2" fill="#00FDFF"/>
      <circle r="3" cx="81" cy="-28" fill="#FFC300"/>
      <circle r="3" cx="84" cy="-4" fill="#00FDFF"/>
      <circle r="3" cx="84" cy="-28" fill="#FFC300"/>
      <circle r="3" cx="87" cy="-6" fill="#00FDFF"/>
      <circle r="3" cx="87" cy="-28" fill="#FFC300"/>
      <circle r="3" cx="90" cy="-8" fill="#00FDFF"/>
      <circle r="3" cx="90" cy="-28" fill="#FFC300"/>
      <circle r="3" cx="93" cy="-10" fill="#00FDFF"/>
      <circle r="3" cx="93" cy="-28" fill="#FFC300"/>
      <circle r="3" cx="96" cy="-12" fill="#00FDFF"/>
      <circle r="3" cx="96" cy="-28" fill="#FFC300"/>
      <circle r="3" cx="99" cy="-14" fill="#00FDFF"/>
      <circle r="3" cx="99" cy="-28" fill="#FFC300"/>
      <circle r="3" cx="102" cy="-16" fill="#00FDFF"/>
      <circle r="3" cx="102" cy="-28" fill="#FFC300"/>
      <circle r="3" cx="105" cy="-18" fill="#00FDFF"/>
      <circle r="3" cx="105" cy="-28" fill="#FFC300"/>
      <circle r="3" cx="108" cy="-20" fill="#00FDFF"/>
      <circle r="3" cx="108" cy="-28" fill="#FFC300"/>
      <circle r="3" cx="111" cy="-22" fill="#00FDFF"/>
      <circle r="3" cx="111" cy="-28" fill="#FFC300"/>
      <circle r="3" cx="114" cy="-24" fill="#00FDFF"/>
      <circle r="3" cx="114" cy="-28" fill="#FFC300"/>
      <circle r="3" cx="117" cy="-26" fill="#00FDFF"/>
      <circle r="3" cx="117" cy="-28" fill="#FFC300"/>
      <circle r="3" cx="120" cy="-28" fill="#00FDFF"/>
      <circle r="3" cx="120" cy="-28" fill="#FFC300"/>
      <circle r="3" cx="123" cy="-30" fill="#00FDFF"/>
      <circle r="3" cx="123" cy="-28" fill="#FFC300"/>
      <circle r="3" cx="126" cy="-32" fill="#00FDFF"/>
      <circle r="3" cx="126" cy="-28" fill="#FFC300"/>
      <circle r="3" cx="129" cy="-34" fill="#00FDFF"/>
      <circle r="3" cx="129" cy="-28" fill="#FFC300"/>
      <circle r="3" cx="132" cy="-34" fill="#00FDFF"/>
      <circle r="3" cx="132" cy="-30" fill="#FFC300"/>
      <circle r="3" cx="135" cy="-34" fill="#00FDFF"/>
      <circle r="3" cx="135" cy="-32" fill="#FFC300"/>
      <circle r="3" cx="138" cy="-34" fill="#00FDFF"/>
      <circle r="3" cx="138" cy="-34" fill="#FFC300"/>
      <circle r="3" cx="141" cy="-34" fill="#00FDFF"/>
      <circle r="3" cx="141" cy="-36" fill="#FFC300"/>
      <circle r="3" cx="144" cy="-34" fill="#00FDFF"/>
      <circle r="3" cx="144" cy="-38" fill="#FFC300"/>
      <circle r="3" cx="147" cy="-34" fill="#00FDFF"/>
      <circle r="3" cx="147" cy="-40" fill="#FFC300"/>
      <circle r="3" cx="150" cy="-34" fill="#00FDFF"/>
      <circle r="3" cx="150" cy="-42" fill="#FFC300"/>
      <circle r="3" cx="153" cy="-34" fill="#00FDFF"/>
      <circle r="3" cx="153" cy="-44" fill="#FFC300"/>
      <circle r="3" cx="156" cy="-34" fill="#00FDFF"/>
      <circle r="3" cx="156" cy="-44" fill="#FFC300"/>
      <circle r="3" cx="159" cy="-34" fill="#00FDFF"/>
      <circle r="3" cx="159" cy="-44" fill="#FFC300"/>
      <circle r="3" cx="162" cy="-34" fill="#00FDFF"/>
      <circle r="3" cx="162" cy="-44" fill="#FFC300"/>
      <circle r="3" cx="165" cy="-34" fill="#00FDFF"/>
      <circle r="3" cx="165" cy="-46" fill="#FFC300"/>
      <circle r="3" cx="168" cy="-34" fill="#00FDFF"/>
      <circle r="3" cx="168" cy="-48" fill="#FFC300"/>
      <circle r="3" cx="171" cy="-34" fill="#00FDFF"/>
      <circle r="3" cx="171" cy="-50" fill="#FFC300"/>
      <circle r="3" cx="174" cy="-34" fill="#00FDFF"/>
      <circle r="3" cx="174" cy="-52" fill="#FFC300"/>
      <circle r="3" cx="177" cy="-34" fill="#00FDFF"/>
      <circle r="3" cx="177" cy="-52" fill="#FFC300"/>
      <circle r="3" cx="180" cy="-34" fill="#00FDFF"/>
      <circle r="3" cx="180" cy="-52" fill="#FFC300"/>
      <circle r="3" cx="183" cy="-34" fill="#00FDFF"/>
      <circle r="3" cx="183" cy="-52" fill="#FFC300"/>
      <circle r="3" cx="186" cy="-34" fill="#00FDFF"/>
      <circle r="3" cx="186" cy="-54" fill="#FFC300"/>
      <circle r="3" cx="189" cy="-34" fill="#00FDFF"/>
      <circle r="3" cx="189" cy="-54" fill="#FFC300"/>
      <circle r="3" cx="192" cy="-34" fill="#00FDFF"/>
      <circle r="3" cx="192" cy="-54" fill="#FFC300"/>
      <circle r="3" cx="195" cy="-34" fill="#00FDFF"/>
      <circle r="3" cx="195" cy="-56" fill="#FFC300"/>
      <circle r="3" cx="198" cy="-34" fill="#00FDFF"/>
      <circle r="3" cx="198" cy="-56" fill="#FFC300"/>
      <circle r="3" cx="201" cy="-34" fill="#00FDFF"/>
      <circle r="3" cx="201" cy="-56" fill="#FFC300"/>
      <circle r="3" cx="204" cy="-34" fill="#00FDFF"/>
      <circle r="3" cx="204" cy="-56" fill="#FFC300"/>
      <circle r="3" cx="207" cy="-34" fill="#00FDFF"/>
      <circle r="3" cx="207" cy="-56" fill="#FFC300"/>
      <circle r="3" cx="210" cy="-34" fill="#00FDFF"/>
      <circle r="3" cx="210" cy="-56" fill="#FFC300"/>
      <circle r="3" cx="213" cy="-34" fill="#00FDFF"/>
      <circle r="3" cx="213" cy="-58" fill="#FFC300"/>
      <circle r="3" cx="216" cy="-34" fill="#00FDFF"/>
      <circle r="3" cx="216" cy="-58" fill="#FFC300"/>
      <circle r="3" cx="219" cy="-34" fill="#00FDFF"/>
      <circle r="3" cx="219" cy="-58" fill="#FFC300"/>
      <circle r="3" cx="222" cy="-34" fill="#00FDFF"/>
      <circle r="3" cx="222" cy="-58" fill="#FFC300"/>
      <circle r="3" cx="225" cy="-34" fill="#00FDFF"/>
      <circle r="3" cx="225" cy="-58" fill="#FFC300"/>
      <circle r="3" cx="228" cy="-34" fill="#00FDFF"/>
      <circle r="3" cx="228" cy="-58" fill="#FFC300"/>
      <circle r="3" cx="231" cy="-34" fill="#00FDFF"/>
      <circle r="3" cx="231" cy="-58" fill="#FFC300"/>
      <circle r="3" cx="234" cy="-34" fill="#00FDFF"/>
      <circle r="3" cx="234" cy="-60" fill="#FFC300"/>
      <circle r="3" cx="237" cy="-34" fill="#00FDFF"/>
      <circle r="3" cx="237" cy="-60" fill="#FFC300"/>
      <circle r="3" cx="240" cy="-34" fill="#00FDFF"/>
      <circle r="3" cx="240" cy="-60" fill="#FFC300"/>
      <circle r="3" cx="243" cy="-34" fill="#00FDFF"/>
      <circle r="3" cx="243" cy="-60" fill="#FFC300"/>
      <circle r="3" cx="246" cy="-34" fill="#00FDFF"/>
      <circle r="3" cx="246" cy="-60" fill="#FFC300"/>
      <circle r="3" cx="249" cy="-34" fill="#00FDFF"/>
      <circle r="3" cx="249" cy="-60" fill="#FFC300"/>
      <circle r="3" cx="252" cy="-34" fill="#00FDFF"/>
      <circle r="3" cx="252" cy="-60" fill="#FFC300"/>
      <circle r="3" cx="255" cy="-34" fill="#00FDFF"/>
      <circle r="3" cx="255" cy="-60" fill="#FFC300"/>
      <circle r="3" cx="258" cy="-34" fill="#00FDFF"/>
      <circle r="3" cx="258" cy="-60" fill="#FFC300"/>
      <circle r="3" cx="261" cy="-34" fill="#00FDFF"/>
      <circle r="3" cx="261" cy="-60" fill="#FFC300"/>
      <circle r="3" cx="264" cy="-34" fill="#00FDFF"/>
      <circle r="3" cx="264" cy="-60" fill="#FFC300"/>
      <circle r="3" cx="267" cy="-36" fill="#00FDFF"/>
      <circle r="3" cx="267" cy="-60" fill="#FFC300"/>
      <circle r="3" cx="270" cy="-36" fill="#00FDFF"/>
      <circle r="3" cx="270" cy="-60" fill="#FFC300"/>
      <circle r="3" cx="273" cy="-36" fill="#00FDFF"/>
      <circle r="3" cx="273" cy="-60" fill="#FFC300"/>
      <circle r="3" cx="276" cy="-36" fill="#00FDFF"/>
      <circle r="3" cx="276" cy="-60" fill="#FFC300"/>
      <circle r="3" cx="279" cy="-36" fill="#00FDFF"/>
      <circle r="3" cx="279" cy="-60" fill="#FFC300"/>
      <circle r="3" cx="282" cy="-36" fill="#00FDFF"/>
      <circle r="3" cx="282" cy="-60" fill="#FFC300"/>
      <circle r="3" cx="285" cy="-36" fill="#00FDFF"/>
      <circle r="3" cx="285" cy="-60" fill="#FFC300"/>
      <circle r="3" cx="288" cy="-36" fill="#00FDFF"/>
      <circle r="3" cx="288" cy="-62" fill="#FFC300"/>
      <circle r="3" cx="291" cy="-36" fill="#00FDFF"/>
      <circle r="3" cx="291" cy="-62" fill="#FFC300"/>
      <circle r="3" cx="294" cy="-36" fill="#00FDFF"/>
      <circle r="3" cx="294" cy="-64" fill="#FFC300"/>
      <circle r="3" cx="297" cy="-36" fill="#00FDFF"/>
      <circle r="3" cx="297" cy="-66" fill="#FFC300"/>
      <circle r="3" cx="300" cy="-36" fill="#00FDFF"/>
      <circle r="3" cx="300" cy="-68" fill="#FFC300"/>
      <circle r="3" cx="303" cy="-36" fill="#00FDFF"/>
      <circle r="3" cx="303" cy="-68" fill="#FFC300"/>
      <circle r="3" cx="306" cy="-36" fill="#00FDFF"/>
      <circle r="3" cx="306" cy="-68" fill="#FFC300"/>
      <circle r="3" cx="309" cy="-36" fill="#00FDFF"/>
      <circle r="3" cx="309" cy="-68" fill="#FFC300"/>
      <circle r="3" cx="312" cy="-36" fill="#00FDFF"/>
      <circle r="3" cx="312" cy="-68" fill="#FFC300"/>
      <circle r="3" cx="315" cy="-36" fill="#00FDFF"/>
      <circle r="3" cx="315" cy="-68" fill="#FFC300"/>
      <circle r="3" cx="318" cy="-36" fill="#00FDFF"/>
      <circle r="3" cx="318" cy="-70" fill="#FFC300"/>
      <circle r="3" cx="321" cy="-36" fill="#00FDFF"/>
      <circle r="3" cx="321" cy="-72" fill="#FFC300"/>
      <circle r="3" cx="324" cy="-36" fill="#00FDFF"/>
      <circle r="3" cx="324" cy="-74" fill="#FFC300"/>
      <circle r="3" cx="327" cy="-36" fill="#00FDFF"/>
      <circle r="3" cx="327" cy="-76" fill="#FFC300"/>
      <circle r="3" cx="330" cy="-36" fill="#00FDFF"/>
      <circle r="3" cx="330" cy="-76" fill="#FFC300"/>
      <circle r="3" cx="333" cy="-36" fill="#00FDFF"/>
      <circle r="3" cx="333" cy="-76" fill="#FFC300"/>
      <circle r="3" cx="336" cy="-36" fill="#00FDFF"/>
      <circle r="3" cx="336" cy="-78" fill="#FFC300"/>
      <circle r="3" cx="339" cy="-36" fill="#00FDFF"/>
      <circle r="3" cx="339" cy="-78" fill="#FFC300"/>
      <circle r="3" cx="342" cy="-36" fill="#00FDFF"/>
      <circle r="3" cx="342" cy="-78" fill="#FFC300"/>
      <circle r="3" cx="345" cy="-36" fill="#00FDFF"/>
      <circle r="3" cx="345" cy="-78" fill="#FFC300"/>
      <circle r="3" cx="348" cy="-36" fill="#00FDFF"/>
      <circle r="3" cx="348" cy="-78" fill="#FFC300"/>
      <circle r="3" cx="351" cy="-36" fill="#00FDFF"/>
      <circle r="3" cx="351" cy="-78" fill="#FFC300"/>
      <circle r="3" cx="354" cy="-36" fill="#00FDFF"/>
      <circle r="3" cx="354" cy="-80" fill="#FFC300"/>
      <circle r="3" cx="357" cy="-36" fill="#00FDFF"/>
      <circle r="3" cx="357" cy="-80" fill="#FFC300"/>
      <circle r="3" cx="360" cy="-36" fill="#00FDFF"/>
      <circle r="3" cx="360" cy="-80" fill="#FFC300"/>
      <circle r="3" cx="363" cy="-36" fill="#00FDFF"/>
      <circle r="3" cx="363" cy="-80" fill="#FFC300"/>
      <circle r="3" cx="366" cy="-36" fill="#00FDFF"/>
      <circle r="3" cx="366" cy="-80" fill="#FFC300"/>
      <circle r="3" cx="369" cy="-36" fill="#00FDFF"/>
      <circle r="3" cx="369" cy="-80" fill="#FFC300"/>
      <circle r="3" cx="372" cy="-36" fill="#00FDFF"/>
      <circle r="3" cx="372" cy="-80" fill="#FFC300"/>
      <circle r="3" cx="375" cy="-38" fill="#00FDFF"/>
      <circle r="3" cx="375" cy="-80" fill="#FFC300"/>
      <circle r="3" cx="378" cy="-40" fill="#00FDFF"/>
      <circle r="3" cx="378" cy="-80" fill="#FFC300"/>
      <circle r="3" cx="381" cy="-42" fill="#00FDFF"/>
      <circle r="3" cx="381" cy="-80" fill="#FFC300"/>
      <circle r="3" cx="384" cy="-44" fill="#00FDFF"/>
      <circle r="3" cx="384" cy="-80" fill="#FFC300"/>
      <circle r="3" cx="387" cy="-44" fill="#00FDFF"/>
      <circle r="3" cx="387" cy="-82" fill="#FFC300"/>
      <circle r="3" cx="390" cy="-44" fill="#00FDFF"/>
      <circle r="3" cx="390" cy="-84" fill="#FFC300"/>
      <circle r="3" cx="393" cy="-44" fill="#00FDFF"/>
      <circle r="3" cx="393" cy="-84" fill="#FFC300"/>
      <circle r="3" cx="396" cy="-44" fill="#00FDFF"/>
      <circle r="3" cx="396" cy="-84" fill="#FFC300"/>
      <circle r="3" cx="399" cy="-46" fill="#00FDFF"/>
      <circle r="3" cx="399" cy="-84" fill="#FFC300"/>
      <circle r="3" cx="402" cy="-46" fill="#00FDFF"/>
      <circle r="3" cx="402" cy="-84" fill="#FFC300"/>
      <circle r="3" cx="405" cy="-46" fill="#00FDFF"/>
      <circle r="3" cx="405" cy="-84" fill="#FFC300"/>
      <circle r="3" cx="408" cy="-46" fill="#00FDFF"/>
      <circle r="3" cx="408" cy="-84" fill="#FFC300"/>
      <circle r="3" cx="411" cy="-46" fill="#00FDFF"/>
      <circle r="3" cx="411" cy="-84" fill="#FFC300"/>
      <circle r="3" cx="414" cy="-46" fill="#00FDFF"/>
      <circle r="3" cx="414" cy="-84" fill="#FFC300"/>
      <circle r="3" cx="417" cy="-46" fill="#00FDFF"/>
      <circle r="3" cx="417" cy="-84" fill="#FFC300"/>
      <circle r="3" cx="420" cy="-48" fill="#00FDFF"/>
      <circle r="3" cx="420" cy="-84" fill="#FFC300"/>
      <text x="426"
            y="-48"
            text-anchor="start"
            alignment-baseline="central"
            fill="#00FDFF">divine</text>
      <text x="426"
            y="-84"
            text-anchor="start"
            alignment-baseline="central"
            fill="#FFC300">earthly</text>
      <line x1="0" y1="0" x2="420" y2="0" stroke="black"/>
      <line x1="0" y1="0" x2="0" y2="-109" stroke="black"/>
      <text x="-50"
            y="-42"
            text-anchor="middle"
            font-size="larger"
            transform="rotate(-90 -50 -42)">Occurrences</text>
      <text x="423"
            y="-3"
            text-anchor="start"
            font-size="larger"
            alignment-baseline="baseline">Percentage
                    of Scene</text>
      <text x="210"
            y="-134"
            text-anchor="middle"
            font-size="larger"
            text-decoration="underline">OCCURRENCE OF DIVINE AND
                    EARTHLY TRAITS THROUGHOUT SCENE XVI.
                        MARTHA'S GARDEN</text>
   </g>
</svg>
