<?xml version="1.0" encoding="UTF-8"?>
<svg xmlns="http://www.w3.org/2000/svg">
   <g transform="translate(100, 185)">
      <line x1="-10" y1="-12" x2="0" y2="-12" stroke="black"/>
      <line x1="48" y1="-10" x2="48" y2="10" stroke="black"/>
      <line x1="0" y1="-12" x2="480" y2="-12" stroke="lightgrey"/>
      <text x="-15" y="-12" text-anchor="end" alignment-baseline="central">6</text>
      <text x="51" y="3" text-anchor="start" alignment-baseline="hanging">10%</text>
      <line x1="-10" y1="-24" x2="0" y2="-24" stroke="black"/>
      <line x1="96" y1="-10" x2="96" y2="10" stroke="black"/>
      <line x1="0" y1="-24" x2="480" y2="-24" stroke="lightgrey"/>
      <text x="-15" y="-24" text-anchor="end" alignment-baseline="central">12</text>
      <text x="99" y="3" text-anchor="start" alignment-baseline="hanging">20%</text>
      <line x1="-10" y1="-36" x2="0" y2="-36" stroke="black"/>
      <line x1="144" y1="-10" x2="144" y2="10" stroke="black"/>
      <line x1="0" y1="-36" x2="480" y2="-36" stroke="lightgrey"/>
      <text x="-15" y="-36" text-anchor="end" alignment-baseline="central">18</text>
      <text x="147" y="3" text-anchor="start" alignment-baseline="hanging">30%</text>
      <line x1="-10" y1="-48" x2="0" y2="-48" stroke="black"/>
      <line x1="192" y1="-10" x2="192" y2="10" stroke="black"/>
      <line x1="0" y1="-48" x2="480" y2="-48" stroke="lightgrey"/>
      <text x="-15" y="-48" text-anchor="end" alignment-baseline="central">24</text>
      <text x="195" y="3" text-anchor="start" alignment-baseline="hanging">40%</text>
      <line x1="-10" y1="-60" x2="0" y2="-60" stroke="black"/>
      <line x1="240" y1="-10" x2="240" y2="10" stroke="black"/>
      <line x1="0" y1="-60" x2="480" y2="-60" stroke="lightgrey"/>
      <text x="-15" y="-60" text-anchor="end" alignment-baseline="central">30</text>
      <text x="243" y="3" text-anchor="start" alignment-baseline="hanging">50%</text>
      <line x1="-10" y1="-72" x2="0" y2="-72" stroke="black"/>
      <line x1="288" y1="-10" x2="288" y2="10" stroke="black"/>
      <line x1="0" y1="-72" x2="480" y2="-72" stroke="lightgrey"/>
      <text x="-15" y="-72" text-anchor="end" alignment-baseline="central">36</text>
      <text x="291" y="3" text-anchor="start" alignment-baseline="hanging">60%</text>
      <line x1="-10" y1="-84" x2="0" y2="-84" stroke="black"/>
      <line x1="336" y1="-10" x2="336" y2="10" stroke="black"/>
      <line x1="0" y1="-84" x2="480" y2="-84" stroke="lightgrey"/>
      <text x="-15" y="-84" text-anchor="end" alignment-baseline="central">42</text>
      <text x="339" y="3" text-anchor="start" alignment-baseline="hanging">70%</text>
      <line x1="-10" y1="-96" x2="0" y2="-96" stroke="black"/>
      <line x1="384" y1="-10" x2="384" y2="10" stroke="black"/>
      <line x1="0" y1="-96" x2="480" y2="-96" stroke="lightgrey"/>
      <text x="-15" y="-96" text-anchor="end" alignment-baseline="central">48</text>
      <text x="387" y="3" text-anchor="start" alignment-baseline="hanging">80%</text>
      <line x1="-10" y1="-108" x2="0" y2="-108" stroke="black"/>
      <line x1="432" y1="-10" x2="432" y2="10" stroke="black"/>
      <line x1="0" y1="-108" x2="480" y2="-108" stroke="lightgrey"/>
      <text x="-15" y="-108" text-anchor="end" alignment-baseline="central">54</text>
      <text x="435" y="3" text-anchor="start" alignment-baseline="hanging">90%</text>
      <line x1="-10" y1="-120" x2="0" y2="-120" stroke="black"/>
      <line x1="480" y1="-10" x2="480" y2="10" stroke="black"/>
      <line x1="0" y1="-120" x2="480" y2="-120" stroke="lightgrey"/>
      <text x="-15" y="-120" text-anchor="end" alignment-baseline="central">60</text>
      <text x="483" y="3" text-anchor="start" alignment-baseline="hanging">100%</text>
      <line x1="-10" y1="0" x2="0" y2="0" stroke="black"/>
      <text x="-15" y="0" text-anchor="end" alignment-baseline="central">0</text>
      <circle r="3" cx="3" cy="-0" fill="#00FDFF"/>
      <circle r="3" cx="3" cy="-0" fill="#FFC300"/>
      <circle r="3" cx="6" cy="-2" fill="#00FDFF"/>
      <circle r="3" cx="6" cy="-0" fill="#FFC300"/>
      <circle r="3" cx="9" cy="-4" fill="#00FDFF"/>
      <circle r="3" cx="9" cy="-0" fill="#FFC300"/>
      <circle r="3" cx="12" cy="-6" fill="#00FDFF"/>
      <circle r="3" cx="12" cy="-0" fill="#FFC300"/>
      <circle r="3" cx="15" cy="-6" fill="#00FDFF"/>
      <circle r="3" cx="15" cy="-2" fill="#FFC300"/>
      <circle r="3" cx="18" cy="-6" fill="#00FDFF"/>
      <circle r="3" cx="18" cy="-4" fill="#FFC300"/>
      <circle r="3" cx="21" cy="-6" fill="#00FDFF"/>
      <circle r="3" cx="21" cy="-6" fill="#FFC300"/>
      <circle r="3" cx="24" cy="-6" fill="#00FDFF"/>
      <circle r="3" cx="24" cy="-8" fill="#FFC300"/>
      <circle r="3" cx="27" cy="-6" fill="#00FDFF"/>
      <circle r="3" cx="27" cy="-10" fill="#FFC300"/>
      <circle r="3" cx="30" cy="-8" fill="#00FDFF"/>
      <circle r="3" cx="30" cy="-10" fill="#FFC300"/>
      <circle r="3" cx="33" cy="-10" fill="#00FDFF"/>
      <circle r="3" cx="33" cy="-10" fill="#FFC300"/>
      <circle r="3" cx="36" cy="-12" fill="#00FDFF"/>
      <circle r="3" cx="36" cy="-10" fill="#FFC300"/>
      <circle r="3" cx="39" cy="-14" fill="#00FDFF"/>
      <circle r="3" cx="39" cy="-10" fill="#FFC300"/>
      <circle r="3" cx="42" cy="-16" fill="#00FDFF"/>
      <circle r="3" cx="42" cy="-10" fill="#FFC300"/>
      <circle r="3" cx="45" cy="-18" fill="#00FDFF"/>
      <circle r="3" cx="45" cy="-10" fill="#FFC300"/>
      <circle r="3" cx="48" cy="-20" fill="#00FDFF"/>
      <circle r="3" cx="48" cy="-10" fill="#FFC300"/>
      <circle r="3" cx="51" cy="-22" fill="#00FDFF"/>
      <circle r="3" cx="51" cy="-10" fill="#FFC300"/>
      <circle r="3" cx="54" cy="-24" fill="#00FDFF"/>
      <circle r="3" cx="54" cy="-10" fill="#FFC300"/>
      <circle r="3" cx="57" cy="-26" fill="#00FDFF"/>
      <circle r="3" cx="57" cy="-10" fill="#FFC300"/>
      <circle r="3" cx="60" cy="-28" fill="#00FDFF"/>
      <circle r="3" cx="60" cy="-10" fill="#FFC300"/>
      <circle r="3" cx="63" cy="-30" fill="#00FDFF"/>
      <circle r="3" cx="63" cy="-10" fill="#FFC300"/>
      <circle r="3" cx="66" cy="-32" fill="#00FDFF"/>
      <circle r="3" cx="66" cy="-10" fill="#FFC300"/>
      <circle r="3" cx="69" cy="-34" fill="#00FDFF"/>
      <circle r="3" cx="69" cy="-10" fill="#FFC300"/>
      <circle r="3" cx="72" cy="-36" fill="#00FDFF"/>
      <circle r="3" cx="72" cy="-10" fill="#FFC300"/>
      <circle r="3" cx="75" cy="-38" fill="#00FDFF"/>
      <circle r="3" cx="75" cy="-10" fill="#FFC300"/>
      <circle r="3" cx="78" cy="-40" fill="#00FDFF"/>
      <circle r="3" cx="78" cy="-10" fill="#FFC300"/>
      <circle r="3" cx="81" cy="-42" fill="#00FDFF"/>
      <circle r="3" cx="81" cy="-10" fill="#FFC300"/>
      <circle r="3" cx="84" cy="-44" fill="#00FDFF"/>
      <circle r="3" cx="84" cy="-10" fill="#FFC300"/>
      <circle r="3" cx="87" cy="-46" fill="#00FDFF"/>
      <circle r="3" cx="87" cy="-10" fill="#FFC300"/>
      <circle r="3" cx="90" cy="-48" fill="#00FDFF"/>
      <circle r="3" cx="90" cy="-10" fill="#FFC300"/>
      <circle r="3" cx="93" cy="-50" fill="#00FDFF"/>
      <circle r="3" cx="93" cy="-10" fill="#FFC300"/>
      <circle r="3" cx="96" cy="-50" fill="#00FDFF"/>
      <circle r="3" cx="96" cy="-12" fill="#FFC300"/>
      <circle r="3" cx="99" cy="-50" fill="#00FDFF"/>
      <circle r="3" cx="99" cy="-14" fill="#FFC300"/>
      <circle r="3" cx="102" cy="-50" fill="#00FDFF"/>
      <circle r="3" cx="102" cy="-16" fill="#FFC300"/>
      <circle r="3" cx="105" cy="-50" fill="#00FDFF"/>
      <circle r="3" cx="105" cy="-18" fill="#FFC300"/>
      <circle r="3" cx="108" cy="-50" fill="#00FDFF"/>
      <circle r="3" cx="108" cy="-18" fill="#FFC300"/>
      <circle r="3" cx="111" cy="-50" fill="#00FDFF"/>
      <circle r="3" cx="111" cy="-18" fill="#FFC300"/>
      <circle r="3" cx="114" cy="-50" fill="#00FDFF"/>
      <circle r="3" cx="114" cy="-18" fill="#FFC300"/>
      <circle r="3" cx="117" cy="-50" fill="#00FDFF"/>
      <circle r="3" cx="117" cy="-18" fill="#FFC300"/>
      <circle r="3" cx="120" cy="-52" fill="#00FDFF"/>
      <circle r="3" cx="120" cy="-18" fill="#FFC300"/>
      <circle r="3" cx="123" cy="-54" fill="#00FDFF"/>
      <circle r="3" cx="123" cy="-18" fill="#FFC300"/>
      <circle r="3" cx="126" cy="-54" fill="#00FDFF"/>
      <circle r="3" cx="126" cy="-18" fill="#FFC300"/>
      <circle r="3" cx="129" cy="-54" fill="#00FDFF"/>
      <circle r="3" cx="129" cy="-18" fill="#FFC300"/>
      <circle r="3" cx="132" cy="-54" fill="#00FDFF"/>
      <circle r="3" cx="132" cy="-18" fill="#FFC300"/>
      <circle r="3" cx="135" cy="-54" fill="#00FDFF"/>
      <circle r="3" cx="135" cy="-18" fill="#FFC300"/>
      <circle r="3" cx="138" cy="-54" fill="#00FDFF"/>
      <circle r="3" cx="138" cy="-18" fill="#FFC300"/>
      <circle r="3" cx="141" cy="-54" fill="#00FDFF"/>
      <circle r="3" cx="141" cy="-18" fill="#FFC300"/>
      <circle r="3" cx="144" cy="-54" fill="#00FDFF"/>
      <circle r="3" cx="144" cy="-18" fill="#FFC300"/>
      <circle r="3" cx="147" cy="-56" fill="#00FDFF"/>
      <circle r="3" cx="147" cy="-18" fill="#FFC300"/>
      <circle r="3" cx="150" cy="-58" fill="#00FDFF"/>
      <circle r="3" cx="150" cy="-18" fill="#FFC300"/>
      <circle r="3" cx="153" cy="-58" fill="#00FDFF"/>
      <circle r="3" cx="153" cy="-18" fill="#FFC300"/>
      <circle r="3" cx="156" cy="-58" fill="#00FDFF"/>
      <circle r="3" cx="156" cy="-18" fill="#FFC300"/>
      <circle r="3" cx="159" cy="-58" fill="#00FDFF"/>
      <circle r="3" cx="159" cy="-18" fill="#FFC300"/>
      <circle r="3" cx="162" cy="-58" fill="#00FDFF"/>
      <circle r="3" cx="162" cy="-18" fill="#FFC300"/>
      <circle r="3" cx="165" cy="-58" fill="#00FDFF"/>
      <circle r="3" cx="165" cy="-18" fill="#FFC300"/>
      <circle r="3" cx="168" cy="-58" fill="#00FDFF"/>
      <circle r="3" cx="168" cy="-18" fill="#FFC300"/>
      <circle r="3" cx="171" cy="-58" fill="#00FDFF"/>
      <circle r="3" cx="171" cy="-18" fill="#FFC300"/>
      <circle r="3" cx="174" cy="-58" fill="#00FDFF"/>
      <circle r="3" cx="174" cy="-18" fill="#FFC300"/>
      <circle r="3" cx="177" cy="-58" fill="#00FDFF"/>
      <circle r="3" cx="177" cy="-18" fill="#FFC300"/>
      <circle r="3" cx="180" cy="-58" fill="#00FDFF"/>
      <circle r="3" cx="180" cy="-18" fill="#FFC300"/>
      <circle r="3" cx="183" cy="-58" fill="#00FDFF"/>
      <circle r="3" cx="183" cy="-18" fill="#FFC300"/>
      <circle r="3" cx="186" cy="-58" fill="#00FDFF"/>
      <circle r="3" cx="186" cy="-18" fill="#FFC300"/>
      <circle r="3" cx="189" cy="-60" fill="#00FDFF"/>
      <circle r="3" cx="189" cy="-18" fill="#FFC300"/>
      <circle r="3" cx="192" cy="-62" fill="#00FDFF"/>
      <circle r="3" cx="192" cy="-18" fill="#FFC300"/>
      <circle r="3" cx="195" cy="-64" fill="#00FDFF"/>
      <circle r="3" cx="195" cy="-18" fill="#FFC300"/>
      <circle r="3" cx="198" cy="-66" fill="#00FDFF"/>
      <circle r="3" cx="198" cy="-18" fill="#FFC300"/>
      <circle r="3" cx="201" cy="-66" fill="#00FDFF"/>
      <circle r="3" cx="201" cy="-18" fill="#FFC300"/>
      <circle r="3" cx="204" cy="-66" fill="#00FDFF"/>
      <circle r="3" cx="204" cy="-18" fill="#FFC300"/>
      <circle r="3" cx="207" cy="-66" fill="#00FDFF"/>
      <circle r="3" cx="207" cy="-18" fill="#FFC300"/>
      <circle r="3" cx="210" cy="-66" fill="#00FDFF"/>
      <circle r="3" cx="210" cy="-18" fill="#FFC300"/>
      <circle r="3" cx="213" cy="-66" fill="#00FDFF"/>
      <circle r="3" cx="213" cy="-18" fill="#FFC300"/>
      <circle r="3" cx="216" cy="-66" fill="#00FDFF"/>
      <circle r="3" cx="216" cy="-18" fill="#FFC300"/>
      <circle r="3" cx="219" cy="-66" fill="#00FDFF"/>
      <circle r="3" cx="219" cy="-18" fill="#FFC300"/>
      <circle r="3" cx="222" cy="-66" fill="#00FDFF"/>
      <circle r="3" cx="222" cy="-18" fill="#FFC300"/>
      <circle r="3" cx="225" cy="-66" fill="#00FDFF"/>
      <circle r="3" cx="225" cy="-18" fill="#FFC300"/>
      <circle r="3" cx="228" cy="-66" fill="#00FDFF"/>
      <circle r="3" cx="228" cy="-18" fill="#FFC300"/>
      <circle r="3" cx="231" cy="-66" fill="#00FDFF"/>
      <circle r="3" cx="231" cy="-18" fill="#FFC300"/>
      <circle r="3" cx="234" cy="-66" fill="#00FDFF"/>
      <circle r="3" cx="234" cy="-18" fill="#FFC300"/>
      <circle r="3" cx="237" cy="-68" fill="#00FDFF"/>
      <circle r="3" cx="237" cy="-18" fill="#FFC300"/>
      <circle r="3" cx="240" cy="-68" fill="#00FDFF"/>
      <circle r="3" cx="240" cy="-18" fill="#FFC300"/>
      <circle r="3" cx="243" cy="-68" fill="#00FDFF"/>
      <circle r="3" cx="243" cy="-18" fill="#FFC300"/>
      <circle r="3" cx="246" cy="-68" fill="#00FDFF"/>
      <circle r="3" cx="246" cy="-18" fill="#FFC300"/>
      <circle r="3" cx="249" cy="-68" fill="#00FDFF"/>
      <circle r="3" cx="249" cy="-18" fill="#FFC300"/>
      <circle r="3" cx="252" cy="-68" fill="#00FDFF"/>
      <circle r="3" cx="252" cy="-18" fill="#FFC300"/>
      <circle r="3" cx="255" cy="-68" fill="#00FDFF"/>
      <circle r="3" cx="255" cy="-18" fill="#FFC300"/>
      <circle r="3" cx="258" cy="-68" fill="#00FDFF"/>
      <circle r="3" cx="258" cy="-18" fill="#FFC300"/>
      <circle r="3" cx="261" cy="-68" fill="#00FDFF"/>
      <circle r="3" cx="261" cy="-18" fill="#FFC300"/>
      <circle r="3" cx="264" cy="-68" fill="#00FDFF"/>
      <circle r="3" cx="264" cy="-18" fill="#FFC300"/>
      <circle r="3" cx="267" cy="-68" fill="#00FDFF"/>
      <circle r="3" cx="267" cy="-18" fill="#FFC300"/>
      <circle r="3" cx="270" cy="-68" fill="#00FDFF"/>
      <circle r="3" cx="270" cy="-18" fill="#FFC300"/>
      <circle r="3" cx="273" cy="-68" fill="#00FDFF"/>
      <circle r="3" cx="273" cy="-18" fill="#FFC300"/>
      <circle r="3" cx="276" cy="-68" fill="#00FDFF"/>
      <circle r="3" cx="276" cy="-18" fill="#FFC300"/>
      <circle r="3" cx="279" cy="-68" fill="#00FDFF"/>
      <circle r="3" cx="279" cy="-18" fill="#FFC300"/>
      <circle r="3" cx="282" cy="-68" fill="#00FDFF"/>
      <circle r="3" cx="282" cy="-18" fill="#FFC300"/>
      <circle r="3" cx="285" cy="-68" fill="#00FDFF"/>
      <circle r="3" cx="285" cy="-18" fill="#FFC300"/>
      <circle r="3" cx="288" cy="-68" fill="#00FDFF"/>
      <circle r="3" cx="288" cy="-18" fill="#FFC300"/>
      <circle r="3" cx="291" cy="-68" fill="#00FDFF"/>
      <circle r="3" cx="291" cy="-18" fill="#FFC300"/>
      <circle r="3" cx="294" cy="-68" fill="#00FDFF"/>
      <circle r="3" cx="294" cy="-18" fill="#FFC300"/>
      <circle r="3" cx="297" cy="-68" fill="#00FDFF"/>
      <circle r="3" cx="297" cy="-18" fill="#FFC300"/>
      <circle r="3" cx="300" cy="-68" fill="#00FDFF"/>
      <circle r="3" cx="300" cy="-18" fill="#FFC300"/>
      <circle r="3" cx="303" cy="-68" fill="#00FDFF"/>
      <circle r="3" cx="303" cy="-18" fill="#FFC300"/>
      <circle r="3" cx="306" cy="-68" fill="#00FDFF"/>
      <circle r="3" cx="306" cy="-18" fill="#FFC300"/>
      <circle r="3" cx="309" cy="-68" fill="#00FDFF"/>
      <circle r="3" cx="309" cy="-18" fill="#FFC300"/>
      <circle r="3" cx="312" cy="-68" fill="#00FDFF"/>
      <circle r="3" cx="312" cy="-18" fill="#FFC300"/>
      <circle r="3" cx="315" cy="-68" fill="#00FDFF"/>
      <circle r="3" cx="315" cy="-18" fill="#FFC300"/>
      <circle r="3" cx="318" cy="-68" fill="#00FDFF"/>
      <circle r="3" cx="318" cy="-18" fill="#FFC300"/>
      <circle r="3" cx="321" cy="-68" fill="#00FDFF"/>
      <circle r="3" cx="321" cy="-18" fill="#FFC300"/>
      <circle r="3" cx="324" cy="-68" fill="#00FDFF"/>
      <circle r="3" cx="324" cy="-18" fill="#FFC300"/>
      <circle r="3" cx="327" cy="-68" fill="#00FDFF"/>
      <circle r="3" cx="327" cy="-18" fill="#FFC300"/>
      <circle r="3" cx="330" cy="-68" fill="#00FDFF"/>
      <circle r="3" cx="330" cy="-18" fill="#FFC300"/>
      <circle r="3" cx="333" cy="-70" fill="#00FDFF"/>
      <circle r="3" cx="333" cy="-18" fill="#FFC300"/>
      <circle r="3" cx="336" cy="-70" fill="#00FDFF"/>
      <circle r="3" cx="336" cy="-18" fill="#FFC300"/>
      <circle r="3" cx="339" cy="-72" fill="#00FDFF"/>
      <circle r="3" cx="339" cy="-18" fill="#FFC300"/>
      <circle r="3" cx="342" cy="-74" fill="#00FDFF"/>
      <circle r="3" cx="342" cy="-18" fill="#FFC300"/>
      <circle r="3" cx="345" cy="-76" fill="#00FDFF"/>
      <circle r="3" cx="345" cy="-18" fill="#FFC300"/>
      <circle r="3" cx="348" cy="-78" fill="#00FDFF"/>
      <circle r="3" cx="348" cy="-18" fill="#FFC300"/>
      <circle r="3" cx="351" cy="-78" fill="#00FDFF"/>
      <circle r="3" cx="351" cy="-18" fill="#FFC300"/>
      <circle r="3" cx="354" cy="-78" fill="#00FDFF"/>
      <circle r="3" cx="354" cy="-18" fill="#FFC300"/>
      <circle r="3" cx="357" cy="-78" fill="#00FDFF"/>
      <circle r="3" cx="357" cy="-20" fill="#FFC300"/>
      <circle r="3" cx="360" cy="-78" fill="#00FDFF"/>
      <circle r="3" cx="360" cy="-22" fill="#FFC300"/>
      <circle r="3" cx="363" cy="-78" fill="#00FDFF"/>
      <circle r="3" cx="363" cy="-24" fill="#FFC300"/>
      <circle r="3" cx="366" cy="-78" fill="#00FDFF"/>
      <circle r="3" cx="366" cy="-26" fill="#FFC300"/>
      <circle r="3" cx="369" cy="-78" fill="#00FDFF"/>
      <circle r="3" cx="369" cy="-26" fill="#FFC300"/>
      <circle r="3" cx="372" cy="-78" fill="#00FDFF"/>
      <circle r="3" cx="372" cy="-26" fill="#FFC300"/>
      <circle r="3" cx="375" cy="-80" fill="#00FDFF"/>
      <circle r="3" cx="375" cy="-26" fill="#FFC300"/>
      <circle r="3" cx="378" cy="-80" fill="#00FDFF"/>
      <circle r="3" cx="378" cy="-26" fill="#FFC300"/>
      <circle r="3" cx="381" cy="-80" fill="#00FDFF"/>
      <circle r="3" cx="381" cy="-26" fill="#FFC300"/>
      <circle r="3" cx="384" cy="-80" fill="#00FDFF"/>
      <circle r="3" cx="384" cy="-26" fill="#FFC300"/>
      <circle r="3" cx="387" cy="-80" fill="#00FDFF"/>
      <circle r="3" cx="387" cy="-26" fill="#FFC300"/>
      <circle r="3" cx="390" cy="-80" fill="#00FDFF"/>
      <circle r="3" cx="390" cy="-26" fill="#FFC300"/>
      <circle r="3" cx="393" cy="-80" fill="#00FDFF"/>
      <circle r="3" cx="393" cy="-26" fill="#FFC300"/>
      <circle r="3" cx="396" cy="-80" fill="#00FDFF"/>
      <circle r="3" cx="396" cy="-26" fill="#FFC300"/>
      <circle r="3" cx="399" cy="-82" fill="#00FDFF"/>
      <circle r="3" cx="399" cy="-26" fill="#FFC300"/>
      <circle r="3" cx="402" cy="-84" fill="#00FDFF"/>
      <circle r="3" cx="402" cy="-26" fill="#FFC300"/>
      <circle r="3" cx="405" cy="-86" fill="#00FDFF"/>
      <circle r="3" cx="405" cy="-26" fill="#FFC300"/>
      <circle r="3" cx="408" cy="-88" fill="#00FDFF"/>
      <circle r="3" cx="408" cy="-26" fill="#FFC300"/>
      <circle r="3" cx="411" cy="-90" fill="#00FDFF"/>
      <circle r="3" cx="411" cy="-26" fill="#FFC300"/>
      <circle r="3" cx="414" cy="-92" fill="#00FDFF"/>
      <circle r="3" cx="414" cy="-26" fill="#FFC300"/>
      <circle r="3" cx="417" cy="-94" fill="#00FDFF"/>
      <circle r="3" cx="417" cy="-26" fill="#FFC300"/>
      <circle r="3" cx="420" cy="-96" fill="#00FDFF"/>
      <circle r="3" cx="420" cy="-26" fill="#FFC300"/>
      <circle r="3" cx="423" cy="-98" fill="#00FDFF"/>
      <circle r="3" cx="423" cy="-26" fill="#FFC300"/>
      <circle r="3" cx="426" cy="-100" fill="#00FDFF"/>
      <circle r="3" cx="426" cy="-26" fill="#FFC300"/>
      <circle r="3" cx="429" cy="-102" fill="#00FDFF"/>
      <circle r="3" cx="429" cy="-26" fill="#FFC300"/>
      <circle r="3" cx="432" cy="-104" fill="#00FDFF"/>
      <circle r="3" cx="432" cy="-26" fill="#FFC300"/>
      <circle r="3" cx="435" cy="-106" fill="#00FDFF"/>
      <circle r="3" cx="435" cy="-26" fill="#FFC300"/>
      <circle r="3" cx="438" cy="-108" fill="#00FDFF"/>
      <circle r="3" cx="438" cy="-26" fill="#FFC300"/>
      <circle r="3" cx="441" cy="-110" fill="#00FDFF"/>
      <circle r="3" cx="441" cy="-26" fill="#FFC300"/>
      <circle r="3" cx="444" cy="-110" fill="#00FDFF"/>
      <circle r="3" cx="444" cy="-28" fill="#FFC300"/>
      <circle r="3" cx="447" cy="-110" fill="#00FDFF"/>
      <circle r="3" cx="447" cy="-30" fill="#FFC300"/>
      <circle r="3" cx="450" cy="-110" fill="#00FDFF"/>
      <circle r="3" cx="450" cy="-32" fill="#FFC300"/>
      <circle r="3" cx="453" cy="-110" fill="#00FDFF"/>
      <circle r="3" cx="453" cy="-34" fill="#FFC300"/>
      <circle r="3" cx="456" cy="-110" fill="#00FDFF"/>
      <circle r="3" cx="456" cy="-36" fill="#FFC300"/>
      <circle r="3" cx="459" cy="-110" fill="#00FDFF"/>
      <circle r="3" cx="459" cy="-38" fill="#FFC300"/>
      <circle r="3" cx="462" cy="-110" fill="#00FDFF"/>
      <circle r="3" cx="462" cy="-38" fill="#FFC300"/>
      <circle r="3" cx="465" cy="-110" fill="#00FDFF"/>
      <circle r="3" cx="465" cy="-38" fill="#FFC300"/>
      <circle r="3" cx="468" cy="-110" fill="#00FDFF"/>
      <circle r="3" cx="468" cy="-38" fill="#FFC300"/>
      <circle r="3" cx="471" cy="-110" fill="#00FDFF"/>
      <circle r="3" cx="471" cy="-38" fill="#FFC300"/>
      <circle r="3" cx="474" cy="-110" fill="#00FDFF"/>
      <circle r="3" cx="474" cy="-38" fill="#FFC300"/>
      <circle r="3" cx="477" cy="-110" fill="#00FDFF"/>
      <circle r="3" cx="477" cy="-38" fill="#FFC300"/>
      <circle r="3" cx="480" cy="-110" fill="#00FDFF"/>
      <circle r="3" cx="480" cy="-38" fill="#FFC300"/>
      <text x="486"
            y="-110"
            text-anchor="start"
            alignment-baseline="central"
            fill="#00FDFF">divine</text>
      <text x="486"
            y="-38"
            text-anchor="start"
            alignment-baseline="central"
            fill="#FFC300">earthly</text>
      <line x1="0" y1="0" x2="480" y2="0" stroke="black"/>
      <line x1="0" y1="0" x2="0" y2="-135" stroke="black"/>
      <text x="-50"
            y="-55"
            text-anchor="middle"
            font-size="larger"
            transform="rotate(-90 -50 -55)">Occurrences</text>
      <text x="483"
            y="-3"
            text-anchor="start"
            font-size="larger"
            alignment-baseline="baseline">Percentage
                    of Scene</text>
      <text x="240"
            y="-160"
            text-anchor="middle"
            font-size="larger"
            text-decoration="underline">OCCURRENCE OF DIVINE AND
                    EARTHLY TRAITS THROUGHOUT SCENE XIV.
                        FOREST AND CAVERN</text>
   </g>
</svg>
