<?xml version="1.0" encoding="UTF-8"?>
<svg xmlns="http://www.w3.org/2000/svg" viewBox="0 -70 818 280">
   <g transform="translate(100, 155)">
      <line x1="-10" y1="-20" x2="0" y2="-20" stroke="black"/>
      <line x1="64.80000000000001"
            y1="-10"
            x2="64.80000000000001"
            y2="10"
            stroke="black"/>
      <line x1="0" y1="-20" x2="648" y2="-20" stroke="lightgrey"/>
      <text x="-15" y="-20" text-anchor="end" alignment-baseline="central">4</text>
      <text x="63.80000000000001"
            y="3"
            text-anchor="end"
            alignment-baseline="hanging">10%</text>
      <line x1="-10" y1="-40" x2="0" y2="-40" stroke="black"/>
      <line x1="129.60000000000002"
            y1="-10"
            x2="129.60000000000002"
            y2="10"
            stroke="black"/>
      <line x1="0" y1="-40" x2="648" y2="-40" stroke="lightgrey"/>
      <text x="-15" y="-40" text-anchor="end" alignment-baseline="central">8</text>
      <text x="128.60000000000002"
            y="3"
            text-anchor="end"
            alignment-baseline="hanging">20%</text>
      <line x1="-10" y1="-60" x2="0" y2="-60" stroke="black"/>
      <line x1="194.39999999999998"
            y1="-10"
            x2="194.39999999999998"
            y2="10"
            stroke="black"/>
      <line x1="0" y1="-60" x2="648" y2="-60" stroke="lightgrey"/>
      <text x="-15" y="-60" text-anchor="end" alignment-baseline="central">12</text>
      <text x="193.39999999999998"
            y="3"
            text-anchor="end"
            alignment-baseline="hanging">30%</text>
      <line x1="-10" y1="-80" x2="0" y2="-80" stroke="black"/>
      <line x1="259.20000000000005"
            y1="-10"
            x2="259.20000000000005"
            y2="10"
            stroke="black"/>
      <line x1="0" y1="-80" x2="648" y2="-80" stroke="lightgrey"/>
      <text x="-15" y="-80" text-anchor="end" alignment-baseline="central">16</text>
      <text x="258.20000000000005"
            y="3"
            text-anchor="end"
            alignment-baseline="hanging">40%</text>
      <line x1="-10" y1="-100" x2="0" y2="-100" stroke="black"/>
      <line x1="324" y1="-10" x2="324" y2="10" stroke="black"/>
      <line x1="0" y1="-100" x2="648" y2="-100" stroke="lightgrey"/>
      <text x="-15" y="-100" text-anchor="end" alignment-baseline="central">20</text>
      <text x="323" y="3" text-anchor="end" alignment-baseline="hanging">50%</text>
      <line x1="-10" y1="-120" x2="0" y2="-120" stroke="black"/>
      <line x1="388.79999999999995"
            y1="-10"
            x2="388.79999999999995"
            y2="10"
            stroke="black"/>
      <line x1="0" y1="-120" x2="648" y2="-120" stroke="lightgrey"/>
      <text x="-15" y="-120" text-anchor="end" alignment-baseline="central">24</text>
      <text x="387.79999999999995"
            y="3"
            text-anchor="end"
            alignment-baseline="hanging">60%</text>
      <line x1="-10" y1="-140" x2="0" y2="-140" stroke="black"/>
      <line x1="453.59999999999997"
            y1="-10"
            x2="453.59999999999997"
            y2="10"
            stroke="black"/>
      <line x1="0" y1="-140" x2="648" y2="-140" stroke="lightgrey"/>
      <text x="-15" y="-140" text-anchor="end" alignment-baseline="central">28</text>
      <text x="452.59999999999997"
            y="3"
            text-anchor="end"
            alignment-baseline="hanging">70%</text>
      <line x1="-10" y1="-160" x2="0" y2="-160" stroke="black"/>
      <line x1="518.4000000000001"
            y1="-10"
            x2="518.4000000000001"
            y2="10"
            stroke="black"/>
      <line x1="0" y1="-160" x2="648" y2="-160" stroke="lightgrey"/>
      <text x="-15" y="-160" text-anchor="end" alignment-baseline="central">32</text>
      <text x="517.4000000000001"
            y="3"
            text-anchor="end"
            alignment-baseline="hanging">80%</text>
      <line x1="-10" y1="-180" x2="0" y2="-180" stroke="black"/>
      <line x1="583.2" y1="-10" x2="583.2" y2="10" stroke="black"/>
      <line x1="0" y1="-180" x2="648" y2="-180" stroke="lightgrey"/>
      <text x="-15" y="-180" text-anchor="end" alignment-baseline="central">36</text>
      <text x="582.2" y="3" text-anchor="end" alignment-baseline="hanging">90%</text>
      <line x1="-10" y1="-200" x2="0" y2="-200" stroke="black"/>
      <line x1="648" y1="-10" x2="648" y2="10" stroke="black"/>
      <line x1="0" y1="-200" x2="648" y2="-200" stroke="lightgrey"/>
      <text x="-15" y="-200" text-anchor="end" alignment-baseline="central">40</text>
      <text x="647" y="3" text-anchor="end" alignment-baseline="hanging">100%</text>
      <line x1="-10" y1="0" x2="0" y2="0" stroke="black"/>
      <text x="-15" y="0" text-anchor="end" alignment-baseline="central">0</text>
      <circle r="3" cx="3" cy="-0" fill="#00FDFF"/>
      <circle r="3" cx="3" cy="-0" fill="#FFC300"/>
      <circle r="3" cx="3" cy="-0" fill="magenta"/>
      <circle r="3" cx="6" cy="-5" fill="#00FDFF"/>
      <circle r="3" cx="6" cy="-0" fill="#FFC300"/>
      <circle r="3" cx="9" cy="-5" fill="#00FDFF"/>
      <circle r="3" cx="9" cy="-5" fill="#FFC300"/>
      <circle r="3" cx="9" cy="-5" fill="magenta"/>
      <circle r="3" cx="12" cy="-10" fill="#00FDFF"/>
      <circle r="3" cx="12" cy="-5" fill="#FFC300"/>
      <circle r="3" cx="15" cy="-15" fill="#00FDFF"/>
      <circle r="3" cx="15" cy="-5" fill="#FFC300"/>
      <circle r="3" cx="18" cy="-15" fill="#00FDFF"/>
      <circle r="3" cx="18" cy="-10" fill="#FFC300"/>
      <circle r="3" cx="21" cy="-15" fill="#00FDFF"/>
      <circle r="3" cx="21" cy="-15" fill="#FFC300"/>
      <circle r="3" cx="21" cy="-15" fill="magenta"/>
      <circle r="3" cx="24" cy="-15" fill="#00FDFF"/>
      <circle r="3" cx="24" cy="-20" fill="#FFC300"/>
      <circle r="3" cx="27" cy="-20" fill="#00FDFF"/>
      <circle r="3" cx="27" cy="-20" fill="#FFC300"/>
      <circle r="3" cx="27" cy="-20" fill="magenta"/>
      <circle r="3" cx="30" cy="-25" fill="#00FDFF"/>
      <circle r="3" cx="30" cy="-20" fill="#FFC300"/>
      <circle r="3" cx="33" cy="-30" fill="#00FDFF"/>
      <circle r="3" cx="33" cy="-20" fill="#FFC300"/>
      <circle r="3" cx="36" cy="-35" fill="#00FDFF"/>
      <circle r="3" cx="36" cy="-20" fill="#FFC300"/>
      <circle r="3" cx="39" cy="-40" fill="#00FDFF"/>
      <circle r="3" cx="39" cy="-20" fill="#FFC300"/>
      <circle r="3" cx="42" cy="-45" fill="#00FDFF"/>
      <circle r="3" cx="42" cy="-20" fill="#FFC300"/>
      <circle r="3" cx="45" cy="-50" fill="#00FDFF"/>
      <circle r="3" cx="45" cy="-20" fill="#FFC300"/>
      <circle r="3" cx="48" cy="-55" fill="#00FDFF"/>
      <circle r="3" cx="48" cy="-20" fill="#FFC300"/>
      <circle r="3" cx="51" cy="-60" fill="#00FDFF"/>
      <circle r="3" cx="51" cy="-20" fill="#FFC300"/>
      <circle r="3" cx="54" cy="-60" fill="#00FDFF"/>
      <circle r="3" cx="54" cy="-25" fill="#FFC300"/>
      <circle r="3" cx="57" cy="-60" fill="#00FDFF"/>
      <circle r="3" cx="57" cy="-30" fill="#FFC300"/>
      <circle r="3" cx="60" cy="-60" fill="#00FDFF"/>
      <circle r="3" cx="60" cy="-30" fill="#FFC300"/>
      <circle r="3" cx="63" cy="-65" fill="#00FDFF"/>
      <circle r="3" cx="63" cy="-30" fill="#FFC300"/>
      <circle r="3" cx="66" cy="-65" fill="#00FDFF"/>
      <circle r="3" cx="66" cy="-30" fill="#FFC300"/>
      <circle r="3" cx="69" cy="-70" fill="#00FDFF"/>
      <circle r="3" cx="69" cy="-30" fill="#FFC300"/>
      <circle r="3" cx="72" cy="-70" fill="#00FDFF"/>
      <circle r="3" cx="72" cy="-30" fill="#FFC300"/>
      <circle r="3" cx="75" cy="-70" fill="#00FDFF"/>
      <circle r="3" cx="75" cy="-30" fill="#FFC300"/>
      <circle r="3" cx="78" cy="-70" fill="#00FDFF"/>
      <circle r="3" cx="78" cy="-30" fill="#FFC300"/>
      <circle r="3" cx="81" cy="-70" fill="#00FDFF"/>
      <circle r="3" cx="81" cy="-30" fill="#FFC300"/>
      <circle r="3" cx="84" cy="-70" fill="#00FDFF"/>
      <circle r="3" cx="84" cy="-30" fill="#FFC300"/>
      <circle r="3" cx="87" cy="-70" fill="#00FDFF"/>
      <circle r="3" cx="87" cy="-30" fill="#FFC300"/>
      <circle r="3" cx="90" cy="-70" fill="#00FDFF"/>
      <circle r="3" cx="90" cy="-30" fill="#FFC300"/>
      <circle r="3" cx="93" cy="-70" fill="#00FDFF"/>
      <circle r="3" cx="93" cy="-30" fill="#FFC300"/>
      <circle r="3" cx="96" cy="-70" fill="#00FDFF"/>
      <circle r="3" cx="96" cy="-30" fill="#FFC300"/>
      <circle r="3" cx="99" cy="-70" fill="#00FDFF"/>
      <circle r="3" cx="99" cy="-30" fill="#FFC300"/>
      <circle r="3" cx="102" cy="-70" fill="#00FDFF"/>
      <circle r="3" cx="102" cy="-30" fill="#FFC300"/>
      <circle r="3" cx="105" cy="-70" fill="#00FDFF"/>
      <circle r="3" cx="105" cy="-30" fill="#FFC300"/>
      <circle r="3" cx="108" cy="-70" fill="#00FDFF"/>
      <circle r="3" cx="108" cy="-30" fill="#FFC300"/>
      <circle r="3" cx="111" cy="-70" fill="#00FDFF"/>
      <circle r="3" cx="111" cy="-30" fill="#FFC300"/>
      <circle r="3" cx="114" cy="-75" fill="#00FDFF"/>
      <circle r="3" cx="114" cy="-30" fill="#FFC300"/>
      <circle r="3" cx="117" cy="-75" fill="#00FDFF"/>
      <circle r="3" cx="117" cy="-30" fill="#FFC300"/>
      <circle r="3" cx="120" cy="-75" fill="#00FDFF"/>
      <circle r="3" cx="120" cy="-30" fill="#FFC300"/>
      <circle r="3" cx="123" cy="-75" fill="#00FDFF"/>
      <circle r="3" cx="123" cy="-30" fill="#FFC300"/>
      <circle r="3" cx="126" cy="-75" fill="#00FDFF"/>
      <circle r="3" cx="126" cy="-30" fill="#FFC300"/>
      <circle r="3" cx="129" cy="-75" fill="#00FDFF"/>
      <circle r="3" cx="129" cy="-30" fill="#FFC300"/>
      <circle r="3" cx="132" cy="-75" fill="#00FDFF"/>
      <circle r="3" cx="132" cy="-30" fill="#FFC300"/>
      <circle r="3" cx="135" cy="-75" fill="#00FDFF"/>
      <circle r="3" cx="135" cy="-30" fill="#FFC300"/>
      <circle r="3" cx="138" cy="-75" fill="#00FDFF"/>
      <circle r="3" cx="138" cy="-30" fill="#FFC300"/>
      <circle r="3" cx="141" cy="-75" fill="#00FDFF"/>
      <circle r="3" cx="141" cy="-30" fill="#FFC300"/>
      <circle r="3" cx="144" cy="-80" fill="#00FDFF"/>
      <circle r="3" cx="144" cy="-30" fill="#FFC300"/>
      <circle r="3" cx="147" cy="-85" fill="#00FDFF"/>
      <circle r="3" cx="147" cy="-30" fill="#FFC300"/>
      <circle r="3" cx="150" cy="-85" fill="#00FDFF"/>
      <circle r="3" cx="150" cy="-30" fill="#FFC300"/>
      <circle r="3" cx="153" cy="-85" fill="#00FDFF"/>
      <circle r="3" cx="153" cy="-30" fill="#FFC300"/>
      <circle r="3" cx="156" cy="-85" fill="#00FDFF"/>
      <circle r="3" cx="156" cy="-30" fill="#FFC300"/>
      <circle r="3" cx="159" cy="-85" fill="#00FDFF"/>
      <circle r="3" cx="159" cy="-30" fill="#FFC300"/>
      <circle r="3" cx="162" cy="-85" fill="#00FDFF"/>
      <circle r="3" cx="162" cy="-30" fill="#FFC300"/>
      <circle r="3" cx="165" cy="-85" fill="#00FDFF"/>
      <circle r="3" cx="165" cy="-30" fill="#FFC300"/>
      <circle r="3" cx="168" cy="-85" fill="#00FDFF"/>
      <circle r="3" cx="168" cy="-30" fill="#FFC300"/>
      <circle r="3" cx="171" cy="-85" fill="#00FDFF"/>
      <circle r="3" cx="171" cy="-30" fill="#FFC300"/>
      <circle r="3" cx="174" cy="-90" fill="#00FDFF"/>
      <circle r="3" cx="174" cy="-30" fill="#FFC300"/>
      <circle r="3" cx="177" cy="-90" fill="#00FDFF"/>
      <circle r="3" cx="177" cy="-30" fill="#FFC300"/>
      <circle r="3" cx="180" cy="-90" fill="#00FDFF"/>
      <circle r="3" cx="180" cy="-30" fill="#FFC300"/>
      <circle r="3" cx="183" cy="-90" fill="#00FDFF"/>
      <circle r="3" cx="183" cy="-30" fill="#FFC300"/>
      <circle r="3" cx="186" cy="-90" fill="#00FDFF"/>
      <circle r="3" cx="186" cy="-30" fill="#FFC300"/>
      <circle r="3" cx="189" cy="-90" fill="#00FDFF"/>
      <circle r="3" cx="189" cy="-30" fill="#FFC300"/>
      <circle r="3" cx="192" cy="-90" fill="#00FDFF"/>
      <circle r="3" cx="192" cy="-30" fill="#FFC300"/>
      <circle r="3" cx="195" cy="-90" fill="#00FDFF"/>
      <circle r="3" cx="195" cy="-30" fill="#FFC300"/>
      <circle r="3" cx="198" cy="-90" fill="#00FDFF"/>
      <circle r="3" cx="198" cy="-30" fill="#FFC300"/>
      <circle r="3" cx="201" cy="-90" fill="#00FDFF"/>
      <circle r="3" cx="201" cy="-30" fill="#FFC300"/>
      <circle r="3" cx="204" cy="-95" fill="#00FDFF"/>
      <circle r="3" cx="204" cy="-30" fill="#FFC300"/>
      <circle r="3" cx="207" cy="-95" fill="#00FDFF"/>
      <circle r="3" cx="207" cy="-30" fill="#FFC300"/>
      <circle r="3" cx="210" cy="-95" fill="#00FDFF"/>
      <circle r="3" cx="210" cy="-30" fill="#FFC300"/>
      <circle r="3" cx="213" cy="-95" fill="#00FDFF"/>
      <circle r="3" cx="213" cy="-30" fill="#FFC300"/>
      <circle r="3" cx="216" cy="-95" fill="#00FDFF"/>
      <circle r="3" cx="216" cy="-30" fill="#FFC300"/>
      <circle r="3" cx="219" cy="-95" fill="#00FDFF"/>
      <circle r="3" cx="219" cy="-30" fill="#FFC300"/>
      <circle r="3" cx="222" cy="-95" fill="#00FDFF"/>
      <circle r="3" cx="222" cy="-30" fill="#FFC300"/>
      <circle r="3" cx="225" cy="-95" fill="#00FDFF"/>
      <circle r="3" cx="225" cy="-30" fill="#FFC300"/>
      <circle r="3" cx="228" cy="-95" fill="#00FDFF"/>
      <circle r="3" cx="228" cy="-30" fill="#FFC300"/>
      <circle r="3" cx="231" cy="-95" fill="#00FDFF"/>
      <circle r="3" cx="231" cy="-30" fill="#FFC300"/>
      <circle r="3" cx="234" cy="-100" fill="#00FDFF"/>
      <circle r="3" cx="234" cy="-30" fill="#FFC300"/>
      <circle r="3" cx="237" cy="-100" fill="#00FDFF"/>
      <circle r="3" cx="237" cy="-30" fill="#FFC300"/>
      <circle r="3" cx="240" cy="-100" fill="#00FDFF"/>
      <circle r="3" cx="240" cy="-30" fill="#FFC300"/>
      <circle r="3" cx="243" cy="-105" fill="#00FDFF"/>
      <circle r="3" cx="243" cy="-30" fill="#FFC300"/>
      <circle r="3" cx="246" cy="-105" fill="#00FDFF"/>
      <circle r="3" cx="246" cy="-35" fill="#FFC300"/>
      <circle r="3" cx="249" cy="-105" fill="#00FDFF"/>
      <circle r="3" cx="249" cy="-40" fill="#FFC300"/>
      <circle r="3" cx="252" cy="-105" fill="#00FDFF"/>
      <circle r="3" cx="252" cy="-40" fill="#FFC300"/>
      <circle r="3" cx="255" cy="-105" fill="#00FDFF"/>
      <circle r="3" cx="255" cy="-40" fill="#FFC300"/>
      <circle r="3" cx="258" cy="-105" fill="#00FDFF"/>
      <circle r="3" cx="258" cy="-40" fill="#FFC300"/>
      <circle r="3" cx="261" cy="-105" fill="#00FDFF"/>
      <circle r="3" cx="261" cy="-40" fill="#FFC300"/>
      <circle r="3" cx="264" cy="-105" fill="#00FDFF"/>
      <circle r="3" cx="264" cy="-40" fill="#FFC300"/>
      <circle r="3" cx="267" cy="-105" fill="#00FDFF"/>
      <circle r="3" cx="267" cy="-40" fill="#FFC300"/>
      <circle r="3" cx="270" cy="-105" fill="#00FDFF"/>
      <circle r="3" cx="270" cy="-40" fill="#FFC300"/>
      <circle r="3" cx="273" cy="-105" fill="#00FDFF"/>
      <circle r="3" cx="273" cy="-40" fill="#FFC300"/>
      <circle r="3" cx="276" cy="-105" fill="#00FDFF"/>
      <circle r="3" cx="276" cy="-40" fill="#FFC300"/>
      <circle r="3" cx="279" cy="-105" fill="#00FDFF"/>
      <circle r="3" cx="279" cy="-40" fill="#FFC300"/>
      <circle r="3" cx="282" cy="-105" fill="#00FDFF"/>
      <circle r="3" cx="282" cy="-40" fill="#FFC300"/>
      <circle r="3" cx="285" cy="-105" fill="#00FDFF"/>
      <circle r="3" cx="285" cy="-40" fill="#FFC300"/>
      <circle r="3" cx="288" cy="-105" fill="#00FDFF"/>
      <circle r="3" cx="288" cy="-40" fill="#FFC300"/>
      <circle r="3" cx="291" cy="-105" fill="#00FDFF"/>
      <circle r="3" cx="291" cy="-40" fill="#FFC300"/>
      <circle r="3" cx="294" cy="-105" fill="#00FDFF"/>
      <circle r="3" cx="294" cy="-45" fill="#FFC300"/>
      <circle r="3" cx="297" cy="-105" fill="#00FDFF"/>
      <circle r="3" cx="297" cy="-50" fill="#FFC300"/>
      <circle r="3" cx="300" cy="-105" fill="#00FDFF"/>
      <circle r="3" cx="300" cy="-55" fill="#FFC300"/>
      <circle r="3" cx="303" cy="-105" fill="#00FDFF"/>
      <circle r="3" cx="303" cy="-55" fill="#FFC300"/>
      <circle r="3" cx="306" cy="-110" fill="#00FDFF"/>
      <circle r="3" cx="306" cy="-55" fill="#FFC300"/>
      <circle r="3" cx="309" cy="-110" fill="#00FDFF"/>
      <circle r="3" cx="309" cy="-55" fill="#FFC300"/>
      <circle r="3" cx="312" cy="-110" fill="#00FDFF"/>
      <circle r="3" cx="312" cy="-55" fill="#FFC300"/>
      <circle r="3" cx="315" cy="-110" fill="#00FDFF"/>
      <circle r="3" cx="315" cy="-55" fill="#FFC300"/>
      <circle r="3" cx="318" cy="-110" fill="#00FDFF"/>
      <circle r="3" cx="318" cy="-55" fill="#FFC300"/>
      <circle r="3" cx="321" cy="-115" fill="#00FDFF"/>
      <circle r="3" cx="321" cy="-55" fill="#FFC300"/>
      <circle r="3" cx="324" cy="-115" fill="#00FDFF"/>
      <circle r="3" cx="324" cy="-55" fill="#FFC300"/>
      <circle r="3" cx="327" cy="-115" fill="#00FDFF"/>
      <circle r="3" cx="327" cy="-55" fill="#FFC300"/>
      <circle r="3" cx="330" cy="-115" fill="#00FDFF"/>
      <circle r="3" cx="330" cy="-55" fill="#FFC300"/>
      <circle r="3" cx="333" cy="-115" fill="#00FDFF"/>
      <circle r="3" cx="333" cy="-55" fill="#FFC300"/>
      <circle r="3" cx="336" cy="-115" fill="#00FDFF"/>
      <circle r="3" cx="336" cy="-55" fill="#FFC300"/>
      <circle r="3" cx="339" cy="-115" fill="#00FDFF"/>
      <circle r="3" cx="339" cy="-55" fill="#FFC300"/>
      <circle r="3" cx="342" cy="-115" fill="#00FDFF"/>
      <circle r="3" cx="342" cy="-55" fill="#FFC300"/>
      <circle r="3" cx="345" cy="-115" fill="#00FDFF"/>
      <circle r="3" cx="345" cy="-55" fill="#FFC300"/>
      <circle r="3" cx="348" cy="-115" fill="#00FDFF"/>
      <circle r="3" cx="348" cy="-55" fill="#FFC300"/>
      <circle r="3" cx="351" cy="-115" fill="#00FDFF"/>
      <circle r="3" cx="351" cy="-55" fill="#FFC300"/>
      <circle r="3" cx="354" cy="-115" fill="#00FDFF"/>
      <circle r="3" cx="354" cy="-55" fill="#FFC300"/>
      <circle r="3" cx="357" cy="-115" fill="#00FDFF"/>
      <circle r="3" cx="357" cy="-60" fill="#FFC300"/>
      <circle r="3" cx="360" cy="-115" fill="#00FDFF"/>
      <circle r="3" cx="360" cy="-65" fill="#FFC300"/>
      <circle r="3" cx="363" cy="-115" fill="#00FDFF"/>
      <circle r="3" cx="363" cy="-65" fill="#FFC300"/>
      <circle r="3" cx="366" cy="-115" fill="#00FDFF"/>
      <circle r="3" cx="366" cy="-65" fill="#FFC300"/>
      <circle r="3" cx="369" cy="-115" fill="#00FDFF"/>
      <circle r="3" cx="369" cy="-65" fill="#FFC300"/>
      <circle r="3" cx="372" cy="-115" fill="#00FDFF"/>
      <circle r="3" cx="372" cy="-65" fill="#FFC300"/>
      <circle r="3" cx="375" cy="-115" fill="#00FDFF"/>
      <circle r="3" cx="375" cy="-65" fill="#FFC300"/>
      <circle r="3" cx="378" cy="-115" fill="#00FDFF"/>
      <circle r="3" cx="378" cy="-65" fill="#FFC300"/>
      <circle r="3" cx="381" cy="-115" fill="#00FDFF"/>
      <circle r="3" cx="381" cy="-65" fill="#FFC300"/>
      <circle r="3" cx="384" cy="-115" fill="#00FDFF"/>
      <circle r="3" cx="384" cy="-65" fill="#FFC300"/>
      <circle r="3" cx="387" cy="-115" fill="#00FDFF"/>
      <circle r="3" cx="387" cy="-65" fill="#FFC300"/>
      <circle r="3" cx="390" cy="-115" fill="#00FDFF"/>
      <circle r="3" cx="390" cy="-65" fill="#FFC300"/>
      <circle r="3" cx="393" cy="-115" fill="#00FDFF"/>
      <circle r="3" cx="393" cy="-65" fill="#FFC300"/>
      <circle r="3" cx="396" cy="-115" fill="#00FDFF"/>
      <circle r="3" cx="396" cy="-65" fill="#FFC300"/>
      <circle r="3" cx="399" cy="-115" fill="#00FDFF"/>
      <circle r="3" cx="399" cy="-65" fill="#FFC300"/>
      <circle r="3" cx="402" cy="-115" fill="#00FDFF"/>
      <circle r="3" cx="402" cy="-65" fill="#FFC300"/>
      <circle r="3" cx="405" cy="-115" fill="#00FDFF"/>
      <circle r="3" cx="405" cy="-65" fill="#FFC300"/>
      <circle r="3" cx="408" cy="-115" fill="#00FDFF"/>
      <circle r="3" cx="408" cy="-65" fill="#FFC300"/>
      <circle r="3" cx="411" cy="-120" fill="#00FDFF"/>
      <circle r="3" cx="411" cy="-65" fill="#FFC300"/>
      <circle r="3" cx="414" cy="-120" fill="#00FDFF"/>
      <circle r="3" cx="414" cy="-65" fill="#FFC300"/>
      <circle r="3" cx="417" cy="-125" fill="#00FDFF"/>
      <circle r="3" cx="417" cy="-65" fill="#FFC300"/>
      <circle r="3" cx="420" cy="-125" fill="#00FDFF"/>
      <circle r="3" cx="420" cy="-65" fill="#FFC300"/>
      <circle r="3" cx="423" cy="-125" fill="#00FDFF"/>
      <circle r="3" cx="423" cy="-65" fill="#FFC300"/>
      <circle r="3" cx="426" cy="-125" fill="#00FDFF"/>
      <circle r="3" cx="426" cy="-65" fill="#FFC300"/>
      <circle r="3" cx="429" cy="-125" fill="#00FDFF"/>
      <circle r="3" cx="429" cy="-65" fill="#FFC300"/>
      <circle r="3" cx="432" cy="-125" fill="#00FDFF"/>
      <circle r="3" cx="432" cy="-65" fill="#FFC300"/>
      <circle r="3" cx="435" cy="-130" fill="#00FDFF"/>
      <circle r="3" cx="435" cy="-65" fill="#FFC300"/>
      <circle r="3" cx="438" cy="-130" fill="#00FDFF"/>
      <circle r="3" cx="438" cy="-65" fill="#FFC300"/>
      <circle r="3" cx="441" cy="-130" fill="#00FDFF"/>
      <circle r="3" cx="441" cy="-65" fill="#FFC300"/>
      <circle r="3" cx="444" cy="-130" fill="#00FDFF"/>
      <circle r="3" cx="444" cy="-65" fill="#FFC300"/>
      <circle r="3" cx="447" cy="-130" fill="#00FDFF"/>
      <circle r="3" cx="447" cy="-65" fill="#FFC300"/>
      <circle r="3" cx="450" cy="-130" fill="#00FDFF"/>
      <circle r="3" cx="450" cy="-65" fill="#FFC300"/>
      <circle r="3" cx="453" cy="-130" fill="#00FDFF"/>
      <circle r="3" cx="453" cy="-65" fill="#FFC300"/>
      <circle r="3" cx="456" cy="-135" fill="#00FDFF"/>
      <circle r="3" cx="456" cy="-65" fill="#FFC300"/>
      <circle r="3" cx="459" cy="-135" fill="#00FDFF"/>
      <circle r="3" cx="459" cy="-65" fill="#FFC300"/>
      <circle r="3" cx="462" cy="-135" fill="#00FDFF"/>
      <circle r="3" cx="462" cy="-65" fill="#FFC300"/>
      <circle r="3" cx="465" cy="-135" fill="#00FDFF"/>
      <circle r="3" cx="465" cy="-65" fill="#FFC300"/>
      <circle r="3" cx="468" cy="-135" fill="#00FDFF"/>
      <circle r="3" cx="468" cy="-65" fill="#FFC300"/>
      <circle r="3" cx="471" cy="-135" fill="#00FDFF"/>
      <circle r="3" cx="471" cy="-65" fill="#FFC300"/>
      <circle r="3" cx="474" cy="-135" fill="#00FDFF"/>
      <circle r="3" cx="474" cy="-65" fill="#FFC300"/>
      <circle r="3" cx="477" cy="-135" fill="#00FDFF"/>
      <circle r="3" cx="477" cy="-65" fill="#FFC300"/>
      <circle r="3" cx="480" cy="-135" fill="#00FDFF"/>
      <circle r="3" cx="480" cy="-65" fill="#FFC300"/>
      <circle r="3" cx="483" cy="-135" fill="#00FDFF"/>
      <circle r="3" cx="483" cy="-65" fill="#FFC300"/>
      <circle r="3" cx="486" cy="-135" fill="#00FDFF"/>
      <circle r="3" cx="486" cy="-65" fill="#FFC300"/>
      <circle r="3" cx="489" cy="-135" fill="#00FDFF"/>
      <circle r="3" cx="489" cy="-65" fill="#FFC300"/>
      <circle r="3" cx="492" cy="-135" fill="#00FDFF"/>
      <circle r="3" cx="492" cy="-65" fill="#FFC300"/>
      <circle r="3" cx="495" cy="-140" fill="#00FDFF"/>
      <circle r="3" cx="495" cy="-65" fill="#FFC300"/>
      <circle r="3" cx="498" cy="-145" fill="#00FDFF"/>
      <circle r="3" cx="498" cy="-65" fill="#FFC300"/>
      <circle r="3" cx="501" cy="-145" fill="#00FDFF"/>
      <circle r="3" cx="501" cy="-65" fill="#FFC300"/>
      <circle r="3" cx="504" cy="-145" fill="#00FDFF"/>
      <circle r="3" cx="504" cy="-65" fill="#FFC300"/>
      <circle r="3" cx="507" cy="-145" fill="#00FDFF"/>
      <circle r="3" cx="507" cy="-65" fill="#FFC300"/>
      <circle r="3" cx="510" cy="-145" fill="#00FDFF"/>
      <circle r="3" cx="510" cy="-65" fill="#FFC300"/>
      <circle r="3" cx="513" cy="-145" fill="#00FDFF"/>
      <circle r="3" cx="513" cy="-65" fill="#FFC300"/>
      <circle r="3" cx="516" cy="-145" fill="#00FDFF"/>
      <circle r="3" cx="516" cy="-65" fill="#FFC300"/>
      <circle r="3" cx="519" cy="-145" fill="#00FDFF"/>
      <circle r="3" cx="519" cy="-65" fill="#FFC300"/>
      <circle r="3" cx="522" cy="-145" fill="#00FDFF"/>
      <circle r="3" cx="522" cy="-65" fill="#FFC300"/>
      <circle r="3" cx="525" cy="-145" fill="#00FDFF"/>
      <circle r="3" cx="525" cy="-65" fill="#FFC300"/>
      <circle r="3" cx="528" cy="-145" fill="#00FDFF"/>
      <circle r="3" cx="528" cy="-70" fill="#FFC300"/>
      <circle r="3" cx="531" cy="-145" fill="#00FDFF"/>
      <circle r="3" cx="531" cy="-75" fill="#FFC300"/>
      <circle r="3" cx="534" cy="-145" fill="#00FDFF"/>
      <circle r="3" cx="534" cy="-75" fill="#FFC300"/>
      <circle r="3" cx="537" cy="-145" fill="#00FDFF"/>
      <circle r="3" cx="537" cy="-75" fill="#FFC300"/>
      <circle r="3" cx="540" cy="-145" fill="#00FDFF"/>
      <circle r="3" cx="540" cy="-75" fill="#FFC300"/>
      <circle r="3" cx="543" cy="-150" fill="#00FDFF"/>
      <circle r="3" cx="543" cy="-75" fill="#FFC300"/>
      <circle r="3" cx="546" cy="-150" fill="#00FDFF"/>
      <circle r="3" cx="546" cy="-75" fill="#FFC300"/>
      <circle r="3" cx="549" cy="-150" fill="#00FDFF"/>
      <circle r="3" cx="549" cy="-75" fill="#FFC300"/>
      <circle r="3" cx="552" cy="-150" fill="#00FDFF"/>
      <circle r="3" cx="552" cy="-75" fill="#FFC300"/>
      <circle r="3" cx="555" cy="-150" fill="#00FDFF"/>
      <circle r="3" cx="555" cy="-75" fill="#FFC300"/>
      <circle r="3" cx="558" cy="-150" fill="#00FDFF"/>
      <circle r="3" cx="558" cy="-75" fill="#FFC300"/>
      <circle r="3" cx="561" cy="-150" fill="#00FDFF"/>
      <circle r="3" cx="561" cy="-75" fill="#FFC300"/>
      <circle r="3" cx="564" cy="-150" fill="#00FDFF"/>
      <circle r="3" cx="564" cy="-75" fill="#FFC300"/>
      <circle r="3" cx="567" cy="-150" fill="#00FDFF"/>
      <circle r="3" cx="567" cy="-75" fill="#FFC300"/>
      <circle r="3" cx="570" cy="-150" fill="#00FDFF"/>
      <circle r="3" cx="570" cy="-75" fill="#FFC300"/>
      <circle r="3" cx="573" cy="-150" fill="#00FDFF"/>
      <circle r="3" cx="573" cy="-75" fill="#FFC300"/>
      <circle r="3" cx="576" cy="-150" fill="#00FDFF"/>
      <circle r="3" cx="576" cy="-75" fill="#FFC300"/>
      <circle r="3" cx="579" cy="-150" fill="#00FDFF"/>
      <circle r="3" cx="579" cy="-75" fill="#FFC300"/>
      <circle r="3" cx="582" cy="-150" fill="#00FDFF"/>
      <circle r="3" cx="582" cy="-75" fill="#FFC300"/>
      <circle r="3" cx="585" cy="-150" fill="#00FDFF"/>
      <circle r="3" cx="585" cy="-75" fill="#FFC300"/>
      <circle r="3" cx="588" cy="-150" fill="#00FDFF"/>
      <circle r="3" cx="588" cy="-75" fill="#FFC300"/>
      <circle r="3" cx="591" cy="-150" fill="#00FDFF"/>
      <circle r="3" cx="591" cy="-75" fill="#FFC300"/>
      <circle r="3" cx="594" cy="-150" fill="#00FDFF"/>
      <circle r="3" cx="594" cy="-80" fill="#FFC300"/>
      <circle r="3" cx="597" cy="-150" fill="#00FDFF"/>
      <circle r="3" cx="597" cy="-80" fill="#FFC300"/>
      <circle r="3" cx="600" cy="-150" fill="#00FDFF"/>
      <circle r="3" cx="600" cy="-80" fill="#FFC300"/>
      <circle r="3" cx="603" cy="-150" fill="#00FDFF"/>
      <circle r="3" cx="603" cy="-80" fill="#FFC300"/>
      <circle r="3" cx="606" cy="-150" fill="#00FDFF"/>
      <circle r="3" cx="606" cy="-80" fill="#FFC300"/>
      <circle r="3" cx="609" cy="-150" fill="#00FDFF"/>
      <circle r="3" cx="609" cy="-80" fill="#FFC300"/>
      <circle r="3" cx="612" cy="-150" fill="#00FDFF"/>
      <circle r="3" cx="612" cy="-80" fill="#FFC300"/>
      <circle r="3" cx="615" cy="-150" fill="#00FDFF"/>
      <circle r="3" cx="615" cy="-80" fill="#FFC300"/>
      <circle r="3" cx="618" cy="-150" fill="#00FDFF"/>
      <circle r="3" cx="618" cy="-80" fill="#FFC300"/>
      <circle r="3" cx="621" cy="-155" fill="#00FDFF"/>
      <circle r="3" cx="621" cy="-80" fill="#FFC300"/>
      <circle r="3" cx="624" cy="-155" fill="#00FDFF"/>
      <circle r="3" cx="624" cy="-80" fill="#FFC300"/>
      <circle r="3" cx="627" cy="-155" fill="#00FDFF"/>
      <circle r="3" cx="627" cy="-80" fill="#FFC300"/>
      <circle r="3" cx="630" cy="-155" fill="#00FDFF"/>
      <circle r="3" cx="630" cy="-80" fill="#FFC300"/>
      <circle r="3" cx="633" cy="-155" fill="#00FDFF"/>
      <circle r="3" cx="633" cy="-80" fill="#FFC300"/>
      <circle r="3" cx="636" cy="-155" fill="#00FDFF"/>
      <circle r="3" cx="636" cy="-80" fill="#FFC300"/>
      <circle r="3" cx="639" cy="-155" fill="#00FDFF"/>
      <circle r="3" cx="639" cy="-80" fill="#FFC300"/>
      <circle r="3" cx="642" cy="-155" fill="#00FDFF"/>
      <circle r="3" cx="642" cy="-80" fill="#FFC300"/>
      <circle r="3" cx="645" cy="-155" fill="#00FDFF"/>
      <circle r="3" cx="645" cy="-80" fill="#FFC300"/>
      <circle r="3" cx="648" cy="-155" fill="#00FDFF"/>
      <circle r="3" cx="648" cy="-80" fill="#FFC300"/>
      <text x="651"
            y="-155"
            text-anchor="start"
            alignment-baseline="central"
            fill="#00FDFF">divine</text>
      <text x="651"
            y="-80"
            text-anchor="start"
            alignment-baseline="central"
            fill="#FFC300">earthly</text>
      <line x1="0" y1="0" x2="648" y2="0" stroke="black"/>
      <line x1="0" y1="0" x2="0" y2="-205" stroke="black"/>
      <text x="-50"
            y="-77.5"
            text-anchor="middle"
            font-size="larger"
            transform="rotate(-90 -50 -77.5)">Occurrences</text>
      <text x="324"
            y="50"
            text-anchor="middle"
            font-size="larger"
            alignment-baseline="baseline">Percentage of Scene</text>
      <text x="324"
            y="-210"
            text-anchor="middle"
            font-size="larger"
            text-decoration="underline">DIVINE AND EARTHLY TRAITS THROUGHOUT SCENE XXV</text>
   </g>
</svg>
