<?xml version="1.0" encoding="UTF-8"?>
<svg xmlns="http://www.w3.org/2000/svg" viewBox="0 -70 822 227">
   <g transform="translate(100, 102)">
      <line x1="-10" y1="-17" x2="0" y2="-17" stroke="black"/>
      <line x1="65.2" y1="-10" x2="65.2" y2="10" stroke="black"/>
      <line x1="0" y1="-17" x2="652" y2="-17" stroke="lightgrey"/>
      <text x="-15" y="-17" text-anchor="end" alignment-baseline="central">1</text>
      <text x="64.2" y="3" text-anchor="end" alignment-baseline="hanging">10%</text>
      <line x1="-10" y1="-34" x2="0" y2="-34" stroke="black"/>
      <line x1="130.4" y1="-10" x2="130.4" y2="10" stroke="black"/>
      <line x1="0" y1="-34" x2="652" y2="-34" stroke="lightgrey"/>
      <text x="-15" y="-34" text-anchor="end" alignment-baseline="central">2</text>
      <text x="129.4" y="3" text-anchor="end" alignment-baseline="hanging">20%</text>
      <line x1="-10" y1="-51" x2="0" y2="-51" stroke="black"/>
      <line x1="195.6" y1="-10" x2="195.6" y2="10" stroke="black"/>
      <line x1="0" y1="-51" x2="652" y2="-51" stroke="lightgrey"/>
      <text x="-15" y="-51" text-anchor="end" alignment-baseline="central">3</text>
      <text x="194.6" y="3" text-anchor="end" alignment-baseline="hanging">30%</text>
      <line x1="-10" y1="-68" x2="0" y2="-68" stroke="black"/>
      <line x1="260.8" y1="-10" x2="260.8" y2="10" stroke="black"/>
      <line x1="0" y1="-68" x2="652" y2="-68" stroke="lightgrey"/>
      <text x="-15" y="-68" text-anchor="end" alignment-baseline="central">4</text>
      <text x="259.8" y="3" text-anchor="end" alignment-baseline="hanging">40%</text>
      <line x1="-10" y1="-85" x2="0" y2="-85" stroke="black"/>
      <line x1="326" y1="-10" x2="326" y2="10" stroke="black"/>
      <line x1="0" y1="-85" x2="652" y2="-85" stroke="lightgrey"/>
      <text x="-15" y="-85" text-anchor="end" alignment-baseline="central">5</text>
      <text x="325" y="3" text-anchor="end" alignment-baseline="hanging">50%</text>
      <line x1="-10" y1="-102" x2="0" y2="-102" stroke="black"/>
      <line x1="391.2" y1="-10" x2="391.2" y2="10" stroke="black"/>
      <line x1="0" y1="-102" x2="652" y2="-102" stroke="lightgrey"/>
      <text x="-15" y="-102" text-anchor="end" alignment-baseline="central">6</text>
      <text x="390.2" y="3" text-anchor="end" alignment-baseline="hanging">60%</text>
      <line x1="-10" y1="-119" x2="0" y2="-119" stroke="black"/>
      <line x1="456.4" y1="-10" x2="456.4" y2="10" stroke="black"/>
      <line x1="0" y1="-119" x2="652" y2="-119" stroke="lightgrey"/>
      <text x="-15" y="-119" text-anchor="end" alignment-baseline="central">7</text>
      <text x="455.4" y="3" text-anchor="end" alignment-baseline="hanging">70%</text>
      <line x1="-10" y1="-136" x2="0" y2="-136" stroke="black"/>
      <line x1="521.6" y1="-10" x2="521.6" y2="10" stroke="black"/>
      <line x1="0" y1="-136" x2="652" y2="-136" stroke="lightgrey"/>
      <text x="-15" y="-136" text-anchor="end" alignment-baseline="central">8</text>
      <text x="520.6" y="3" text-anchor="end" alignment-baseline="hanging">80%</text>
      <line x1="-10" y1="0" x2="0" y2="0" stroke="black"/>
      <text x="-15" y="0" text-anchor="end" alignment-baseline="central">0</text>
      <circle r="3" cx="4" cy="-0" fill="#00FDFF"/>
      <circle r="3" cx="4" cy="-0" fill="#FFC300"/>
      <circle r="3" cx="4" cy="-0" fill="magenta"/>
      <circle r="3" cx="8" cy="-0" fill="#00FDFF"/>
      <circle r="3" cx="8" cy="-0" fill="#FFC300"/>
      <circle r="3" cx="8" cy="-0" fill="magenta"/>
      <circle r="3" cx="12" cy="-0" fill="#00FDFF"/>
      <circle r="3" cx="12" cy="-0" fill="#FFC300"/>
      <circle r="3" cx="12" cy="-0" fill="magenta"/>
      <circle r="3" cx="16" cy="-0" fill="#00FDFF"/>
      <circle r="3" cx="16" cy="-0" fill="#FFC300"/>
      <circle r="3" cx="16" cy="-0" fill="magenta"/>
      <circle r="3" cx="20" cy="-0" fill="#00FDFF"/>
      <circle r="3" cx="20" cy="-0" fill="#FFC300"/>
      <circle r="3" cx="20" cy="-0" fill="magenta"/>
      <circle r="3" cx="24" cy="-0" fill="#00FDFF"/>
      <circle r="3" cx="24" cy="-0" fill="#FFC300"/>
      <circle r="3" cx="24" cy="-0" fill="magenta"/>
      <circle r="3" cx="28" cy="-0" fill="#00FDFF"/>
      <circle r="3" cx="28" cy="-0" fill="#FFC300"/>
      <circle r="3" cx="28" cy="-0" fill="magenta"/>
      <circle r="3" cx="32" cy="-0" fill="#00FDFF"/>
      <circle r="3" cx="32" cy="-0" fill="#FFC300"/>
      <circle r="3" cx="32" cy="-0" fill="magenta"/>
      <circle r="3" cx="36" cy="-0" fill="#00FDFF"/>
      <circle r="3" cx="36" cy="-0" fill="#FFC300"/>
      <circle r="3" cx="36" cy="-0" fill="magenta"/>
      <circle r="3" cx="40" cy="-0" fill="#00FDFF"/>
      <circle r="3" cx="40" cy="-0" fill="#FFC300"/>
      <circle r="3" cx="40" cy="-0" fill="magenta"/>
      <circle r="3" cx="44" cy="-0" fill="#00FDFF"/>
      <circle r="3" cx="44" cy="-0" fill="#FFC300"/>
      <circle r="3" cx="44" cy="-0" fill="magenta"/>
      <circle r="3" cx="48" cy="-0" fill="#00FDFF"/>
      <circle r="3" cx="48" cy="-0" fill="#FFC300"/>
      <circle r="3" cx="48" cy="-0" fill="magenta"/>
      <circle r="3" cx="52" cy="-0" fill="#00FDFF"/>
      <circle r="3" cx="52" cy="-0" fill="#FFC300"/>
      <circle r="3" cx="52" cy="-0" fill="magenta"/>
      <circle r="3" cx="56" cy="-0" fill="#00FDFF"/>
      <circle r="3" cx="56" cy="-0" fill="#FFC300"/>
      <circle r="3" cx="56" cy="-0" fill="magenta"/>
      <circle r="3" cx="60" cy="-0" fill="#00FDFF"/>
      <circle r="3" cx="60" cy="-0" fill="#FFC300"/>
      <circle r="3" cx="60" cy="-0" fill="magenta"/>
      <circle r="3" cx="64" cy="-0" fill="#00FDFF"/>
      <circle r="3" cx="64" cy="-0" fill="#FFC300"/>
      <circle r="3" cx="64" cy="-0" fill="magenta"/>
      <circle r="3" cx="68" cy="-0" fill="#00FDFF"/>
      <circle r="3" cx="68" cy="-0" fill="#FFC300"/>
      <circle r="3" cx="68" cy="-0" fill="magenta"/>
      <circle r="3" cx="72" cy="-0" fill="#00FDFF"/>
      <circle r="3" cx="72" cy="-0" fill="#FFC300"/>
      <circle r="3" cx="72" cy="-0" fill="magenta"/>
      <circle r="3" cx="76" cy="-0" fill="#00FDFF"/>
      <circle r="3" cx="76" cy="-0" fill="#FFC300"/>
      <circle r="3" cx="76" cy="-0" fill="magenta"/>
      <circle r="3" cx="80" cy="-0" fill="#00FDFF"/>
      <circle r="3" cx="80" cy="-0" fill="#FFC300"/>
      <circle r="3" cx="80" cy="-0" fill="magenta"/>
      <circle r="3" cx="84" cy="-0" fill="#00FDFF"/>
      <circle r="3" cx="84" cy="-0" fill="#FFC300"/>
      <circle r="3" cx="84" cy="-0" fill="magenta"/>
      <circle r="3" cx="88" cy="-0" fill="#00FDFF"/>
      <circle r="3" cx="88" cy="-0" fill="#FFC300"/>
      <circle r="3" cx="88" cy="-0" fill="magenta"/>
      <circle r="3" cx="92" cy="-0" fill="#00FDFF"/>
      <circle r="3" cx="92" cy="-0" fill="#FFC300"/>
      <circle r="3" cx="92" cy="-0" fill="magenta"/>
      <circle r="3" cx="96" cy="-0" fill="#00FDFF"/>
      <circle r="3" cx="96" cy="-0" fill="#FFC300"/>
      <circle r="3" cx="96" cy="-0" fill="magenta"/>
      <circle r="3" cx="100" cy="-0" fill="#00FDFF"/>
      <circle r="3" cx="100" cy="-0" fill="#FFC300"/>
      <circle r="3" cx="100" cy="-0" fill="magenta"/>
      <circle r="3" cx="104" cy="-0" fill="#00FDFF"/>
      <circle r="3" cx="104" cy="-0" fill="#FFC300"/>
      <circle r="3" cx="104" cy="-0" fill="magenta"/>
      <circle r="3" cx="108" cy="-0" fill="#00FDFF"/>
      <circle r="3" cx="108" cy="-0" fill="#FFC300"/>
      <circle r="3" cx="108" cy="-0" fill="magenta"/>
      <circle r="3" cx="112" cy="-0" fill="#00FDFF"/>
      <circle r="3" cx="112" cy="-0" fill="#FFC300"/>
      <circle r="3" cx="112" cy="-0" fill="magenta"/>
      <circle r="3" cx="116" cy="-0" fill="#00FDFF"/>
      <circle r="3" cx="116" cy="-0" fill="#FFC300"/>
      <circle r="3" cx="116" cy="-0" fill="magenta"/>
      <circle r="3" cx="120" cy="-0" fill="#00FDFF"/>
      <circle r="3" cx="120" cy="-0" fill="#FFC300"/>
      <circle r="3" cx="120" cy="-0" fill="magenta"/>
      <circle r="3" cx="124" cy="-0" fill="#00FDFF"/>
      <circle r="3" cx="124" cy="-0" fill="#FFC300"/>
      <circle r="3" cx="124" cy="-0" fill="magenta"/>
      <circle r="3" cx="128" cy="-17" fill="#00FDFF"/>
      <circle r="3" cx="128" cy="-0" fill="#FFC300"/>
      <circle r="3" cx="132" cy="-34" fill="#00FDFF"/>
      <circle r="3" cx="132" cy="-0" fill="#FFC300"/>
      <circle r="3" cx="136" cy="-51" fill="#00FDFF"/>
      <circle r="3" cx="136" cy="-0" fill="#FFC300"/>
      <circle r="3" cx="140" cy="-68" fill="#00FDFF"/>
      <circle r="3" cx="140" cy="-0" fill="#FFC300"/>
      <circle r="3" cx="144" cy="-68" fill="#00FDFF"/>
      <circle r="3" cx="144" cy="-17" fill="#FFC300"/>
      <circle r="3" cx="148" cy="-68" fill="#00FDFF"/>
      <circle r="3" cx="148" cy="-17" fill="#FFC300"/>
      <circle r="3" cx="152" cy="-68" fill="#00FDFF"/>
      <circle r="3" cx="152" cy="-17" fill="#FFC300"/>
      <circle r="3" cx="156" cy="-68" fill="#00FDFF"/>
      <circle r="3" cx="156" cy="-17" fill="#FFC300"/>
      <circle r="3" cx="160" cy="-68" fill="#00FDFF"/>
      <circle r="3" cx="160" cy="-17" fill="#FFC300"/>
      <circle r="3" cx="164" cy="-68" fill="#00FDFF"/>
      <circle r="3" cx="164" cy="-17" fill="#FFC300"/>
      <circle r="3" cx="168" cy="-68" fill="#00FDFF"/>
      <circle r="3" cx="168" cy="-17" fill="#FFC300"/>
      <circle r="3" cx="172" cy="-68" fill="#00FDFF"/>
      <circle r="3" cx="172" cy="-17" fill="#FFC300"/>
      <circle r="3" cx="176" cy="-68" fill="#00FDFF"/>
      <circle r="3" cx="176" cy="-17" fill="#FFC300"/>
      <circle r="3" cx="180" cy="-68" fill="#00FDFF"/>
      <circle r="3" cx="180" cy="-17" fill="#FFC300"/>
      <circle r="3" cx="184" cy="-68" fill="#00FDFF"/>
      <circle r="3" cx="184" cy="-34" fill="#FFC300"/>
      <circle r="3" cx="188" cy="-68" fill="#00FDFF"/>
      <circle r="3" cx="188" cy="-51" fill="#FFC300"/>
      <circle r="3" cx="192" cy="-68" fill="#00FDFF"/>
      <circle r="3" cx="192" cy="-51" fill="#FFC300"/>
      <circle r="3" cx="196" cy="-68" fill="#00FDFF"/>
      <circle r="3" cx="196" cy="-51" fill="#FFC300"/>
      <circle r="3" cx="200" cy="-68" fill="#00FDFF"/>
      <circle r="3" cx="200" cy="-51" fill="#FFC300"/>
      <circle r="3" cx="204" cy="-68" fill="#00FDFF"/>
      <circle r="3" cx="204" cy="-51" fill="#FFC300"/>
      <circle r="3" cx="208" cy="-68" fill="#00FDFF"/>
      <circle r="3" cx="208" cy="-68" fill="#FFC300"/>
      <circle r="3" cx="208" cy="-68" fill="magenta"/>
      <circle r="3" cx="212" cy="-68" fill="#00FDFF"/>
      <circle r="3" cx="212" cy="-85" fill="#FFC300"/>
      <circle r="3" cx="216" cy="-68" fill="#00FDFF"/>
      <circle r="3" cx="216" cy="-85" fill="#FFC300"/>
      <circle r="3" cx="220" cy="-68" fill="#00FDFF"/>
      <circle r="3" cx="220" cy="-85" fill="#FFC300"/>
      <circle r="3" cx="224" cy="-85" fill="#00FDFF"/>
      <circle r="3" cx="224" cy="-85" fill="#FFC300"/>
      <circle r="3" cx="224" cy="-85" fill="magenta"/>
      <circle r="3" cx="228" cy="-102" fill="#00FDFF"/>
      <circle r="3" cx="228" cy="-85" fill="#FFC300"/>
      <circle r="3" cx="232" cy="-102" fill="#00FDFF"/>
      <circle r="3" cx="232" cy="-85" fill="#FFC300"/>
      <circle r="3" cx="236" cy="-102" fill="#00FDFF"/>
      <circle r="3" cx="236" cy="-85" fill="#FFC300"/>
      <circle r="3" cx="240" cy="-102" fill="#00FDFF"/>
      <circle r="3" cx="240" cy="-85" fill="#FFC300"/>
      <circle r="3" cx="244" cy="-102" fill="#00FDFF"/>
      <circle r="3" cx="244" cy="-85" fill="#FFC300"/>
      <circle r="3" cx="248" cy="-102" fill="#00FDFF"/>
      <circle r="3" cx="248" cy="-85" fill="#FFC300"/>
      <circle r="3" cx="252" cy="-102" fill="#00FDFF"/>
      <circle r="3" cx="252" cy="-85" fill="#FFC300"/>
      <circle r="3" cx="256" cy="-102" fill="#00FDFF"/>
      <circle r="3" cx="256" cy="-85" fill="#FFC300"/>
      <circle r="3" cx="260" cy="-102" fill="#00FDFF"/>
      <circle r="3" cx="260" cy="-85" fill="#FFC300"/>
      <circle r="3" cx="264" cy="-102" fill="#00FDFF"/>
      <circle r="3" cx="264" cy="-85" fill="#FFC300"/>
      <circle r="3" cx="268" cy="-102" fill="#00FDFF"/>
      <circle r="3" cx="268" cy="-85" fill="#FFC300"/>
      <circle r="3" cx="272" cy="-102" fill="#00FDFF"/>
      <circle r="3" cx="272" cy="-85" fill="#FFC300"/>
      <circle r="3" cx="276" cy="-102" fill="#00FDFF"/>
      <circle r="3" cx="276" cy="-85" fill="#FFC300"/>
      <circle r="3" cx="280" cy="-102" fill="#00FDFF"/>
      <circle r="3" cx="280" cy="-85" fill="#FFC300"/>
      <circle r="3" cx="284" cy="-102" fill="#00FDFF"/>
      <circle r="3" cx="284" cy="-85" fill="#FFC300"/>
      <circle r="3" cx="288" cy="-102" fill="#00FDFF"/>
      <circle r="3" cx="288" cy="-85" fill="#FFC300"/>
      <circle r="3" cx="292" cy="-102" fill="#00FDFF"/>
      <circle r="3" cx="292" cy="-85" fill="#FFC300"/>
      <circle r="3" cx="296" cy="-102" fill="#00FDFF"/>
      <circle r="3" cx="296" cy="-85" fill="#FFC300"/>
      <circle r="3" cx="300" cy="-102" fill="#00FDFF"/>
      <circle r="3" cx="300" cy="-85" fill="#FFC300"/>
      <circle r="3" cx="304" cy="-102" fill="#00FDFF"/>
      <circle r="3" cx="304" cy="-85" fill="#FFC300"/>
      <circle r="3" cx="308" cy="-102" fill="#00FDFF"/>
      <circle r="3" cx="308" cy="-85" fill="#FFC300"/>
      <circle r="3" cx="312" cy="-102" fill="#00FDFF"/>
      <circle r="3" cx="312" cy="-85" fill="#FFC300"/>
      <circle r="3" cx="316" cy="-102" fill="#00FDFF"/>
      <circle r="3" cx="316" cy="-85" fill="#FFC300"/>
      <circle r="3" cx="320" cy="-102" fill="#00FDFF"/>
      <circle r="3" cx="320" cy="-85" fill="#FFC300"/>
      <circle r="3" cx="324" cy="-102" fill="#00FDFF"/>
      <circle r="3" cx="324" cy="-85" fill="#FFC300"/>
      <circle r="3" cx="328" cy="-102" fill="#00FDFF"/>
      <circle r="3" cx="328" cy="-85" fill="#FFC300"/>
      <circle r="3" cx="332" cy="-102" fill="#00FDFF"/>
      <circle r="3" cx="332" cy="-85" fill="#FFC300"/>
      <circle r="3" cx="336" cy="-102" fill="#00FDFF"/>
      <circle r="3" cx="336" cy="-85" fill="#FFC300"/>
      <circle r="3" cx="340" cy="-102" fill="#00FDFF"/>
      <circle r="3" cx="340" cy="-85" fill="#FFC300"/>
      <circle r="3" cx="344" cy="-102" fill="#00FDFF"/>
      <circle r="3" cx="344" cy="-85" fill="#FFC300"/>
      <circle r="3" cx="348" cy="-102" fill="#00FDFF"/>
      <circle r="3" cx="348" cy="-85" fill="#FFC300"/>
      <circle r="3" cx="352" cy="-102" fill="#00FDFF"/>
      <circle r="3" cx="352" cy="-85" fill="#FFC300"/>
      <circle r="3" cx="356" cy="-102" fill="#00FDFF"/>
      <circle r="3" cx="356" cy="-85" fill="#FFC300"/>
      <circle r="3" cx="360" cy="-102" fill="#00FDFF"/>
      <circle r="3" cx="360" cy="-85" fill="#FFC300"/>
      <circle r="3" cx="364" cy="-102" fill="#00FDFF"/>
      <circle r="3" cx="364" cy="-85" fill="#FFC300"/>
      <circle r="3" cx="368" cy="-102" fill="#00FDFF"/>
      <circle r="3" cx="368" cy="-85" fill="#FFC300"/>
      <circle r="3" cx="372" cy="-102" fill="#00FDFF"/>
      <circle r="3" cx="372" cy="-85" fill="#FFC300"/>
      <circle r="3" cx="376" cy="-102" fill="#00FDFF"/>
      <circle r="3" cx="376" cy="-85" fill="#FFC300"/>
      <circle r="3" cx="380" cy="-102" fill="#00FDFF"/>
      <circle r="3" cx="380" cy="-85" fill="#FFC300"/>
      <circle r="3" cx="384" cy="-102" fill="#00FDFF"/>
      <circle r="3" cx="384" cy="-85" fill="#FFC300"/>
      <circle r="3" cx="388" cy="-102" fill="#00FDFF"/>
      <circle r="3" cx="388" cy="-85" fill="#FFC300"/>
      <circle r="3" cx="392" cy="-102" fill="#00FDFF"/>
      <circle r="3" cx="392" cy="-85" fill="#FFC300"/>
      <circle r="3" cx="396" cy="-102" fill="#00FDFF"/>
      <circle r="3" cx="396" cy="-85" fill="#FFC300"/>
      <circle r="3" cx="400" cy="-102" fill="#00FDFF"/>
      <circle r="3" cx="400" cy="-85" fill="#FFC300"/>
      <circle r="3" cx="404" cy="-102" fill="#00FDFF"/>
      <circle r="3" cx="404" cy="-85" fill="#FFC300"/>
      <circle r="3" cx="408" cy="-102" fill="#00FDFF"/>
      <circle r="3" cx="408" cy="-85" fill="#FFC300"/>
      <circle r="3" cx="412" cy="-102" fill="#00FDFF"/>
      <circle r="3" cx="412" cy="-85" fill="#FFC300"/>
      <circle r="3" cx="416" cy="-102" fill="#00FDFF"/>
      <circle r="3" cx="416" cy="-85" fill="#FFC300"/>
      <circle r="3" cx="420" cy="-102" fill="#00FDFF"/>
      <circle r="3" cx="420" cy="-85" fill="#FFC300"/>
      <circle r="3" cx="424" cy="-102" fill="#00FDFF"/>
      <circle r="3" cx="424" cy="-85" fill="#FFC300"/>
      <circle r="3" cx="428" cy="-102" fill="#00FDFF"/>
      <circle r="3" cx="428" cy="-85" fill="#FFC300"/>
      <circle r="3" cx="432" cy="-102" fill="#00FDFF"/>
      <circle r="3" cx="432" cy="-85" fill="#FFC300"/>
      <circle r="3" cx="436" cy="-102" fill="#00FDFF"/>
      <circle r="3" cx="436" cy="-85" fill="#FFC300"/>
      <circle r="3" cx="440" cy="-102" fill="#00FDFF"/>
      <circle r="3" cx="440" cy="-85" fill="#FFC300"/>
      <circle r="3" cx="444" cy="-102" fill="#00FDFF"/>
      <circle r="3" cx="444" cy="-85" fill="#FFC300"/>
      <circle r="3" cx="448" cy="-102" fill="#00FDFF"/>
      <circle r="3" cx="448" cy="-85" fill="#FFC300"/>
      <circle r="3" cx="452" cy="-102" fill="#00FDFF"/>
      <circle r="3" cx="452" cy="-85" fill="#FFC300"/>
      <circle r="3" cx="456" cy="-102" fill="#00FDFF"/>
      <circle r="3" cx="456" cy="-85" fill="#FFC300"/>
      <circle r="3" cx="460" cy="-102" fill="#00FDFF"/>
      <circle r="3" cx="460" cy="-85" fill="#FFC300"/>
      <circle r="3" cx="464" cy="-102" fill="#00FDFF"/>
      <circle r="3" cx="464" cy="-85" fill="#FFC300"/>
      <circle r="3" cx="468" cy="-102" fill="#00FDFF"/>
      <circle r="3" cx="468" cy="-85" fill="#FFC300"/>
      <circle r="3" cx="472" cy="-102" fill="#00FDFF"/>
      <circle r="3" cx="472" cy="-85" fill="#FFC300"/>
      <circle r="3" cx="476" cy="-102" fill="#00FDFF"/>
      <circle r="3" cx="476" cy="-85" fill="#FFC300"/>
      <circle r="3" cx="480" cy="-102" fill="#00FDFF"/>
      <circle r="3" cx="480" cy="-85" fill="#FFC300"/>
      <circle r="3" cx="484" cy="-102" fill="#00FDFF"/>
      <circle r="3" cx="484" cy="-85" fill="#FFC300"/>
      <circle r="3" cx="488" cy="-102" fill="#00FDFF"/>
      <circle r="3" cx="488" cy="-85" fill="#FFC300"/>
      <circle r="3" cx="492" cy="-102" fill="#00FDFF"/>
      <circle r="3" cx="492" cy="-85" fill="#FFC300"/>
      <circle r="3" cx="496" cy="-102" fill="#00FDFF"/>
      <circle r="3" cx="496" cy="-85" fill="#FFC300"/>
      <circle r="3" cx="500" cy="-102" fill="#00FDFF"/>
      <circle r="3" cx="500" cy="-85" fill="#FFC300"/>
      <circle r="3" cx="504" cy="-102" fill="#00FDFF"/>
      <circle r="3" cx="504" cy="-85" fill="#FFC300"/>
      <circle r="3" cx="508" cy="-102" fill="#00FDFF"/>
      <circle r="3" cx="508" cy="-85" fill="#FFC300"/>
      <circle r="3" cx="512" cy="-102" fill="#00FDFF"/>
      <circle r="3" cx="512" cy="-85" fill="#FFC300"/>
      <circle r="3" cx="516" cy="-102" fill="#00FDFF"/>
      <circle r="3" cx="516" cy="-85" fill="#FFC300"/>
      <circle r="3" cx="520" cy="-102" fill="#00FDFF"/>
      <circle r="3" cx="520" cy="-85" fill="#FFC300"/>
      <circle r="3" cx="524" cy="-102" fill="#00FDFF"/>
      <circle r="3" cx="524" cy="-85" fill="#FFC300"/>
      <circle r="3" cx="528" cy="-102" fill="#00FDFF"/>
      <circle r="3" cx="528" cy="-85" fill="#FFC300"/>
      <circle r="3" cx="532" cy="-102" fill="#00FDFF"/>
      <circle r="3" cx="532" cy="-85" fill="#FFC300"/>
      <circle r="3" cx="536" cy="-102" fill="#00FDFF"/>
      <circle r="3" cx="536" cy="-85" fill="#FFC300"/>
      <circle r="3" cx="540" cy="-102" fill="#00FDFF"/>
      <circle r="3" cx="540" cy="-85" fill="#FFC300"/>
      <circle r="3" cx="544" cy="-102" fill="#00FDFF"/>
      <circle r="3" cx="544" cy="-85" fill="#FFC300"/>
      <circle r="3" cx="548" cy="-102" fill="#00FDFF"/>
      <circle r="3" cx="548" cy="-85" fill="#FFC300"/>
      <circle r="3" cx="552" cy="-102" fill="#00FDFF"/>
      <circle r="3" cx="552" cy="-85" fill="#FFC300"/>
      <circle r="3" cx="556" cy="-102" fill="#00FDFF"/>
      <circle r="3" cx="556" cy="-85" fill="#FFC300"/>
      <circle r="3" cx="560" cy="-102" fill="#00FDFF"/>
      <circle r="3" cx="560" cy="-85" fill="#FFC300"/>
      <circle r="3" cx="564" cy="-102" fill="#00FDFF"/>
      <circle r="3" cx="564" cy="-85" fill="#FFC300"/>
      <circle r="3" cx="568" cy="-102" fill="#00FDFF"/>
      <circle r="3" cx="568" cy="-85" fill="#FFC300"/>
      <circle r="3" cx="572" cy="-102" fill="#00FDFF"/>
      <circle r="3" cx="572" cy="-85" fill="#FFC300"/>
      <circle r="3" cx="576" cy="-102" fill="#00FDFF"/>
      <circle r="3" cx="576" cy="-85" fill="#FFC300"/>
      <circle r="3" cx="580" cy="-102" fill="#00FDFF"/>
      <circle r="3" cx="580" cy="-85" fill="#FFC300"/>
      <circle r="3" cx="584" cy="-102" fill="#00FDFF"/>
      <circle r="3" cx="584" cy="-85" fill="#FFC300"/>
      <circle r="3" cx="588" cy="-102" fill="#00FDFF"/>
      <circle r="3" cx="588" cy="-85" fill="#FFC300"/>
      <circle r="3" cx="592" cy="-102" fill="#00FDFF"/>
      <circle r="3" cx="592" cy="-85" fill="#FFC300"/>
      <circle r="3" cx="596" cy="-102" fill="#00FDFF"/>
      <circle r="3" cx="596" cy="-85" fill="#FFC300"/>
      <circle r="3" cx="600" cy="-102" fill="#00FDFF"/>
      <circle r="3" cx="600" cy="-85" fill="#FFC300"/>
      <circle r="3" cx="604" cy="-102" fill="#00FDFF"/>
      <circle r="3" cx="604" cy="-85" fill="#FFC300"/>
      <circle r="3" cx="608" cy="-102" fill="#00FDFF"/>
      <circle r="3" cx="608" cy="-85" fill="#FFC300"/>
      <circle r="3" cx="612" cy="-102" fill="#00FDFF"/>
      <circle r="3" cx="612" cy="-85" fill="#FFC300"/>
      <circle r="3" cx="616" cy="-102" fill="#00FDFF"/>
      <circle r="3" cx="616" cy="-85" fill="#FFC300"/>
      <circle r="3" cx="620" cy="-102" fill="#00FDFF"/>
      <circle r="3" cx="620" cy="-85" fill="#FFC300"/>
      <circle r="3" cx="624" cy="-102" fill="#00FDFF"/>
      <circle r="3" cx="624" cy="-85" fill="#FFC300"/>
      <circle r="3" cx="628" cy="-102" fill="#00FDFF"/>
      <circle r="3" cx="628" cy="-85" fill="#FFC300"/>
      <circle r="3" cx="632" cy="-102" fill="#00FDFF"/>
      <circle r="3" cx="632" cy="-85" fill="#FFC300"/>
      <circle r="3" cx="636" cy="-102" fill="#00FDFF"/>
      <circle r="3" cx="636" cy="-85" fill="#FFC300"/>
      <circle r="3" cx="640" cy="-102" fill="#00FDFF"/>
      <circle r="3" cx="640" cy="-85" fill="#FFC300"/>
      <circle r="3" cx="644" cy="-102" fill="#00FDFF"/>
      <circle r="3" cx="644" cy="-85" fill="#FFC300"/>
      <circle r="3" cx="648" cy="-102" fill="#00FDFF"/>
      <circle r="3" cx="648" cy="-85" fill="#FFC300"/>
      <circle r="3" cx="652" cy="-102" fill="#00FDFF"/>
      <circle r="3" cx="652" cy="-85" fill="#FFC300"/>
      <text x="656"
            y="-102"
            text-anchor="start"
            alignment-baseline="central"
            fill="#00FDFF">divine</text>
      <text x="656"
            y="-85"
            text-anchor="start"
            alignment-baseline="central"
            fill="#FFC300">earthly</text>
      <line x1="0" y1="0" x2="652" y2="0" stroke="black"/>
      <line x1="0" y1="0" x2="0" y2="-152" stroke="black"/>
      <text x="-50"
            y="-51"
            text-anchor="middle"
            font-size="larger"
            transform="rotate(-90 -50 -51)">Occurrences</text>
      <text x="326"
            y="50"
            text-anchor="middle"
            font-size="larger"
            alignment-baseline="baseline">Percentage of Scene</text>
      <text x="326"
            y="-157"
            text-anchor="middle"
            font-size="larger"
            text-decoration="underline">DIVINE AND EARTHLY TRAITS THROUGHOUT SCENE XIX</text>
   </g>
</svg>
