<?xml version="1.0" encoding="UTF-8"?>
<svg xmlns="http://www.w3.org/2000/svg" viewBox="0 -70 810 400">
   <g transform="translate(100, 275)">
      <line x1="-10" y1="-30" x2="0" y2="-30" stroke="black"/>
      <line x1="64" y1="-10" x2="64" y2="10" stroke="black"/>
      <line x1="0" y1="-30" x2="640" y2="-30" stroke="lightgrey"/>
      <text x="-15" y="-30" text-anchor="end" alignment-baseline="central">6</text>
      <text x="63" y="3" text-anchor="end" alignment-baseline="hanging">10%</text>
      <line x1="-10" y1="-60" x2="0" y2="-60" stroke="black"/>
      <line x1="128" y1="-10" x2="128" y2="10" stroke="black"/>
      <line x1="0" y1="-60" x2="640" y2="-60" stroke="lightgrey"/>
      <text x="-15" y="-60" text-anchor="end" alignment-baseline="central">12</text>
      <text x="127" y="3" text-anchor="end" alignment-baseline="hanging">20%</text>
      <line x1="-10" y1="-90" x2="0" y2="-90" stroke="black"/>
      <line x1="192" y1="-10" x2="192" y2="10" stroke="black"/>
      <line x1="0" y1="-90" x2="640" y2="-90" stroke="lightgrey"/>
      <text x="-15" y="-90" text-anchor="end" alignment-baseline="central">18</text>
      <text x="191" y="3" text-anchor="end" alignment-baseline="hanging">30%</text>
      <line x1="-10" y1="-120" x2="0" y2="-120" stroke="black"/>
      <line x1="256" y1="-10" x2="256" y2="10" stroke="black"/>
      <line x1="0" y1="-120" x2="640" y2="-120" stroke="lightgrey"/>
      <text x="-15" y="-120" text-anchor="end" alignment-baseline="central">24</text>
      <text x="255" y="3" text-anchor="end" alignment-baseline="hanging">40%</text>
      <line x1="-10" y1="-150" x2="0" y2="-150" stroke="black"/>
      <line x1="320" y1="-10" x2="320" y2="10" stroke="black"/>
      <line x1="0" y1="-150" x2="640" y2="-150" stroke="lightgrey"/>
      <text x="-15" y="-150" text-anchor="end" alignment-baseline="central">30</text>
      <text x="319" y="3" text-anchor="end" alignment-baseline="hanging">50%</text>
      <line x1="-10" y1="-180" x2="0" y2="-180" stroke="black"/>
      <line x1="384" y1="-10" x2="384" y2="10" stroke="black"/>
      <line x1="0" y1="-180" x2="640" y2="-180" stroke="lightgrey"/>
      <text x="-15" y="-180" text-anchor="end" alignment-baseline="central">36</text>
      <text x="383" y="3" text-anchor="end" alignment-baseline="hanging">60%</text>
      <line x1="-10" y1="-210" x2="0" y2="-210" stroke="black"/>
      <line x1="448" y1="-10" x2="448" y2="10" stroke="black"/>
      <line x1="0" y1="-210" x2="640" y2="-210" stroke="lightgrey"/>
      <text x="-15" y="-210" text-anchor="end" alignment-baseline="central">42</text>
      <text x="447" y="3" text-anchor="end" alignment-baseline="hanging">70%</text>
      <line x1="-10" y1="-240" x2="0" y2="-240" stroke="black"/>
      <line x1="512" y1="-10" x2="512" y2="10" stroke="black"/>
      <line x1="0" y1="-240" x2="640" y2="-240" stroke="lightgrey"/>
      <text x="-15" y="-240" text-anchor="end" alignment-baseline="central">48</text>
      <text x="511" y="3" text-anchor="end" alignment-baseline="hanging">80%</text>
      <line x1="-10" y1="-270" x2="0" y2="-270" stroke="black"/>
      <line x1="576" y1="-10" x2="576" y2="10" stroke="black"/>
      <line x1="0" y1="-270" x2="640" y2="-270" stroke="lightgrey"/>
      <text x="-15" y="-270" text-anchor="end" alignment-baseline="central">54</text>
      <text x="575" y="3" text-anchor="end" alignment-baseline="hanging">90%</text>
      <line x1="-10" y1="-300" x2="0" y2="-300" stroke="black"/>
      <line x1="640" y1="-10" x2="640" y2="10" stroke="black"/>
      <line x1="0" y1="-300" x2="640" y2="-300" stroke="lightgrey"/>
      <text x="-15" y="-300" text-anchor="end" alignment-baseline="central">60</text>
      <text x="639" y="3" text-anchor="end" alignment-baseline="hanging">100%</text>
      <line x1="-10" y1="0" x2="0" y2="0" stroke="black"/>
      <text x="-15" y="0" text-anchor="end" alignment-baseline="central">0</text>
      <circle r="3" cx="4" cy="-0" fill="#00FDFF"/>
      <circle r="3" cx="4" cy="-0" fill="#FFC300"/>
      <circle r="3" cx="4" cy="-0" fill="magenta"/>
      <circle r="3" cx="8" cy="-5" fill="#00FDFF"/>
      <circle r="3" cx="8" cy="-0" fill="#FFC300"/>
      <circle r="3" cx="12" cy="-10" fill="#00FDFF"/>
      <circle r="3" cx="12" cy="-0" fill="#FFC300"/>
      <circle r="3" cx="16" cy="-15" fill="#00FDFF"/>
      <circle r="3" cx="16" cy="-0" fill="#FFC300"/>
      <circle r="3" cx="20" cy="-15" fill="#00FDFF"/>
      <circle r="3" cx="20" cy="-5" fill="#FFC300"/>
      <circle r="3" cx="24" cy="-15" fill="#00FDFF"/>
      <circle r="3" cx="24" cy="-10" fill="#FFC300"/>
      <circle r="3" cx="28" cy="-15" fill="#00FDFF"/>
      <circle r="3" cx="28" cy="-15" fill="#FFC300"/>
      <circle r="3" cx="28" cy="-15" fill="magenta"/>
      <circle r="3" cx="32" cy="-15" fill="#00FDFF"/>
      <circle r="3" cx="32" cy="-20" fill="#FFC300"/>
      <circle r="3" cx="36" cy="-15" fill="#00FDFF"/>
      <circle r="3" cx="36" cy="-25" fill="#FFC300"/>
      <circle r="3" cx="40" cy="-20" fill="#00FDFF"/>
      <circle r="3" cx="40" cy="-25" fill="#FFC300"/>
      <circle r="3" cx="44" cy="-25" fill="#00FDFF"/>
      <circle r="3" cx="44" cy="-25" fill="#FFC300"/>
      <circle r="3" cx="44" cy="-25" fill="magenta"/>
      <circle r="3" cx="48" cy="-30" fill="#00FDFF"/>
      <circle r="3" cx="48" cy="-25" fill="#FFC300"/>
      <circle r="3" cx="52" cy="-35" fill="#00FDFF"/>
      <circle r="3" cx="52" cy="-25" fill="#FFC300"/>
      <circle r="3" cx="56" cy="-40" fill="#00FDFF"/>
      <circle r="3" cx="56" cy="-25" fill="#FFC300"/>
      <circle r="3" cx="60" cy="-45" fill="#00FDFF"/>
      <circle r="3" cx="60" cy="-25" fill="#FFC300"/>
      <circle r="3" cx="64" cy="-50" fill="#00FDFF"/>
      <circle r="3" cx="64" cy="-25" fill="#FFC300"/>
      <circle r="3" cx="68" cy="-55" fill="#00FDFF"/>
      <circle r="3" cx="68" cy="-25" fill="#FFC300"/>
      <circle r="3" cx="72" cy="-60" fill="#00FDFF"/>
      <circle r="3" cx="72" cy="-25" fill="#FFC300"/>
      <circle r="3" cx="76" cy="-65" fill="#00FDFF"/>
      <circle r="3" cx="76" cy="-25" fill="#FFC300"/>
      <circle r="3" cx="80" cy="-70" fill="#00FDFF"/>
      <circle r="3" cx="80" cy="-25" fill="#FFC300"/>
      <circle r="3" cx="84" cy="-75" fill="#00FDFF"/>
      <circle r="3" cx="84" cy="-25" fill="#FFC300"/>
      <circle r="3" cx="88" cy="-80" fill="#00FDFF"/>
      <circle r="3" cx="88" cy="-25" fill="#FFC300"/>
      <circle r="3" cx="92" cy="-85" fill="#00FDFF"/>
      <circle r="3" cx="92" cy="-25" fill="#FFC300"/>
      <circle r="3" cx="96" cy="-90" fill="#00FDFF"/>
      <circle r="3" cx="96" cy="-25" fill="#FFC300"/>
      <circle r="3" cx="100" cy="-95" fill="#00FDFF"/>
      <circle r="3" cx="100" cy="-25" fill="#FFC300"/>
      <circle r="3" cx="104" cy="-100" fill="#00FDFF"/>
      <circle r="3" cx="104" cy="-25" fill="#FFC300"/>
      <circle r="3" cx="108" cy="-105" fill="#00FDFF"/>
      <circle r="3" cx="108" cy="-25" fill="#FFC300"/>
      <circle r="3" cx="112" cy="-110" fill="#00FDFF"/>
      <circle r="3" cx="112" cy="-25" fill="#FFC300"/>
      <circle r="3" cx="116" cy="-115" fill="#00FDFF"/>
      <circle r="3" cx="116" cy="-25" fill="#FFC300"/>
      <circle r="3" cx="120" cy="-120" fill="#00FDFF"/>
      <circle r="3" cx="120" cy="-25" fill="#FFC300"/>
      <circle r="3" cx="124" cy="-125" fill="#00FDFF"/>
      <circle r="3" cx="124" cy="-25" fill="#FFC300"/>
      <circle r="3" cx="128" cy="-125" fill="#00FDFF"/>
      <circle r="3" cx="128" cy="-30" fill="#FFC300"/>
      <circle r="3" cx="132" cy="-125" fill="#00FDFF"/>
      <circle r="3" cx="132" cy="-35" fill="#FFC300"/>
      <circle r="3" cx="136" cy="-125" fill="#00FDFF"/>
      <circle r="3" cx="136" cy="-40" fill="#FFC300"/>
      <circle r="3" cx="140" cy="-125" fill="#00FDFF"/>
      <circle r="3" cx="140" cy="-45" fill="#FFC300"/>
      <circle r="3" cx="144" cy="-125" fill="#00FDFF"/>
      <circle r="3" cx="144" cy="-45" fill="#FFC300"/>
      <circle r="3" cx="148" cy="-125" fill="#00FDFF"/>
      <circle r="3" cx="148" cy="-45" fill="#FFC300"/>
      <circle r="3" cx="152" cy="-125" fill="#00FDFF"/>
      <circle r="3" cx="152" cy="-45" fill="#FFC300"/>
      <circle r="3" cx="156" cy="-125" fill="#00FDFF"/>
      <circle r="3" cx="156" cy="-45" fill="#FFC300"/>
      <circle r="3" cx="160" cy="-130" fill="#00FDFF"/>
      <circle r="3" cx="160" cy="-45" fill="#FFC300"/>
      <circle r="3" cx="164" cy="-135" fill="#00FDFF"/>
      <circle r="3" cx="164" cy="-45" fill="#FFC300"/>
      <circle r="3" cx="168" cy="-135" fill="#00FDFF"/>
      <circle r="3" cx="168" cy="-45" fill="#FFC300"/>
      <circle r="3" cx="172" cy="-135" fill="#00FDFF"/>
      <circle r="3" cx="172" cy="-45" fill="#FFC300"/>
      <circle r="3" cx="176" cy="-135" fill="#00FDFF"/>
      <circle r="3" cx="176" cy="-45" fill="#FFC300"/>
      <circle r="3" cx="180" cy="-135" fill="#00FDFF"/>
      <circle r="3" cx="180" cy="-45" fill="#FFC300"/>
      <circle r="3" cx="184" cy="-135" fill="#00FDFF"/>
      <circle r="3" cx="184" cy="-45" fill="#FFC300"/>
      <circle r="3" cx="188" cy="-135" fill="#00FDFF"/>
      <circle r="3" cx="188" cy="-45" fill="#FFC300"/>
      <circle r="3" cx="192" cy="-135" fill="#00FDFF"/>
      <circle r="3" cx="192" cy="-45" fill="#FFC300"/>
      <circle r="3" cx="196" cy="-140" fill="#00FDFF"/>
      <circle r="3" cx="196" cy="-45" fill="#FFC300"/>
      <circle r="3" cx="200" cy="-145" fill="#00FDFF"/>
      <circle r="3" cx="200" cy="-45" fill="#FFC300"/>
      <circle r="3" cx="204" cy="-145" fill="#00FDFF"/>
      <circle r="3" cx="204" cy="-45" fill="#FFC300"/>
      <circle r="3" cx="208" cy="-145" fill="#00FDFF"/>
      <circle r="3" cx="208" cy="-45" fill="#FFC300"/>
      <circle r="3" cx="212" cy="-145" fill="#00FDFF"/>
      <circle r="3" cx="212" cy="-45" fill="#FFC300"/>
      <circle r="3" cx="216" cy="-145" fill="#00FDFF"/>
      <circle r="3" cx="216" cy="-45" fill="#FFC300"/>
      <circle r="3" cx="220" cy="-145" fill="#00FDFF"/>
      <circle r="3" cx="220" cy="-45" fill="#FFC300"/>
      <circle r="3" cx="224" cy="-145" fill="#00FDFF"/>
      <circle r="3" cx="224" cy="-45" fill="#FFC300"/>
      <circle r="3" cx="228" cy="-145" fill="#00FDFF"/>
      <circle r="3" cx="228" cy="-45" fill="#FFC300"/>
      <circle r="3" cx="232" cy="-145" fill="#00FDFF"/>
      <circle r="3" cx="232" cy="-45" fill="#FFC300"/>
      <circle r="3" cx="236" cy="-145" fill="#00FDFF"/>
      <circle r="3" cx="236" cy="-45" fill="#FFC300"/>
      <circle r="3" cx="240" cy="-145" fill="#00FDFF"/>
      <circle r="3" cx="240" cy="-45" fill="#FFC300"/>
      <circle r="3" cx="244" cy="-145" fill="#00FDFF"/>
      <circle r="3" cx="244" cy="-45" fill="#FFC300"/>
      <circle r="3" cx="248" cy="-145" fill="#00FDFF"/>
      <circle r="3" cx="248" cy="-45" fill="#FFC300"/>
      <circle r="3" cx="252" cy="-150" fill="#00FDFF"/>
      <circle r="3" cx="252" cy="-45" fill="#FFC300"/>
      <circle r="3" cx="256" cy="-155" fill="#00FDFF"/>
      <circle r="3" cx="256" cy="-45" fill="#FFC300"/>
      <circle r="3" cx="260" cy="-160" fill="#00FDFF"/>
      <circle r="3" cx="260" cy="-45" fill="#FFC300"/>
      <circle r="3" cx="264" cy="-165" fill="#00FDFF"/>
      <circle r="3" cx="264" cy="-45" fill="#FFC300"/>
      <circle r="3" cx="268" cy="-165" fill="#00FDFF"/>
      <circle r="3" cx="268" cy="-45" fill="#FFC300"/>
      <circle r="3" cx="272" cy="-165" fill="#00FDFF"/>
      <circle r="3" cx="272" cy="-45" fill="#FFC300"/>
      <circle r="3" cx="276" cy="-165" fill="#00FDFF"/>
      <circle r="3" cx="276" cy="-45" fill="#FFC300"/>
      <circle r="3" cx="280" cy="-165" fill="#00FDFF"/>
      <circle r="3" cx="280" cy="-45" fill="#FFC300"/>
      <circle r="3" cx="284" cy="-165" fill="#00FDFF"/>
      <circle r="3" cx="284" cy="-45" fill="#FFC300"/>
      <circle r="3" cx="288" cy="-165" fill="#00FDFF"/>
      <circle r="3" cx="288" cy="-45" fill="#FFC300"/>
      <circle r="3" cx="292" cy="-165" fill="#00FDFF"/>
      <circle r="3" cx="292" cy="-45" fill="#FFC300"/>
      <circle r="3" cx="296" cy="-165" fill="#00FDFF"/>
      <circle r="3" cx="296" cy="-45" fill="#FFC300"/>
      <circle r="3" cx="300" cy="-165" fill="#00FDFF"/>
      <circle r="3" cx="300" cy="-45" fill="#FFC300"/>
      <circle r="3" cx="304" cy="-165" fill="#00FDFF"/>
      <circle r="3" cx="304" cy="-45" fill="#FFC300"/>
      <circle r="3" cx="308" cy="-165" fill="#00FDFF"/>
      <circle r="3" cx="308" cy="-45" fill="#FFC300"/>
      <circle r="3" cx="312" cy="-165" fill="#00FDFF"/>
      <circle r="3" cx="312" cy="-45" fill="#FFC300"/>
      <circle r="3" cx="316" cy="-170" fill="#00FDFF"/>
      <circle r="3" cx="316" cy="-45" fill="#FFC300"/>
      <circle r="3" cx="320" cy="-170" fill="#00FDFF"/>
      <circle r="3" cx="320" cy="-45" fill="#FFC300"/>
      <circle r="3" cx="324" cy="-170" fill="#00FDFF"/>
      <circle r="3" cx="324" cy="-45" fill="#FFC300"/>
      <circle r="3" cx="328" cy="-170" fill="#00FDFF"/>
      <circle r="3" cx="328" cy="-45" fill="#FFC300"/>
      <circle r="3" cx="332" cy="-170" fill="#00FDFF"/>
      <circle r="3" cx="332" cy="-45" fill="#FFC300"/>
      <circle r="3" cx="336" cy="-170" fill="#00FDFF"/>
      <circle r="3" cx="336" cy="-45" fill="#FFC300"/>
      <circle r="3" cx="340" cy="-170" fill="#00FDFF"/>
      <circle r="3" cx="340" cy="-45" fill="#FFC300"/>
      <circle r="3" cx="344" cy="-170" fill="#00FDFF"/>
      <circle r="3" cx="344" cy="-45" fill="#FFC300"/>
      <circle r="3" cx="348" cy="-170" fill="#00FDFF"/>
      <circle r="3" cx="348" cy="-45" fill="#FFC300"/>
      <circle r="3" cx="352" cy="-170" fill="#00FDFF"/>
      <circle r="3" cx="352" cy="-45" fill="#FFC300"/>
      <circle r="3" cx="356" cy="-170" fill="#00FDFF"/>
      <circle r="3" cx="356" cy="-45" fill="#FFC300"/>
      <circle r="3" cx="360" cy="-170" fill="#00FDFF"/>
      <circle r="3" cx="360" cy="-45" fill="#FFC300"/>
      <circle r="3" cx="364" cy="-170" fill="#00FDFF"/>
      <circle r="3" cx="364" cy="-45" fill="#FFC300"/>
      <circle r="3" cx="368" cy="-170" fill="#00FDFF"/>
      <circle r="3" cx="368" cy="-45" fill="#FFC300"/>
      <circle r="3" cx="372" cy="-170" fill="#00FDFF"/>
      <circle r="3" cx="372" cy="-45" fill="#FFC300"/>
      <circle r="3" cx="376" cy="-170" fill="#00FDFF"/>
      <circle r="3" cx="376" cy="-45" fill="#FFC300"/>
      <circle r="3" cx="380" cy="-170" fill="#00FDFF"/>
      <circle r="3" cx="380" cy="-45" fill="#FFC300"/>
      <circle r="3" cx="384" cy="-170" fill="#00FDFF"/>
      <circle r="3" cx="384" cy="-45" fill="#FFC300"/>
      <circle r="3" cx="388" cy="-170" fill="#00FDFF"/>
      <circle r="3" cx="388" cy="-45" fill="#FFC300"/>
      <circle r="3" cx="392" cy="-170" fill="#00FDFF"/>
      <circle r="3" cx="392" cy="-45" fill="#FFC300"/>
      <circle r="3" cx="396" cy="-170" fill="#00FDFF"/>
      <circle r="3" cx="396" cy="-45" fill="#FFC300"/>
      <circle r="3" cx="400" cy="-170" fill="#00FDFF"/>
      <circle r="3" cx="400" cy="-45" fill="#FFC300"/>
      <circle r="3" cx="404" cy="-170" fill="#00FDFF"/>
      <circle r="3" cx="404" cy="-45" fill="#FFC300"/>
      <circle r="3" cx="408" cy="-170" fill="#00FDFF"/>
      <circle r="3" cx="408" cy="-45" fill="#FFC300"/>
      <circle r="3" cx="412" cy="-170" fill="#00FDFF"/>
      <circle r="3" cx="412" cy="-45" fill="#FFC300"/>
      <circle r="3" cx="416" cy="-170" fill="#00FDFF"/>
      <circle r="3" cx="416" cy="-45" fill="#FFC300"/>
      <circle r="3" cx="420" cy="-170" fill="#00FDFF"/>
      <circle r="3" cx="420" cy="-45" fill="#FFC300"/>
      <circle r="3" cx="424" cy="-170" fill="#00FDFF"/>
      <circle r="3" cx="424" cy="-45" fill="#FFC300"/>
      <circle r="3" cx="428" cy="-170" fill="#00FDFF"/>
      <circle r="3" cx="428" cy="-45" fill="#FFC300"/>
      <circle r="3" cx="432" cy="-170" fill="#00FDFF"/>
      <circle r="3" cx="432" cy="-45" fill="#FFC300"/>
      <circle r="3" cx="436" cy="-170" fill="#00FDFF"/>
      <circle r="3" cx="436" cy="-45" fill="#FFC300"/>
      <circle r="3" cx="440" cy="-170" fill="#00FDFF"/>
      <circle r="3" cx="440" cy="-45" fill="#FFC300"/>
      <circle r="3" cx="444" cy="-175" fill="#00FDFF"/>
      <circle r="3" cx="444" cy="-45" fill="#FFC300"/>
      <circle r="3" cx="448" cy="-175" fill="#00FDFF"/>
      <circle r="3" cx="448" cy="-45" fill="#FFC300"/>
      <circle r="3" cx="452" cy="-180" fill="#00FDFF"/>
      <circle r="3" cx="452" cy="-45" fill="#FFC300"/>
      <circle r="3" cx="456" cy="-185" fill="#00FDFF"/>
      <circle r="3" cx="456" cy="-45" fill="#FFC300"/>
      <circle r="3" cx="460" cy="-190" fill="#00FDFF"/>
      <circle r="3" cx="460" cy="-45" fill="#FFC300"/>
      <circle r="3" cx="464" cy="-195" fill="#00FDFF"/>
      <circle r="3" cx="464" cy="-45" fill="#FFC300"/>
      <circle r="3" cx="468" cy="-195" fill="#00FDFF"/>
      <circle r="3" cx="468" cy="-45" fill="#FFC300"/>
      <circle r="3" cx="472" cy="-195" fill="#00FDFF"/>
      <circle r="3" cx="472" cy="-45" fill="#FFC300"/>
      <circle r="3" cx="476" cy="-195" fill="#00FDFF"/>
      <circle r="3" cx="476" cy="-50" fill="#FFC300"/>
      <circle r="3" cx="480" cy="-195" fill="#00FDFF"/>
      <circle r="3" cx="480" cy="-55" fill="#FFC300"/>
      <circle r="3" cx="484" cy="-195" fill="#00FDFF"/>
      <circle r="3" cx="484" cy="-60" fill="#FFC300"/>
      <circle r="3" cx="488" cy="-195" fill="#00FDFF"/>
      <circle r="3" cx="488" cy="-65" fill="#FFC300"/>
      <circle r="3" cx="492" cy="-195" fill="#00FDFF"/>
      <circle r="3" cx="492" cy="-65" fill="#FFC300"/>
      <circle r="3" cx="496" cy="-195" fill="#00FDFF"/>
      <circle r="3" cx="496" cy="-65" fill="#FFC300"/>
      <circle r="3" cx="500" cy="-200" fill="#00FDFF"/>
      <circle r="3" cx="500" cy="-65" fill="#FFC300"/>
      <circle r="3" cx="504" cy="-200" fill="#00FDFF"/>
      <circle r="3" cx="504" cy="-65" fill="#FFC300"/>
      <circle r="3" cx="508" cy="-200" fill="#00FDFF"/>
      <circle r="3" cx="508" cy="-65" fill="#FFC300"/>
      <circle r="3" cx="512" cy="-200" fill="#00FDFF"/>
      <circle r="3" cx="512" cy="-65" fill="#FFC300"/>
      <circle r="3" cx="516" cy="-200" fill="#00FDFF"/>
      <circle r="3" cx="516" cy="-65" fill="#FFC300"/>
      <circle r="3" cx="520" cy="-200" fill="#00FDFF"/>
      <circle r="3" cx="520" cy="-65" fill="#FFC300"/>
      <circle r="3" cx="524" cy="-200" fill="#00FDFF"/>
      <circle r="3" cx="524" cy="-65" fill="#FFC300"/>
      <circle r="3" cx="528" cy="-200" fill="#00FDFF"/>
      <circle r="3" cx="528" cy="-65" fill="#FFC300"/>
      <circle r="3" cx="532" cy="-205" fill="#00FDFF"/>
      <circle r="3" cx="532" cy="-65" fill="#FFC300"/>
      <circle r="3" cx="536" cy="-210" fill="#00FDFF"/>
      <circle r="3" cx="536" cy="-65" fill="#FFC300"/>
      <circle r="3" cx="540" cy="-215" fill="#00FDFF"/>
      <circle r="3" cx="540" cy="-65" fill="#FFC300"/>
      <circle r="3" cx="544" cy="-220" fill="#00FDFF"/>
      <circle r="3" cx="544" cy="-65" fill="#FFC300"/>
      <circle r="3" cx="548" cy="-225" fill="#00FDFF"/>
      <circle r="3" cx="548" cy="-65" fill="#FFC300"/>
      <circle r="3" cx="552" cy="-230" fill="#00FDFF"/>
      <circle r="3" cx="552" cy="-65" fill="#FFC300"/>
      <circle r="3" cx="556" cy="-235" fill="#00FDFF"/>
      <circle r="3" cx="556" cy="-65" fill="#FFC300"/>
      <circle r="3" cx="560" cy="-240" fill="#00FDFF"/>
      <circle r="3" cx="560" cy="-65" fill="#FFC300"/>
      <circle r="3" cx="564" cy="-245" fill="#00FDFF"/>
      <circle r="3" cx="564" cy="-65" fill="#FFC300"/>
      <circle r="3" cx="568" cy="-250" fill="#00FDFF"/>
      <circle r="3" cx="568" cy="-65" fill="#FFC300"/>
      <circle r="3" cx="572" cy="-255" fill="#00FDFF"/>
      <circle r="3" cx="572" cy="-65" fill="#FFC300"/>
      <circle r="3" cx="576" cy="-260" fill="#00FDFF"/>
      <circle r="3" cx="576" cy="-65" fill="#FFC300"/>
      <circle r="3" cx="580" cy="-265" fill="#00FDFF"/>
      <circle r="3" cx="580" cy="-65" fill="#FFC300"/>
      <circle r="3" cx="584" cy="-270" fill="#00FDFF"/>
      <circle r="3" cx="584" cy="-65" fill="#FFC300"/>
      <circle r="3" cx="588" cy="-275" fill="#00FDFF"/>
      <circle r="3" cx="588" cy="-65" fill="#FFC300"/>
      <circle r="3" cx="592" cy="-275" fill="#00FDFF"/>
      <circle r="3" cx="592" cy="-70" fill="#FFC300"/>
      <circle r="3" cx="596" cy="-275" fill="#00FDFF"/>
      <circle r="3" cx="596" cy="-75" fill="#FFC300"/>
      <circle r="3" cx="600" cy="-275" fill="#00FDFF"/>
      <circle r="3" cx="600" cy="-80" fill="#FFC300"/>
      <circle r="3" cx="604" cy="-275" fill="#00FDFF"/>
      <circle r="3" cx="604" cy="-85" fill="#FFC300"/>
      <circle r="3" cx="608" cy="-275" fill="#00FDFF"/>
      <circle r="3" cx="608" cy="-90" fill="#FFC300"/>
      <circle r="3" cx="612" cy="-275" fill="#00FDFF"/>
      <circle r="3" cx="612" cy="-95" fill="#FFC300"/>
      <circle r="3" cx="616" cy="-275" fill="#00FDFF"/>
      <circle r="3" cx="616" cy="-95" fill="#FFC300"/>
      <circle r="3" cx="620" cy="-275" fill="#00FDFF"/>
      <circle r="3" cx="620" cy="-95" fill="#FFC300"/>
      <circle r="3" cx="624" cy="-275" fill="#00FDFF"/>
      <circle r="3" cx="624" cy="-95" fill="#FFC300"/>
      <circle r="3" cx="628" cy="-275" fill="#00FDFF"/>
      <circle r="3" cx="628" cy="-95" fill="#FFC300"/>
      <circle r="3" cx="632" cy="-275" fill="#00FDFF"/>
      <circle r="3" cx="632" cy="-95" fill="#FFC300"/>
      <circle r="3" cx="636" cy="-275" fill="#00FDFF"/>
      <circle r="3" cx="636" cy="-95" fill="#FFC300"/>
      <circle r="3" cx="640" cy="-275" fill="#00FDFF"/>
      <circle r="3" cx="640" cy="-95" fill="#FFC300"/>
      <text x="644"
            y="-275"
            text-anchor="start"
            alignment-baseline="central"
            fill="#00FDFF">divine</text>
      <text x="644"
            y="-95"
            text-anchor="start"
            alignment-baseline="central"
            fill="#FFC300">earthly</text>
      <line x1="0" y1="0" x2="640" y2="0" stroke="black"/>
      <line x1="0" y1="0" x2="0" y2="-325" stroke="black"/>
      <text x="-50"
            y="-137.5"
            text-anchor="middle"
            font-size="larger"
            transform="rotate(-90 -50 -137.5)">Occurrences</text>
      <text x="320"
            y="50"
            text-anchor="middle"
            font-size="larger"
            alignment-baseline="baseline">Percentage of Scene</text>
      <text x="320"
            y="-330"
            text-anchor="middle"
            font-size="larger"
            text-decoration="underline">DIVINE AND EARTHLY TRAITS THROUGHOUT SCENE XIV</text>
   </g>
</svg>
