<?xml version="1.0" encoding="UTF-8"?>
<svg xmlns="http://www.w3.org/2000/svg">
   <g transform="translate(100, 75)">
      <line x1="-10" y1="-0" x2="0" y2="-0" stroke="black"/>
      <line x1="17.700000000000003"
            y1="-10"
            x2="17.700000000000003"
            y2="10"
            stroke="black"/>
      <line x1="0" y1="-0" x2="177" y2="-0" stroke="lightgrey"/>
      <text x="-15" y="-0" text-anchor="end" alignment-baseline="central">0</text>
      <text x="20.700000000000003"
            y="3"
            text-anchor="start"
            alignment-baseline="hanging">10%</text>
      <line x1="-10" y1="-0" x2="0" y2="-0" stroke="black"/>
      <line x1="35.400000000000006"
            y1="-10"
            x2="35.400000000000006"
            y2="10"
            stroke="black"/>
      <line x1="0" y1="-0" x2="177" y2="-0" stroke="lightgrey"/>
      <text x="-15" y="-0" text-anchor="end" alignment-baseline="central">0</text>
      <text x="38.400000000000006"
            y="3"
            text-anchor="start"
            alignment-baseline="hanging">20%</text>
      <line x1="-10" y1="-0" x2="0" y2="-0" stroke="black"/>
      <line x1="53.099999999999994"
            y1="-10"
            x2="53.099999999999994"
            y2="10"
            stroke="black"/>
      <line x1="0" y1="-0" x2="177" y2="-0" stroke="lightgrey"/>
      <text x="-15" y="-0" text-anchor="end" alignment-baseline="central">0</text>
      <text x="56.099999999999994"
            y="3"
            text-anchor="start"
            alignment-baseline="hanging">30%</text>
      <line x1="-10" y1="-0" x2="0" y2="-0" stroke="black"/>
      <line x1="70.80000000000001"
            y1="-10"
            x2="70.80000000000001"
            y2="10"
            stroke="black"/>
      <line x1="0" y1="-0" x2="177" y2="-0" stroke="lightgrey"/>
      <text x="-15" y="-0" text-anchor="end" alignment-baseline="central">0</text>
      <text x="73.80000000000001"
            y="3"
            text-anchor="start"
            alignment-baseline="hanging">40%</text>
      <line x1="-10" y1="-0" x2="0" y2="-0" stroke="black"/>
      <line x1="88.5" y1="-10" x2="88.5" y2="10" stroke="black"/>
      <line x1="0" y1="-0" x2="177" y2="-0" stroke="lightgrey"/>
      <text x="-15" y="-0" text-anchor="end" alignment-baseline="central">0</text>
      <text x="91.5" y="3" text-anchor="start" alignment-baseline="hanging">50%</text>
      <line x1="-10" y1="-0" x2="0" y2="-0" stroke="black"/>
      <line x1="106.19999999999999"
            y1="-10"
            x2="106.19999999999999"
            y2="10"
            stroke="black"/>
      <line x1="0" y1="-0" x2="177" y2="-0" stroke="lightgrey"/>
      <text x="-15" y="-0" text-anchor="end" alignment-baseline="central">0</text>
      <text x="109.19999999999999"
            y="3"
            text-anchor="start"
            alignment-baseline="hanging">60%</text>
      <line x1="-10" y1="-0" x2="0" y2="-0" stroke="black"/>
      <line x1="123.89999999999999"
            y1="-10"
            x2="123.89999999999999"
            y2="10"
            stroke="black"/>
      <line x1="0" y1="-0" x2="177" y2="-0" stroke="lightgrey"/>
      <text x="-15" y="-0" text-anchor="end" alignment-baseline="central">0</text>
      <text x="126.89999999999999"
            y="3"
            text-anchor="start"
            alignment-baseline="hanging">70%</text>
      <line x1="-10" y1="-0" x2="0" y2="-0" stroke="black"/>
      <line x1="141.60000000000002"
            y1="-10"
            x2="141.60000000000002"
            y2="10"
            stroke="black"/>
      <line x1="0" y1="-0" x2="177" y2="-0" stroke="lightgrey"/>
      <text x="-15" y="-0" text-anchor="end" alignment-baseline="central">0</text>
      <text x="144.60000000000002"
            y="3"
            text-anchor="start"
            alignment-baseline="hanging">80%</text>
      <line x1="-10" y1="-0" x2="0" y2="-0" stroke="black"/>
      <line x1="159.3" y1="-10" x2="159.3" y2="10" stroke="black"/>
      <line x1="0" y1="-0" x2="177" y2="-0" stroke="lightgrey"/>
      <text x="-15" y="-0" text-anchor="end" alignment-baseline="central">0</text>
      <text x="162.3"
            y="3"
            text-anchor="start"
            alignment-baseline="hanging">90%</text>
      <line x1="-10" y1="-0" x2="0" y2="-0" stroke="black"/>
      <line x1="177" y1="-10" x2="177" y2="10" stroke="black"/>
      <line x1="0" y1="-0" x2="177" y2="-0" stroke="lightgrey"/>
      <text x="-15" y="-0" text-anchor="end" alignment-baseline="central">0</text>
      <text x="180" y="3" text-anchor="start" alignment-baseline="hanging">100%</text>
      <line x1="-10" y1="0" x2="0" y2="0" stroke="black"/>
      <text x="-15" y="0" text-anchor="end" alignment-baseline="central">0</text>
      <circle r="3" cx="3" cy="-0" fill="#00FDFF"/>
      <circle r="3" cx="3" cy="-0" fill="#FFC300"/>
      <circle r="3" cx="6" cy="-0" fill="#00FDFF"/>
      <circle r="3" cx="6" cy="-0" fill="#FFC300"/>
      <circle r="3" cx="9" cy="-0" fill="#00FDFF"/>
      <circle r="3" cx="9" cy="-0" fill="#FFC300"/>
      <circle r="3" cx="12" cy="-0" fill="#00FDFF"/>
      <circle r="3" cx="12" cy="-0" fill="#FFC300"/>
      <circle r="3" cx="15" cy="-0" fill="#00FDFF"/>
      <circle r="3" cx="15" cy="-0" fill="#FFC300"/>
      <circle r="3" cx="18" cy="-0" fill="#00FDFF"/>
      <circle r="3" cx="18" cy="-0" fill="#FFC300"/>
      <circle r="3" cx="21" cy="-0" fill="#00FDFF"/>
      <circle r="3" cx="21" cy="-0" fill="#FFC300"/>
      <circle r="3" cx="24" cy="-0" fill="#00FDFF"/>
      <circle r="3" cx="24" cy="-0" fill="#FFC300"/>
      <circle r="3" cx="27" cy="-0" fill="#00FDFF"/>
      <circle r="3" cx="27" cy="-0" fill="#FFC300"/>
      <circle r="3" cx="30" cy="-0" fill="#00FDFF"/>
      <circle r="3" cx="30" cy="-0" fill="#FFC300"/>
      <circle r="3" cx="33" cy="-0" fill="#00FDFF"/>
      <circle r="3" cx="33" cy="-0" fill="#FFC300"/>
      <circle r="3" cx="36" cy="-0" fill="#00FDFF"/>
      <circle r="3" cx="36" cy="-0" fill="#FFC300"/>
      <circle r="3" cx="39" cy="-0" fill="#00FDFF"/>
      <circle r="3" cx="39" cy="-0" fill="#FFC300"/>
      <circle r="3" cx="42" cy="-0" fill="#00FDFF"/>
      <circle r="3" cx="42" cy="-0" fill="#FFC300"/>
      <circle r="3" cx="45" cy="-0" fill="#00FDFF"/>
      <circle r="3" cx="45" cy="-0" fill="#FFC300"/>
      <circle r="3" cx="48" cy="-0" fill="#00FDFF"/>
      <circle r="3" cx="48" cy="-0" fill="#FFC300"/>
      <circle r="3" cx="51" cy="-0" fill="#00FDFF"/>
      <circle r="3" cx="51" cy="-0" fill="#FFC300"/>
      <circle r="3" cx="54" cy="-0" fill="#00FDFF"/>
      <circle r="3" cx="54" cy="-0" fill="#FFC300"/>
      <circle r="3" cx="57" cy="-0" fill="#00FDFF"/>
      <circle r="3" cx="57" cy="-0" fill="#FFC300"/>
      <circle r="3" cx="60" cy="-0" fill="#00FDFF"/>
      <circle r="3" cx="60" cy="-0" fill="#FFC300"/>
      <circle r="3" cx="63" cy="-0" fill="#00FDFF"/>
      <circle r="3" cx="63" cy="-0" fill="#FFC300"/>
      <circle r="3" cx="66" cy="-0" fill="#00FDFF"/>
      <circle r="3" cx="66" cy="-0" fill="#FFC300"/>
      <circle r="3" cx="69" cy="-0" fill="#00FDFF"/>
      <circle r="3" cx="69" cy="-0" fill="#FFC300"/>
      <circle r="3" cx="72" cy="-0" fill="#00FDFF"/>
      <circle r="3" cx="72" cy="-0" fill="#FFC300"/>
      <circle r="3" cx="75" cy="-0" fill="#00FDFF"/>
      <circle r="3" cx="75" cy="-0" fill="#FFC300"/>
      <circle r="3" cx="78" cy="-0" fill="#00FDFF"/>
      <circle r="3" cx="78" cy="-0" fill="#FFC300"/>
      <circle r="3" cx="81" cy="-0" fill="#00FDFF"/>
      <circle r="3" cx="81" cy="-0" fill="#FFC300"/>
      <circle r="3" cx="84" cy="-0" fill="#00FDFF"/>
      <circle r="3" cx="84" cy="-0" fill="#FFC300"/>
      <circle r="3" cx="87" cy="-0" fill="#00FDFF"/>
      <circle r="3" cx="87" cy="-0" fill="#FFC300"/>
      <circle r="3" cx="90" cy="-0" fill="#00FDFF"/>
      <circle r="3" cx="90" cy="-0" fill="#FFC300"/>
      <circle r="3" cx="93" cy="-0" fill="#00FDFF"/>
      <circle r="3" cx="93" cy="-0" fill="#FFC300"/>
      <circle r="3" cx="96" cy="-0" fill="#00FDFF"/>
      <circle r="3" cx="96" cy="-0" fill="#FFC300"/>
      <circle r="3" cx="99" cy="-0" fill="#00FDFF"/>
      <circle r="3" cx="99" cy="-0" fill="#FFC300"/>
      <circle r="3" cx="102" cy="-0" fill="#00FDFF"/>
      <circle r="3" cx="102" cy="-0" fill="#FFC300"/>
      <circle r="3" cx="105" cy="-0" fill="#00FDFF"/>
      <circle r="3" cx="105" cy="-0" fill="#FFC300"/>
      <circle r="3" cx="108" cy="-0" fill="#00FDFF"/>
      <circle r="3" cx="108" cy="-0" fill="#FFC300"/>
      <circle r="3" cx="111" cy="-0" fill="#00FDFF"/>
      <circle r="3" cx="111" cy="-0" fill="#FFC300"/>
      <circle r="3" cx="114" cy="-0" fill="#00FDFF"/>
      <circle r="3" cx="114" cy="-0" fill="#FFC300"/>
      <circle r="3" cx="117" cy="-0" fill="#00FDFF"/>
      <circle r="3" cx="117" cy="-0" fill="#FFC300"/>
      <circle r="3" cx="120" cy="-0" fill="#00FDFF"/>
      <circle r="3" cx="120" cy="-0" fill="#FFC300"/>
      <circle r="3" cx="123" cy="-0" fill="#00FDFF"/>
      <circle r="3" cx="123" cy="-0" fill="#FFC300"/>
      <circle r="3" cx="126" cy="-0" fill="#00FDFF"/>
      <circle r="3" cx="126" cy="-0" fill="#FFC300"/>
      <circle r="3" cx="129" cy="-0" fill="#00FDFF"/>
      <circle r="3" cx="129" cy="-0" fill="#FFC300"/>
      <circle r="3" cx="132" cy="-0" fill="#00FDFF"/>
      <circle r="3" cx="132" cy="-0" fill="#FFC300"/>
      <circle r="3" cx="135" cy="-0" fill="#00FDFF"/>
      <circle r="3" cx="135" cy="-0" fill="#FFC300"/>
      <circle r="3" cx="138" cy="-0" fill="#00FDFF"/>
      <circle r="3" cx="138" cy="-0" fill="#FFC300"/>
      <circle r="3" cx="141" cy="-0" fill="#00FDFF"/>
      <circle r="3" cx="141" cy="-0" fill="#FFC300"/>
      <circle r="3" cx="144" cy="-0" fill="#00FDFF"/>
      <circle r="3" cx="144" cy="-0" fill="#FFC300"/>
      <circle r="3" cx="147" cy="-0" fill="#00FDFF"/>
      <circle r="3" cx="147" cy="-0" fill="#FFC300"/>
      <circle r="3" cx="150" cy="-0" fill="#00FDFF"/>
      <circle r="3" cx="150" cy="-0" fill="#FFC300"/>
      <circle r="3" cx="153" cy="-0" fill="#00FDFF"/>
      <circle r="3" cx="153" cy="-0" fill="#FFC300"/>
      <circle r="3" cx="156" cy="-0" fill="#00FDFF"/>
      <circle r="3" cx="156" cy="-0" fill="#FFC300"/>
      <circle r="3" cx="159" cy="-0" fill="#00FDFF"/>
      <circle r="3" cx="159" cy="-0" fill="#FFC300"/>
      <circle r="3" cx="162" cy="-0" fill="#00FDFF"/>
      <circle r="3" cx="162" cy="-0" fill="#FFC300"/>
      <circle r="3" cx="165" cy="-0" fill="#00FDFF"/>
      <circle r="3" cx="165" cy="-0" fill="#FFC300"/>
      <circle r="3" cx="168" cy="-0" fill="#00FDFF"/>
      <circle r="3" cx="168" cy="-0" fill="#FFC300"/>
      <circle r="3" cx="171" cy="-0" fill="#00FDFF"/>
      <circle r="3" cx="171" cy="-0" fill="#FFC300"/>
      <circle r="3" cx="174" cy="-0" fill="#00FDFF"/>
      <circle r="3" cx="174" cy="-0" fill="#FFC300"/>
      <circle r="3" cx="177" cy="-0" fill="#00FDFF"/>
      <circle r="3" cx="177" cy="-0" fill="#FFC300"/>
      <text x="183"
            y="-0"
            text-anchor="start"
            alignment-baseline="central"
            fill="#00FDFF">divine</text>
      <text x="183"
            y="-0"
            text-anchor="start"
            alignment-baseline="central"
            fill="#FFC300">earthly</text>
      <line x1="0" y1="0" x2="177" y2="0" stroke="black"/>
      <line x1="0" y1="0" x2="0" y2="-25" stroke="black"/>
      <text x="-50"
            y="-0"
            text-anchor="middle"
            font-size="larger"
            transform="rotate(-90 -50 -0)">Occurrences</text>
      <text x="180"
            y="-3"
            text-anchor="start"
            font-size="larger"
            alignment-baseline="baseline">Percentage
                    of Scene</text>
      <text x="88.5"
            y="-50"
            text-anchor="middle"
            font-size="larger"
            text-decoration="underline">OCCURRENCE OF DIVINE AND
                    EARTHLY TRAITS THROUGHOUT SCENE XX.
                        CATHEDRAL</text>
   </g>
</svg>
