<?xml version="1.0" encoding="UTF-8"?>
<svg xmlns="http://www.w3.org/2000/svg" viewBox="0 -70 770 260">
   <g transform="translate(100, 135)">
      <line x1="-10" y1="-45" x2="0" y2="-45" stroke="black"/>
      <line x1="60" y1="-10" x2="60" y2="10" stroke="black"/>
      <line x1="0" y1="-45" x2="600" y2="-45" stroke="lightgrey"/>
      <text x="-15" y="-45" text-anchor="end" alignment-baseline="central">1</text>
      <text x="59" y="3" text-anchor="end" alignment-baseline="hanging">10%</text>
      <line x1="-10" y1="-90" x2="0" y2="-90" stroke="black"/>
      <line x1="120" y1="-10" x2="120" y2="10" stroke="black"/>
      <line x1="0" y1="-90" x2="600" y2="-90" stroke="lightgrey"/>
      <text x="-15" y="-90" text-anchor="end" alignment-baseline="central">2</text>
      <text x="119" y="3" text-anchor="end" alignment-baseline="hanging">20%</text>
      <line x1="-10" y1="-135" x2="0" y2="-135" stroke="black"/>
      <line x1="180" y1="-10" x2="180" y2="10" stroke="black"/>
      <line x1="0" y1="-135" x2="600" y2="-135" stroke="lightgrey"/>
      <text x="-15" y="-135" text-anchor="end" alignment-baseline="central">3</text>
      <text x="179" y="3" text-anchor="end" alignment-baseline="hanging">30%</text>
      <line x1="-10" y1="-180" x2="0" y2="-180" stroke="black"/>
      <line x1="240" y1="-10" x2="240" y2="10" stroke="black"/>
      <line x1="0" y1="-180" x2="600" y2="-180" stroke="lightgrey"/>
      <text x="-15" y="-180" text-anchor="end" alignment-baseline="central">4</text>
      <text x="239" y="3" text-anchor="end" alignment-baseline="hanging">40%</text>
      <line x1="-10" y1="-225" x2="0" y2="-225" stroke="black"/>
      <line x1="300" y1="-10" x2="300" y2="10" stroke="black"/>
      <line x1="0" y1="-225" x2="600" y2="-225" stroke="lightgrey"/>
      <text x="-15" y="-225" text-anchor="end" alignment-baseline="central">5</text>
      <text x="299" y="3" text-anchor="end" alignment-baseline="hanging">50%</text>
      <line x1="-10" y1="-270" x2="0" y2="-270" stroke="black"/>
      <line x1="360" y1="-10" x2="360" y2="10" stroke="black"/>
      <line x1="0" y1="-270" x2="600" y2="-270" stroke="lightgrey"/>
      <text x="-15" y="-270" text-anchor="end" alignment-baseline="central">6</text>
      <text x="359" y="3" text-anchor="end" alignment-baseline="hanging">60%</text>
      <line x1="-10" y1="-315" x2="0" y2="-315" stroke="black"/>
      <line x1="420" y1="-10" x2="420" y2="10" stroke="black"/>
      <line x1="0" y1="-315" x2="600" y2="-315" stroke="lightgrey"/>
      <text x="-15" y="-315" text-anchor="end" alignment-baseline="central">7</text>
      <text x="419" y="3" text-anchor="end" alignment-baseline="hanging">70%</text>
      <line x1="-10" y1="-360" x2="0" y2="-360" stroke="black"/>
      <line x1="480" y1="-10" x2="480" y2="10" stroke="black"/>
      <line x1="0" y1="-360" x2="600" y2="-360" stroke="lightgrey"/>
      <text x="-15" y="-360" text-anchor="end" alignment-baseline="central">8</text>
      <text x="479" y="3" text-anchor="end" alignment-baseline="hanging">80%</text>
      <line x1="-10" y1="-405" x2="0" y2="-405" stroke="black"/>
      <line x1="540" y1="-10" x2="540" y2="10" stroke="black"/>
      <line x1="0" y1="-405" x2="600" y2="-405" stroke="lightgrey"/>
      <text x="-15" y="-405" text-anchor="end" alignment-baseline="central">9</text>
      <text x="539" y="3" text-anchor="end" alignment-baseline="hanging">90%</text>
      <line x1="-10" y1="-450" x2="0" y2="-450" stroke="black"/>
      <line x1="600" y1="-10" x2="600" y2="10" stroke="black"/>
      <line x1="0" y1="-450" x2="600" y2="-450" stroke="lightgrey"/>
      <text x="-15" y="-450" text-anchor="end" alignment-baseline="central">10</text>
      <text x="599" y="3" text-anchor="end" alignment-baseline="hanging">100%</text>
      <line x1="-10" y1="0" x2="0" y2="0" stroke="black"/>
      <text x="-15" y="0" text-anchor="end" alignment-baseline="central">0</text>
      <circle r="3" cx="100" cy="-0" fill="#00FDFF"/>
      <circle r="3" cx="100" cy="-0" fill="#FFC300"/>
      <circle r="3" cx="100" cy="-0" fill="magenta"/>
      <circle r="3" cx="200" cy="-45" fill="#00FDFF"/>
      <circle r="3" cx="200" cy="-0" fill="#FFC300"/>
      <circle r="3" cx="300" cy="-45" fill="#00FDFF"/>
      <circle r="3" cx="300" cy="-0" fill="#FFC300"/>
      <circle r="3" cx="400" cy="-90" fill="#00FDFF"/>
      <circle r="3" cx="400" cy="-0" fill="#FFC300"/>
      <circle r="3" cx="500" cy="-90" fill="#00FDFF"/>
      <circle r="3" cx="500" cy="-0" fill="#FFC300"/>
      <circle r="3" cx="600" cy="-135" fill="#00FDFF"/>
      <circle r="3" cx="600" cy="-0" fill="#FFC300"/>
      <text x="700"
            y="-135"
            text-anchor="start"
            alignment-baseline="central"
            fill="#00FDFF">divine</text>
      <text x="700"
            y="-0"
            text-anchor="start"
            alignment-baseline="central"
            fill="#FFC300">earthly</text>
      <line x1="0" y1="0" x2="600" y2="0" stroke="black"/>
      <line x1="0" y1="0" x2="0" y2="-185" stroke="black"/>
      <text x="-50"
            y="-67.5"
            text-anchor="middle"
            font-size="larger"
            transform="rotate(-90 -50 -67.5)">Occurrences</text>
      <text x="300"
            y="50"
            text-anchor="middle"
            font-size="larger"
            alignment-baseline="baseline">Percentage of Scene</text>
      <text x="300"
            y="-190"
            text-anchor="middle"
            font-size="larger"
            text-decoration="underline">DIVINE AND EARTHLY TRAITS THROUGHOUT SCENE XXIV</text>
   </g>
</svg>
