<?xml version="1.0" encoding="UTF-8"?>
<svg xmlns="http://www.w3.org/2000/svg">
   <g transform="translate(100, 87)">
      <line x1="-10" y1="-2" x2="0" y2="-2" stroke="black"/>
      <line x1="48.900000000000006"
            y1="-10"
            x2="48.900000000000006"
            y2="10"
            stroke="black"/>
      <line x1="0" y1="-2" x2="489" y2="-2" stroke="lightgrey"/>
      <text x="-15" y="-2" text-anchor="end" alignment-baseline="central">1</text>
      <text x="51.900000000000006"
            y="3"
            text-anchor="start"
            alignment-baseline="hanging">10%</text>
      <line x1="-10" y1="-4" x2="0" y2="-4" stroke="black"/>
      <line x1="97.80000000000001"
            y1="-10"
            x2="97.80000000000001"
            y2="10"
            stroke="black"/>
      <line x1="0" y1="-4" x2="489" y2="-4" stroke="lightgrey"/>
      <text x="-15" y="-4" text-anchor="end" alignment-baseline="central">2</text>
      <text x="100.80000000000001"
            y="3"
            text-anchor="start"
            alignment-baseline="hanging">20%</text>
      <line x1="-10" y1="-6" x2="0" y2="-6" stroke="black"/>
      <line x1="146.7" y1="-10" x2="146.7" y2="10" stroke="black"/>
      <line x1="0" y1="-6" x2="489" y2="-6" stroke="lightgrey"/>
      <text x="-15" y="-6" text-anchor="end" alignment-baseline="central">3</text>
      <text x="149.7"
            y="3"
            text-anchor="start"
            alignment-baseline="hanging">30%</text>
      <line x1="-10" y1="-8" x2="0" y2="-8" stroke="black"/>
      <line x1="195.60000000000002"
            y1="-10"
            x2="195.60000000000002"
            y2="10"
            stroke="black"/>
      <line x1="0" y1="-8" x2="489" y2="-8" stroke="lightgrey"/>
      <text x="-15" y="-8" text-anchor="end" alignment-baseline="central">4</text>
      <text x="198.60000000000002"
            y="3"
            text-anchor="start"
            alignment-baseline="hanging">40%</text>
      <line x1="-10" y1="-10" x2="0" y2="-10" stroke="black"/>
      <line x1="244.5" y1="-10" x2="244.5" y2="10" stroke="black"/>
      <line x1="0" y1="-10" x2="489" y2="-10" stroke="lightgrey"/>
      <text x="-15" y="-10" text-anchor="end" alignment-baseline="central">5</text>
      <text x="247.5"
            y="3"
            text-anchor="start"
            alignment-baseline="hanging">50%</text>
      <line x1="-10" y1="-12" x2="0" y2="-12" stroke="black"/>
      <line x1="293.4" y1="-10" x2="293.4" y2="10" stroke="black"/>
      <line x1="0" y1="-12" x2="489" y2="-12" stroke="lightgrey"/>
      <text x="-15" y="-12" text-anchor="end" alignment-baseline="central">6</text>
      <text x="296.4"
            y="3"
            text-anchor="start"
            alignment-baseline="hanging">60%</text>
      <line x1="-10" y1="-14" x2="0" y2="-14" stroke="black"/>
      <line x1="342.29999999999995"
            y1="-10"
            x2="342.29999999999995"
            y2="10"
            stroke="black"/>
      <line x1="0" y1="-14" x2="489" y2="-14" stroke="lightgrey"/>
      <text x="-15" y="-14" text-anchor="end" alignment-baseline="central">7</text>
      <text x="345.29999999999995"
            y="3"
            text-anchor="start"
            alignment-baseline="hanging">70%</text>
      <line x1="-10" y1="-16" x2="0" y2="-16" stroke="black"/>
      <line x1="391.20000000000005"
            y1="-10"
            x2="391.20000000000005"
            y2="10"
            stroke="black"/>
      <line x1="0" y1="-16" x2="489" y2="-16" stroke="lightgrey"/>
      <text x="-15" y="-16" text-anchor="end" alignment-baseline="central">8</text>
      <text x="394.20000000000005"
            y="3"
            text-anchor="start"
            alignment-baseline="hanging">80%</text>
      <line x1="-10" y1="-18" x2="0" y2="-18" stroke="black"/>
      <line x1="440.09999999999997"
            y1="-10"
            x2="440.09999999999997"
            y2="10"
            stroke="black"/>
      <line x1="0" y1="-18" x2="489" y2="-18" stroke="lightgrey"/>
      <text x="-15" y="-18" text-anchor="end" alignment-baseline="central">9</text>
      <text x="443.09999999999997"
            y="3"
            text-anchor="start"
            alignment-baseline="hanging">90%</text>
      <line x1="-10" y1="-20" x2="0" y2="-20" stroke="black"/>
      <line x1="489" y1="-10" x2="489" y2="10" stroke="black"/>
      <line x1="0" y1="-20" x2="489" y2="-20" stroke="lightgrey"/>
      <text x="-15" y="-20" text-anchor="end" alignment-baseline="central">10</text>
      <text x="492" y="3" text-anchor="start" alignment-baseline="hanging">100%</text>
      <line x1="-10" y1="0" x2="0" y2="0" stroke="black"/>
      <text x="-15" y="0" text-anchor="end" alignment-baseline="central">0</text>
      <circle r="3" cx="3" cy="-0" fill="#00FDFF"/>
      <circle r="3" cx="3" cy="-0" fill="#FFC300"/>
      <circle r="3" cx="6" cy="-0" fill="#00FDFF"/>
      <circle r="3" cx="6" cy="-0" fill="#FFC300"/>
      <circle r="3" cx="9" cy="-0" fill="#00FDFF"/>
      <circle r="3" cx="9" cy="-0" fill="#FFC300"/>
      <circle r="3" cx="12" cy="-0" fill="#00FDFF"/>
      <circle r="3" cx="12" cy="-0" fill="#FFC300"/>
      <circle r="3" cx="15" cy="-0" fill="#00FDFF"/>
      <circle r="3" cx="15" cy="-0" fill="#FFC300"/>
      <circle r="3" cx="18" cy="-0" fill="#00FDFF"/>
      <circle r="3" cx="18" cy="-0" fill="#FFC300"/>
      <circle r="3" cx="21" cy="-0" fill="#00FDFF"/>
      <circle r="3" cx="21" cy="-0" fill="#FFC300"/>
      <circle r="3" cx="24" cy="-0" fill="#00FDFF"/>
      <circle r="3" cx="24" cy="-0" fill="#FFC300"/>
      <circle r="3" cx="27" cy="-0" fill="#00FDFF"/>
      <circle r="3" cx="27" cy="-0" fill="#FFC300"/>
      <circle r="3" cx="30" cy="-0" fill="#00FDFF"/>
      <circle r="3" cx="30" cy="-0" fill="#FFC300"/>
      <circle r="3" cx="33" cy="-0" fill="#00FDFF"/>
      <circle r="3" cx="33" cy="-0" fill="#FFC300"/>
      <circle r="3" cx="36" cy="-0" fill="#00FDFF"/>
      <circle r="3" cx="36" cy="-0" fill="#FFC300"/>
      <circle r="3" cx="39" cy="-0" fill="#00FDFF"/>
      <circle r="3" cx="39" cy="-0" fill="#FFC300"/>
      <circle r="3" cx="42" cy="-0" fill="#00FDFF"/>
      <circle r="3" cx="42" cy="-0" fill="#FFC300"/>
      <circle r="3" cx="45" cy="-0" fill="#00FDFF"/>
      <circle r="3" cx="45" cy="-0" fill="#FFC300"/>
      <circle r="3" cx="48" cy="-0" fill="#00FDFF"/>
      <circle r="3" cx="48" cy="-0" fill="#FFC300"/>
      <circle r="3" cx="51" cy="-0" fill="#00FDFF"/>
      <circle r="3" cx="51" cy="-0" fill="#FFC300"/>
      <circle r="3" cx="54" cy="-0" fill="#00FDFF"/>
      <circle r="3" cx="54" cy="-0" fill="#FFC300"/>
      <circle r="3" cx="57" cy="-0" fill="#00FDFF"/>
      <circle r="3" cx="57" cy="-0" fill="#FFC300"/>
      <circle r="3" cx="60" cy="-0" fill="#00FDFF"/>
      <circle r="3" cx="60" cy="-0" fill="#FFC300"/>
      <circle r="3" cx="63" cy="-0" fill="#00FDFF"/>
      <circle r="3" cx="63" cy="-0" fill="#FFC300"/>
      <circle r="3" cx="66" cy="-0" fill="#00FDFF"/>
      <circle r="3" cx="66" cy="-0" fill="#FFC300"/>
      <circle r="3" cx="69" cy="-0" fill="#00FDFF"/>
      <circle r="3" cx="69" cy="-0" fill="#FFC300"/>
      <circle r="3" cx="72" cy="-0" fill="#00FDFF"/>
      <circle r="3" cx="72" cy="-0" fill="#FFC300"/>
      <circle r="3" cx="75" cy="-0" fill="#00FDFF"/>
      <circle r="3" cx="75" cy="-0" fill="#FFC300"/>
      <circle r="3" cx="78" cy="-0" fill="#00FDFF"/>
      <circle r="3" cx="78" cy="-0" fill="#FFC300"/>
      <circle r="3" cx="81" cy="-0" fill="#00FDFF"/>
      <circle r="3" cx="81" cy="-0" fill="#FFC300"/>
      <circle r="3" cx="84" cy="-0" fill="#00FDFF"/>
      <circle r="3" cx="84" cy="-0" fill="#FFC300"/>
      <circle r="3" cx="87" cy="-0" fill="#00FDFF"/>
      <circle r="3" cx="87" cy="-0" fill="#FFC300"/>
      <circle r="3" cx="90" cy="-0" fill="#00FDFF"/>
      <circle r="3" cx="90" cy="-0" fill="#FFC300"/>
      <circle r="3" cx="93" cy="-0" fill="#00FDFF"/>
      <circle r="3" cx="93" cy="-0" fill="#FFC300"/>
      <circle r="3" cx="96" cy="-2" fill="#00FDFF"/>
      <circle r="3" cx="96" cy="-0" fill="#FFC300"/>
      <circle r="3" cx="99" cy="-4" fill="#00FDFF"/>
      <circle r="3" cx="99" cy="-0" fill="#FFC300"/>
      <circle r="3" cx="102" cy="-6" fill="#00FDFF"/>
      <circle r="3" cx="102" cy="-0" fill="#FFC300"/>
      <circle r="3" cx="105" cy="-8" fill="#00FDFF"/>
      <circle r="3" cx="105" cy="-0" fill="#FFC300"/>
      <circle r="3" cx="108" cy="-8" fill="#00FDFF"/>
      <circle r="3" cx="108" cy="-2" fill="#FFC300"/>
      <circle r="3" cx="111" cy="-8" fill="#00FDFF"/>
      <circle r="3" cx="111" cy="-2" fill="#FFC300"/>
      <circle r="3" cx="114" cy="-8" fill="#00FDFF"/>
      <circle r="3" cx="114" cy="-2" fill="#FFC300"/>
      <circle r="3" cx="117" cy="-8" fill="#00FDFF"/>
      <circle r="3" cx="117" cy="-2" fill="#FFC300"/>
      <circle r="3" cx="120" cy="-8" fill="#00FDFF"/>
      <circle r="3" cx="120" cy="-2" fill="#FFC300"/>
      <circle r="3" cx="123" cy="-8" fill="#00FDFF"/>
      <circle r="3" cx="123" cy="-2" fill="#FFC300"/>
      <circle r="3" cx="126" cy="-8" fill="#00FDFF"/>
      <circle r="3" cx="126" cy="-2" fill="#FFC300"/>
      <circle r="3" cx="129" cy="-8" fill="#00FDFF"/>
      <circle r="3" cx="129" cy="-2" fill="#FFC300"/>
      <circle r="3" cx="132" cy="-8" fill="#00FDFF"/>
      <circle r="3" cx="132" cy="-2" fill="#FFC300"/>
      <circle r="3" cx="135" cy="-8" fill="#00FDFF"/>
      <circle r="3" cx="135" cy="-2" fill="#FFC300"/>
      <circle r="3" cx="138" cy="-8" fill="#00FDFF"/>
      <circle r="3" cx="138" cy="-4" fill="#FFC300"/>
      <circle r="3" cx="141" cy="-8" fill="#00FDFF"/>
      <circle r="3" cx="141" cy="-6" fill="#FFC300"/>
      <circle r="3" cx="144" cy="-8" fill="#00FDFF"/>
      <circle r="3" cx="144" cy="-6" fill="#FFC300"/>
      <circle r="3" cx="147" cy="-8" fill="#00FDFF"/>
      <circle r="3" cx="147" cy="-6" fill="#FFC300"/>
      <circle r="3" cx="150" cy="-8" fill="#00FDFF"/>
      <circle r="3" cx="150" cy="-6" fill="#FFC300"/>
      <circle r="3" cx="153" cy="-8" fill="#00FDFF"/>
      <circle r="3" cx="153" cy="-6" fill="#FFC300"/>
      <circle r="3" cx="156" cy="-8" fill="#00FDFF"/>
      <circle r="3" cx="156" cy="-8" fill="#FFC300"/>
      <circle r="3" cx="159" cy="-8" fill="#00FDFF"/>
      <circle r="3" cx="159" cy="-10" fill="#FFC300"/>
      <circle r="3" cx="162" cy="-8" fill="#00FDFF"/>
      <circle r="3" cx="162" cy="-10" fill="#FFC300"/>
      <circle r="3" cx="165" cy="-8" fill="#00FDFF"/>
      <circle r="3" cx="165" cy="-10" fill="#FFC300"/>
      <circle r="3" cx="168" cy="-10" fill="#00FDFF"/>
      <circle r="3" cx="168" cy="-10" fill="#FFC300"/>
      <circle r="3" cx="171" cy="-12" fill="#00FDFF"/>
      <circle r="3" cx="171" cy="-10" fill="#FFC300"/>
      <circle r="3" cx="174" cy="-12" fill="#00FDFF"/>
      <circle r="3" cx="174" cy="-10" fill="#FFC300"/>
      <circle r="3" cx="177" cy="-12" fill="#00FDFF"/>
      <circle r="3" cx="177" cy="-10" fill="#FFC300"/>
      <circle r="3" cx="180" cy="-12" fill="#00FDFF"/>
      <circle r="3" cx="180" cy="-10" fill="#FFC300"/>
      <circle r="3" cx="183" cy="-12" fill="#00FDFF"/>
      <circle r="3" cx="183" cy="-10" fill="#FFC300"/>
      <circle r="3" cx="186" cy="-12" fill="#00FDFF"/>
      <circle r="3" cx="186" cy="-10" fill="#FFC300"/>
      <circle r="3" cx="189" cy="-12" fill="#00FDFF"/>
      <circle r="3" cx="189" cy="-10" fill="#FFC300"/>
      <circle r="3" cx="192" cy="-12" fill="#00FDFF"/>
      <circle r="3" cx="192" cy="-10" fill="#FFC300"/>
      <circle r="3" cx="195" cy="-12" fill="#00FDFF"/>
      <circle r="3" cx="195" cy="-10" fill="#FFC300"/>
      <circle r="3" cx="198" cy="-12" fill="#00FDFF"/>
      <circle r="3" cx="198" cy="-10" fill="#FFC300"/>
      <circle r="3" cx="201" cy="-12" fill="#00FDFF"/>
      <circle r="3" cx="201" cy="-10" fill="#FFC300"/>
      <circle r="3" cx="204" cy="-12" fill="#00FDFF"/>
      <circle r="3" cx="204" cy="-10" fill="#FFC300"/>
      <circle r="3" cx="207" cy="-12" fill="#00FDFF"/>
      <circle r="3" cx="207" cy="-10" fill="#FFC300"/>
      <circle r="3" cx="210" cy="-12" fill="#00FDFF"/>
      <circle r="3" cx="210" cy="-10" fill="#FFC300"/>
      <circle r="3" cx="213" cy="-12" fill="#00FDFF"/>
      <circle r="3" cx="213" cy="-10" fill="#FFC300"/>
      <circle r="3" cx="216" cy="-12" fill="#00FDFF"/>
      <circle r="3" cx="216" cy="-10" fill="#FFC300"/>
      <circle r="3" cx="219" cy="-12" fill="#00FDFF"/>
      <circle r="3" cx="219" cy="-10" fill="#FFC300"/>
      <circle r="3" cx="222" cy="-12" fill="#00FDFF"/>
      <circle r="3" cx="222" cy="-10" fill="#FFC300"/>
      <circle r="3" cx="225" cy="-12" fill="#00FDFF"/>
      <circle r="3" cx="225" cy="-10" fill="#FFC300"/>
      <circle r="3" cx="228" cy="-12" fill="#00FDFF"/>
      <circle r="3" cx="228" cy="-10" fill="#FFC300"/>
      <circle r="3" cx="231" cy="-12" fill="#00FDFF"/>
      <circle r="3" cx="231" cy="-10" fill="#FFC300"/>
      <circle r="3" cx="234" cy="-12" fill="#00FDFF"/>
      <circle r="3" cx="234" cy="-10" fill="#FFC300"/>
      <circle r="3" cx="237" cy="-12" fill="#00FDFF"/>
      <circle r="3" cx="237" cy="-10" fill="#FFC300"/>
      <circle r="3" cx="240" cy="-12" fill="#00FDFF"/>
      <circle r="3" cx="240" cy="-10" fill="#FFC300"/>
      <circle r="3" cx="243" cy="-12" fill="#00FDFF"/>
      <circle r="3" cx="243" cy="-10" fill="#FFC300"/>
      <circle r="3" cx="246" cy="-12" fill="#00FDFF"/>
      <circle r="3" cx="246" cy="-10" fill="#FFC300"/>
      <circle r="3" cx="249" cy="-12" fill="#00FDFF"/>
      <circle r="3" cx="249" cy="-10" fill="#FFC300"/>
      <circle r="3" cx="252" cy="-12" fill="#00FDFF"/>
      <circle r="3" cx="252" cy="-10" fill="#FFC300"/>
      <circle r="3" cx="255" cy="-12" fill="#00FDFF"/>
      <circle r="3" cx="255" cy="-10" fill="#FFC300"/>
      <circle r="3" cx="258" cy="-12" fill="#00FDFF"/>
      <circle r="3" cx="258" cy="-10" fill="#FFC300"/>
      <circle r="3" cx="261" cy="-12" fill="#00FDFF"/>
      <circle r="3" cx="261" cy="-10" fill="#FFC300"/>
      <circle r="3" cx="264" cy="-12" fill="#00FDFF"/>
      <circle r="3" cx="264" cy="-10" fill="#FFC300"/>
      <circle r="3" cx="267" cy="-12" fill="#00FDFF"/>
      <circle r="3" cx="267" cy="-10" fill="#FFC300"/>
      <circle r="3" cx="270" cy="-12" fill="#00FDFF"/>
      <circle r="3" cx="270" cy="-10" fill="#FFC300"/>
      <circle r="3" cx="273" cy="-12" fill="#00FDFF"/>
      <circle r="3" cx="273" cy="-10" fill="#FFC300"/>
      <circle r="3" cx="276" cy="-12" fill="#00FDFF"/>
      <circle r="3" cx="276" cy="-10" fill="#FFC300"/>
      <circle r="3" cx="279" cy="-12" fill="#00FDFF"/>
      <circle r="3" cx="279" cy="-10" fill="#FFC300"/>
      <circle r="3" cx="282" cy="-12" fill="#00FDFF"/>
      <circle r="3" cx="282" cy="-10" fill="#FFC300"/>
      <circle r="3" cx="285" cy="-12" fill="#00FDFF"/>
      <circle r="3" cx="285" cy="-10" fill="#FFC300"/>
      <circle r="3" cx="288" cy="-12" fill="#00FDFF"/>
      <circle r="3" cx="288" cy="-10" fill="#FFC300"/>
      <circle r="3" cx="291" cy="-12" fill="#00FDFF"/>
      <circle r="3" cx="291" cy="-10" fill="#FFC300"/>
      <circle r="3" cx="294" cy="-12" fill="#00FDFF"/>
      <circle r="3" cx="294" cy="-10" fill="#FFC300"/>
      <circle r="3" cx="297" cy="-12" fill="#00FDFF"/>
      <circle r="3" cx="297" cy="-10" fill="#FFC300"/>
      <circle r="3" cx="300" cy="-12" fill="#00FDFF"/>
      <circle r="3" cx="300" cy="-10" fill="#FFC300"/>
      <circle r="3" cx="303" cy="-12" fill="#00FDFF"/>
      <circle r="3" cx="303" cy="-10" fill="#FFC300"/>
      <circle r="3" cx="306" cy="-12" fill="#00FDFF"/>
      <circle r="3" cx="306" cy="-10" fill="#FFC300"/>
      <circle r="3" cx="309" cy="-12" fill="#00FDFF"/>
      <circle r="3" cx="309" cy="-10" fill="#FFC300"/>
      <circle r="3" cx="312" cy="-12" fill="#00FDFF"/>
      <circle r="3" cx="312" cy="-10" fill="#FFC300"/>
      <circle r="3" cx="315" cy="-12" fill="#00FDFF"/>
      <circle r="3" cx="315" cy="-10" fill="#FFC300"/>
      <circle r="3" cx="318" cy="-12" fill="#00FDFF"/>
      <circle r="3" cx="318" cy="-10" fill="#FFC300"/>
      <circle r="3" cx="321" cy="-12" fill="#00FDFF"/>
      <circle r="3" cx="321" cy="-10" fill="#FFC300"/>
      <circle r="3" cx="324" cy="-12" fill="#00FDFF"/>
      <circle r="3" cx="324" cy="-10" fill="#FFC300"/>
      <circle r="3" cx="327" cy="-12" fill="#00FDFF"/>
      <circle r="3" cx="327" cy="-10" fill="#FFC300"/>
      <circle r="3" cx="330" cy="-12" fill="#00FDFF"/>
      <circle r="3" cx="330" cy="-10" fill="#FFC300"/>
      <circle r="3" cx="333" cy="-12" fill="#00FDFF"/>
      <circle r="3" cx="333" cy="-10" fill="#FFC300"/>
      <circle r="3" cx="336" cy="-12" fill="#00FDFF"/>
      <circle r="3" cx="336" cy="-10" fill="#FFC300"/>
      <circle r="3" cx="339" cy="-12" fill="#00FDFF"/>
      <circle r="3" cx="339" cy="-10" fill="#FFC300"/>
      <circle r="3" cx="342" cy="-12" fill="#00FDFF"/>
      <circle r="3" cx="342" cy="-10" fill="#FFC300"/>
      <circle r="3" cx="345" cy="-12" fill="#00FDFF"/>
      <circle r="3" cx="345" cy="-10" fill="#FFC300"/>
      <circle r="3" cx="348" cy="-12" fill="#00FDFF"/>
      <circle r="3" cx="348" cy="-10" fill="#FFC300"/>
      <circle r="3" cx="351" cy="-12" fill="#00FDFF"/>
      <circle r="3" cx="351" cy="-10" fill="#FFC300"/>
      <circle r="3" cx="354" cy="-12" fill="#00FDFF"/>
      <circle r="3" cx="354" cy="-10" fill="#FFC300"/>
      <circle r="3" cx="357" cy="-12" fill="#00FDFF"/>
      <circle r="3" cx="357" cy="-10" fill="#FFC300"/>
      <circle r="3" cx="360" cy="-12" fill="#00FDFF"/>
      <circle r="3" cx="360" cy="-10" fill="#FFC300"/>
      <circle r="3" cx="363" cy="-12" fill="#00FDFF"/>
      <circle r="3" cx="363" cy="-10" fill="#FFC300"/>
      <circle r="3" cx="366" cy="-12" fill="#00FDFF"/>
      <circle r="3" cx="366" cy="-10" fill="#FFC300"/>
      <circle r="3" cx="369" cy="-12" fill="#00FDFF"/>
      <circle r="3" cx="369" cy="-10" fill="#FFC300"/>
      <circle r="3" cx="372" cy="-12" fill="#00FDFF"/>
      <circle r="3" cx="372" cy="-10" fill="#FFC300"/>
      <circle r="3" cx="375" cy="-12" fill="#00FDFF"/>
      <circle r="3" cx="375" cy="-10" fill="#FFC300"/>
      <circle r="3" cx="378" cy="-12" fill="#00FDFF"/>
      <circle r="3" cx="378" cy="-10" fill="#FFC300"/>
      <circle r="3" cx="381" cy="-12" fill="#00FDFF"/>
      <circle r="3" cx="381" cy="-10" fill="#FFC300"/>
      <circle r="3" cx="384" cy="-12" fill="#00FDFF"/>
      <circle r="3" cx="384" cy="-10" fill="#FFC300"/>
      <circle r="3" cx="387" cy="-12" fill="#00FDFF"/>
      <circle r="3" cx="387" cy="-10" fill="#FFC300"/>
      <circle r="3" cx="390" cy="-12" fill="#00FDFF"/>
      <circle r="3" cx="390" cy="-10" fill="#FFC300"/>
      <circle r="3" cx="393" cy="-12" fill="#00FDFF"/>
      <circle r="3" cx="393" cy="-10" fill="#FFC300"/>
      <circle r="3" cx="396" cy="-12" fill="#00FDFF"/>
      <circle r="3" cx="396" cy="-10" fill="#FFC300"/>
      <circle r="3" cx="399" cy="-12" fill="#00FDFF"/>
      <circle r="3" cx="399" cy="-10" fill="#FFC300"/>
      <circle r="3" cx="402" cy="-12" fill="#00FDFF"/>
      <circle r="3" cx="402" cy="-10" fill="#FFC300"/>
      <circle r="3" cx="405" cy="-12" fill="#00FDFF"/>
      <circle r="3" cx="405" cy="-10" fill="#FFC300"/>
      <circle r="3" cx="408" cy="-12" fill="#00FDFF"/>
      <circle r="3" cx="408" cy="-10" fill="#FFC300"/>
      <circle r="3" cx="411" cy="-12" fill="#00FDFF"/>
      <circle r="3" cx="411" cy="-10" fill="#FFC300"/>
      <circle r="3" cx="414" cy="-12" fill="#00FDFF"/>
      <circle r="3" cx="414" cy="-10" fill="#FFC300"/>
      <circle r="3" cx="417" cy="-12" fill="#00FDFF"/>
      <circle r="3" cx="417" cy="-10" fill="#FFC300"/>
      <circle r="3" cx="420" cy="-12" fill="#00FDFF"/>
      <circle r="3" cx="420" cy="-10" fill="#FFC300"/>
      <circle r="3" cx="423" cy="-12" fill="#00FDFF"/>
      <circle r="3" cx="423" cy="-10" fill="#FFC300"/>
      <circle r="3" cx="426" cy="-12" fill="#00FDFF"/>
      <circle r="3" cx="426" cy="-10" fill="#FFC300"/>
      <circle r="3" cx="429" cy="-12" fill="#00FDFF"/>
      <circle r="3" cx="429" cy="-10" fill="#FFC300"/>
      <circle r="3" cx="432" cy="-12" fill="#00FDFF"/>
      <circle r="3" cx="432" cy="-10" fill="#FFC300"/>
      <circle r="3" cx="435" cy="-12" fill="#00FDFF"/>
      <circle r="3" cx="435" cy="-10" fill="#FFC300"/>
      <circle r="3" cx="438" cy="-12" fill="#00FDFF"/>
      <circle r="3" cx="438" cy="-10" fill="#FFC300"/>
      <circle r="3" cx="441" cy="-12" fill="#00FDFF"/>
      <circle r="3" cx="441" cy="-10" fill="#FFC300"/>
      <circle r="3" cx="444" cy="-12" fill="#00FDFF"/>
      <circle r="3" cx="444" cy="-10" fill="#FFC300"/>
      <circle r="3" cx="447" cy="-12" fill="#00FDFF"/>
      <circle r="3" cx="447" cy="-10" fill="#FFC300"/>
      <circle r="3" cx="450" cy="-12" fill="#00FDFF"/>
      <circle r="3" cx="450" cy="-10" fill="#FFC300"/>
      <circle r="3" cx="453" cy="-12" fill="#00FDFF"/>
      <circle r="3" cx="453" cy="-10" fill="#FFC300"/>
      <circle r="3" cx="456" cy="-12" fill="#00FDFF"/>
      <circle r="3" cx="456" cy="-10" fill="#FFC300"/>
      <circle r="3" cx="459" cy="-12" fill="#00FDFF"/>
      <circle r="3" cx="459" cy="-10" fill="#FFC300"/>
      <circle r="3" cx="462" cy="-12" fill="#00FDFF"/>
      <circle r="3" cx="462" cy="-10" fill="#FFC300"/>
      <circle r="3" cx="465" cy="-12" fill="#00FDFF"/>
      <circle r="3" cx="465" cy="-10" fill="#FFC300"/>
      <circle r="3" cx="468" cy="-12" fill="#00FDFF"/>
      <circle r="3" cx="468" cy="-10" fill="#FFC300"/>
      <circle r="3" cx="471" cy="-12" fill="#00FDFF"/>
      <circle r="3" cx="471" cy="-10" fill="#FFC300"/>
      <circle r="3" cx="474" cy="-12" fill="#00FDFF"/>
      <circle r="3" cx="474" cy="-10" fill="#FFC300"/>
      <circle r="3" cx="477" cy="-12" fill="#00FDFF"/>
      <circle r="3" cx="477" cy="-10" fill="#FFC300"/>
      <circle r="3" cx="480" cy="-12" fill="#00FDFF"/>
      <circle r="3" cx="480" cy="-10" fill="#FFC300"/>
      <circle r="3" cx="483" cy="-12" fill="#00FDFF"/>
      <circle r="3" cx="483" cy="-10" fill="#FFC300"/>
      <circle r="3" cx="486" cy="-12" fill="#00FDFF"/>
      <circle r="3" cx="486" cy="-10" fill="#FFC300"/>
      <circle r="3" cx="489" cy="-12" fill="#00FDFF"/>
      <circle r="3" cx="489" cy="-10" fill="#FFC300"/>
      <text x="495"
            y="-12"
            text-anchor="start"
            alignment-baseline="central"
            fill="#00FDFF">divine</text>
      <text x="495"
            y="-10"
            text-anchor="start"
            alignment-baseline="central"
            fill="#FFC300">earthly</text>
      <line x1="0" y1="0" x2="489" y2="0" stroke="black"/>
      <line x1="0" y1="0" x2="0" y2="-37" stroke="black"/>
      <text x="-50"
            y="-6"
            text-anchor="middle"
            font-size="larger"
            transform="rotate(-90 -50 -6)">Occurrences</text>
      <text x="492"
            y="-3"
            text-anchor="start"
            font-size="larger"
            alignment-baseline="baseline">Percentage
                    of Scene</text>
      <text x="244.5"
            y="-62"
            text-anchor="middle"
            font-size="larger"
            text-decoration="underline">OCCURRENCE OF DIVINE AND
                    EARTHLY TRAITS THROUGHOUT SCENE XIX.
                        NIGHT</text>
   </g>
</svg>
