<?xml version="1.0" encoding="UTF-8"?>
<svg xmlns="http://www.w3.org/2000/svg" viewBox="0 -70 730 335">
   <g transform="translate(100, 210)">
      <line x1="-10" y1="-25" x2="0" y2="-25" stroke="black"/>
      <line x1="56" y1="-10" x2="56" y2="10" stroke="black"/>
      <line x1="0" y1="-25" x2="560" y2="-25" stroke="lightgrey"/>
      <text x="-15" y="-25" text-anchor="end" alignment-baseline="central">5</text>
      <text x="55" y="3" text-anchor="end" alignment-baseline="hanging">10%</text>
      <line x1="-10" y1="-50" x2="0" y2="-50" stroke="black"/>
      <line x1="112" y1="-10" x2="112" y2="10" stroke="black"/>
      <line x1="0" y1="-50" x2="560" y2="-50" stroke="lightgrey"/>
      <text x="-15" y="-50" text-anchor="end" alignment-baseline="central">10</text>
      <text x="111" y="3" text-anchor="end" alignment-baseline="hanging">20%</text>
      <line x1="-10" y1="-75" x2="0" y2="-75" stroke="black"/>
      <line x1="168" y1="-10" x2="168" y2="10" stroke="black"/>
      <line x1="0" y1="-75" x2="560" y2="-75" stroke="lightgrey"/>
      <text x="-15" y="-75" text-anchor="end" alignment-baseline="central">15</text>
      <text x="167" y="3" text-anchor="end" alignment-baseline="hanging">30%</text>
      <line x1="-10" y1="-100" x2="0" y2="-100" stroke="black"/>
      <line x1="224" y1="-10" x2="224" y2="10" stroke="black"/>
      <line x1="0" y1="-100" x2="560" y2="-100" stroke="lightgrey"/>
      <text x="-15" y="-100" text-anchor="end" alignment-baseline="central">20</text>
      <text x="223" y="3" text-anchor="end" alignment-baseline="hanging">40%</text>
      <line x1="-10" y1="-125" x2="0" y2="-125" stroke="black"/>
      <line x1="280" y1="-10" x2="280" y2="10" stroke="black"/>
      <line x1="0" y1="-125" x2="560" y2="-125" stroke="lightgrey"/>
      <text x="-15" y="-125" text-anchor="end" alignment-baseline="central">25</text>
      <text x="279" y="3" text-anchor="end" alignment-baseline="hanging">50%</text>
      <line x1="-10" y1="-150" x2="0" y2="-150" stroke="black"/>
      <line x1="336" y1="-10" x2="336" y2="10" stroke="black"/>
      <line x1="0" y1="-150" x2="560" y2="-150" stroke="lightgrey"/>
      <text x="-15" y="-150" text-anchor="end" alignment-baseline="central">30</text>
      <text x="335" y="3" text-anchor="end" alignment-baseline="hanging">60%</text>
      <line x1="-10" y1="-175" x2="0" y2="-175" stroke="black"/>
      <line x1="392" y1="-10" x2="392" y2="10" stroke="black"/>
      <line x1="0" y1="-175" x2="560" y2="-175" stroke="lightgrey"/>
      <text x="-15" y="-175" text-anchor="end" alignment-baseline="central">35</text>
      <text x="391" y="3" text-anchor="end" alignment-baseline="hanging">70%</text>
      <line x1="-10" y1="-200" x2="0" y2="-200" stroke="black"/>
      <line x1="448" y1="-10" x2="448" y2="10" stroke="black"/>
      <line x1="0" y1="-200" x2="560" y2="-200" stroke="lightgrey"/>
      <text x="-15" y="-200" text-anchor="end" alignment-baseline="central">40</text>
      <text x="447" y="3" text-anchor="end" alignment-baseline="hanging">80%</text>
      <line x1="-10" y1="-225" x2="0" y2="-225" stroke="black"/>
      <line x1="504" y1="-10" x2="504" y2="10" stroke="black"/>
      <line x1="0" y1="-225" x2="560" y2="-225" stroke="lightgrey"/>
      <text x="-15" y="-225" text-anchor="end" alignment-baseline="central">45</text>
      <text x="503" y="3" text-anchor="end" alignment-baseline="hanging">90%</text>
      <line x1="-10" y1="-250" x2="0" y2="-250" stroke="black"/>
      <line x1="560" y1="-10" x2="560" y2="10" stroke="black"/>
      <line x1="0" y1="-250" x2="560" y2="-250" stroke="lightgrey"/>
      <text x="-15" y="-250" text-anchor="end" alignment-baseline="central">50</text>
      <text x="559" y="3" text-anchor="end" alignment-baseline="hanging">100%</text>
      <line x1="-10" y1="0" x2="0" y2="0" stroke="black"/>
      <text x="-15" y="0" text-anchor="end" alignment-baseline="central">0</text>
      <circle r="3" cx="4" cy="-0" fill="#00FDFF"/>
      <circle r="3" cx="4" cy="-0" fill="#FFC300"/>
      <circle r="3" cx="4" cy="-0" fill="magenta"/>
      <circle r="3" cx="8" cy="-0" fill="#00FDFF"/>
      <circle r="3" cx="8" cy="-0" fill="#FFC300"/>
      <circle r="3" cx="8" cy="-0" fill="magenta"/>
      <circle r="3" cx="12" cy="-0" fill="#00FDFF"/>
      <circle r="3" cx="12" cy="-5" fill="#FFC300"/>
      <circle r="3" cx="16" cy="-0" fill="#00FDFF"/>
      <circle r="3" cx="16" cy="-5" fill="#FFC300"/>
      <circle r="3" cx="20" cy="-0" fill="#00FDFF"/>
      <circle r="3" cx="20" cy="-5" fill="#FFC300"/>
      <circle r="3" cx="24" cy="-0" fill="#00FDFF"/>
      <circle r="3" cx="24" cy="-5" fill="#FFC300"/>
      <circle r="3" cx="28" cy="-0" fill="#00FDFF"/>
      <circle r="3" cx="28" cy="-10" fill="#FFC300"/>
      <circle r="3" cx="32" cy="-0" fill="#00FDFF"/>
      <circle r="3" cx="32" cy="-15" fill="#FFC300"/>
      <circle r="3" cx="36" cy="-0" fill="#00FDFF"/>
      <circle r="3" cx="36" cy="-20" fill="#FFC300"/>
      <circle r="3" cx="40" cy="-0" fill="#00FDFF"/>
      <circle r="3" cx="40" cy="-20" fill="#FFC300"/>
      <circle r="3" cx="44" cy="-0" fill="#00FDFF"/>
      <circle r="3" cx="44" cy="-25" fill="#FFC300"/>
      <circle r="3" cx="48" cy="-0" fill="#00FDFF"/>
      <circle r="3" cx="48" cy="-25" fill="#FFC300"/>
      <circle r="3" cx="52" cy="-0" fill="#00FDFF"/>
      <circle r="3" cx="52" cy="-25" fill="#FFC300"/>
      <circle r="3" cx="56" cy="-5" fill="#00FDFF"/>
      <circle r="3" cx="56" cy="-25" fill="#FFC300"/>
      <circle r="3" cx="60" cy="-5" fill="#00FDFF"/>
      <circle r="3" cx="60" cy="-25" fill="#FFC300"/>
      <circle r="3" cx="64" cy="-5" fill="#00FDFF"/>
      <circle r="3" cx="64" cy="-25" fill="#FFC300"/>
      <circle r="3" cx="68" cy="-5" fill="#00FDFF"/>
      <circle r="3" cx="68" cy="-25" fill="#FFC300"/>
      <circle r="3" cx="72" cy="-5" fill="#00FDFF"/>
      <circle r="3" cx="72" cy="-30" fill="#FFC300"/>
      <circle r="3" cx="76" cy="-5" fill="#00FDFF"/>
      <circle r="3" cx="76" cy="-35" fill="#FFC300"/>
      <circle r="3" cx="80" cy="-5" fill="#00FDFF"/>
      <circle r="3" cx="80" cy="-40" fill="#FFC300"/>
      <circle r="3" cx="84" cy="-5" fill="#00FDFF"/>
      <circle r="3" cx="84" cy="-45" fill="#FFC300"/>
      <circle r="3" cx="88" cy="-5" fill="#00FDFF"/>
      <circle r="3" cx="88" cy="-50" fill="#FFC300"/>
      <circle r="3" cx="92" cy="-5" fill="#00FDFF"/>
      <circle r="3" cx="92" cy="-50" fill="#FFC300"/>
      <circle r="3" cx="96" cy="-5" fill="#00FDFF"/>
      <circle r="3" cx="96" cy="-55" fill="#FFC300"/>
      <circle r="3" cx="100" cy="-5" fill="#00FDFF"/>
      <circle r="3" cx="100" cy="-60" fill="#FFC300"/>
      <circle r="3" cx="104" cy="-5" fill="#00FDFF"/>
      <circle r="3" cx="104" cy="-65" fill="#FFC300"/>
      <circle r="3" cx="108" cy="-5" fill="#00FDFF"/>
      <circle r="3" cx="108" cy="-70" fill="#FFC300"/>
      <circle r="3" cx="112" cy="-10" fill="#00FDFF"/>
      <circle r="3" cx="112" cy="-70" fill="#FFC300"/>
      <circle r="3" cx="116" cy="-15" fill="#00FDFF"/>
      <circle r="3" cx="116" cy="-70" fill="#FFC300"/>
      <circle r="3" cx="120" cy="-20" fill="#00FDFF"/>
      <circle r="3" cx="120" cy="-70" fill="#FFC300"/>
      <circle r="3" cx="124" cy="-25" fill="#00FDFF"/>
      <circle r="3" cx="124" cy="-70" fill="#FFC300"/>
      <circle r="3" cx="128" cy="-30" fill="#00FDFF"/>
      <circle r="3" cx="128" cy="-70" fill="#FFC300"/>
      <circle r="3" cx="132" cy="-35" fill="#00FDFF"/>
      <circle r="3" cx="132" cy="-70" fill="#FFC300"/>
      <circle r="3" cx="136" cy="-40" fill="#00FDFF"/>
      <circle r="3" cx="136" cy="-70" fill="#FFC300"/>
      <circle r="3" cx="140" cy="-45" fill="#00FDFF"/>
      <circle r="3" cx="140" cy="-70" fill="#FFC300"/>
      <circle r="3" cx="144" cy="-50" fill="#00FDFF"/>
      <circle r="3" cx="144" cy="-70" fill="#FFC300"/>
      <circle r="3" cx="148" cy="-55" fill="#00FDFF"/>
      <circle r="3" cx="148" cy="-70" fill="#FFC300"/>
      <circle r="3" cx="152" cy="-60" fill="#00FDFF"/>
      <circle r="3" cx="152" cy="-70" fill="#FFC300"/>
      <circle r="3" cx="156" cy="-65" fill="#00FDFF"/>
      <circle r="3" cx="156" cy="-70" fill="#FFC300"/>
      <circle r="3" cx="160" cy="-70" fill="#00FDFF"/>
      <circle r="3" cx="160" cy="-70" fill="#FFC300"/>
      <circle r="3" cx="160" cy="-70" fill="magenta"/>
      <circle r="3" cx="164" cy="-75" fill="#00FDFF"/>
      <circle r="3" cx="164" cy="-70" fill="#FFC300"/>
      <circle r="3" cx="168" cy="-80" fill="#00FDFF"/>
      <circle r="3" cx="168" cy="-70" fill="#FFC300"/>
      <circle r="3" cx="172" cy="-85" fill="#00FDFF"/>
      <circle r="3" cx="172" cy="-70" fill="#FFC300"/>
      <circle r="3" cx="176" cy="-85" fill="#00FDFF"/>
      <circle r="3" cx="176" cy="-75" fill="#FFC300"/>
      <circle r="3" cx="180" cy="-85" fill="#00FDFF"/>
      <circle r="3" cx="180" cy="-80" fill="#FFC300"/>
      <circle r="3" cx="184" cy="-85" fill="#00FDFF"/>
      <circle r="3" cx="184" cy="-85" fill="#FFC300"/>
      <circle r="3" cx="184" cy="-85" fill="magenta"/>
      <circle r="3" cx="188" cy="-85" fill="#00FDFF"/>
      <circle r="3" cx="188" cy="-90" fill="#FFC300"/>
      <circle r="3" cx="192" cy="-85" fill="#00FDFF"/>
      <circle r="3" cx="192" cy="-95" fill="#FFC300"/>
      <circle r="3" cx="196" cy="-85" fill="#00FDFF"/>
      <circle r="3" cx="196" cy="-100" fill="#FFC300"/>
      <circle r="3" cx="200" cy="-85" fill="#00FDFF"/>
      <circle r="3" cx="200" cy="-105" fill="#FFC300"/>
      <circle r="3" cx="204" cy="-85" fill="#00FDFF"/>
      <circle r="3" cx="204" cy="-110" fill="#FFC300"/>
      <circle r="3" cx="208" cy="-85" fill="#00FDFF"/>
      <circle r="3" cx="208" cy="-110" fill="#FFC300"/>
      <circle r="3" cx="212" cy="-85" fill="#00FDFF"/>
      <circle r="3" cx="212" cy="-110" fill="#FFC300"/>
      <circle r="3" cx="216" cy="-85" fill="#00FDFF"/>
      <circle r="3" cx="216" cy="-110" fill="#FFC300"/>
      <circle r="3" cx="220" cy="-85" fill="#00FDFF"/>
      <circle r="3" cx="220" cy="-115" fill="#FFC300"/>
      <circle r="3" cx="224" cy="-85" fill="#00FDFF"/>
      <circle r="3" cx="224" cy="-120" fill="#FFC300"/>
      <circle r="3" cx="228" cy="-85" fill="#00FDFF"/>
      <circle r="3" cx="228" cy="-125" fill="#FFC300"/>
      <circle r="3" cx="232" cy="-85" fill="#00FDFF"/>
      <circle r="3" cx="232" cy="-130" fill="#FFC300"/>
      <circle r="3" cx="236" cy="-85" fill="#00FDFF"/>
      <circle r="3" cx="236" cy="-130" fill="#FFC300"/>
      <circle r="3" cx="240" cy="-85" fill="#00FDFF"/>
      <circle r="3" cx="240" cy="-130" fill="#FFC300"/>
      <circle r="3" cx="244" cy="-85" fill="#00FDFF"/>
      <circle r="3" cx="244" cy="-130" fill="#FFC300"/>
      <circle r="3" cx="248" cy="-85" fill="#00FDFF"/>
      <circle r="3" cx="248" cy="-135" fill="#FFC300"/>
      <circle r="3" cx="252" cy="-85" fill="#00FDFF"/>
      <circle r="3" cx="252" cy="-135" fill="#FFC300"/>
      <circle r="3" cx="256" cy="-85" fill="#00FDFF"/>
      <circle r="3" cx="256" cy="-135" fill="#FFC300"/>
      <circle r="3" cx="260" cy="-85" fill="#00FDFF"/>
      <circle r="3" cx="260" cy="-140" fill="#FFC300"/>
      <circle r="3" cx="264" cy="-85" fill="#00FDFF"/>
      <circle r="3" cx="264" cy="-140" fill="#FFC300"/>
      <circle r="3" cx="268" cy="-85" fill="#00FDFF"/>
      <circle r="3" cx="268" cy="-140" fill="#FFC300"/>
      <circle r="3" cx="272" cy="-85" fill="#00FDFF"/>
      <circle r="3" cx="272" cy="-140" fill="#FFC300"/>
      <circle r="3" cx="276" cy="-85" fill="#00FDFF"/>
      <circle r="3" cx="276" cy="-140" fill="#FFC300"/>
      <circle r="3" cx="280" cy="-85" fill="#00FDFF"/>
      <circle r="3" cx="280" cy="-140" fill="#FFC300"/>
      <circle r="3" cx="284" cy="-85" fill="#00FDFF"/>
      <circle r="3" cx="284" cy="-145" fill="#FFC300"/>
      <circle r="3" cx="288" cy="-85" fill="#00FDFF"/>
      <circle r="3" cx="288" cy="-145" fill="#FFC300"/>
      <circle r="3" cx="292" cy="-85" fill="#00FDFF"/>
      <circle r="3" cx="292" cy="-145" fill="#FFC300"/>
      <circle r="3" cx="296" cy="-85" fill="#00FDFF"/>
      <circle r="3" cx="296" cy="-145" fill="#FFC300"/>
      <circle r="3" cx="300" cy="-85" fill="#00FDFF"/>
      <circle r="3" cx="300" cy="-145" fill="#FFC300"/>
      <circle r="3" cx="304" cy="-85" fill="#00FDFF"/>
      <circle r="3" cx="304" cy="-145" fill="#FFC300"/>
      <circle r="3" cx="308" cy="-85" fill="#00FDFF"/>
      <circle r="3" cx="308" cy="-145" fill="#FFC300"/>
      <circle r="3" cx="312" cy="-85" fill="#00FDFF"/>
      <circle r="3" cx="312" cy="-150" fill="#FFC300"/>
      <circle r="3" cx="316" cy="-85" fill="#00FDFF"/>
      <circle r="3" cx="316" cy="-150" fill="#FFC300"/>
      <circle r="3" cx="320" cy="-85" fill="#00FDFF"/>
      <circle r="3" cx="320" cy="-150" fill="#FFC300"/>
      <circle r="3" cx="324" cy="-85" fill="#00FDFF"/>
      <circle r="3" cx="324" cy="-150" fill="#FFC300"/>
      <circle r="3" cx="328" cy="-85" fill="#00FDFF"/>
      <circle r="3" cx="328" cy="-150" fill="#FFC300"/>
      <circle r="3" cx="332" cy="-85" fill="#00FDFF"/>
      <circle r="3" cx="332" cy="-150" fill="#FFC300"/>
      <circle r="3" cx="336" cy="-85" fill="#00FDFF"/>
      <circle r="3" cx="336" cy="-150" fill="#FFC300"/>
      <circle r="3" cx="340" cy="-85" fill="#00FDFF"/>
      <circle r="3" cx="340" cy="-150" fill="#FFC300"/>
      <circle r="3" cx="344" cy="-85" fill="#00FDFF"/>
      <circle r="3" cx="344" cy="-150" fill="#FFC300"/>
      <circle r="3" cx="348" cy="-85" fill="#00FDFF"/>
      <circle r="3" cx="348" cy="-150" fill="#FFC300"/>
      <circle r="3" cx="352" cy="-85" fill="#00FDFF"/>
      <circle r="3" cx="352" cy="-150" fill="#FFC300"/>
      <circle r="3" cx="356" cy="-90" fill="#00FDFF"/>
      <circle r="3" cx="356" cy="-150" fill="#FFC300"/>
      <circle r="3" cx="360" cy="-90" fill="#00FDFF"/>
      <circle r="3" cx="360" cy="-150" fill="#FFC300"/>
      <circle r="3" cx="364" cy="-90" fill="#00FDFF"/>
      <circle r="3" cx="364" cy="-150" fill="#FFC300"/>
      <circle r="3" cx="368" cy="-90" fill="#00FDFF"/>
      <circle r="3" cx="368" cy="-150" fill="#FFC300"/>
      <circle r="3" cx="372" cy="-90" fill="#00FDFF"/>
      <circle r="3" cx="372" cy="-150" fill="#FFC300"/>
      <circle r="3" cx="376" cy="-90" fill="#00FDFF"/>
      <circle r="3" cx="376" cy="-150" fill="#FFC300"/>
      <circle r="3" cx="380" cy="-90" fill="#00FDFF"/>
      <circle r="3" cx="380" cy="-150" fill="#FFC300"/>
      <circle r="3" cx="384" cy="-90" fill="#00FDFF"/>
      <circle r="3" cx="384" cy="-155" fill="#FFC300"/>
      <circle r="3" cx="388" cy="-90" fill="#00FDFF"/>
      <circle r="3" cx="388" cy="-155" fill="#FFC300"/>
      <circle r="3" cx="392" cy="-90" fill="#00FDFF"/>
      <circle r="3" cx="392" cy="-160" fill="#FFC300"/>
      <circle r="3" cx="396" cy="-90" fill="#00FDFF"/>
      <circle r="3" cx="396" cy="-165" fill="#FFC300"/>
      <circle r="3" cx="400" cy="-90" fill="#00FDFF"/>
      <circle r="3" cx="400" cy="-170" fill="#FFC300"/>
      <circle r="3" cx="404" cy="-90" fill="#00FDFF"/>
      <circle r="3" cx="404" cy="-170" fill="#FFC300"/>
      <circle r="3" cx="408" cy="-90" fill="#00FDFF"/>
      <circle r="3" cx="408" cy="-170" fill="#FFC300"/>
      <circle r="3" cx="412" cy="-90" fill="#00FDFF"/>
      <circle r="3" cx="412" cy="-170" fill="#FFC300"/>
      <circle r="3" cx="416" cy="-90" fill="#00FDFF"/>
      <circle r="3" cx="416" cy="-170" fill="#FFC300"/>
      <circle r="3" cx="420" cy="-90" fill="#00FDFF"/>
      <circle r="3" cx="420" cy="-170" fill="#FFC300"/>
      <circle r="3" cx="424" cy="-90" fill="#00FDFF"/>
      <circle r="3" cx="424" cy="-175" fill="#FFC300"/>
      <circle r="3" cx="428" cy="-90" fill="#00FDFF"/>
      <circle r="3" cx="428" cy="-180" fill="#FFC300"/>
      <circle r="3" cx="432" cy="-90" fill="#00FDFF"/>
      <circle r="3" cx="432" cy="-185" fill="#FFC300"/>
      <circle r="3" cx="436" cy="-90" fill="#00FDFF"/>
      <circle r="3" cx="436" cy="-190" fill="#FFC300"/>
      <circle r="3" cx="440" cy="-90" fill="#00FDFF"/>
      <circle r="3" cx="440" cy="-190" fill="#FFC300"/>
      <circle r="3" cx="444" cy="-90" fill="#00FDFF"/>
      <circle r="3" cx="444" cy="-190" fill="#FFC300"/>
      <circle r="3" cx="448" cy="-90" fill="#00FDFF"/>
      <circle r="3" cx="448" cy="-195" fill="#FFC300"/>
      <circle r="3" cx="452" cy="-90" fill="#00FDFF"/>
      <circle r="3" cx="452" cy="-195" fill="#FFC300"/>
      <circle r="3" cx="456" cy="-90" fill="#00FDFF"/>
      <circle r="3" cx="456" cy="-195" fill="#FFC300"/>
      <circle r="3" cx="460" cy="-90" fill="#00FDFF"/>
      <circle r="3" cx="460" cy="-195" fill="#FFC300"/>
      <circle r="3" cx="464" cy="-90" fill="#00FDFF"/>
      <circle r="3" cx="464" cy="-195" fill="#FFC300"/>
      <circle r="3" cx="468" cy="-90" fill="#00FDFF"/>
      <circle r="3" cx="468" cy="-195" fill="#FFC300"/>
      <circle r="3" cx="472" cy="-90" fill="#00FDFF"/>
      <circle r="3" cx="472" cy="-200" fill="#FFC300"/>
      <circle r="3" cx="476" cy="-90" fill="#00FDFF"/>
      <circle r="3" cx="476" cy="-200" fill="#FFC300"/>
      <circle r="3" cx="480" cy="-90" fill="#00FDFF"/>
      <circle r="3" cx="480" cy="-200" fill="#FFC300"/>
      <circle r="3" cx="484" cy="-90" fill="#00FDFF"/>
      <circle r="3" cx="484" cy="-200" fill="#FFC300"/>
      <circle r="3" cx="488" cy="-90" fill="#00FDFF"/>
      <circle r="3" cx="488" cy="-200" fill="#FFC300"/>
      <circle r="3" cx="492" cy="-90" fill="#00FDFF"/>
      <circle r="3" cx="492" cy="-200" fill="#FFC300"/>
      <circle r="3" cx="496" cy="-90" fill="#00FDFF"/>
      <circle r="3" cx="496" cy="-200" fill="#FFC300"/>
      <circle r="3" cx="500" cy="-95" fill="#00FDFF"/>
      <circle r="3" cx="500" cy="-200" fill="#FFC300"/>
      <circle r="3" cx="504" cy="-100" fill="#00FDFF"/>
      <circle r="3" cx="504" cy="-200" fill="#FFC300"/>
      <circle r="3" cx="508" cy="-105" fill="#00FDFF"/>
      <circle r="3" cx="508" cy="-200" fill="#FFC300"/>
      <circle r="3" cx="512" cy="-110" fill="#00FDFF"/>
      <circle r="3" cx="512" cy="-200" fill="#FFC300"/>
      <circle r="3" cx="516" cy="-110" fill="#00FDFF"/>
      <circle r="3" cx="516" cy="-205" fill="#FFC300"/>
      <circle r="3" cx="520" cy="-110" fill="#00FDFF"/>
      <circle r="3" cx="520" cy="-210" fill="#FFC300"/>
      <circle r="3" cx="524" cy="-110" fill="#00FDFF"/>
      <circle r="3" cx="524" cy="-210" fill="#FFC300"/>
      <circle r="3" cx="528" cy="-110" fill="#00FDFF"/>
      <circle r="3" cx="528" cy="-210" fill="#FFC300"/>
      <circle r="3" cx="532" cy="-115" fill="#00FDFF"/>
      <circle r="3" cx="532" cy="-210" fill="#FFC300"/>
      <circle r="3" cx="536" cy="-115" fill="#00FDFF"/>
      <circle r="3" cx="536" cy="-210" fill="#FFC300"/>
      <circle r="3" cx="540" cy="-115" fill="#00FDFF"/>
      <circle r="3" cx="540" cy="-210" fill="#FFC300"/>
      <circle r="3" cx="544" cy="-115" fill="#00FDFF"/>
      <circle r="3" cx="544" cy="-210" fill="#FFC300"/>
      <circle r="3" cx="548" cy="-115" fill="#00FDFF"/>
      <circle r="3" cx="548" cy="-210" fill="#FFC300"/>
      <circle r="3" cx="552" cy="-115" fill="#00FDFF"/>
      <circle r="3" cx="552" cy="-210" fill="#FFC300"/>
      <circle r="3" cx="556" cy="-115" fill="#00FDFF"/>
      <circle r="3" cx="556" cy="-210" fill="#FFC300"/>
      <circle r="3" cx="560" cy="-120" fill="#00FDFF"/>
      <circle r="3" cx="560" cy="-210" fill="#FFC300"/>
      <text x="564"
            y="-120"
            text-anchor="start"
            alignment-baseline="central"
            fill="#00FDFF">divine</text>
      <text x="564"
            y="-210"
            text-anchor="start"
            alignment-baseline="central"
            fill="#FFC300">earthly</text>
      <line x1="0" y1="0" x2="560" y2="0" stroke="black"/>
      <line x1="0" y1="0" x2="0" y2="-260" stroke="black"/>
      <text x="-50"
            y="-105"
            text-anchor="middle"
            font-size="larger"
            transform="rotate(-90 -50 -105)">Occurrences</text>
      <text x="280"
            y="50"
            text-anchor="middle"
            font-size="larger"
            alignment-baseline="baseline">Percentage of Scene</text>
      <text x="280"
            y="-265"
            text-anchor="middle"
            font-size="larger"
            text-decoration="underline">DIVINE AND EARTHLY TRAITS THROUGHOUT SCENE XVI</text>
   </g>
</svg>
