<?xml version="1.0" encoding="UTF-8"?>
<svg xmlns="http://www.w3.org/2000/svg" viewBox="0 -70 566 125">
   <g transform="translate(100, 0)">
      <line x1="-10" y1="-0" x2="0" y2="-0" stroke="black"/>
      <line x1="39.599999999999994"
            y1="-10"
            x2="39.599999999999994"
            y2="10"
            stroke="black"/>
      <line x1="0" y1="-0" x2="396" y2="-0" stroke="lightgrey"/>
      <text x="-15" y="-0" text-anchor="end" alignment-baseline="central">0</text>
      <text x="38.599999999999994"
            y="3"
            text-anchor="end"
            alignment-baseline="hanging">10%</text>
      <line x1="-10" y1="-0" x2="0" y2="-0" stroke="black"/>
      <line x1="79.19999999999999"
            y1="-10"
            x2="79.19999999999999"
            y2="10"
            stroke="black"/>
      <line x1="0" y1="-0" x2="396" y2="-0" stroke="lightgrey"/>
      <text x="-15" y="-0" text-anchor="end" alignment-baseline="central">0</text>
      <text x="78.19999999999999"
            y="3"
            text-anchor="end"
            alignment-baseline="hanging">20%</text>
      <line x1="-10" y1="-0" x2="0" y2="-0" stroke="black"/>
      <line x1="118.80000000000001"
            y1="-10"
            x2="118.80000000000001"
            y2="10"
            stroke="black"/>
      <line x1="0" y1="-0" x2="396" y2="-0" stroke="lightgrey"/>
      <text x="-15" y="-0" text-anchor="end" alignment-baseline="central">0</text>
      <text x="117.80000000000001"
            y="3"
            text-anchor="end"
            alignment-baseline="hanging">30%</text>
      <line x1="-10" y1="-0" x2="0" y2="-0" stroke="black"/>
      <line x1="158.39999999999998"
            y1="-10"
            x2="158.39999999999998"
            y2="10"
            stroke="black"/>
      <line x1="0" y1="-0" x2="396" y2="-0" stroke="lightgrey"/>
      <text x="-15" y="-0" text-anchor="end" alignment-baseline="central">0</text>
      <text x="157.39999999999998"
            y="3"
            text-anchor="end"
            alignment-baseline="hanging">40%</text>
      <line x1="-10" y1="-0" x2="0" y2="-0" stroke="black"/>
      <line x1="198" y1="-10" x2="198" y2="10" stroke="black"/>
      <line x1="0" y1="-0" x2="396" y2="-0" stroke="lightgrey"/>
      <text x="-15" y="-0" text-anchor="end" alignment-baseline="central">0</text>
      <text x="197" y="3" text-anchor="end" alignment-baseline="hanging">50%</text>
      <line x1="-10" y1="-0" x2="0" y2="-0" stroke="black"/>
      <line x1="237.60000000000002"
            y1="-10"
            x2="237.60000000000002"
            y2="10"
            stroke="black"/>
      <line x1="0" y1="-0" x2="396" y2="-0" stroke="lightgrey"/>
      <text x="-15" y="-0" text-anchor="end" alignment-baseline="central">0</text>
      <text x="236.60000000000002"
            y="3"
            text-anchor="end"
            alignment-baseline="hanging">60%</text>
      <line x1="-10" y1="-0" x2="0" y2="-0" stroke="black"/>
      <line x1="277.20000000000005"
            y1="-10"
            x2="277.20000000000005"
            y2="10"
            stroke="black"/>
      <line x1="0" y1="-0" x2="396" y2="-0" stroke="lightgrey"/>
      <text x="-15" y="-0" text-anchor="end" alignment-baseline="central">0</text>
      <text x="276.20000000000005"
            y="3"
            text-anchor="end"
            alignment-baseline="hanging">70%</text>
      <line x1="-10" y1="-0" x2="0" y2="-0" stroke="black"/>
      <line x1="316.79999999999995"
            y1="-10"
            x2="316.79999999999995"
            y2="10"
            stroke="black"/>
      <line x1="0" y1="-0" x2="396" y2="-0" stroke="lightgrey"/>
      <text x="-15" y="-0" text-anchor="end" alignment-baseline="central">0</text>
      <text x="315.79999999999995"
            y="3"
            text-anchor="end"
            alignment-baseline="hanging">80%</text>
      <line x1="-10" y1="-0" x2="0" y2="-0" stroke="black"/>
      <line x1="356.4" y1="-10" x2="356.4" y2="10" stroke="black"/>
      <line x1="0" y1="-0" x2="396" y2="-0" stroke="lightgrey"/>
      <text x="-15" y="-0" text-anchor="end" alignment-baseline="central">0</text>
      <text x="355.4" y="3" text-anchor="end" alignment-baseline="hanging">90%</text>
      <line x1="-10" y1="-0" x2="0" y2="-0" stroke="black"/>
      <line x1="396" y1="-10" x2="396" y2="10" stroke="black"/>
      <line x1="0" y1="-0" x2="396" y2="-0" stroke="lightgrey"/>
      <text x="-15" y="-0" text-anchor="end" alignment-baseline="central">0</text>
      <text x="395" y="3" text-anchor="end" alignment-baseline="hanging">100%</text>
      <line x1="-10" y1="0" x2="0" y2="0" stroke="black"/>
      <text x="-15" y="0" text-anchor="end" alignment-baseline="central">0</text>
      <circle r="3" cx="12" cy="-0" fill="#00FDFF"/>
      <circle r="3" cx="12" cy="-0" fill="#FFC300"/>
      <circle r="3" cx="12" cy="-0" fill="magenta"/>
      <circle r="3" cx="24" cy="-0" fill="#00FDFF"/>
      <circle r="3" cx="24" cy="-0" fill="#FFC300"/>
      <circle r="3" cx="24" cy="-0" fill="magenta"/>
      <circle r="3" cx="36" cy="-0" fill="#00FDFF"/>
      <circle r="3" cx="36" cy="-0" fill="#FFC300"/>
      <circle r="3" cx="36" cy="-0" fill="magenta"/>
      <circle r="3" cx="48" cy="-0" fill="#00FDFF"/>
      <circle r="3" cx="48" cy="-0" fill="#FFC300"/>
      <circle r="3" cx="48" cy="-0" fill="magenta"/>
      <circle r="3" cx="60" cy="-0" fill="#00FDFF"/>
      <circle r="3" cx="60" cy="-0" fill="#FFC300"/>
      <circle r="3" cx="60" cy="-0" fill="magenta"/>
      <circle r="3" cx="72" cy="-0" fill="#00FDFF"/>
      <circle r="3" cx="72" cy="-0" fill="#FFC300"/>
      <circle r="3" cx="72" cy="-0" fill="magenta"/>
      <circle r="3" cx="84" cy="-0" fill="#00FDFF"/>
      <circle r="3" cx="84" cy="-0" fill="#FFC300"/>
      <circle r="3" cx="84" cy="-0" fill="magenta"/>
      <circle r="3" cx="96" cy="-0" fill="#00FDFF"/>
      <circle r="3" cx="96" cy="-0" fill="#FFC300"/>
      <circle r="3" cx="96" cy="-0" fill="magenta"/>
      <circle r="3" cx="108" cy="-0" fill="#00FDFF"/>
      <circle r="3" cx="108" cy="-0" fill="#FFC300"/>
      <circle r="3" cx="108" cy="-0" fill="magenta"/>
      <circle r="3" cx="120" cy="-0" fill="#00FDFF"/>
      <circle r="3" cx="120" cy="-0" fill="#FFC300"/>
      <circle r="3" cx="120" cy="-0" fill="magenta"/>
      <circle r="3" cx="132" cy="-0" fill="#00FDFF"/>
      <circle r="3" cx="132" cy="-0" fill="#FFC300"/>
      <circle r="3" cx="132" cy="-0" fill="magenta"/>
      <circle r="3" cx="144" cy="-0" fill="#00FDFF"/>
      <circle r="3" cx="144" cy="-0" fill="#FFC300"/>
      <circle r="3" cx="144" cy="-0" fill="magenta"/>
      <circle r="3" cx="156" cy="-0" fill="#00FDFF"/>
      <circle r="3" cx="156" cy="-0" fill="#FFC300"/>
      <circle r="3" cx="156" cy="-0" fill="magenta"/>
      <circle r="3" cx="168" cy="-0" fill="#00FDFF"/>
      <circle r="3" cx="168" cy="-0" fill="#FFC300"/>
      <circle r="3" cx="168" cy="-0" fill="magenta"/>
      <circle r="3" cx="180" cy="-0" fill="#00FDFF"/>
      <circle r="3" cx="180" cy="-0" fill="#FFC300"/>
      <circle r="3" cx="180" cy="-0" fill="magenta"/>
      <circle r="3" cx="192" cy="-0" fill="#00FDFF"/>
      <circle r="3" cx="192" cy="-0" fill="#FFC300"/>
      <circle r="3" cx="192" cy="-0" fill="magenta"/>
      <circle r="3" cx="204" cy="-0" fill="#00FDFF"/>
      <circle r="3" cx="204" cy="-0" fill="#FFC300"/>
      <circle r="3" cx="204" cy="-0" fill="magenta"/>
      <circle r="3" cx="216" cy="-0" fill="#00FDFF"/>
      <circle r="3" cx="216" cy="-0" fill="#FFC300"/>
      <circle r="3" cx="216" cy="-0" fill="magenta"/>
      <circle r="3" cx="228" cy="-0" fill="#00FDFF"/>
      <circle r="3" cx="228" cy="-0" fill="#FFC300"/>
      <circle r="3" cx="228" cy="-0" fill="magenta"/>
      <circle r="3" cx="240" cy="-0" fill="#00FDFF"/>
      <circle r="3" cx="240" cy="-0" fill="#FFC300"/>
      <circle r="3" cx="240" cy="-0" fill="magenta"/>
      <circle r="3" cx="252" cy="-0" fill="#00FDFF"/>
      <circle r="3" cx="252" cy="-0" fill="#FFC300"/>
      <circle r="3" cx="252" cy="-0" fill="magenta"/>
      <circle r="3" cx="264" cy="-0" fill="#00FDFF"/>
      <circle r="3" cx="264" cy="-0" fill="#FFC300"/>
      <circle r="3" cx="264" cy="-0" fill="magenta"/>
      <circle r="3" cx="276" cy="-0" fill="#00FDFF"/>
      <circle r="3" cx="276" cy="-0" fill="#FFC300"/>
      <circle r="3" cx="276" cy="-0" fill="magenta"/>
      <circle r="3" cx="288" cy="-0" fill="#00FDFF"/>
      <circle r="3" cx="288" cy="-0" fill="#FFC300"/>
      <circle r="3" cx="288" cy="-0" fill="magenta"/>
      <circle r="3" cx="300" cy="-0" fill="#00FDFF"/>
      <circle r="3" cx="300" cy="-0" fill="#FFC300"/>
      <circle r="3" cx="300" cy="-0" fill="magenta"/>
      <circle r="3" cx="312" cy="-0" fill="#00FDFF"/>
      <circle r="3" cx="312" cy="-0" fill="#FFC300"/>
      <circle r="3" cx="312" cy="-0" fill="magenta"/>
      <circle r="3" cx="324" cy="-0" fill="#00FDFF"/>
      <circle r="3" cx="324" cy="-0" fill="#FFC300"/>
      <circle r="3" cx="324" cy="-0" fill="magenta"/>
      <circle r="3" cx="336" cy="-0" fill="#00FDFF"/>
      <circle r="3" cx="336" cy="-0" fill="#FFC300"/>
      <circle r="3" cx="336" cy="-0" fill="magenta"/>
      <circle r="3" cx="348" cy="-0" fill="#00FDFF"/>
      <circle r="3" cx="348" cy="-0" fill="#FFC300"/>
      <circle r="3" cx="348" cy="-0" fill="magenta"/>
      <circle r="3" cx="360" cy="-0" fill="#00FDFF"/>
      <circle r="3" cx="360" cy="-0" fill="#FFC300"/>
      <circle r="3" cx="360" cy="-0" fill="magenta"/>
      <circle r="3" cx="372" cy="-0" fill="#00FDFF"/>
      <circle r="3" cx="372" cy="-0" fill="#FFC300"/>
      <circle r="3" cx="372" cy="-0" fill="magenta"/>
      <circle r="3" cx="384" cy="-0" fill="#00FDFF"/>
      <circle r="3" cx="384" cy="-0" fill="#FFC300"/>
      <circle r="3" cx="384" cy="-0" fill="magenta"/>
      <circle r="3" cx="396" cy="-0" fill="#00FDFF"/>
      <circle r="3" cx="396" cy="-0" fill="#FFC300"/>
      <circle r="3" cx="396" cy="-0" fill="magenta"/>
      <text x="420"
            y="-7"
            text-anchor="start"
            alignment-baseline="central"
            fill="#00FDFF">divine</text>
      <text x="420"
            y="--7"
            text-anchor="start"
            alignment-baseline="central"
            fill="#FFC300">earthly</text>
      <line x1="0" y1="0" x2="396" y2="0" stroke="black"/>
      <line x1="0" y1="0" x2="0" y2="-50" stroke="black"/>
      <text x="-50"
            y="-0"
            text-anchor="middle"
            font-size="larger"
            transform="rotate(-90 -50 -0)">Occurrences</text>
      <text x="198"
            y="50"
            text-anchor="middle"
            font-size="larger"
            alignment-baseline="baseline">Percentage of Scene</text>
      <text x="198"
            y="-55"
            text-anchor="middle"
            font-size="larger"
            text-decoration="underline">DIVINE AND EARTHLY TRAITS THROUGHOUT SCENE XVIII</text>
   </g>
</svg>
