<?xml version="1.0" encoding="UTF-8"?>
<svg xmlns="http://www.w3.org/2000/svg" viewBox="0 -70 650 125">
   <g transform="translate(100, 0)">
      <line x1="-10" y1="-0" x2="0" y2="-0" stroke="black"/>
      <line x1="48" y1="-10" x2="48" y2="10" stroke="black"/>
      <line x1="0" y1="-0" x2="480" y2="-0" stroke="lightgrey"/>
      <text x="-15" y="-0" text-anchor="end" alignment-baseline="central">0</text>
      <text x="47" y="3" text-anchor="end" alignment-baseline="hanging">10%</text>
      <line x1="-10" y1="-0" x2="0" y2="-0" stroke="black"/>
      <line x1="96" y1="-10" x2="96" y2="10" stroke="black"/>
      <line x1="0" y1="-0" x2="480" y2="-0" stroke="lightgrey"/>
      <text x="-15" y="-0" text-anchor="end" alignment-baseline="central">0</text>
      <text x="95" y="3" text-anchor="end" alignment-baseline="hanging">20%</text>
      <line x1="-10" y1="-0" x2="0" y2="-0" stroke="black"/>
      <line x1="144" y1="-10" x2="144" y2="10" stroke="black"/>
      <line x1="0" y1="-0" x2="480" y2="-0" stroke="lightgrey"/>
      <text x="-15" y="-0" text-anchor="end" alignment-baseline="central">0</text>
      <text x="143" y="3" text-anchor="end" alignment-baseline="hanging">30%</text>
      <line x1="-10" y1="-0" x2="0" y2="-0" stroke="black"/>
      <line x1="192" y1="-10" x2="192" y2="10" stroke="black"/>
      <line x1="0" y1="-0" x2="480" y2="-0" stroke="lightgrey"/>
      <text x="-15" y="-0" text-anchor="end" alignment-baseline="central">0</text>
      <text x="191" y="3" text-anchor="end" alignment-baseline="hanging">40%</text>
      <line x1="-10" y1="-0" x2="0" y2="-0" stroke="black"/>
      <line x1="240" y1="-10" x2="240" y2="10" stroke="black"/>
      <line x1="0" y1="-0" x2="480" y2="-0" stroke="lightgrey"/>
      <text x="-15" y="-0" text-anchor="end" alignment-baseline="central">0</text>
      <text x="239" y="3" text-anchor="end" alignment-baseline="hanging">50%</text>
      <line x1="-10" y1="-0" x2="0" y2="-0" stroke="black"/>
      <line x1="288" y1="-10" x2="288" y2="10" stroke="black"/>
      <line x1="0" y1="-0" x2="480" y2="-0" stroke="lightgrey"/>
      <text x="-15" y="-0" text-anchor="end" alignment-baseline="central">0</text>
      <text x="287" y="3" text-anchor="end" alignment-baseline="hanging">60%</text>
      <line x1="-10" y1="-0" x2="0" y2="-0" stroke="black"/>
      <line x1="336" y1="-10" x2="336" y2="10" stroke="black"/>
      <line x1="0" y1="-0" x2="480" y2="-0" stroke="lightgrey"/>
      <text x="-15" y="-0" text-anchor="end" alignment-baseline="central">0</text>
      <text x="335" y="3" text-anchor="end" alignment-baseline="hanging">70%</text>
      <line x1="-10" y1="-0" x2="0" y2="-0" stroke="black"/>
      <line x1="384" y1="-10" x2="384" y2="10" stroke="black"/>
      <line x1="0" y1="-0" x2="480" y2="-0" stroke="lightgrey"/>
      <text x="-15" y="-0" text-anchor="end" alignment-baseline="central">0</text>
      <text x="383" y="3" text-anchor="end" alignment-baseline="hanging">80%</text>
      <line x1="-10" y1="-0" x2="0" y2="-0" stroke="black"/>
      <line x1="432" y1="-10" x2="432" y2="10" stroke="black"/>
      <line x1="0" y1="-0" x2="480" y2="-0" stroke="lightgrey"/>
      <text x="-15" y="-0" text-anchor="end" alignment-baseline="central">0</text>
      <text x="431" y="3" text-anchor="end" alignment-baseline="hanging">90%</text>
      <line x1="-10" y1="-0" x2="0" y2="-0" stroke="black"/>
      <line x1="480" y1="-10" x2="480" y2="10" stroke="black"/>
      <line x1="0" y1="-0" x2="480" y2="-0" stroke="lightgrey"/>
      <text x="-15" y="-0" text-anchor="end" alignment-baseline="central">0</text>
      <text x="479" y="3" text-anchor="end" alignment-baseline="hanging">100%</text>
      <line x1="-10" y1="0" x2="0" y2="0" stroke="black"/>
      <text x="-15" y="0" text-anchor="end" alignment-baseline="central">0</text>
      <circle r="3" cx="12" cy="-0" fill="#00FDFF"/>
      <circle r="3" cx="12" cy="-0" fill="#FFC300"/>
      <circle r="3" cx="12" cy="-0" fill="magenta"/>
      <circle r="3" cx="24" cy="-0" fill="#00FDFF"/>
      <circle r="3" cx="24" cy="-0" fill="#FFC300"/>
      <circle r="3" cx="24" cy="-0" fill="magenta"/>
      <circle r="3" cx="36" cy="-0" fill="#00FDFF"/>
      <circle r="3" cx="36" cy="-0" fill="#FFC300"/>
      <circle r="3" cx="36" cy="-0" fill="magenta"/>
      <circle r="3" cx="48" cy="-0" fill="#00FDFF"/>
      <circle r="3" cx="48" cy="-0" fill="#FFC300"/>
      <circle r="3" cx="48" cy="-0" fill="magenta"/>
      <circle r="3" cx="60" cy="-0" fill="#00FDFF"/>
      <circle r="3" cx="60" cy="-0" fill="#FFC300"/>
      <circle r="3" cx="60" cy="-0" fill="magenta"/>
      <circle r="3" cx="72" cy="-0" fill="#00FDFF"/>
      <circle r="3" cx="72" cy="-0" fill="#FFC300"/>
      <circle r="3" cx="72" cy="-0" fill="magenta"/>
      <circle r="3" cx="84" cy="-0" fill="#00FDFF"/>
      <circle r="3" cx="84" cy="-0" fill="#FFC300"/>
      <circle r="3" cx="84" cy="-0" fill="magenta"/>
      <circle r="3" cx="96" cy="-0" fill="#00FDFF"/>
      <circle r="3" cx="96" cy="-0" fill="#FFC300"/>
      <circle r="3" cx="96" cy="-0" fill="magenta"/>
      <circle r="3" cx="108" cy="-0" fill="#00FDFF"/>
      <circle r="3" cx="108" cy="-0" fill="#FFC300"/>
      <circle r="3" cx="108" cy="-0" fill="magenta"/>
      <circle r="3" cx="120" cy="-0" fill="#00FDFF"/>
      <circle r="3" cx="120" cy="-0" fill="#FFC300"/>
      <circle r="3" cx="120" cy="-0" fill="magenta"/>
      <circle r="3" cx="132" cy="-0" fill="#00FDFF"/>
      <circle r="3" cx="132" cy="-0" fill="#FFC300"/>
      <circle r="3" cx="132" cy="-0" fill="magenta"/>
      <circle r="3" cx="144" cy="-0" fill="#00FDFF"/>
      <circle r="3" cx="144" cy="-0" fill="#FFC300"/>
      <circle r="3" cx="144" cy="-0" fill="magenta"/>
      <circle r="3" cx="156" cy="-0" fill="#00FDFF"/>
      <circle r="3" cx="156" cy="-0" fill="#FFC300"/>
      <circle r="3" cx="156" cy="-0" fill="magenta"/>
      <circle r="3" cx="168" cy="-0" fill="#00FDFF"/>
      <circle r="3" cx="168" cy="-0" fill="#FFC300"/>
      <circle r="3" cx="168" cy="-0" fill="magenta"/>
      <circle r="3" cx="180" cy="-0" fill="#00FDFF"/>
      <circle r="3" cx="180" cy="-0" fill="#FFC300"/>
      <circle r="3" cx="180" cy="-0" fill="magenta"/>
      <circle r="3" cx="192" cy="-0" fill="#00FDFF"/>
      <circle r="3" cx="192" cy="-0" fill="#FFC300"/>
      <circle r="3" cx="192" cy="-0" fill="magenta"/>
      <circle r="3" cx="204" cy="-0" fill="#00FDFF"/>
      <circle r="3" cx="204" cy="-0" fill="#FFC300"/>
      <circle r="3" cx="204" cy="-0" fill="magenta"/>
      <circle r="3" cx="216" cy="-0" fill="#00FDFF"/>
      <circle r="3" cx="216" cy="-0" fill="#FFC300"/>
      <circle r="3" cx="216" cy="-0" fill="magenta"/>
      <circle r="3" cx="228" cy="-0" fill="#00FDFF"/>
      <circle r="3" cx="228" cy="-0" fill="#FFC300"/>
      <circle r="3" cx="228" cy="-0" fill="magenta"/>
      <circle r="3" cx="240" cy="-0" fill="#00FDFF"/>
      <circle r="3" cx="240" cy="-0" fill="#FFC300"/>
      <circle r="3" cx="240" cy="-0" fill="magenta"/>
      <circle r="3" cx="252" cy="-0" fill="#00FDFF"/>
      <circle r="3" cx="252" cy="-0" fill="#FFC300"/>
      <circle r="3" cx="252" cy="-0" fill="magenta"/>
      <circle r="3" cx="264" cy="-0" fill="#00FDFF"/>
      <circle r="3" cx="264" cy="-0" fill="#FFC300"/>
      <circle r="3" cx="264" cy="-0" fill="magenta"/>
      <circle r="3" cx="276" cy="-0" fill="#00FDFF"/>
      <circle r="3" cx="276" cy="-0" fill="#FFC300"/>
      <circle r="3" cx="276" cy="-0" fill="magenta"/>
      <circle r="3" cx="288" cy="-0" fill="#00FDFF"/>
      <circle r="3" cx="288" cy="-0" fill="#FFC300"/>
      <circle r="3" cx="288" cy="-0" fill="magenta"/>
      <circle r="3" cx="300" cy="-0" fill="#00FDFF"/>
      <circle r="3" cx="300" cy="-0" fill="#FFC300"/>
      <circle r="3" cx="300" cy="-0" fill="magenta"/>
      <circle r="3" cx="312" cy="-0" fill="#00FDFF"/>
      <circle r="3" cx="312" cy="-0" fill="#FFC300"/>
      <circle r="3" cx="312" cy="-0" fill="magenta"/>
      <circle r="3" cx="324" cy="-0" fill="#00FDFF"/>
      <circle r="3" cx="324" cy="-0" fill="#FFC300"/>
      <circle r="3" cx="324" cy="-0" fill="magenta"/>
      <circle r="3" cx="336" cy="-0" fill="#00FDFF"/>
      <circle r="3" cx="336" cy="-0" fill="#FFC300"/>
      <circle r="3" cx="336" cy="-0" fill="magenta"/>
      <circle r="3" cx="348" cy="-0" fill="#00FDFF"/>
      <circle r="3" cx="348" cy="-0" fill="#FFC300"/>
      <circle r="3" cx="348" cy="-0" fill="magenta"/>
      <circle r="3" cx="360" cy="-0" fill="#00FDFF"/>
      <circle r="3" cx="360" cy="-0" fill="#FFC300"/>
      <circle r="3" cx="360" cy="-0" fill="magenta"/>
      <circle r="3" cx="372" cy="-0" fill="#00FDFF"/>
      <circle r="3" cx="372" cy="-0" fill="#FFC300"/>
      <circle r="3" cx="372" cy="-0" fill="magenta"/>
      <circle r="3" cx="384" cy="-0" fill="#00FDFF"/>
      <circle r="3" cx="384" cy="-0" fill="#FFC300"/>
      <circle r="3" cx="384" cy="-0" fill="magenta"/>
      <circle r="3" cx="396" cy="-0" fill="#00FDFF"/>
      <circle r="3" cx="396" cy="-0" fill="#FFC300"/>
      <circle r="3" cx="396" cy="-0" fill="magenta"/>
      <circle r="3" cx="408" cy="-0" fill="#00FDFF"/>
      <circle r="3" cx="408" cy="-0" fill="#FFC300"/>
      <circle r="3" cx="408" cy="-0" fill="magenta"/>
      <circle r="3" cx="420" cy="-0" fill="#00FDFF"/>
      <circle r="3" cx="420" cy="-0" fill="#FFC300"/>
      <circle r="3" cx="420" cy="-0" fill="magenta"/>
      <circle r="3" cx="432" cy="-0" fill="#00FDFF"/>
      <circle r="3" cx="432" cy="-0" fill="#FFC300"/>
      <circle r="3" cx="432" cy="-0" fill="magenta"/>
      <circle r="3" cx="444" cy="-0" fill="#00FDFF"/>
      <circle r="3" cx="444" cy="-0" fill="#FFC300"/>
      <circle r="3" cx="444" cy="-0" fill="magenta"/>
      <circle r="3" cx="456" cy="-0" fill="#00FDFF"/>
      <circle r="3" cx="456" cy="-0" fill="#FFC300"/>
      <circle r="3" cx="456" cy="-0" fill="magenta"/>
      <circle r="3" cx="468" cy="-0" fill="#00FDFF"/>
      <circle r="3" cx="468" cy="-0" fill="#FFC300"/>
      <circle r="3" cx="468" cy="-0" fill="magenta"/>
      <circle r="3" cx="480" cy="-0" fill="#00FDFF"/>
      <circle r="3" cx="480" cy="-0" fill="#FFC300"/>
      <circle r="3" cx="480" cy="-0" fill="magenta"/>
      <text x="504"
            y="-7"
            text-anchor="start"
            alignment-baseline="central"
            fill="#00FDFF">divine</text>
      <text x="504"
            y="--7"
            text-anchor="start"
            alignment-baseline="central"
            fill="#FFC300">earthly</text>
      <line x1="0" y1="0" x2="480" y2="0" stroke="black"/>
      <line x1="0" y1="0" x2="0" y2="-50" stroke="black"/>
      <text x="-50"
            y="-0"
            text-anchor="middle"
            font-size="larger"
            transform="rotate(-90 -50 -0)">Occurrences</text>
      <text x="240"
            y="50"
            text-anchor="middle"
            font-size="larger"
            alignment-baseline="baseline">Percentage of Scene</text>
      <text x="240"
            y="-55"
            text-anchor="middle"
            font-size="larger"
            text-decoration="underline">DIVINE AND EARTHLY TRAITS THROUGHOUT SCENE XV</text>
   </g>
</svg>
